<?xml version="1.0" encoding="utf-8"?>
<!-- Generator: Adobe Illustrator 26.1.0, SVG Export Plug-In . SVG Version: 6.00 Build 0)  -->
<svg version="1.1" id="Camada_1" xmlns="http://www.w3.org/2000/svg" xmlns:xlink="http://www.w3.org/1999/xlink" x="0px" y="0px"
	 viewBox="0 0 1921 1081" style="enable-background:new 0 0 1921 1081;" xml:space="preserve">
<style type="text/css">
	.st0{fill:none;stroke:#23B4B9;stroke-width:3;stroke-miterlimit:10;}
	.st1{clip-path:url(#SVGID_00000150780926327461573670000016527369452362663358_);fill:#FFFFFF;}
	.st2{clip-path:url(#SVGID_00000150780926327461573670000016527369452362663358_);}
	.st3{fill:#FFFFFF;}
	.st4{fill:none;}
	.st5{fill:#3F5EA8;}
	.st6{fill:#39559A;}
	.st7{fill:#354C8C;}
	.st8{fill:#31447F;}
	.st9{fill:#2C3C73;}
	.st10{fill:#283467;}
	.st11{fill:#232D5C;}
	.st12{fill:#1F2752;}
	.st13{fill:#A0C529;}
	.st14{fill:none;stroke:#A0C529;stroke-width:3;stroke-miterlimit:10;}
	.st15{fill:#EE7A25;}
	.st16{fill:none;stroke:#F2BA29;stroke-width:3;stroke-miterlimit:10;}
	.st17{fill:#72BB7C;}
	.st18{fill:#F2BA29;}
	.st19{fill:#2CB4AF;}
</style>
<circle class="st0" cx="1819.1" cy="79.9" r="36.9"/>
<g>
	<defs>
		<rect id="SVGID_1_" x="-3.2" y="0" width="1921" height="1081"/>
	</defs>
	<clipPath id="SVGID_00000180365648389576648660000010014570124175585933_">
		<use xlink:href="#SVGID_1_"  style="overflow:visible;"/>
	</clipPath>
	<path style="clip-path:url(#SVGID_00000180365648389576648660000010014570124175585933_);fill:#FFFFFF;" d="M1849.2,369.4
		c-0.9,0-1.6,0.7-1.6,1.7c0,0.9,0.7,1.6,1.6,1.6C1851.3,372.6,1851.3,369.4,1849.2,369.4z"/>
	<path style="clip-path:url(#SVGID_00000180365648389576648660000010014570124175585933_);fill:#FFFFFF;" d="M1785.7,840.9
		c-1.9-3.8-7.7-0.8-5.8,2.9S1787.6,844.6,1785.7,840.9z"/>
	<path style="clip-path:url(#SVGID_00000180365648389576648660000010014570124175585933_);fill:#FFFFFF;" d="M1819.8,1045
		c2.5-3.4-2.7-7.3-5.2-3.9S1817.2,1048.3,1819.8,1045z"/>
	<path style="clip-path:url(#SVGID_00000180365648389576648660000010014570124175585933_);fill:#FFFFFF;" d="M1822.6,1012.1
		c0.9,0.1,1.7-0.5,1.9-1.4c0.1-0.8-0.4-1.6-1.2-1.9c-0.9-0.1-1.7,0.5-1.9,1.4C1821.3,1011,1821.8,1011.8,1822.6,1012.1z"/>
	<path style="clip-path:url(#SVGID_00000180365648389576648660000010014570124175585933_);fill:#FFFFFF;" d="M1897.2,970.3
		c6.2,1.3,8.2-8.3,2-9.6S1891,968.9,1897.2,970.3z"/>
	<path style="clip-path:url(#SVGID_00000180365648389576648660000010014570124175585933_);fill:#FFFFFF;" d="M1777.5,910.8
		c-6.3,0-6.3,9.8,0,9.8S1783.8,910.8,1777.5,910.8z"/>
	<path style="clip-path:url(#SVGID_00000180365648389576648660000010014570124175585933_);fill:#FFFFFF;" d="M1857.8,688.5
		c-4.6-4.3-11.3,2.7-6.7,7.1S1862.4,692.8,1857.8,688.5z"/>
	<path style="clip-path:url(#SVGID_00000180365648389576648660000010014570124175585933_);fill:#FFFFFF;" d="M1771,521.3
		c-6.1-5.8-15.1,3.7-9,9.4S1777.1,527.1,1771,521.3z"/>
	<g style="clip-path:url(#SVGID_00000180365648389576648660000010014570124175585933_);">
		<path class="st3" d="M987.6,16.6c-7.7,0-7.7,12,0,12S995.3,16.6,987.6,16.6z"/>
		<path class="st3" d="M1146.3,23.5c-3.8,0-3.8,6,0,6S1150.2,23.5,1146.3,23.5z"/>
		<path class="st3" d="M1282.7,13.8c-0.6,0-1,0.4-1,1s0.4,1,1,1s1-0.4,1-1S1283.2,13.8,1282.7,13.8z"/>
		<path class="st3" d="M30,140.1c0.5-0.3,0.7-0.9,0.4-1.4c-0.3-0.5-0.9-0.7-1.4-0.4l0,0c-0.5,0.3-0.7,0.9-0.4,1.4
			C28.9,140.2,29.5,140.4,30,140.1z"/>
		<path class="st3" d="M63.1,224c0.5-0.3,0.7-0.9,0.4-1.4s-0.9-0.7-1.4-0.4s-0.7,0.9-0.4,1.4S62.6,224.3,63.1,224z"/>
		<rect y="0" class="st4" width="1921" height="1081"/>
		<rect y="0" class="st4" width="1921" height="1081"/>
		<rect x="10.7" y="-2.7" class="st5" width="1962.6" height="1294"/>
		<rect y="0" class="st4" width="1921" height="1081"/>
		<rect x="-27.6" y="-169.4" class="st4" width="1960.5" height="1292.6"/>
		<circle class="st6" cx="724.4" cy="-233.7" r="1584.6"/>
		<rect x="-27.6" y="-169.4" class="st4" width="1960.5" height="1292.6"/>
		<circle class="st7" cx="491.4" cy="-401.2" r="1584.6"/>
		<rect x="-27.6" y="-169.4" class="st4" width="1960.5" height="1292.6"/>
		<circle class="st8" cx="258.5" cy="-568.6" r="1584.6"/>
		<rect x="-27.6" y="-169.4" class="st4" width="1960.5" height="1292.6"/>
		<circle class="st9" cx="25.5" cy="-736.1" r="1584.6"/>
		<rect x="-27.6" y="-169.4" class="st4" width="1960.5" height="1292.6"/>
		<circle class="st10" cx="-207.5" cy="-903.5" r="1584.6"/>
		<circle class="st11" cx="-440.4" cy="-1071" r="1584.6"/>
		<circle class="st12" cx="-673.4" cy="-1238.5" r="1584.6"/>
		<rect y="0" class="st4" width="1921" height="1081"/>
		<circle class="st13" cx="1310.5" cy="222.4" r="27.5"/>
		<rect y="0" class="st4" width="1921" height="1081"/>
		<circle class="st14" cx="680.4" cy="5.1" r="83.2"/>
		<rect y="0" class="st4" width="1921" height="1081"/>
		<rect y="0" class="st4" width="1921" height="1081"/>
		<rect y="0" class="st4" width="1921" height="1081"/>
		<circle class="st15" cx="1699.6" cy="984.8" r="38.4"/>
		<rect y="0" class="st4" width="1921" height="1081"/>
		<rect y="0" class="st4" width="1921" height="1081"/>
		<rect y="0" class="st4" width="1921" height="1081"/>
		<circle class="st16" cx="1569.1" cy="692" r="118.5"/>
		<rect y="0" class="st4" width="1921" height="1081"/>
		<rect y="0" class="st4" width="1921" height="1081"/>
		<circle class="st0" cx="154.8" cy="977.5" r="30.3"/>
		<rect y="0" class="st4" width="1921" height="1081"/>
		<circle class="st17" cx="1361.8" cy="977.5" r="11.9"/>
		<rect y="0" class="st4" width="1921" height="1081"/>
		<rect y="0" class="st4" width="1921" height="1081"/>
		
			<ellipse transform="matrix(0.9939 -0.1104 0.1104 0.9939 -71.3502 14.7293)" class="st13" cx="97.3" cy="651.5" rx="40.4" ry="40.4"/>
		<rect y="0" class="st4" width="1921" height="1081"/>
		<circle class="st18" cx="137.8" cy="222.4" r="118.5"/>
		<rect y="0" class="st4" width="1921" height="1081"/>
		<rect y="0" class="st4" width="1921" height="1081"/>
		<rect y="0" class="st4" width="1921" height="1081"/>
		<rect y="0" class="st4" width="1921" height="1081"/>
		<rect y="0" class="st4" width="1921" height="1081"/>
		<circle class="st19" cx="1712.1" cy="181.7" r="129.4"/>
		<rect y="0" class="st4" width="1921" height="1081"/>
		<circle class="st19" cx="442.1" cy="218.1" r="27.6"/>
		<rect y="0" class="st4" width="1921" height="1081"/>
		<rect y="0" class="st4" width="1921" height="1081"/>
		<rect y="0" class="st4" width="1921" height="1081"/>
		<path class="st3" d="M422.8,161.3c-8.4,0-8.4,13,0,13S431.2,161.3,422.8,161.3z"/>
		<rect y="0" class="st4" width="1921" height="1081"/>
		<rect y="0" class="st4" width="1921" height="1081"/>
		<rect y="0" class="st4" width="1921" height="1081"/>
		<rect y="0" class="st4" width="1921" height="1081"/>
		<rect y="0" class="st4" width="1921" height="1081"/>
		<rect y="0" class="st4" width="1921" height="1081"/>
		<rect y="0" class="st4" width="1921" height="1081"/>
		<rect y="0" class="st4" width="1921" height="1081"/>
		<rect y="0" class="st4" width="1921" height="1081"/>
		<rect y="0" class="st4" width="1921" height="1081"/>
		<rect y="0" class="st4" width="1921" height="1081"/>
		<rect y="0" class="st4" width="1921" height="1081"/>
		<path class="st3" d="M71.9,88.6c-12.6,0-12.6,19.6,0,19.6S84.5,88.6,71.9,88.6z"/>
		<rect y="0" class="st4" width="1921" height="1081"/>
		<path class="st3" d="M56.7,123.3c-12.6,0-12.6,19.6,0,19.6S69.3,123.3,56.7,123.3z"/>
		<rect y="0" class="st4" width="1921" height="1081"/>
		<rect y="0" class="st4" width="1921" height="1081"/>
		<rect y="0" class="st4" width="1921" height="1081"/>
		<rect y="0" class="st4" width="1921" height="1081"/>
		<rect y="0" class="st4" width="1921" height="1081"/>
		<rect y="0" class="st4" width="1921" height="1081"/>
		<rect y="0" class="st4" width="1921" height="1081"/>
		<path class="st3" d="M1388.5,118.4c-0.9,0-1.7,0.7-1.7,1.7s0.7,1.7,1.7,1.7s1.7-0.7,1.7-1.7S1389.4,118.4,1388.5,118.4z"/>
		<rect y="0" class="st4" width="1921" height="1081"/>
		<path class="st3" d="M1506.9,243c-0.9,0-1.7,0.7-1.7,1.6c0,0.9,0.7,1.7,1.7,1.7l0,0C1509,246.2,1509,243,1506.9,243z"/>
		<rect y="0" class="st4" width="1921" height="1081"/>
		<rect y="0" class="st4" width="1921" height="1081"/>
		<rect y="0" class="st4" width="1921" height="1081"/>
		<path class="st3" d="M577,159.7c-0.9,0-1.7,0.7-1.7,1.7c0,0.9,0.7,1.6,1.7,1.6l0,0c0.9,0,1.7-0.7,1.7-1.6
			C578.7,160.4,577.9,159.7,577,159.7z"/>
		<rect y="0" class="st4" width="1921" height="1081"/>
		<path class="st3" d="M510.8,685.1c-0.9,0-1.6,0.7-1.6,1.7c0,0.9,0.7,1.6,1.6,1.6C512.9,688.3,512.9,685.1,510.8,685.1z"/>
		<rect y="0" class="st4" width="1921" height="1081"/>
		<path class="st3" d="M174,744.8c-0.9,0-1.6,0.7-1.6,1.7c0,0.9,0.7,1.6,1.6,1.6c0.9,0,1.6-0.7,1.6-1.7
			C175.6,745.5,174.9,744.8,174,744.8z"/>
		<rect y="0" class="st4" width="1921" height="1081"/>
		<path class="st3" d="M41.5,453.7c-0.9,0-1.6,0.7-1.6,1.7c0,0.9,0.7,1.6,1.6,1.6c0.9,0,1.6-0.7,1.6-1.7
			C43.1,454.4,42.4,453.7,41.5,453.7z"/>
		<rect y="0" class="st4" width="1921" height="1081"/>
		<path class="st3" d="M368.5,290.8c-0.9,0-1.6,0.7-1.6,1.7c0,0.9,0.7,1.6,1.6,1.6C370.6,294,370.6,290.8,368.5,290.8z"/>
		<rect y="0" class="st4" width="1921" height="1081"/>
		<path class="st3" d="M238.1,71.7c-0.9,0-1.6,0.7-1.6,1.7s0.7,1.7,1.6,1.7s1.7-0.7,1.7-1.7S239,71.7,238.1,71.7L238.1,71.7z"/>
		<rect y="0" class="st4" width="1921" height="1081"/>
		<path class="st3" d="M1659.1,360.7c-0.9,0-1.6,0.7-1.6,1.7c0,0.9,0.7,1.6,1.6,1.6c0.9,0,1.6-0.7,1.6-1.7
			C1660.7,361.4,1660,360.7,1659.1,360.7z"/>
		<rect y="0" class="st4" width="1921" height="1081"/>
		<path class="st3" d="M5.6,755.7c-0.9,0-1.6,0.7-1.6,1.7c0,0.9,0.7,1.6,1.6,1.6C7.7,758.9,7.7,755.7,5.6,755.7z"/>
		<rect y="0" class="st4" width="1921" height="1081"/>
		<path class="st3" d="M45.8,1069.6c-0.9,0-1.7,0.7-1.7,1.7s0.7,1.7,1.7,1.7s1.7-0.7,1.7-1.7S46.7,1069.6,45.8,1069.6L45.8,1069.6z"
			/>
		<rect y="0" class="st4" width="1921" height="1081"/>
		<path class="st3" d="M64.3,924.1c-0.9,0-1.6,0.7-1.6,1.7c0,0.9,0.7,1.6,1.6,1.6C66.4,927.3,66.4,924.1,64.3,924.1z"/>
		<rect y="0" class="st4" width="1921" height="1081"/>
		<path class="st3" d="M159.9,945.8c-0.9,0-1.6,0.7-1.6,1.7c0,0.9,0.7,1.6,1.6,1.6C162,949,162,945.8,159.9,945.8z"/>
		<rect y="0" class="st4" width="1921" height="1081"/>
		<path class="st3" d="M161,963.2c-0.9,0-1.6,0.7-1.6,1.7c0,0.9,0.7,1.6,1.6,1.6C163.1,966.4,163.1,963.2,161,963.2z"/>
		<rect y="0" class="st4" width="1921" height="1081"/>
		<path class="st3" d="M221.8,937.1c-0.9,0-1.6,0.7-1.6,1.7c0,0.9,0.7,1.6,1.6,1.6C223.9,940.3,223.9,937.1,221.8,937.1z"/>
		<rect y="0" class="st4" width="1921" height="1081"/>
		<rect y="0" class="st4" width="1921" height="1081"/>
		<rect y="0" class="st4" width="1921" height="1081"/>
		<path class="st3" d="M1566.6,438.5c-0.9,0-1.6,0.7-1.6,1.7c0,0.9,0.7,1.6,1.6,1.6C1568.7,441.7,1568.7,438.5,1566.6,438.5z"/>
		<rect y="0" class="st4" width="1921" height="1081"/>
		<rect y="0" class="st4" width="1921" height="1081"/>
		<rect y="0" class="st4" width="1921" height="1081"/>
		<path class="st3" d="M1373.3,304.9c-0.9,0-1.6,0.7-1.6,1.7c0,0.9,0.7,1.6,1.6,1.6C1375.4,308.1,1375.4,304.9,1373.3,304.9z"/>
		<rect y="0" class="st4" width="1921" height="1081"/>
		<rect y="0" class="st4" width="1921" height="1081"/>
		<rect y="0" class="st4" width="1921" height="1081"/>
		<rect y="0" class="st4" width="1921" height="1081"/>
		<rect y="0" class="st4" width="1921" height="1081"/>
		<path class="st3" d="M709.6,1018.6c-0.9,0-1.6,0.7-1.6,1.7c0,0.9,0.7,1.6,1.6,1.6C711.7,1021.8,711.7,1018.6,709.6,1018.6z"/>
		<rect y="0" class="st4" width="1921" height="1081"/>
		<path class="st3" d="M608.5,800.8c-4.2,0-4.2,6.5,0,6.5S612.7,800.8,608.5,800.8z"/>
		<rect y="0" class="st4" width="1921" height="1081"/>
		<rect y="0" class="st4" width="1921" height="1081"/>
		<path class="st3" d="M191.4,422.7c-4.2,0-4.2,6.5,0,6.5S195.6,422.7,191.4,422.7z"/>
		<rect y="0" class="st4" width="1921" height="1081"/>
		<path class="st3" d="M504.2,76.6c-4.2,0-4.2,6.5,0,6.5S508.4,76.6,504.2,76.6z"/>
		<rect y="0" class="st4" width="1921" height="1081"/>
		<path class="st3" d="M1513.4,95.1c-4.2,0-4.2,6.5,0,6.5S1517.6,95.1,1513.4,95.1z"/>
		<rect y="0" class="st4" width="1921" height="1081"/>
		<path class="st3" d="M960.5,89.6c-4.2,0-4.2,6.5,0,6.5S964.7,89.6,960.5,89.6z"/>
		<rect y="0" class="st4" width="1921" height="1081"/>
		<rect y="0" class="st4" width="1921" height="1081"/>
		<rect y="0" class="st4" width="1921" height="1081"/>
		<rect y="0" class="st4" width="1921" height="1081"/>
		<rect y="0" class="st4" width="1921" height="1081"/>
		<path class="st3" d="M109.9,801.3c-6.3,0-6.3,9.8,0,9.8S116.2,801.3,109.9,801.3z"/>
		<path class="st3" d="M426.2,539.8c-0.4-0.8-1.5-1.1-2.2-0.6c-0.7,0.4-1,1.3-0.7,2.1c0.4,0.8,1.5,1.1,2.2,0.6
			C426.2,541.5,426.5,540.6,426.2,539.8z"/>
		<path class="st3" d="M216.8,521.9c-0.4-0.8-1.4-1.2-2.2-0.8s-1.2,1.4-0.8,2.2C214.9,525.2,217.7,523.8,216.8,521.9z"/>
		<path class="st3" d="M225.1,625.9c-0.4-0.8-1.4-1.2-2.2-0.8s-1.2,1.4-0.8,2.2C223.1,629.2,226,627.8,225.1,625.9z"/>
		<path class="st3" d="M275.6,668.6c-0.9-1.9-3.9-0.4-3,1.5S276.5,670.5,275.6,668.6z"/>
		<path class="st3" d="M347,507.8c-2.8-5.6-11.6-1.3-8.8,4.4C341.1,517.8,349.8,513.4,347,507.8z"/>
		<path class="st3" d="M523.2,784.5c-0.4-0.8-1.4-1.2-2.2-0.8s-1.2,1.4-0.8,2.2s1.4,1.2,2.2,0.8S523.6,785.4,523.2,784.5z"/>
		<path class="st3" d="M313.8,766.6c-0.4-0.8-1.4-1.1-2.2-0.7c-0.8,0.4-1.1,1.4-0.7,2.2C311.9,769.9,314.7,768.5,313.8,766.6z"/>
		<path class="st3" d="M322.1,870.6c-0.4-0.8-1.5-1.1-2.2-0.6c-0.7,0.4-1,1.3-0.7,2.1C320.2,873.9,323,872.5,322.1,870.6z"/>
		<path class="st3" d="M372.6,913.3c-0.4-0.8-1.4-1.1-2.2-0.7c-0.8,0.4-1.1,1.4-0.7,2.2C370.7,916.6,373.6,915.2,372.6,913.3z"/>
		<path class="st3" d="M444,752.5c-2.8-5.6-11.6-1.2-8.8,4.4S446.9,758.1,444,752.5z"/>
		<path class="st3" d="M1037.9,928c-0.4-0.8-1.4-1.2-2.2-0.8s-1.2,1.4-0.8,2.2s1.4,1.2,2.2,0.8S1038.3,928.8,1037.9,928z"/>
		<path class="st3" d="M828.5,910c-0.4-0.8-1.4-1.2-2.2-0.8s-1.2,1.4-0.8,2.2C826.6,913.4,829.5,911.9,828.5,910z"/>
		<path class="st3" d="M836.8,1014c-0.4-0.8-1.4-1.2-2.2-0.8s-1.2,1.4-0.8,2.2C834.9,1017.3,837.7,1015.9,836.8,1014z"/>
		<path class="st3" d="M887.3,1056.7c-0.4-0.8-1.4-1.2-2.2-0.8s-1.2,1.4-0.8,2.2C885.4,1060.1,888.3,1058.6,887.3,1056.7z"/>
		<path class="st3" d="M958.7,895.9c-2.8-5.6-11.6-1.2-8.8,4.4S961.5,901.5,958.7,895.9z"/>
		<path class="st3" d="M820,230.4c-0.4-0.8-1.4-1.2-2.2-0.8c-0.8,0.4-1.2,1.4-0.8,2.2s1.4,1.2,2.2,0.8
			C820.1,232.3,820.4,231.3,820,230.4z"/>
		<path class="st3" d="M610.5,212.5c-0.4-0.8-1.4-1.1-2.2-0.7c-0.8,0.4-1.1,1.4-0.7,2.2l0,0C608.6,215.8,611.5,214.4,610.5,212.5z"
			/>
		<path class="st3" d="M618.8,316.5c-0.4-0.8-1.5-1.1-2.2-0.6c-0.7,0.4-1,1.3-0.7,2.1C616.9,319.8,619.8,318.4,618.8,316.5z"/>
		<path class="st3" d="M669.3,359.2c-0.4-0.8-1.4-1.2-2.2-0.8c-0.8,0.4-1.2,1.4-0.8,2.2C667.4,362.5,670.3,361.1,669.3,359.2z"/>
		<path class="st3" d="M740.8,198.4c-2.8-5.6-11.6-1.2-8.8,4.4S743.6,204,740.8,198.4z"/>
		<path class="st3" d="M1352.6,545.5c-1.9-3.8-7.7-0.8-5.8,2.9S1354.5,549.3,1352.6,545.5z"/>
		<path class="st3" d="M1279,701.6c0.6-0.7,0.4-1.8-0.3-2.3c-0.7-0.6-1.8-0.4-2.3,0.3l0,0C1275.2,701.4,1277.7,703.3,1279,701.6z"/>
		<path class="st3" d="M1189.8,755.8c0.6-0.7,0.4-1.8-0.3-2.3c-0.7-0.6-1.8-0.4-2.3,0.3C1186,755.5,1188.6,757.5,1189.8,755.8z"/>
		<path class="st3" d="M1174.4,820.1c0.6-0.7,0.4-1.8-0.3-2.3c-0.7-0.6-1.8-0.4-2.3,0.3l0,0C1170.6,819.9,1173.1,821.8,1174.4,820.1
			z"/>
		<path class="st3" d="M1350.2,811.6c3.8-5-4.1-10.9-7.8-5.9S1346.4,816.7,1350.2,811.6z"/>
		<path class="st3" d="M1287.9,839.5c-1.9-3.8-7.7-0.8-5.8,2.9S1289.8,843.2,1287.9,839.5z"/>
		<path class="st3" d="M1214.3,995.5c0.6-0.7,0.4-1.8-0.3-2.3c-0.7-0.6-1.8-0.4-2.3,0.3l0,0C1210.5,995.3,1213,997.2,1214.3,995.5z"
			/>
		<path class="st3" d="M674.8,424.2c0.9-0.2,1.5-1.1,1.3-2c-0.2-0.9-1.1-1.5-2-1.3C672.1,421.5,672.8,424.6,674.8,424.2z"/>
		<path class="st3" d="M620.8,462.4c0.9-0.2,1.5-1.1,1.3-2c-0.2-0.9-1.1-1.5-2-1.3C618.1,459.7,618.8,462.8,620.8,462.4z"/>
		<path class="st3" d="M693.4,551.7c1-4.1-5.2-5.7-6.3-1.6S692.4,555.8,693.4,551.7z"/>
		<path class="st3" d="M535.2,620.6c0.9-0.2,1.5-1.1,1.3-2c-0.2-0.9-1.1-1.5-2-1.3l0,0C532.5,617.9,533.1,621.1,535.2,620.6z"/>
		<path class="st3" d="M1019.8,251.2c2.5-0.4,1.6-3.7-0.8-3.2S1017.3,251.6,1019.8,251.2z"/>
		<path class="st3" d="M955.5,289.4c2.4-0.4,1.6-3.7-0.8-3.2S953.1,289.9,955.5,289.4z"/>
		<path class="st3" d="M1041.9,378.8c1.3-4.1-6.2-5.7-7.5-1.6S1040.7,382.8,1041.9,378.8z"/>
		<path class="st3" d="M853.6,447.6c2.5-0.4,1.6-3.7-0.8-3.2S851.2,448.1,853.6,447.6z"/>
		<path class="st3" d="M1194.2,543.7c2.4-0.4,1.6-3.7-0.8-3.2S1191.7,544.1,1194.2,543.7z"/>
		<path class="st3" d="M1129.9,581.9c2.4-0.4,1.6-3.7-0.8-3.2S1127.4,582.4,1129.9,581.9z"/>
		<path class="st3" d="M1216.3,671.3c1.2-4.1-6.2-5.7-7.5-1.6S1215.1,675.3,1216.3,671.3z"/>
		<path class="st3" d="M1028,740.2c2.4-0.4,1.6-3.7-0.8-3.2S1025.5,740.6,1028,740.2z"/>
		<path class="st3" d="M900.2,595.7c2.4-0.4,1.6-3.7-0.8-3.2S897.8,596.2,900.2,595.7z"/>
		<path class="st3" d="M836,634c2.5-0.4,1.6-3.7-0.8-3.2S833.5,634.4,836,634z"/>
		<path class="st3" d="M922.4,723.3c1.2-4.1-6.2-5.7-7.5-1.6S921.1,727.4,922.4,723.3z"/>
		<path class="st3" d="M734.1,792.2c2.4-0.4,1.6-3.7-0.8-3.2S731.6,792.6,734.1,792.2z"/>
		<path class="st3" d="M1125.1,1049.7c1.3-1.7-1.4-3.7-2.7-2S1123.9,1051.4,1125.1,1049.7z"/>
		<path class="st3" d="M1324.4,528.3c0.5-0.7,0.4-1.8-0.4-2.3c-0.7-0.5-1.6-0.4-2.2,0.3c-0.5,0.7-0.4,1.8,0.4,2.3
			C1322.9,529.1,1323.8,529,1324.4,528.3z"/>
		<path class="st3" d="M1252.2,330.9c0.5-0.7,0.4-1.8-0.4-2.3c-0.7-0.5-1.6-0.4-2.2,0.3C1248.4,330.6,1250.9,332.6,1252.2,330.9z"/>
		<path class="st3" d="M1161.5,382.3c0.5-0.8,0.3-1.8-0.5-2.3c-0.7-0.5-1.6-0.4-2.1,0.2C1157.7,382,1160.2,384,1161.5,382.3z"/>
		<path class="st3" d="M1144.1,446.2c0.6-0.7,0.4-1.8-0.3-2.3s-1.8-0.4-2.3,0.3l0,0C1140.3,445.8,1142.8,447.8,1144.1,446.2z"/>
		<path class="st3" d="M1320,443c3.9-4.9-3.8-11-7.7-6.1S1316.1,448,1320,443z"/>
		<path class="st3" d="M1757.5,823.7c0.4-0.8,0.2-1.8-0.6-2.2c-0.6-0.4-1.4-0.3-2,0.2c-0.4,0.8-0.2,1.8,0.6,2.2
			C1756.2,824.3,1757,824.2,1757.5,823.7z"/>
		<path class="st3" d="M1753.2,738.3c3.9-4.9-3.8-11-7.7-6.1S1749.2,743.3,1753.2,738.3z"/>
		<path class="st3" d="M1176.7,223.2c0.5-0.7,0.4-1.8-0.4-2.3c-0.7-0.5-1.6-0.4-2.2,0.3c-0.5,0.7-0.4,1.8,0.4,2.3
			C1175.2,223.9,1176.2,223.8,1176.7,223.2z"/>
		<path class="st3" d="M1104.6,25.8c0.5-0.7,0.4-1.8-0.4-2.3c-0.7-0.5-1.6-0.4-2.2,0.3C1100.8,25.4,1103.2,27.4,1104.6,25.8z"/>
		<path class="st3" d="M1013.8,77.2c0.5-0.8,0.2-1.8-0.6-2.3c-0.6-0.4-1.5-0.3-2,0.3C1010,76.8,1012.5,78.8,1013.8,77.2z"/>
		<path class="st3" d="M996.4,141c0.6-0.7,0.4-1.8-0.3-2.3c-0.7-0.6-1.8-0.4-2.3,0.3l0,0C992.6,140.7,995.1,142.6,996.4,141z"/>
		<path class="st3" d="M1172.3,137.9c3.9-4.9-3.8-11-7.7-6.1S1168.4,142.8,1172.3,137.9z"/>
		<rect y="0" class="st4" width="1921" height="1081"/>
		<path class="st3" d="M267.4,347.2c-6.3,0-6.3,9.8,0,9.8S273.7,347.2,267.4,347.2z"/>
		<rect y="0" class="st4" width="1921" height="1081"/>
		<path class="st3" d="M1263.6,57.6c-6.3,0-6.3,9.8,0,9.8S1269.9,57.6,1263.6,57.6z"/>
		<rect y="0" class="st4" width="1921" height="1081"/>
		<rect y="0" class="st4" width="1921" height="1081"/>
		<rect y="0" class="st4" width="1921" height="1081"/>
		<path class="st3" d="M476,562.9c-8.4,0-8.4,13,0,13S484.4,562.9,476,562.9z"/>
		<path class="st3" d="M1559.9,1008.5c-0.9,0-1.6,0.7-1.6,1.7c0,0.9,0.7,1.6,1.6,1.6C1562,1011.8,1562,1008.5,1559.9,1008.5z"/>
		<path class="st3" d="M1475.3,863.3c-0.4-0.8-1.4-1.2-2.2-0.8s-1.2,1.4-0.8,2.2l0,0c0.4,0.8,1.4,1.2,2.2,0.8
			S1475.7,864.1,1475.3,863.3z"/>
		<path class="st3" d="M1493.1,1075.9c-2.8-5.6-11.6-1.2-8.8,4.4S1495.9,1081.6,1493.1,1075.9z"/>
		<path class="st3" d="M1525.1,886.3c-8.4,0-8.4,13,0,13S1533.5,886.3,1525.1,886.3z"/>
		<rect y="0" class="st4" width="1921" height="1081"/>
		<rect y="0" class="st4" width="1921" height="1081"/>
		<path class="st3" d="M1634.1,971.7c-0.9,0-1.6,0.7-1.6,1.7c0,0.9,0.7,1.6,1.6,1.6C1636.2,974.9,1636.2,971.7,1634.1,971.7z"/>
		<rect y="0" class="st4" width="1921" height="1081"/>
		<rect y="0" class="st4" width="1921" height="1081"/>
		<rect y="0" class="st4" width="1921" height="1081"/>
		<rect y="0" class="st4" width="1921" height="1081"/>
		<path class="st3" d="M1712,633.8c-0.7-0.6-1.7-0.5-2.3,0.2c-0.5,0.6-0.5,1.6,0.1,2.2C1711.3,637.6,1713.5,635.2,1712,633.8z"/>
		<rect y="0" class="st4" width="1921" height="1081"/>
		<rect y="0" class="st4" width="1921" height="1081"/>
		<rect y="0" class="st4" width="1921" height="1081"/>
		<path class="st3" d="M1473.2,415.1c-8.4,0-8.4,13,0,13S1481.6,415.1,1473.2,415.1z"/>
		<rect y="0" class="st4" width="1921" height="1081"/>
		<rect y="0" class="st4" width="1921" height="1081"/>
		<path class="st3" d="M599.8,1053.9c-8.4,0-8.4,13,0,13S608.2,1053.9,599.8,1053.9z"/>
		
			<ellipse transform="matrix(0.9239 -0.3827 0.3827 0.9239 -307.7837 260.6874)" class="st18" cx="501.4" cy="904" rx="19.9" ry="19.9"/>
	</g>
</g>
</svg>
