<svg id="Camada_1" data-name="Camada 1" xmlns="http://www.w3.org/2000/svg" xmlns:xlink="http://www.w3.org/1999/xlink" viewBox="0 0 1921 1081"><defs><style>.cls-1,.cls-13,.cls-15{fill:none;}.cls-2{fill:#fff;}.cls-3{clip-path:url(#clip-path);}.cls-4{fill:#5f5181;}.cls-5{fill:#57437d;}.cls-6{fill:#4e3871;}.cls-7{fill:#462f66;}.cls-8{fill:#40295e;}.cls-9{fill:#3c2259;}.cls-10{fill:#331c46;}.cls-11{fill:#271638;}.cls-12{fill:#16536a;}.cls-13{stroke:#22b4b9;}.cls-13,.cls-15{stroke-miterlimit:10;stroke-width:3px;}.cls-14{fill:#22b4b9;}.cls-15{stroke:#e5156c;}.cls-16{fill:#821f81;}.cls-17{fill:#0388af;}</style><clipPath id="clip-path"><rect class="cls-1" width="1921" height="1081"/></clipPath></defs><title>bg_index1</title><path class="cls-2" d="M987.59,16.63c-7.69,0-7.69,12,0,12S995.29,16.63,987.59,16.63Z"/><path class="cls-2" d="M1146.3,23.48c-3.85,0-3.85,6,0,6S1150.15,23.48,1146.3,23.48Z"/><path class="cls-2" d="M1282.68,13.79a1,1,0,0,0,0,2A1,1,0,0,0,1282.68,13.79Z"/><path class="cls-2" d="M30,140.1a1,1,0,0,0-.94-1.78A1,1,0,0,0,30,140.1Z"/><path class="cls-2" d="M63.1,224a1,1,0,0,0-1-1.78A1,1,0,0,0,63.1,224Z"/><g class="cls-3"><rect class="cls-1" width="1921" height="1081"/><rect class="cls-4" x="10.7" y="-2.7" width="1962.6" height="1294"/><rect class="cls-1" width="1921" height="1081"/><rect class="cls-1" x="-27.6" y="-169.4" width="1960.5" height="1292.6"/><circle class="cls-5" cx="724.4" cy="-233.7" r="1584.6"/><rect class="cls-1" x="-27.6" y="-169.4" width="1960.5" height="1292.6"/><circle class="cls-6" cx="491.4" cy="-401.2" r="1584.6"/><rect class="cls-1" x="-27.6" y="-169.4" width="1960.5" height="1292.6"/><circle class="cls-7" cx="258.5" cy="-568.6" r="1584.6"/><rect class="cls-1" x="-27.6" y="-169.4" width="1960.5" height="1292.6"/><circle class="cls-8" cx="25.5" cy="-736.1" r="1584.6"/><rect class="cls-1" x="-27.6" y="-169.4" width="1960.5" height="1292.6"/><circle class="cls-9" cx="-207.5" cy="-903.5" r="1584.6"/><circle class="cls-10" cx="-440.4" cy="-1071" r="1584.6"/><circle class="cls-11" cx="-673.4" cy="-1238.5" r="1584.6"/><rect class="cls-1" width="1921" height="1081"/><circle class="cls-12" cx="1310.5" cy="222.4" r="27.5"/><rect class="cls-1" width="1921" height="1081"/><circle class="cls-13" cx="680.4" cy="5.1" r="83.2"/><rect class="cls-1" width="1921" height="1081"/><rect class="cls-1" width="1921" height="1081"/><rect class="cls-1" width="1921" height="1081"/><circle class="cls-14" cx="1699.6" cy="984.8" r="38.4"/><rect class="cls-1" width="1921" height="1081"/><rect class="cls-1" width="1921" height="1081"/><rect class="cls-1" width="1921" height="1081"/><circle class="cls-15" cx="1569.1" cy="692" r="118.5"/><rect class="cls-1" width="1921" height="1081"/><rect class="cls-1" width="1921" height="1081"/><circle class="cls-15" cx="154.8" cy="977.5" r="30.3"/><rect class="cls-1" width="1921" height="1081"/><circle class="cls-16" cx="1361.8" cy="977.5" r="11.9"/><rect class="cls-1" width="1921" height="1081"/><rect class="cls-1" width="1921" height="1081"/><circle class="cls-17" cx="97.3" cy="651.5" r="40.4" transform="translate(-35.88 6.38) rotate(-3.17)"/><rect class="cls-1" width="1921" height="1081"/><circle class="cls-17" cx="137.8" cy="222.4" r="118.5"/><rect class="cls-1" width="1921" height="1081"/><rect class="cls-1" width="1921" height="1081"/><circle class="cls-13" cx="1819.1" cy="79.9" r="36.9"/><rect class="cls-1" width="1921" height="1081"/><rect class="cls-1" width="1921" height="1081"/><rect class="cls-1" width="1921" height="1081"/><circle class="cls-16" cx="1712.1" cy="181.7" r="129.4"/><rect class="cls-1" width="1921" height="1081"/><circle class="cls-16" cx="442.1" cy="218.1" r="27.6"/><rect class="cls-1" width="1921" height="1081"/><rect class="cls-1" width="1921" height="1081"/><rect class="cls-1" width="1921" height="1081"/><path class="cls-2" d="M422.8,161.3c-8.4,0-8.4,13,0,13S431.2,161.3,422.8,161.3Z"/><rect class="cls-1" width="1921" height="1081"/><rect class="cls-1" width="1921" height="1081"/><rect class="cls-1" width="1921" height="1081"/><rect class="cls-1" width="1921" height="1081"/><rect class="cls-1" width="1921" height="1081"/><rect class="cls-1" width="1921" height="1081"/><rect class="cls-1" width="1921" height="1081"/><rect class="cls-1" width="1921" height="1081"/><rect class="cls-1" width="1921" height="1081"/><rect class="cls-1" width="1921" height="1081"/><rect class="cls-1" width="1921" height="1081"/><rect class="cls-1" width="1921" height="1081"/><path class="cls-2" d="M71.9,88.6c-12.6,0-12.6,19.6,0,19.6S84.5,88.6,71.9,88.6Z"/><rect class="cls-1" width="1921" height="1081"/><path class="cls-2" d="M56.7,123.3c-12.6,0-12.6,19.6,0,19.6S69.3,123.3,56.7,123.3Z"/><rect class="cls-1" width="1921" height="1081"/><rect class="cls-1" width="1921" height="1081"/><rect class="cls-1" width="1921" height="1081"/><rect class="cls-1" width="1921" height="1081"/><rect class="cls-1" width="1921" height="1081"/><rect class="cls-1" width="1921" height="1081"/><rect class="cls-1" width="1921" height="1081"/><path class="cls-2" d="M1388.5,118.4a1.65,1.65,0,0,0,0,3.3A1.65,1.65,0,0,0,1388.5,118.4Z"/><rect class="cls-1" width="1921" height="1081"/><path class="cls-2" d="M1506.9,243a1.65,1.65,0,0,0,0,3.3C1509,246.2,1509,243,1506.9,243Z"/><rect class="cls-1" width="1921" height="1081"/><rect class="cls-1" width="1921" height="1081"/><rect class="cls-1" width="1921" height="1081"/><path class="cls-2" d="M577,159.7a1.65,1.65,0,0,0,0,3.3A1.65,1.65,0,0,0,577,159.7Z"/><rect class="cls-1" width="1921" height="1081"/><path class="cls-2" d="M510.8,685.1a1.65,1.65,0,0,0,0,3.3C512.9,688.3,512.9,685.1,510.8,685.1Z"/><rect class="cls-1" width="1921" height="1081"/><path class="cls-2" d="M174,744.8a1.65,1.65,0,0,0,0,3.3A1.65,1.65,0,0,0,174,744.8Z"/><rect class="cls-1" width="1921" height="1081"/><path class="cls-2" d="M41.5,453.7a1.65,1.65,0,0,0,0,3.3A1.65,1.65,0,0,0,41.5,453.7Z"/><rect class="cls-1" width="1921" height="1081"/><path class="cls-2" d="M368.5,290.8a1.65,1.65,0,0,0,0,3.3C370.6,294,370.6,290.8,368.5,290.8Z"/><rect class="cls-1" width="1921" height="1081"/><path class="cls-2" d="M238.1,71.7a1.65,1.65,0,0,0,0,3.3A1.65,1.65,0,0,0,238.1,71.7Z"/><rect class="cls-1" width="1921" height="1081"/><path class="cls-2" d="M1659.1,360.7a1.65,1.65,0,0,0,0,3.3A1.65,1.65,0,0,0,1659.1,360.7Z"/><rect class="cls-1" width="1921" height="1081"/><path class="cls-2" d="M5.6,755.7a1.65,1.65,0,0,0,0,3.3C7.7,758.9,7.7,755.7,5.6,755.7Z"/><rect class="cls-1" width="1921" height="1081"/><path class="cls-2" d="M45.8,1069.6a1.65,1.65,0,0,0,0,3.3A1.65,1.65,0,0,0,45.8,1069.6Z"/><rect class="cls-1" width="1921" height="1081"/><path class="cls-2" d="M64.3,924.1a1.65,1.65,0,0,0,0,3.3C66.4,927.3,66.4,924.1,64.3,924.1Z"/><rect class="cls-1" width="1921" height="1081"/><path class="cls-2" d="M159.9,945.8a1.65,1.65,0,0,0,0,3.3C162,949,162,945.8,159.9,945.8Z"/><rect class="cls-1" width="1921" height="1081"/><path class="cls-2" d="M161,963.2a1.65,1.65,0,0,0,0,3.3C163.1,966.4,163.1,963.2,161,963.2Z"/><rect class="cls-1" width="1921" height="1081"/><path class="cls-2" d="M221.8,937.1a1.65,1.65,0,0,0,0,3.3C223.9,940.3,223.9,937.1,221.8,937.1Z"/><rect class="cls-1" width="1921" height="1081"/><rect class="cls-1" width="1921" height="1081"/><rect class="cls-1" width="1921" height="1081"/><path class="cls-2" d="M1566.6,438.5a1.65,1.65,0,0,0,0,3.3C1568.7,441.7,1568.7,438.5,1566.6,438.5Z"/><rect class="cls-1" width="1921" height="1081"/><rect class="cls-1" width="1921" height="1081"/><rect class="cls-1" width="1921" height="1081"/><path class="cls-2" d="M1373.3,304.9a1.65,1.65,0,0,0,0,3.3C1375.4,308.1,1375.4,304.9,1373.3,304.9Z"/><rect class="cls-1" width="1921" height="1081"/><rect class="cls-1" width="1921" height="1081"/><rect class="cls-1" width="1921" height="1081"/><path class="cls-2" d="M1849.2,369.4a1.65,1.65,0,0,0,0,3.3C1851.3,372.6,1851.3,369.4,1849.2,369.4Z"/><rect class="cls-1" width="1921" height="1081"/><rect class="cls-1" width="1921" height="1081"/><path class="cls-2" d="M709.6,1018.6a1.65,1.65,0,0,0,0,3.3C711.7,1021.8,711.7,1018.6,709.6,1018.6Z"/><rect class="cls-1" width="1921" height="1081"/><path class="cls-2" d="M608.5,800.8c-4.2,0-4.2,6.5,0,6.5S612.7,800.8,608.5,800.8Z"/><rect class="cls-1" width="1921" height="1081"/><rect class="cls-1" width="1921" height="1081"/><path class="cls-2" d="M191.4,422.7c-4.2,0-4.2,6.5,0,6.5S195.6,422.7,191.4,422.7Z"/><rect class="cls-1" width="1921" height="1081"/><path class="cls-2" d="M504.2,76.6c-4.2,0-4.2,6.5,0,6.5S508.4,76.6,504.2,76.6Z"/><rect class="cls-1" width="1921" height="1081"/><path class="cls-2" d="M1513.4,95.1c-4.2,0-4.2,6.5,0,6.5S1517.6,95.1,1513.4,95.1Z"/><rect class="cls-1" width="1921" height="1081"/><path class="cls-2" d="M960.5,89.6c-4.2,0-4.2,6.5,0,6.5S964.7,89.6,960.5,89.6Z"/><rect class="cls-1" width="1921" height="1081"/><rect class="cls-1" width="1921" height="1081"/><rect class="cls-1" width="1921" height="1081"/><rect class="cls-1" width="1921" height="1081"/><rect class="cls-1" width="1921" height="1081"/><path class="cls-2" d="M109.9,801.3c-6.3,0-6.3,9.8,0,9.8S116.2,801.3,109.9,801.3Z"/><path class="cls-2" d="M426.2,539.84a1.65,1.65,0,0,0-2.95,1.47A1.65,1.65,0,0,0,426.2,539.84Z"/><path class="cls-2" d="M216.77,521.92a1.65,1.65,0,0,0-3,1.47C214.85,525.22,217.71,523.79,216.77,521.92Z"/><path class="cls-2" d="M225.05,625.89a1.65,1.65,0,0,0-3,1.48C223.12,629.2,226,627.77,225.05,625.89Z"/><path class="cls-2" d="M275.59,668.6c-.94-1.88-3.9-.4-3,1.47S276.52,670.48,275.59,668.6Z"/><path class="cls-2" d="M347,507.78c-2.82-5.64-11.59-1.26-8.77,4.38S349.81,513.41,347,507.78Z"/><path class="cls-2" d="M523.23,784.53a1.65,1.65,0,0,0-3,1.48A1.65,1.65,0,0,0,523.23,784.53Z"/><path class="cls-2" d="M313.8,766.61a1.65,1.65,0,0,0-2.95,1.48C311.88,769.92,314.74,768.49,313.8,766.61Z"/><path class="cls-2" d="M322.08,870.59a1.65,1.65,0,0,0-2.95,1.47C320.16,873.9,323,872.47,322.08,870.59Z"/><path class="cls-2" d="M372.62,913.29a1.65,1.65,0,0,0-2.95,1.48C370.7,916.6,373.56,915.17,372.62,913.29Z"/><path class="cls-2" d="M444,752.47c-2.82-5.63-11.58-1.25-8.77,4.38S446.85,758.11,444,752.47Z"/><path class="cls-2" d="M1037.94,928a1.65,1.65,0,0,0-3,1.48A1.65,1.65,0,0,0,1037.94,928Z"/><path class="cls-2" d="M828.51,910.05a1.65,1.65,0,0,0-3,1.48C826.58,913.36,829.45,911.93,828.51,910.05Z"/><path class="cls-2" d="M836.79,1014a1.66,1.66,0,0,0-3,1.48C834.86,1017.34,837.73,1015.91,836.79,1014Z"/><path class="cls-2" d="M887.32,1056.74a1.65,1.65,0,0,0-3,1.47C885.4,1060.05,888.26,1058.61,887.32,1056.74Z"/><path class="cls-2" d="M958.73,895.91c-2.81-5.63-11.58-1.25-8.76,4.39S961.55,901.55,958.73,895.91Z"/><path class="cls-2" d="M820,230.45a1.65,1.65,0,0,0-3,1.48A1.65,1.65,0,0,0,820,230.45Z"/><path class="cls-2" d="M610.53,212.53a1.65,1.65,0,0,0-2.95,1.48C608.61,215.84,611.47,214.41,610.53,212.53Z"/><path class="cls-2" d="M618.81,316.51a1.65,1.65,0,0,0-2.95,1.47C616.89,319.82,619.75,318.39,618.81,316.51Z"/><path class="cls-2" d="M669.35,359.21a1.65,1.65,0,0,0-3,1.48C667.43,362.52,670.29,361.09,669.35,359.21Z"/><path class="cls-2" d="M740.76,198.39c-2.82-5.63-11.58-1.25-8.77,4.38S743.58,204,740.76,198.39Z"/><path class="cls-2" d="M1352.59,545.54c-1.89-3.75-7.7-.83-5.81,2.92S1354.47,549.29,1352.59,545.54Z"/><path class="cls-2" d="M1279,701.63a1.65,1.65,0,0,0-2.64-2C1275.15,701.4,1277.72,703.32,1279,701.63Z"/><path class="cls-2" d="M1189.82,755.78a1.66,1.66,0,0,0-2.65-2C1186,755.55,1188.56,757.46,1189.82,755.78Z"/><path class="cls-2" d="M1174.39,820.12a1.65,1.65,0,0,0-2.64-2C1170.57,819.89,1173.14,821.8,1174.39,820.12Z"/><path class="cls-2" d="M1350.15,811.6c3.77-5.05-4.09-10.91-7.85-5.86S1346.39,816.65,1350.15,811.6Z"/><path class="cls-2" d="M1287.9,839.46c-1.89-3.75-7.7-.83-5.81,2.92S1289.78,843.21,1287.9,839.46Z"/><path class="cls-2" d="M1214.28,995.55a1.65,1.65,0,0,0-2.64-2C1210.46,995.32,1213,997.23,1214.28,995.55Z"/><path class="cls-2" d="M674.82,424.17a1.65,1.65,0,0,0-.69-3.23C672.09,421.48,672.76,424.61,674.82,424.17Z"/><path class="cls-2" d="M620.81,462.39a1.65,1.65,0,0,0-.69-3.23C618.09,459.7,618.75,462.83,620.81,462.39Z"/><path class="cls-2" d="M693.42,551.74c1.05-4.06-5.24-5.69-6.29-1.62S692.37,555.81,693.42,551.74Z"/><path class="cls-2" d="M535.18,620.62a1.65,1.65,0,0,0-.69-3.23C532.46,617.93,533.13,621.06,535.18,620.62Z"/><path class="cls-2" d="M1019.78,251.2c2.45-.44,1.63-3.67-.82-3.23S1017.34,251.63,1019.78,251.2Z"/><path class="cls-2" d="M955.51,289.42c2.44-.44,1.62-3.67-.82-3.23S953.06,289.86,955.51,289.42Z"/><path class="cls-2" d="M1041.92,378.77c1.26-4.07-6.23-5.69-7.48-1.63S1040.67,382.84,1041.92,378.77Z"/><path class="cls-2" d="M853.6,447.64c2.45-.44,1.63-3.66-.82-3.22S851.16,448.08,853.6,447.64Z"/><path class="cls-2" d="M1194.16,543.7c2.45-.43,1.63-3.66-.82-3.22S1191.72,544.14,1194.16,543.7Z"/><path class="cls-2" d="M1129.89,581.93c2.44-.44,1.62-3.67-.82-3.23S1127.44,582.37,1129.89,581.93Z"/><path class="cls-2" d="M1216.31,671.28c1.25-4.07-6.24-5.69-7.49-1.63S1215.05,675.35,1216.31,671.28Z"/><path class="cls-2" d="M1028,740.15c2.45-.44,1.63-3.66-.82-3.22S1025.54,740.59,1028,740.15Z"/><path class="cls-2" d="M900.25,595.74c2.44-.44,1.62-3.67-.82-3.23S897.8,596.18,900.25,595.74Z"/><path class="cls-2" d="M836,634c2.45-.44,1.63-3.67-.82-3.23S833.53,634.4,836,634Z"/><path class="cls-2" d="M922.39,723.31c1.25-4.06-6.24-5.69-7.49-1.63S921.14,727.38,922.39,723.31Z"/><path class="cls-2" d="M734.07,792.19c2.44-.44,1.62-3.67-.82-3.23S731.62,792.62,734.07,792.19Z"/><path class="cls-2" d="M1125.13,1049.69c1.26-1.68-1.39-3.65-2.65-2S1123.87,1051.38,1125.13,1049.69Z"/><path class="cls-2" d="M1324.38,528.35a1.65,1.65,0,0,0-2.58-2.05A1.65,1.65,0,0,0,1324.38,528.35Z"/><path class="cls-2" d="M1252.22,330.93a1.65,1.65,0,0,0-2.58-2.05C1248.41,330.58,1250.92,332.57,1252.22,330.93Z"/><path class="cls-2" d="M1161.46,382.33a1.66,1.66,0,0,0-2.59-2.06C1157.65,382,1160.15,384,1161.46,382.33Z"/><path class="cls-2" d="M1144.08,446.17a1.65,1.65,0,0,0-2.59-2.05C1140.27,445.82,1142.77,447.81,1144.08,446.17Z"/><path class="cls-2" d="M1320,443c3.92-4.94-3.75-11-7.67-6.1S1316.09,448,1320,443Z"/><path class="cls-2" d="M1785.72,840.86c-1.88-3.75-7.69-.82-5.8,2.93S1787.61,844.62,1785.72,840.86Z"/><path class="cls-2" d="M1757.52,823.67a1.65,1.65,0,0,0-2.58-2A1.65,1.65,0,0,0,1757.52,823.67Z"/><path class="cls-2" d="M1753.15,738.34c3.92-4.93-3.75-11-7.67-6.1S1749.23,743.27,1753.15,738.34Z"/><path class="cls-2" d="M1819.76,1045c2.52-3.36-2.67-7.26-5.2-3.91S1817.24,1048.33,1819.76,1045Z"/><path class="cls-2" d="M1822.64,1012.06a1.65,1.65,0,0,0,.7-3.22A1.65,1.65,0,0,0,1822.64,1012.06Z"/><path class="cls-2" d="M1897.17,970.26c6.16,1.33,8.21-8.26,2-9.58S1891,968.94,1897.17,970.26Z"/><path class="cls-2" d="M1176.72,223.18a1.65,1.65,0,0,0-2.58-2.05A1.65,1.65,0,0,0,1176.72,223.18Z"/><path class="cls-2" d="M1104.56,25.76a1.65,1.65,0,0,0-2.58-2.05C1100.75,25.42,1103.25,27.41,1104.56,25.76Z"/><path class="cls-2" d="M1013.8,77.16a1.65,1.65,0,0,0-2.59-2C1010,76.81,1012.49,78.8,1013.8,77.16Z"/><path class="cls-2" d="M996.42,141a1.65,1.65,0,0,0-2.59-2.05C992.6,140.66,995.11,142.65,996.42,141Z"/><path class="cls-2" d="M1172.35,137.85c3.92-4.93-3.75-11-7.67-6.1S1168.43,142.78,1172.35,137.85Z"/><rect class="cls-1" width="1921" height="1081"/><path class="cls-2" d="M267.4,347.2c-6.3,0-6.3,9.8,0,9.8S273.7,347.2,267.4,347.2Z"/><rect class="cls-1" width="1921" height="1081"/><path class="cls-2" d="M1263.6,57.6c-6.3,0-6.3,9.8,0,9.8S1269.9,57.6,1263.6,57.6Z"/><rect class="cls-1" width="1921" height="1081"/><rect class="cls-1" width="1921" height="1081"/><rect class="cls-1" width="1921" height="1081"/><path class="cls-2" d="M476,562.9c-8.4,0-8.4,13,0,13S484.4,562.9,476,562.9Z"/><path class="cls-2" d="M1559.9,1008.55a1.65,1.65,0,0,0,0,3.3C1562,1011.75,1562,1008.55,1559.9,1008.55Z"/><path class="cls-2" d="M1475.3,863.28a1.66,1.66,0,0,0-3,1.48A1.66,1.66,0,0,0,1475.3,863.28Z"/><path class="cls-2" d="M1493.13,1075.92c-2.82-5.64-11.59-1.25-8.77,4.38S1495.94,1081.55,1493.13,1075.92Z"/><path class="cls-2" d="M1525.1,886.35c-8.4,0-8.4,13,0,13S1533.5,886.35,1525.1,886.35Z"/><rect class="cls-1" width="1921" height="1081"/><rect class="cls-1" width="1921" height="1081"/><path class="cls-2" d="M1634.1,971.7a1.65,1.65,0,0,0,0,3.3C1636.2,974.9,1636.2,971.7,1634.1,971.7Z"/><rect class="cls-1" width="1921" height="1081"/><path class="cls-2" d="M1777.5,910.8c-6.3,0-6.3,9.8,0,9.8S1783.8,910.8,1777.5,910.8Z"/><rect class="cls-1" width="1921" height="1081"/><rect class="cls-1" width="1921" height="1081"/><rect class="cls-1" width="1921" height="1081"/><path class="cls-2" d="M1712,633.8a1.63,1.63,0,0,0-2.2,2.4C1711.3,637.6,1713.5,635.2,1712,633.8Z"/><rect class="cls-1" width="1921" height="1081"/><path class="cls-2" d="M1857.8,688.5c-4.6-4.3-11.3,2.7-6.7,7.1S1862.4,692.8,1857.8,688.5Z"/><rect class="cls-1" width="1921" height="1081"/><path class="cls-2" d="M1771,521.3c-6.1-5.8-15.1,3.7-9,9.4S1777.1,527.1,1771,521.3Z"/><rect class="cls-1" width="1921" height="1081"/><path class="cls-2" d="M1473.2,415.1c-8.4,0-8.4,13,0,13S1481.6,415.1,1473.2,415.1Z"/><rect class="cls-1" width="1921" height="1081"/><rect class="cls-1" width="1921" height="1081"/><path class="cls-2" d="M599.8,1053.9c-8.4,0-8.4,13,0,13S608.2,1053.9,599.8,1053.9Z"/><rect class="cls-1" width="1921" height="1081"/><circle class="cls-16" cx="501.39" cy="904.01" r="19.92"/></g></svg>