<svg id="Camada_1" data-name="Camada 1" xmlns="http://www.w3.org/2000/svg" xmlns:xlink="http://www.w3.org/1999/xlink" viewBox="0 0 1921 1081"><defs><style>.cls-1,.cls-13,.cls-14{fill:none;}.cls-2{fill:#fff;}.cls-3{clip-path:url(#clip-path);}.cls-4{fill:#86ccd2;}.cls-5{fill:#66c0be;}.cls-6{fill:#37b4aa;}.cls-7{fill:#02969c;}.cls-8{fill:teal;}.cls-9{fill:#006765;}.cls-10{fill:#005e5c;}.cls-11{fill:#005554;}.cls-12{fill:#cb5317;}.cls-13{stroke:#782784;}.cls-13,.cls-14{stroke-miterlimit:10;stroke-width:3px;}.cls-14{stroke:#d70d4a;}.cls-15{fill:#821f81;}.cls-16{fill:#c88e1a;}.cls-17{fill:#b21062;}</style><clipPath id="clip-path"><rect class="cls-1" width="1921" height="1081"/></clipPath></defs><title>bg_index2</title><path class="cls-2" d="M987.59,16.63c-7.69,0-7.69,12,0,12S995.29,16.63,987.59,16.63Z"/><path class="cls-2" d="M1146.3,23.48c-3.85,0-3.85,6,0,6S1150.15,23.48,1146.3,23.48Z"/><path class="cls-2" d="M1282.68,13.79a1,1,0,0,0,0,2A1,1,0,0,0,1282.68,13.79Z"/><path class="cls-2" d="M30,140.1a1,1,0,0,0-.94-1.78A1,1,0,0,0,30,140.1Z"/><path class="cls-2" d="M63.1,224a1,1,0,0,0-1-1.78A1,1,0,0,0,63.1,224Z"/><g class="cls-3"><rect class="cls-4" x="-12.49" y="12.91" width="1961.4" height="1293.1"/><rect class="cls-1" x="4.21" y="4.21" width="1921" height="1081"/><circle class="cls-5" cx="548.31" cy="-88.19" r="1585.3"/><rect class="cls-1" x="4.21" y="4.21" width="1921" height="1081"/><circle class="cls-6" cx="315.21" cy="-255.69" r="1585.3"/><rect class="cls-1" x="4.21" y="4.21" width="1921" height="1081"/><circle class="cls-7" cx="82.11" cy="-423.29" r="1585.3"/><rect class="cls-1" x="4.21" y="4.21" width="1921" height="1081"/><circle class="cls-8" cx="-150.89" cy="-590.69" r="1585.3"/><rect class="cls-1" x="4.21" y="4.21" width="1921" height="1081"/><circle class="cls-9" cx="-383.99" cy="-758.19" r="1585.3"/><rect class="cls-1" x="4.21" y="4.21" width="1921" height="1081"/><circle class="cls-10" cx="-617.09" cy="-925.79" r="1585.3"/><rect class="cls-1" x="4.21" y="4.21" width="1921" height="1081"/><circle class="cls-11" cx="-850.09" cy="-1093.29" r="1585.3"/><rect class="cls-1" x="4.21" y="4.21" width="1921" height="1081"/><circle class="cls-12" cx="1314.71" cy="226.61" r="27.5"/><rect class="cls-1" x="4.21" y="4.21" width="1921" height="1081"/><circle class="cls-13" cx="684.61" cy="9.31" r="83.2"/><rect class="cls-1" x="4.21" y="4.21" width="1921" height="1081"/><rect class="cls-1" x="4.21" y="4.21" width="1921" height="1081"/><rect class="cls-1" x="4.21" y="4.21" width="1921" height="1081"/><circle class="cls-12" cx="1703.81" cy="989.01" r="38.4"/><rect class="cls-1" x="4.21" y="4.21" width="1921" height="1081"/><rect class="cls-1" x="4.21" y="4.21" width="1921" height="1081"/><circle class="cls-14" cx="1573.31" cy="696.21" r="118.5"/><rect class="cls-1" x="4.21" y="4.21" width="1921" height="1081"/><rect class="cls-1" x="4.21" y="4.21" width="1921" height="1081"/><circle class="cls-14" cx="159.01" cy="981.71" r="30.3"/><rect class="cls-1" x="4.21" y="4.21" width="1921" height="1081"/><circle class="cls-15" cx="1366.01" cy="981.71" r="11.9"/><rect class="cls-1" x="4.21" y="4.21" width="1921" height="1081"/><circle class="cls-16" cx="101.49" cy="655.73" r="40.4" transform="matrix(0.99, -0.17, 0.17, 0.99, -106.93, 25.77)"/><rect class="cls-1" x="-13.34" y="-90.4" width="1921.02" height="1081.01" transform="translate(-43.9 107.32) rotate(-6.34)"/><circle class="cls-16" cx="142.01" cy="226.61" r="118.5"/><rect class="cls-1" x="4.21" y="4.21" width="1921" height="1081"/><circle class="cls-13" cx="1823.31" cy="84.11" r="36.9"/><rect class="cls-1" x="4.21" y="4.21" width="1921" height="1081"/><circle class="cls-17" cx="502.91" cy="903.51" r="19.9"/><rect class="cls-1" x="4.21" y="4.21" width="1921" height="1081"/><circle class="cls-17" cx="1716.31" cy="185.91" r="129.4"/><rect class="cls-1" x="4.21" y="4.21" width="1921" height="1081"/><circle class="cls-17" cx="446.31" cy="222.31" r="27.6"/><rect class="cls-1" x="4.21" y="4.21" width="1921" height="1081"/><rect class="cls-1" x="4.21" y="4.21" width="1921" height="1081"/><rect class="cls-1" x="4.21" y="4.21" width="1921" height="1081"/><rect class="cls-1" x="4.21" y="4.21" width="1921" height="1081"/><rect class="cls-1" x="4.21" y="4.21" width="1921" height="1081"/><rect class="cls-1" x="4.21" y="4.21" width="1921" height="1081"/><rect class="cls-1" x="4.21" y="4.21" width="1921" height="1081"/><path class="cls-2" d="M76.11,92.81c-12.6,0-12.6,19.6,0,19.6S88.71,92.81,76.11,92.81Z"/><rect class="cls-1" x="4.21" y="4.21" width="1921" height="1081"/><path class="cls-2" d="M60.91,127.51c-12.6,0-12.6,19.6,0,19.6S73.51,127.51,60.91,127.51Z"/><rect class="cls-1" x="4.21" y="4.21" width="1921" height="1081"/><rect class="cls-1" x="4.21" y="4.21" width="1921" height="1081"/><rect class="cls-1" x="4.21" y="4.21" width="1921" height="1081"/><rect class="cls-1" x="4.21" y="4.21" width="1921" height="1081"/><rect class="cls-1" x="4.21" y="4.21" width="1921" height="1081"/><rect class="cls-1" x="4.21" y="4.21" width="1921" height="1081"/><rect class="cls-1" x="4.21" y="4.21" width="1921" height="1081"/><rect class="cls-1" x="4.21" y="4.21" width="1921" height="1081"/><rect class="cls-1" x="4.21" y="4.21" width="1921" height="1081"/><rect class="cls-1" x="4.21" y="4.21" width="1921" height="1081"/><rect class="cls-1" x="4.21" y="4.21" width="1921" height="1081"/><rect class="cls-1" x="4.21" y="4.21" width="1921" height="1081"/><rect class="cls-1" x="4.21" y="4.21" width="1921" height="1081"/><rect class="cls-1" x="4.21" y="4.21" width="1921" height="1081"/><path class="cls-2" d="M9.81,759.91a1.65,1.65,0,0,0,0,3.3C11.91,763.11,11.91,759.91,9.81,759.91Z"/><rect class="cls-1" x="4.21" y="4.21" width="1921" height="1081"/><rect class="cls-1" x="4.21" y="4.21" width="1921" height="1081"/><rect class="cls-1" x="4.21" y="4.21" width="1921" height="1081"/><rect class="cls-1" x="4.21" y="4.21" width="1921" height="1081"/><rect class="cls-1" x="4.21" y="4.21" width="1921" height="1081"/><rect class="cls-1" x="4.21" y="4.21" width="1921" height="1081"/><rect class="cls-1" x="4.21" y="4.21" width="1921" height="1081"/><rect class="cls-1" x="4.21" y="4.21" width="1921" height="1081"/><rect class="cls-1" x="4.21" y="4.21" width="1921" height="1081"/><rect class="cls-1" x="4.21" y="4.21" width="1921" height="1081"/><rect class="cls-1" x="4.21" y="4.21" width="1921" height="1081"/><rect class="cls-1" x="4.21" y="4.21" width="1921" height="1081"/><rect class="cls-1" x="4.21" y="4.21" width="1921" height="1081"/><rect class="cls-1" x="4.21" y="4.21" width="1921" height="1081"/><rect class="cls-1" x="4.21" y="4.21" width="1921" height="1081"/><rect class="cls-1" x="4.21" y="4.21" width="1921" height="1081"/><rect class="cls-1" x="4.21" y="4.21" width="1921" height="1081"/><rect class="cls-1" x="4.21" y="4.21" width="1921" height="1081"/><rect class="cls-1" x="4.21" y="4.21" width="1921" height="1081"/><rect class="cls-1" x="4.21" y="4.21" width="1921" height="1081"/><rect class="cls-1" x="4.21" y="4.21" width="1921" height="1081"/><rect class="cls-1" x="4.21" y="4.21" width="1921" height="1081"/><rect class="cls-1" x="4.21" y="4.21" width="1921" height="1081"/><rect class="cls-1" x="4.21" y="4.21" width="1921" height="1081"/><rect class="cls-1" x="4.21" y="4.21" width="1921" height="1081"/><rect class="cls-1" x="4.21" y="4.21" width="1921" height="1081"/><rect class="cls-1" x="4.21" y="4.21" width="1921" height="1081"/><rect class="cls-1" x="4.21" y="4.21" width="1921" height="1081"/><rect class="cls-1" x="4.21" y="4.21" width="1921" height="1081"/><rect class="cls-1" x="4.21" y="4.21" width="1921" height="1081"/><rect class="cls-1" x="4.21" y="4.21" width="1921" height="1081"/><rect class="cls-1" x="4.21" y="4.21" width="1921" height="1081"/><rect class="cls-1" x="4.21" y="4.21" width="1921" height="1081"/><rect class="cls-1" x="4.21" y="4.21" width="1921" height="1081"/><path class="cls-2" d="M427.23,166c-8.39,0-8.39,13,0,13S435.62,166,427.23,166Z"/><path class="cls-2" d="M76.79,93.38c-12.58,0-12.58,19.57,0,19.57S89.37,93.38,76.79,93.38Z"/><path class="cls-2" d="M61.61,128c-12.58,0-12.58,19.58,0,19.58S74.19,128,61.61,128Z"/><path class="cls-2" d="M1391.67,123.14a1.65,1.65,0,0,0,0,3.29A1.65,1.65,0,0,0,1391.67,123.14Z"/><path class="cls-2" d="M1509.91,247.58a1.65,1.65,0,0,0,0,3.29C1512,250.77,1512,247.58,1509.91,247.58Z"/><path class="cls-2" d="M581.23,164.38a1.65,1.65,0,0,0,0,3.3A1.65,1.65,0,0,0,581.23,164.38Z"/><path class="cls-2" d="M515.12,689.1a1.65,1.65,0,0,0,0,3.29C517.21,692.29,517.21,689.1,515.12,689.1Z"/><path class="cls-2" d="M178.76,748.72a1.65,1.65,0,0,0,0,3.3A1.65,1.65,0,0,0,178.76,748.72Z"/><path class="cls-2" d="M46.43,458a1.65,1.65,0,0,0,0,3.3A1.65,1.65,0,0,0,46.43,458Z"/><path class="cls-2" d="M373,295.31a1.65,1.65,0,0,0,0,3.3C375.1,298.51,375.1,295.31,373,295.31Z"/><path class="cls-2" d="M242.77,76.5a1.65,1.65,0,0,0,0,3.3A1.65,1.65,0,0,0,242.77,76.5Z"/><path class="cls-2" d="M1661.92,365.12a1.65,1.65,0,0,0,0,3.3A1.65,1.65,0,0,0,1661.92,365.12Z"/><path class="cls-2" d="M10.58,759.61a1.65,1.65,0,0,0,0,3.29C12.67,762.8,12.67,759.61,10.58,759.61Z"/><path class="cls-2" d="M50.72,1073.1a1.65,1.65,0,0,0,0,3.29A1.65,1.65,0,0,0,50.72,1073.1Z"/><path class="cls-2" d="M69.2,927.79a1.65,1.65,0,0,0,0,3.29C71.3,931,71.3,927.79,69.2,927.79Z"/><path class="cls-2" d="M164.67,949.46a1.65,1.65,0,0,0,0,3.29C166.77,952.65,166.77,949.46,164.67,949.46Z"/><path class="cls-2" d="M165.77,966.84a1.65,1.65,0,0,0,0,3.29C167.87,970,167.87,966.84,165.77,966.84Z"/><path class="cls-2" d="M226.49,940.77a1.65,1.65,0,0,0,0,3.3C228.59,944,228.59,940.77,226.49,940.77Z"/><path class="cls-2" d="M1569.54,442.82a1.65,1.65,0,0,0,0,3.3C1571.63,446,1571.63,442.82,1569.54,442.82Z"/><path class="cls-2" d="M1376.49,309.4a1.65,1.65,0,0,0,0,3.29C1378.59,312.59,1378.59,309.4,1376.49,309.4Z"/><path class="cls-2" d="M1851.77,373.81a1.65,1.65,0,0,0,0,3.3C1853.87,377,1853.87,373.81,1851.77,373.81Z"/><path class="cls-2" d="M713.66,1022.16a1.65,1.65,0,0,0,0,3.3C715.75,1025.36,715.75,1022.16,713.66,1022.16Z"/><path class="cls-2" d="M612.69,804.65c-4.2,0-4.2,6.49,0,6.49S616.88,804.65,612.69,804.65Z"/><path class="cls-2" d="M196.13,427c-4.19,0-4.19,6.49,0,6.49S200.33,427,196.13,427Z"/><path class="cls-2" d="M508.52,81.39c-4.19,0-4.19,6.5,0,6.5S512.72,81.39,508.52,81.39Z"/><path class="cls-2" d="M1516.41,99.87c-4.2,0-4.2,6.49,0,6.49S1520.6,99.87,1516.41,99.87Z"/><path class="cls-2" d="M964.23,94.38c-4.2,0-4.2,6.49,0,6.49S968.42,94.38,964.23,94.38Z"/><path class="cls-2" d="M114.74,805.15c-6.29,0-6.29,9.78,0,9.78S121,805.15,114.74,805.15Z"/><path class="cls-2" d="M430.63,544a1.65,1.65,0,0,0-2.95,1.48A1.65,1.65,0,0,0,430.63,544Z"/><path class="cls-2" d="M221.47,526.13a1.65,1.65,0,0,0-2.95,1.47C219.55,529.43,222.41,528,221.47,526.13Z"/><path class="cls-2" d="M229.74,630a1.65,1.65,0,0,0-3,1.47C227.82,633.27,230.67,631.84,229.74,630Z"/><path class="cls-2" d="M280.21,672.62a1.65,1.65,0,0,0-2.95,1.47C278.29,675.92,281.15,674.49,280.21,672.62Z"/><path class="cls-2" d="M351.53,512c-2.82-5.63-11.57-1.25-8.76,4.37S354.34,517.63,351.53,512Z"/><path class="cls-2" d="M527.53,788.4a1.65,1.65,0,0,0-2.94,1.47A1.65,1.65,0,0,0,527.53,788.4Z"/><path class="cls-2" d="M318.38,770.5a1.65,1.65,0,0,0-2.95,1.48C316.46,773.81,319.31,772.38,318.38,770.5Z"/><path class="cls-2" d="M326.64,874.34a1.65,1.65,0,0,0-2.94,1.48C324.72,877.65,327.58,876.22,326.64,874.34Z"/><path class="cls-2" d="M377.12,917a1.65,1.65,0,0,0-2.95,1.48C375.2,920.3,378.05,918.87,377.12,917Z"/><path class="cls-2" d="M448.43,756.38c-2.81-5.63-11.56-1.25-8.75,4.38S451.25,762,448.43,756.38Z"/><path class="cls-2" d="M1041.57,931.66a1.65,1.65,0,0,0-3,1.47A1.65,1.65,0,0,0,1041.57,931.66Z"/><path class="cls-2" d="M832.41,913.76a1.65,1.65,0,0,0-2.95,1.47C830.49,917.06,833.35,915.63,832.41,913.76Z"/><path class="cls-2" d="M840.68,1017.6a1.65,1.65,0,0,0-2.95,1.47C838.76,1020.9,841.61,1019.47,840.68,1017.6Z"/><path class="cls-2" d="M891.15,1060.25a1.65,1.65,0,0,0-2.95,1.47C889.23,1063.55,892.09,1062.12,891.15,1060.25Z"/><path class="cls-2" d="M962.47,899.64c-2.82-5.63-11.57-1.25-8.76,4.37S965.28,905.26,962.47,899.64Z"/><path class="cls-2" d="M823.87,235a1.65,1.65,0,0,0-2.94,1.48A1.65,1.65,0,0,0,823.87,235Z"/><path class="cls-2" d="M614.72,217.15a1.65,1.65,0,0,0-3,1.47C612.8,220.45,615.65,219,614.72,217.15Z"/><path class="cls-2" d="M623,321a1.65,1.65,0,0,0-3,1.47C621.06,324.29,623.92,322.86,623,321Z"/><path class="cls-2" d="M673.46,363.64a1.65,1.65,0,0,0-3,1.47C671.54,366.94,674.39,365.51,673.46,363.64Z"/><path class="cls-2" d="M744.77,203c-2.81-5.63-11.56-1.25-8.75,4.37S747.59,208.65,744.77,203Z"/><path class="cls-2" d="M1355.8,549.72c-1.88-3.74-7.68-.82-5.8,2.92S1357.69,553.47,1355.8,549.72Z"/><path class="cls-2" d="M1282.29,705.61a1.65,1.65,0,0,0-2.65-2C1278.47,705.38,1281,707.29,1282.29,705.61Z"/><path class="cls-2" d="M1193.25,759.68a1.65,1.65,0,0,0-2.64-2C1189.43,759.45,1192,761.36,1193.25,759.68Z"/><path class="cls-2" d="M1177.84,823.94a1.65,1.65,0,0,0-2.64-2C1174,823.71,1176.59,825.62,1177.84,823.94Z"/><path class="cls-2" d="M1353.37,815.43c3.76-5-4.08-10.89-7.84-5.85S1349.61,820.48,1353.37,815.43Z"/><path class="cls-2" d="M1291.2,843.26c-1.89-3.75-7.69-.83-5.8,2.91S1293.08,847,1291.2,843.26Z"/><path class="cls-2" d="M1217.68,999.14a1.65,1.65,0,0,0-2.64-2C1213.86,998.91,1216.43,1000.82,1217.68,999.14Z"/><path class="cls-2" d="M678.92,428.51a1.65,1.65,0,0,0-.69-3.22C676.2,425.82,676.87,429,678.92,428.51Z"/><path class="cls-2" d="M625,466.68a1.65,1.65,0,0,0-.69-3.22C622.26,464,622.93,467.12,625,466.68Z"/><path class="cls-2" d="M697.5,555.92c1-4.06-5.24-5.69-6.29-1.63S696.45,560,697.5,555.92Z"/><path class="cls-2" d="M539.46,624.7a1.65,1.65,0,0,0-.68-3.22C536.75,622,537.41,625.14,539.46,624.7Z"/><path class="cls-2" d="M1023.43,255.76c2.45-.44,1.63-3.66-.81-3.22S1021,256.2,1023.43,255.76Z"/><path class="cls-2" d="M959.24,293.93c2.44-.43,1.62-3.66-.82-3.22S956.8,294.37,959.24,293.93Z"/><path class="cls-2" d="M1045.55,383.17c1.25-4.06-6.23-5.69-7.48-1.63S1044.3,387.23,1045.55,383.17Z"/><path class="cls-2" d="M857.47,452c2.44-.44,1.62-3.66-.82-3.22S855,452.39,857.47,452Z"/><path class="cls-2" d="M1197.59,547.89c2.44-.44,1.62-3.66-.82-3.22S1195.15,548.33,1197.59,547.89Z"/><path class="cls-2" d="M1133.4,586.06c2.44-.44,1.62-3.66-.82-3.22S1131,586.5,1133.4,586.06Z"/><path class="cls-2" d="M1219.7,675.3c1.25-4.06-6.23-5.69-7.48-1.63S1218.45,679.36,1219.7,675.3Z"/><path class="cls-2" d="M1031.62,744.08c2.45-.44,1.63-3.66-.81-3.22S1029.18,744.52,1031.62,744.08Z"/><path class="cls-2" d="M904.06,599.85c2.44-.43,1.62-3.66-.82-3.22S901.61,600.29,904.06,599.85Z"/><path class="cls-2" d="M839.86,638c2.44-.44,1.63-3.67-.82-3.23S837.42,638.46,839.86,638Z"/><path class="cls-2" d="M926.17,727.26c1.25-4.06-6.23-5.69-7.48-1.63S924.92,731.32,926.17,727.26Z"/><path class="cls-2" d="M738.09,796c2.44-.43,1.62-3.66-.82-3.22S735.65,796.48,738.09,796Z"/><path class="cls-2" d="M1128.64,1053.21a1.65,1.65,0,0,0-2.64-2C1124.83,1053,1127.39,1054.9,1128.64,1053.21Z"/><path class="cls-2" d="M1327.64,532.55a1.65,1.65,0,0,0-2.59-2A1.65,1.65,0,0,0,1327.64,532.55Z"/><path class="cls-2" d="M1255.57,335.39a1.65,1.65,0,0,0-2.58-2.05C1251.76,335,1254.26,337,1255.57,335.39Z"/><path class="cls-2" d="M1164.92,386.72a1.65,1.65,0,0,0-2.58-2.05C1161.12,386.37,1163.62,388.36,1164.92,386.72Z"/><path class="cls-2" d="M1147.57,450.48a1.65,1.65,0,0,0-2.58-2.05C1143.76,450.13,1146.26,452.12,1147.57,450.48Z"/><path class="cls-2" d="M1323.27,447.33c3.91-4.93-3.75-11-7.66-6.09S1319.36,452.26,1323.27,447.33Z"/><path class="cls-2" d="M1788.38,844.66c-1.89-3.75-7.69-.83-5.8,2.92S1790.26,848.41,1788.38,844.66Z"/><path class="cls-2" d="M1760.21,827.49a1.65,1.65,0,0,0-2.58-2A1.65,1.65,0,0,0,1760.21,827.49Z"/><path class="cls-2" d="M1755.84,742.27c3.92-4.93-3.75-11-7.66-6.09S1751.93,747.19,1755.84,742.27Z"/><path class="cls-2" d="M1822.37,1048.5c2.52-3.36-2.67-7.26-5.19-3.9S1819.85,1051.85,1822.37,1048.5Z"/><path class="cls-2" d="M1825.25,1015.64a1.65,1.65,0,0,0,.69-3.23A1.65,1.65,0,0,0,1825.25,1015.64Z"/><path class="cls-2" d="M1899.67,973.89c6.15,1.32,8.21-8.25,2.06-9.57S1893.52,972.57,1899.67,973.89Z"/><path class="cls-2" d="M1180.17,227.79a1.65,1.65,0,0,0-2.58-2A1.65,1.65,0,0,0,1180.17,227.79Z"/><path class="cls-2" d="M1108.1,30.62a1.65,1.65,0,0,0-2.58-2.05C1104.29,30.28,1106.8,32.26,1108.1,30.62Z"/><path class="cls-2" d="M1017.46,82a1.65,1.65,0,0,0-2.58-2C1013.65,81.61,1016.15,83.59,1017.46,82Z"/><path class="cls-2" d="M1000.1,145.71a1.65,1.65,0,0,0-2.58-2.05C996.29,145.37,998.79,147.35,1000.1,145.71Z"/><path class="cls-2" d="M1175.8,142.56c3.92-4.92-3.75-11-7.66-6.08S1171.89,147.49,1175.8,142.56Z"/><path class="cls-2" d="M272,351.64c-6.29,0-6.29,9.79,0,9.79S278.33,351.64,272,351.64Z"/><path class="cls-2" d="M1266.93,62.42c-6.29,0-6.29,9.79,0,9.79S1273.22,62.42,1266.93,62.42Z"/><path class="cls-2" d="M480.36,567.06c-8.39,0-8.39,13,0,13S488.75,567.06,480.36,567.06Z"/><path class="cls-2" d="M1562.84,1012.12a1.65,1.65,0,0,0,0,3.3C1564.94,1015.32,1564.94,1012.12,1562.84,1012.12Z"/><path class="cls-2" d="M1478.35,867.05a1.65,1.65,0,0,0-2.95,1.47A1.65,1.65,0,0,0,1478.35,867.05Z"/><path class="cls-2" d="M1496.16,1079.41c-2.81-5.63-11.57-1.25-8.75,4.38S1499,1085,1496.16,1079.41Z"/><path class="cls-2" d="M1528.09,890.08c-8.39,0-8.39,13,0,13S1536.48,890.08,1528.09,890.08Z"/><path class="cls-2" d="M1637,975.32a1.65,1.65,0,0,0,0,3.3C1639.05,978.52,1639.05,975.32,1637,975.32Z"/><path class="cls-2" d="M1780.16,914.5c-6.29,0-6.29,9.79,0,9.79S1786.45,914.5,1780.16,914.5Z"/><path class="cls-2" d="M1714.75,637.87a1.62,1.62,0,0,0-2.2,2.39C1714.05,641.66,1716.25,639.26,1714.75,637.87Z"/><path class="cls-2" d="M1860.36,692.49c-4.6-4.29-11.29,2.7-6.69,7.09S1865,696.79,1860.36,692.49Z"/><path class="cls-2" d="M1773.67,525.51c-6.09-5.79-15.08,3.7-9,9.39S1779.76,531.31,1773.67,525.51Z"/><path class="cls-2" d="M1476.26,419.45c-8.39,0-8.39,13,0,13S1484.65,419.45,1476.26,419.45Z"/><path class="cls-2" d="M604,1057.42c-8.39,0-8.39,13,0,13S612.39,1057.42,604,1057.42Z"/></g></svg>