<svg id="Camada_1" data-name="Camada 1" xmlns="http://www.w3.org/2000/svg" xmlns:xlink="http://www.w3.org/1999/xlink" viewBox="0 0 1921 1081"><defs><style>.cls-1{fill:url(#Gradiente_sem_nome_27);}.cls-2{fill:#fff;}</style><radialGradient id="Gradiente_sem_nome_27" cx="961.35" cy="540.63" r="780.5" gradientUnits="userSpaceOnUse"><stop offset="0.04" stop-color="#e35178"/><stop offset="1" stop-color="#c71755"/></radialGradient></defs><title>bg_portal</title><rect class="cls-1" x="-0.8" y="-0.32" width="1924.29" height="1081.89"/><path class="cls-2" d="M365.4,281.14c-7.23,0-7.23,11.18,0,11.18S372.63,281.14,365.4,281.14Z"/><path class="cls-2" d="M93.39,530.43c-10.85,0-10.85,16.87,0,16.87S104.23,530.43,93.39,530.43Z"/><path class="cls-2" d="M999.18,375.28c-10.84,0-10.84,16.87,0,16.87S1010,375.28,999.18,375.28Z"/><path class="cls-2" d="M265.32,846.34c-10.84,0-10.84,16.86,0,16.86S276.16,846.34,265.32,846.34Z"/><path class="cls-2" d="M581.26,206c-10.85,0-10.85,16.86,0,16.86S592.1,206,581.26,206Z"/><path class="cls-2" d="M1145.91,841.52c-10.85,0-10.85,16.86,0,16.86S1156.75,841.52,1145.91,841.52Z"/><path class="cls-2" d="M1307.6,916.47c-10.84,0-10.84,16.87,0,16.87S1318.44,916.47,1307.6,916.47Z"/><path class="cls-2" d="M1196.42,244.22a1.42,1.42,0,0,0,0,2.84A1.42,1.42,0,0,0,1196.42,244.22Z"/><path class="cls-2" d="M879.48,360.74a1.42,1.42,0,0,0,0,2.84A1.42,1.42,0,0,0,879.48,360.74Z"/><path class="cls-2" d="M677.6,521.57a1.42,1.42,0,0,0,0,2.84A1.42,1.42,0,0,0,677.6,521.57Z"/><path class="cls-2" d="M498.1,279.76a1.42,1.42,0,0,0,0,2.84A1.42,1.42,0,0,0,498.1,279.76Z"/><path class="cls-2" d="M441.13,731.89a1.42,1.42,0,0,0,0,2.84A1.42,1.42,0,0,0,441.13,731.89Z"/><path class="cls-2" d="M151.3,783.26a1.42,1.42,0,0,0,0,2.84A1.42,1.42,0,0,0,151.3,783.26Z"/><path class="cls-2" d="M318.67,392.58a1.42,1.42,0,0,0,0,2.84A1.42,1.42,0,0,0,318.67,392.58Z"/><path class="cls-2" d="M909.43,807.61a1.42,1.42,0,0,0,0,2.84A1.42,1.42,0,0,0,909.43,807.61Z"/><path class="cls-2" d="M1159.93,795.39a1.42,1.42,0,0,0,0,2.84A1.42,1.42,0,0,0,1159.93,795.39Z"/><path class="cls-2" d="M1349.68,519.68a1.42,1.42,0,0,0,0,2.84A1.42,1.42,0,0,0,1349.68,519.68Z"/><path class="cls-2" d="M985.16,614.08a1.42,1.42,0,0,0,0,2.84A1.42,1.42,0,0,0,985.16,614.08Z"/><path class="cls-2" d="M1102.88,509.35a1.42,1.42,0,0,0,0,2.84A1.42,1.42,0,0,0,1102.88,509.35Z"/><path class="cls-2" d="M1183.34,404.71a1.42,1.42,0,0,0,0,2.84A1.42,1.42,0,0,0,1183.34,404.71Z"/><path class="cls-2" d="M1592.87,460.22a1.42,1.42,0,0,0,0,2.83A1.42,1.42,0,0,0,1592.87,460.22Z"/><path class="cls-2" d="M789.73,673.89a1.42,1.42,0,0,0,0,2.84A1.42,1.42,0,0,0,789.73,673.89Z"/><path class="cls-2" d="M525.2,831.45c-3.61,0-3.61,5.59,0,5.59S528.82,831.45,525.2,831.45Z"/><path class="cls-2" d="M811.24,395.85c-3.61,0-3.61,5.59,0,5.59S814.86,395.85,811.24,395.85Z"/><path class="cls-2" d="M166.27,506.08c-3.61,0-3.61,5.6,0,5.6S169.89,506.08,166.27,506.08Z"/><path class="cls-2" d="M435.45,208.25c-3.62,0-3.62,5.59,0,5.59S439.06,208.25,435.45,208.25Z"/><path class="cls-2" d="M1303.9,224.17c-3.61,0-3.61,5.59,0,5.59S1307.51,224.17,1303.9,224.17Z"/><path class="cls-2" d="M855.22,898.74c-3.62,0-3.62,5.6,0,5.6S858.83,898.74,855.22,898.74Z"/><path class="cls-2" d="M1015,938c-3.62,0-3.62,5.6,0,5.6S1018.63,938,1015,938Z"/><path class="cls-2" d="M1145.91,683.27c-5.43,0-5.43,8.43,0,8.43S1151.33,683.27,1145.91,683.27Z"/><path class="cls-2" d="M564.53,679.48c-5.42,0-5.42,8.43,0,8.43S570,679.48,564.53,679.48Z"/><path class="cls-2" d="M96.14,831.88c-5.42,0-5.42,8.43,0,8.43S101.56,831.88,96.14,831.88Z"/><path class="cls-2" d="M231.67,441.11c-5.42,0-5.42,8.43,0,8.43S237.1,441.11,231.67,441.11Z"/><path class="cls-2" d="M594.39,386.9c-5.42,0-5.42,8.43,0,8.43S599.81,386.9,594.39,386.9Z"/><path class="cls-2" d="M641.12,291c-5.43,0-5.43,8.43,0,8.43S646.54,291,641.12,291Z"/><path class="cls-2" d="M411.18,626.73c-7.23,0-7.23,11.19,0,11.19S418.41,626.73,411.18,626.73Z"/><path class="cls-2" d="M1489.09,850c-10.85,0-10.85,16.87,0,16.87S1499.93,850,1489.09,850Z"/><path class="cls-2" d="M1531.17,926.11c-5.42,0-5.42,8.43,0,8.43S1536.59,926.11,1531.17,926.11Z"/><path class="cls-2" d="M1377.82,873.36c-7.23,0-7.23,11.18,0,11.18S1385.13,873.36,1377.82,873.36Z"/><path class="cls-2" d="M1474.8,687.74a1.4,1.4,0,0,0-1.89,2.07C1474.2,691,1476.09,689,1474.8,687.74Z"/><path class="cls-2" d="M1600.27,734.81c-4-3.7-9.73,2.33-5.77,6.11S1604.23,738.51,1600.27,734.81Z"/><path class="cls-2" d="M1525.57,590.93c-5.25-5-13,3.18-7.74,8.09S1530.82,595.92,1525.57,590.93Z"/><path class="cls-2" d="M1269.31,499.54c-7.23,0-7.23,11.19,0,11.19S1276.54,499.54,1269.31,499.54Z"/><path class="cls-2" d="M1008.48,795c-7.23,0-7.23,11.19,0,11.19S1015.71,795,1008.48,795Z"/><path class="cls-2" d="M1638.87,145.19c-9,0-9,14,0,14S1647.91,145.19,1638.87,145.19Z"/><path class="cls-2" d="M1676.57,471.7c-10.85,0-10.85,16.86,0,16.86S1687.41,471.7,1676.57,471.7Z"/><path class="cls-2" d="M1848.5,787.6c-10.84,0-10.84,16.87,0,16.87S1859.34,787.6,1848.5,787.6Z"/><path class="cls-2" d="M1820.53,579.18c-10.84,0-10.84,16.86,0,16.86S1831.38,579.18,1820.53,579.18Z"/><path class="cls-2" d="M1734.48,724.52a1.42,1.42,0,0,0,0,2.84A1.42,1.42,0,0,0,1734.48,724.52Z"/><path class="cls-2" d="M1620.46,474a1.42,1.42,0,0,0,0,2.84A1.42,1.42,0,0,0,1620.46,474Z"/><path class="cls-2" d="M1789.64,145.3a1.42,1.42,0,0,0,0,2.84A1.42,1.42,0,0,0,1789.64,145.3Z"/><path class="cls-2" d="M1640.08,878.82a1.42,1.42,0,0,0,0,2.84A1.42,1.42,0,0,0,1640.08,878.82Z"/><path class="cls-2" d="M1722.35,897.49a1.42,1.42,0,0,0,0,2.84A1.42,1.42,0,0,0,1722.35,897.49Z"/><path class="cls-2" d="M1723.29,912.46a1.42,1.42,0,0,0,0,2.84A1.42,1.42,0,0,0,1723.29,912.46Z"/><path class="cls-2" d="M1775.61,890a1.42,1.42,0,0,0,0,2.84A1.42,1.42,0,0,0,1775.61,890Z"/><path class="cls-2" d="M1749.45,447.34c-3.61,0-3.61,5.6,0,5.6S1753.07,447.34,1749.45,447.34Z"/><path class="cls-2" d="M1679.32,773.14c-5.42,0-5.42,8.44,0,8.44S1684.74,773.14,1679.32,773.14Z"/><path class="cls-2" d="M1814.85,382.37c-5.42,0-5.42,8.44,0,8.44S1820.28,382.37,1814.85,382.37Z"/><path class="cls-2" d="M987.59,16.63c-7.69,0-7.69,12,0,12S995.29,16.63,987.59,16.63Z"/><path class="cls-2" d="M1488.36,85.16a1.42,1.42,0,0,0,0,2.84A1.42,1.42,0,0,0,1488.36,85.16Z"/><path class="cls-2" d="M1146.3,23.48c-3.85,0-3.85,6,0,6S1150.15,23.48,1146.3,23.48Z"/><path class="cls-2" d="M598.31,155.89c-7.23,0-7.23,11.19,0,11.19S605.54,155.89,598.31,155.89Z"/><path class="cls-2" d="M1704.75,110.67a1.42,1.42,0,0,0,0,2.84A1.42,1.42,0,0,0,1704.75,110.67Z"/><path class="cls-2" d="M1282.68,13.79a1,1,0,0,0,0,2A1,1,0,0,0,1282.68,13.79Z"/><path class="cls-2" d="M172.47,126.43c8-4.24,1.4-16.62-6.58-12.39S164.49,130.67,172.47,126.43Z"/><path class="cls-2" d="M30,140.1a1,1,0,0,0-.94-1.78A1,1,0,0,0,30,140.1Z"/><path class="cls-2" d="M333.56,108.87a1.42,1.42,0,0,0-1.34-2.51A1.42,1.42,0,0,0,333.56,108.87Z"/><path class="cls-2" d="M249.14,213c4.79-2.55.83-10-3.95-7.45S244.35,215.57,249.14,213Z"/><path class="cls-2" d="M130.47,187.82a1.42,1.42,0,0,0-1.33-2.51A1.42,1.42,0,0,0,130.47,187.82Z"/><path class="cls-2" d="M63.1,224a1,1,0,0,0-1-1.78A1,1,0,0,0,63.1,224Z"/></svg>