<svg id="Camada_1" data-name="Camada 1" xmlns="http://www.w3.org/2000/svg" viewBox="0 0 270.13 209.63"><defs><style>.cls-1{fill:#3b0d70;}</style></defs><title>bolon1</title><path class="cls-1" d="M1.16,47q2.75-.45,5.31-.69c1.7-.15,3.15-.23,4.33-.23a37,37,0,0,1,9.93,1.39,20.86,20.86,0,0,1,8.84,5,26.11,26.11,0,0,1,6.29,10.18q2.46,6.6,2.46,17T35.57,96.14a20.87,20.87,0,0,1-7.87,9.37q8.27,5.55,12.59,17.24t4.33,31.58q0,18.75-4.53,29.62T28.89,200a30.56,30.56,0,0,1-14.26,6.36,50,50,0,0,1-13.47.46ZM11,99.5a23.69,23.69,0,0,0,12.49-5.09q5-4.17,5-14.81a33.12,33.12,0,0,0-1.57-11.22,19.22,19.22,0,0,0-4-6.83A13.87,13.87,0,0,0,17.28,58a20,20,0,0,0-6.29-1Zm23.79,54.83q0-13.19-1.77-21.28A38.28,38.28,0,0,0,28.1,120.2a17.08,17.08,0,0,0-7.57-6.59A37.82,37.82,0,0,0,11,111.07v85.6a24.34,24.34,0,0,0,7.87-2,19.34,19.34,0,0,0,7.67-6.37,38.69,38.69,0,0,0,5.89-12.72Q34.79,167.52,34.78,154.33Z"/><path class="cls-1" d="M5.81,208.27A40.85,40.85,0,0,1,1,208l-1-.12V46l1-.16c1.85-.31,3.66-.55,5.39-.71s3.23-.23,4.43-.23A38.45,38.45,0,0,1,21,46.32a22.38,22.38,0,0,1,9.33,5.24A27.53,27.53,0,0,1,37,62.19c1.68,4.5,2.53,10.36,2.53,17.41s-1,12.8-2.85,17a22.56,22.56,0,0,1-6.91,8.91c5,3.83,8.94,9.48,11.66,16.82,2.92,7.88,4.4,18.65,4.4,32,0,12.59-1.56,22.7-4.62,30.06s-7,13-11.56,16.55a31.86,31.86,0,0,1-14.8,6.6A59.47,59.47,0,0,1,5.81,208.27Zm-3.49-2.46a51.37,51.37,0,0,0,12.13-.57,29.34,29.34,0,0,0,13.72-6.13c4.28-3.33,7.93-8.58,10.85-15.61s4.44-16.89,4.44-29.17c0-13.06-1.44-23.55-4.26-31.18S32.33,110,27.06,106.48l-1.48-1,1.5-1a19.72,19.72,0,0,0,7.43-8.86c1.76-3.92,2.65-9.33,2.65-16.07s-.8-12.36-2.38-16.6a25.19,25.19,0,0,0-6-9.74,19.94,19.94,0,0,0-8.36-4.7,35.91,35.91,0,0,0-9.63-1.35c-1.11,0-2.53.08-4.22.23-1.37.12-2.79.3-4.25.52Zm7.51-7.9V109.74l1.32.18A39,39,0,0,1,21,112.54a18.28,18.28,0,0,1,8.09,7,39.66,39.66,0,0,1,5.08,13.24c1.19,5.45,1.79,12.7,1.79,21.53s-.8,16.14-2.4,21.61a40.46,40.46,0,0,1-6.09,13.11,20.61,20.61,0,0,1-8.14,6.73,25.58,25.58,0,0,1-8.25,2.05Zm2.32-85.49v83a24.5,24.5,0,0,0,6.26-1.76,18.29,18.29,0,0,0,7.19-6,37.64,37.64,0,0,0,5.71-12.35c1.54-5.26,2.31-12.32,2.31-21s-.58-15.75-1.74-21a36.86,36.86,0,0,0-4.75-12.44,16,16,0,0,0-7-6.17A35.83,35.83,0,0,0,12.15,112.42ZM9.83,100.81V55.76H11a21.22,21.22,0,0,1,6.66,1.1,15.06,15.06,0,0,1,6.07,3.88A20.57,20.57,0,0,1,28,68,34.49,34.49,0,0,1,29.65,79.6c0,7.42-1.83,12.7-5.43,15.7a24.87,24.87,0,0,1-13.09,5.35Zm2.32-42.69v40a22,22,0,0,0,10.59-4.64C25.79,91,27.33,86.3,27.33,79.6a32.12,32.12,0,0,0-1.5-10.82,18.16,18.16,0,0,0-3.78-6.42,12.58,12.58,0,0,0-5.13-3.29A19.13,19.13,0,0,0,12.15,58.12Z"/><path class="cls-1" d="M78.63,46.51q10.23,0,16.42,20.36t6.19,63.86q0,40-5.6,58.89t-17,18.85q-11.2,0-16.91-19T56,130.73q0-43.5,6.29-63.86T78.63,46.51Zm0,10.88q-5.7,0-9.24,17.81t-3.54,55.53q0,34.25,3.15,50.44t9.63,16.2q6.5,0,9.64-16.08t3.14-50.56q0-37.71-3.54-55.53T78.63,57.39Z"/><path class="cls-1" d="M78.63,209.63c-8,0-14.07-6.66-18-19.8-3.82-12.69-5.75-32.57-5.75-59.1,0-29,2.13-50.58,6.34-64.2,4.34-14.05,10.21-21.18,17.43-21.18s13.25,7.13,17.53,21.18c4.14,13.63,6.24,35.22,6.24,64.2,0,26.68-1.9,46.6-5.65,59.22C92.87,203,86.78,209.63,78.63,209.63Zm0-162c-6.09,0-11.2,6.58-15.21,19.55-4.14,13.39-6.24,34.76-6.24,63.51,0,26.3,1.9,46,5.65,58.44,3.62,12,8.94,18.14,15.8,18.14s12.34-6.06,15.9-18c3.68-12.4,5.55-32.11,5.55-58.56,0-28.75-2.06-50.12-6.14-63.52C90,54.25,84.84,47.67,78.63,47.67Zm0,150.86c-5,0-8.54-5.61-10.77-17.14-2.11-10.82-3.17-27.86-3.17-50.66,0-25.09,1.2-43.85,3.56-55.75,2.54-12.8,5.84-18.75,10.38-18.75S86.47,62.18,89,75c2.36,11.9,3.56,30.66,3.56,55.75,0,22.94-1.06,40-3.16,50.78C87.16,193,83.64,198.53,78.63,198.53Zm0-140c-1.77,0-5.18,2.19-8.1,16.88C68.19,87.18,67,105.79,67,130.73c0,22.65,1,39.54,3.12,50.22,1.94,10,4.88,15.26,8.5,15.26s6.56-5.24,8.5-15.14c2.07-10.62,3.12-27.55,3.12-50.34,0-24.94-1.18-43.55-3.52-55.3C83.82,60.74,80.41,58.55,78.63,58.55Z"/><path class="cls-1" d="M128.38,46.51V196.44h30.67v10.88H118.54V46.51Z"/><path class="cls-1" d="M160.21,208.48H117.38V45.35h12.16V195.28h30.67Zm-40.5-2.32h38.18V197.6H127.22V47.67h-7.51Z"/><path class="cls-1" d="M185.6,46.51q10.22,0,16.42,20.36t6.19,63.86q0,40-5.61,58.89t-17,18.85q-11.22,0-16.91-19T163,130.73q0-43.5,6.3-63.86T185.6,46.51Zm0,10.88q-5.72,0-9.25,17.81t-3.53,55.53q0,34.25,3.14,50.44t9.64,16.2q6.48,0,9.63-16.08t3.15-50.56q0-37.71-3.54-55.53T185.6,57.39Z"/><path class="cls-1" d="M185.6,209.63c-8,0-14.08-6.66-18-19.8-3.82-12.69-5.76-32.57-5.76-59.1,0-29,2.14-50.59,6.35-64.2,4.4-14.25,10.1-21.18,17.43-21.18s13.25,7.13,17.53,21.18c4.14,13.63,6.24,35.23,6.24,64.2,0,26.68-1.9,46.6-5.65,59.22C199.83,203,193.74,209.63,185.6,209.63Zm0-162c-6.09,0-11.21,6.58-15.22,19.55-4.14,13.39-6.24,34.76-6.24,63.51,0,26.3,1.91,46,5.66,58.44,3.62,12,8.93,18.14,15.8,18.14s12.34-6.06,15.89-18c3.69-12.41,5.56-32.11,5.56-58.56,0-28.74-2.07-50.12-6.14-63.52C197,54.25,191.81,47.67,185.6,47.67Zm0,150.86c-5,0-8.54-5.61-10.78-17.14-2.1-10.81-3.16-27.85-3.16-50.66,0-25.1,1.19-43.86,3.56-55.75,2.54-12.8,5.84-18.75,10.38-18.75s7.84,6,10.38,18.75c2.36,11.89,3.56,30.65,3.56,55.75,0,23-1.07,40-3.17,50.78C194.13,193,190.6,198.53,185.6,198.53Zm0-140c-1.78,0-5.19,2.19-8.11,16.88-2.33,11.74-3.51,30.35-3.51,55.3,0,22.66,1.05,39.56,3.12,50.22,1.94,10,4.87,15.26,8.5,15.26s6.55-5.24,8.49-15.14c2.07-10.61,3.13-27.54,3.13-50.34,0-24.95-1.19-43.56-3.52-55.3C190.78,60.74,187.37,58.55,185.6,58.55Z"/><path class="cls-1" d="M225.51,207.32V46.51l8.85-.23L259.13,158V46.51H269V207.32l-8.84.23L235.34,96V207.32Z"/><path class="cls-1" d="M259.19,208.73,236.5,106.6V208.48H224.35V45.38l10.93-.29L258,147.44V45.35h12.16v163.1Zm-25-123.28L261,206.36l6.76-.17V47.67h-7.51v121L233.43,47.46l-6.76.18V206.16h7.51Z"/><path class="cls-1" d="M55.27,24.3q0-8.76,1.88-13.1c1.25-2.9,3.28-4.34,6.09-4.34S68.07,8.3,69.3,11.2s1.83,7.26,1.83,13.1q0,7.23-2,11.06c-1.35,2.55-3.31,3.83-5.86,3.83s-4.58-1.31-5.93-3.92S55.27,29,55.27,24.3Zm3.91,0a24.84,24.84,0,0,0,1,8c.67,1.93,1.69,2.9,3,2.9s2.29-.94,3-2.81a24.75,24.75,0,0,0,1-8.08,40.85,40.85,0,0,0-.94-10.21c-.63-2.21-1.64-3.32-3.05-3.32Q59.18,10.77,59.18,24.3Z"/><path class="cls-1" d="M205.9,22.94V24.3a30.65,30.65,0,0,0,.27,4.17,19.37,19.37,0,0,0,.76,3.44,7.77,7.77,0,0,0,1.23,2.38,2.12,2.12,0,0,0,1.65.9,2.72,2.72,0,0,0,2.27-1.53,12.11,12.11,0,0,0,1.42-3.24l3.84.17a21.56,21.56,0,0,1-1,3,14.06,14.06,0,0,1-1.58,2.77,8.49,8.49,0,0,1-2.15,2,4.92,4.92,0,0,1-2.77.81,5.18,5.18,0,0,1-3.38-1.2A8.92,8.92,0,0,1,204,34.76,18.84,18.84,0,0,1,202.56,30a30.75,30.75,0,0,1-.5-5.74q0-8,2.15-12.72t5.84-4.72a4.6,4.6,0,0,1,3.84,1.78,12.38,12.38,0,0,1,2.07,4.3,23.68,23.68,0,0,1,.81,5.27c.07,1.85.08,3.42,0,4.73Zm4.15-12.17c-.88,0-1.67.77-2.39,2.3A19.16,19.16,0,0,0,206.2,19H213c0-.85,0-1.75-.08-2.72a12.32,12.32,0,0,0-.42-2.68,6.65,6.65,0,0,0-.92-2A1.82,1.82,0,0,0,210.05,10.77Z"/><path class="cls-1" d="M115.46,2.38a2.13,2.13,0,0,1,.78-1.74,2.54,2.54,0,0,1,3.37,0,2.11,2.11,0,0,1,.79,1.74A2,2,0,0,1,119.61,4a2.54,2.54,0,0,1-3.37,0A2,2,0,0,1,115.46,2.38ZM120,7.66V39.13h-4.11V7.66Z"/><path class="cls-1" d="M131.23,39.13h-4.12V7.66H131v3.23A6.22,6.22,0,0,1,133.29,8,5.35,5.35,0,0,1,136,7.23a5,5,0,0,1,2.3.51A5.45,5.45,0,0,1,140,9a7.78,7.78,0,0,1,1.11,1.7,18.55,18.55,0,0,1,.78,1.87l-3.54,1.19a10.34,10.34,0,0,0-1-1.78,1.61,1.61,0,0,0-1.31-.86q-1.65,0-3,2.43a17.5,17.5,0,0,0-1.81,5.91Z"/><path class="cls-1" d="M145.56,24.2q0-8.76,1.84-13.1c1.22-2.89,3.22-4.34,6-4.34s4.74,1.45,5.94,4.34,1.8,7.26,1.8,13.1q0,7.23-2,11.06c-1.33,2.56-3.25,3.83-5.75,3.83s-4.5-1.3-5.83-3.91S145.56,28.91,145.56,24.2Zm3.83,0a25.28,25.28,0,0,0,1,8c.66,1.93,1.66,2.89,3,2.89s2.24-.93,2.91-2.8a25.51,25.51,0,0,0,1-8.09A41.66,41.66,0,0,0,156.37,14c-.62-2.21-1.61-3.31-3-3.31Q149.39,10.68,149.39,24.2Z"/><path class="cls-1" d="M98.88,23v2.68h6a18.93,18.93,0,0,1-1,6.68c-.71,1.87-1.73,2.81-3.09,2.81s-2.46-1-3.16-2.9a24.14,24.14,0,0,1-1.06-8q0-13.53,4.22-13.53c1.47,0,2.52,1.11,3.17,3.32.11.39.22.83.31,1.29h4A19.77,19.77,0,0,0,107,11.14c-1.27-2.89-3.36-4.33-6.29-4.33s-5,1.44-6.32,4.33-2,7.27-2,13.11q0,7,2.11,11a6.79,6.79,0,0,0,12.25.09c1.32-2.4,2-5.82,2.1-10.22h0V23Z"/><path class="cls-1" d="M192.94,11.2a7.43,7.43,0,0,0-7.17-4.34h-4.2V39.19h4.2a7.72,7.72,0,0,0,6.94-3.83q2.41-3.82,2.41-11.06Q195.12,15.54,192.94,11.2Zm-3.65,21.18q-1.22,2.81-3.52,2.81h-.09V10.78h.09c1.66,0,2.87,1.11,3.61,3.32s1.11,5.61,1.11,10.21A21.3,21.3,0,0,1,189.29,32.38Z"/><path class="cls-1" d="M81.3,19.57c-4.19,0-4.2,6.74,0,6.74S85.51,19.57,81.3,19.57Z"/><path class="cls-1" d="M171.34,20.6c-4.19,0-4.2,6.74,0,6.74S175.55,20.6,171.34,20.6Z"/></svg>