<svg id="Camada_1" data-name="Camada 1" xmlns="http://www.w3.org/2000/svg" viewBox="0 0 337.65 262.04"><defs><style>.cls-1{fill:#22b4b9;}.cls-2{fill:#fff;}</style></defs><title>bolon2</title><path class="cls-1" d="M1.45,58.72C3.74,58.33,6,58,8.09,57.85s3.93-.29,5.4-.29a46.67,46.67,0,0,1,12.42,1.73A26.42,26.42,0,0,1,37,65.51Q41.76,70,44.83,78.24T47.9,99.5q0,13-3.44,20.67a26,26,0,0,1-9.83,11.72q10.32,6.93,15.73,21.54t5.41,39.48q0,23.43-5.65,37t-14,20.1a38.15,38.15,0,0,1-17.82,8,63.07,63.07,0,0,1-16.84.58Zm12.29,65.65A29.53,29.53,0,0,0,29.35,118q6.27-5.2,6.26-18.51,0-8.69-2-14a24.1,24.1,0,0,0-5-8.53,17.23,17.23,0,0,0-7-4.49,25.09,25.09,0,0,0-7.86-1.3Zm29.74,68.54q0-16.49-2.21-26.61t-6.15-16.05A21.31,21.31,0,0,0,25.66,142a47.4,47.4,0,0,0-11.92-3.18v107a30.12,30.12,0,0,0,9.83-2.46,24.15,24.15,0,0,0,9.59-7.95q4.43-5.79,7.37-15.91T43.48,192.91Z"/><path class="cls-1" d="M7.27,260.34a49.69,49.69,0,0,1-6-.34L0,259.85V57.49l1.21-.2C3.52,56.9,5.79,56.6,8,56.4s4-.29,5.54-.29a47.85,47.85,0,0,1,12.8,1.79A27.81,27.81,0,0,1,38,64.45c3.34,3.13,6.11,7.6,8.23,13.28s3.16,13,3.16,21.77-1.2,16-3.56,21.27a28.2,28.2,0,0,1-8.64,11.14c6.28,4.79,11.17,11.85,14.57,21,3.65,9.86,5.5,23.31,5.5,40,0,15.74-1.94,28.38-5.77,37.58S42.74,246.7,37,251.18a39.83,39.83,0,0,1-18.5,8.24A74.73,74.73,0,0,1,7.27,260.34ZM2.9,257.25a64.23,64.23,0,0,0,15.17-.7,36.93,36.93,0,0,0,17.14-7.66c5.35-4.16,9.91-10.73,13.57-19.52s5.54-21.11,5.54-36.46c0-16.32-1.79-29.44-5.32-39s-8.59-16.42-15.18-20.85L32,131.85l1.87-1.19a24.72,24.72,0,0,0,9.29-11.08c2.2-4.9,3.31-11.65,3.31-20.08s-1-15.45-3-20.76S39,69.39,36,66.57a25,25,0,0,0-10.46-5.88,45.39,45.39,0,0,0-12-1.68c-1.39,0-3.17.1-5.28.28-1.71.16-3.49.38-5.31.66Zm9.39-9.87V137.17l1.65.22a49,49,0,0,1,12.28,3.28,22.85,22.85,0,0,1,10.11,8.78c2.71,4.09,4.85,9.65,6.35,16.54s2.25,15.88,2.25,26.92-1,20.17-3,27-4.57,12.41-7.61,16.39a25.63,25.63,0,0,1-10.18,8.41,32,32,0,0,1-10.3,2.57Zm2.9-106.86V244.24A30.34,30.34,0,0,0,23,242a22.77,22.77,0,0,0,9-7.49c2.83-3.7,5.23-8.89,7.14-15.44S42,203.71,42,192.91s-.73-19.68-2.18-26.3-3.43-11.77-5.94-15.56a20,20,0,0,0-8.81-7.7A45,45,0,0,0,15.19,140.52ZM12.29,126V69.7h1.45a26.29,26.29,0,0,1,8.32,1.38,18.65,18.65,0,0,1,7.59,4.85A25.69,25.69,0,0,1,35,85,43.2,43.2,0,0,1,37.07,99.5c0,9.28-2.29,15.88-6.8,19.62a31,31,0,0,1-16.35,6.69Zm2.9-53.36v50a27.53,27.53,0,0,0,13.23-5.8c3.81-3.17,5.75-9,5.75-17.39A40.47,40.47,0,0,0,32.29,86a22.85,22.85,0,0,0-4.73-8,15.77,15.77,0,0,0-6.41-4.11A24.21,24.21,0,0,0,15.19,72.65Z"/><path class="cls-1" d="M98.29,58.14q12.76,0,20.52,25.45t7.74,79.82q0,50-7,73.61T98.29,260.59q-14,0-21.14-23.72T70,163.41q0-54.36,7.87-79.82T98.29,58.14Zm0,13.59q-7.14,0-11.56,22.27t-4.42,69.41q0,42.81,3.93,63.05t12.05,20.25q8.1,0,12-20.1t3.93-63.2q0-47.13-4.42-69.41T98.29,71.73Z"/><path class="cls-1" d="M98.29,262c-10,0-17.6-8.33-22.53-24.75-4.77-15.86-7.19-40.72-7.19-73.88,0-36.23,2.67-63.23,7.93-80.25,5.43-17.57,12.76-26.47,21.79-26.47,9.19,0,16.56,8.91,21.91,26.48,5.18,17,7.8,44,7.8,80.24,0,33.35-2.37,58.25-7.06,74C116.09,253.76,108.47,262,98.29,262Zm0-202.45c-7.61,0-14,8.22-19,24.43-5.17,16.74-7.8,43.45-7.8,79.39,0,32.88,2.38,57.45,7.07,73,4.52,15.06,11.17,22.69,19.75,22.69,8.74,0,15.43-7.58,19.87-22.54,4.6-15.5,6.94-40.12,6.94-73.19,0-35.93-2.58-62.65-7.68-79.4C112.49,67.81,106.05,59.59,98.29,59.59Zm0,188.57c-6.27,0-10.67-7-13.47-21.42-2.63-13.53-4-34.83-4-63.33,0-31.37,1.5-54.81,4.45-69.69,3.18-16,7.3-23.44,13-23.44s9.79,7.45,13,23.44c3,14.88,4.45,38.32,4.45,69.69,0,28.67-1.33,50-4,63.47C109,241.2,104.55,248.16,98.29,248.16Zm0-175c-2.22,0-6.48,2.74-10.13,21.1-2.92,14.7-4.4,37.95-4.4,69.13,0,28.31,1.32,49.43,3.91,62.77,2.42,12.48,6.09,19.07,10.62,19.07s8.19-6.54,10.62-18.92c2.59-13.27,3.9-34.44,3.9-62.92,0-31.18-1.48-54.43-4.39-69.13C104.77,75.92,100.51,73.18,98.29,73.18Z"/><path class="cls-1" d="M160.47,58.14V245.55h38.34v13.59H148.18v-201Z"/><path class="cls-1" d="M200.26,260.59H146.73V56.69h15.19V244.1h38.34Zm-50.63-2.9h47.73V247H159V59.59h-9.39Z"/><path class="cls-1" d="M232,58.14q12.78,0,20.52,25.45t7.75,79.82q0,50-7,73.61T232,260.59q-14,0-21.14-23.72t-7.12-73.46q0-54.36,7.86-79.82T232,58.14Zm0,13.59q-7.12,0-11.55,22.27T216,163.41q0,42.81,3.93,63.05t12,20.25q8.12,0,12-20.1t3.94-63.2q0-47.13-4.43-69.41T232,71.73Z"/><path class="cls-1" d="M232,262c-10,0-17.59-8.33-22.52-24.75-4.77-15.86-7.19-40.72-7.19-73.88,0-36.23,2.66-63.23,7.93-80.25,5.5-17.81,12.63-26.47,21.78-26.47s16.57,8.91,21.91,26.48c5.18,17,7.81,44,7.81,80.24,0,33.34-2.38,58.25-7.07,74C249.79,253.76,242.17,262,232,262Zm0-202.45c-7.61,0-14,8.22-19,24.43-5.18,16.74-7.8,43.45-7.8,79.39,0,32.88,2.37,57.45,7.06,73,4.53,15.06,11.17,22.69,19.75,22.69,8.74,0,15.43-7.58,19.87-22.54,4.61-15.5,6.94-40.13,6.94-73.19,0-35.93-2.58-62.64-7.67-79.4C246.2,67.81,239.76,59.59,232,59.59Zm0,188.57c-6.27,0-10.67-7-13.47-21.42-2.62-13.51-4-34.82-4-63.33,0-31.38,1.49-54.82,4.45-69.69,3.17-16,7.3-23.44,13-23.44s9.8,7.45,13,23.44c2.95,14.87,4.45,38.31,4.45,69.69,0,28.69-1.34,50-4,63.47C242.66,241.2,238.25,248.16,232,248.16Zm0-175c-2.22,0-6.48,2.74-10.13,21.1-2.91,14.69-4.39,37.94-4.39,69.13,0,28.32,1.31,49.44,3.9,62.77,2.42,12.48,6.09,19.07,10.62,19.07s8.2-6.54,10.62-18.92c2.59-13.25,3.91-34.42,3.91-62.92,0-31.19-1.48-54.44-4.4-69.13C238.47,75.92,234.21,73.18,232,73.18Z"/><path class="cls-1" d="M281.88,259.14v-201l11.06-.29,31,139.69V58.14H336.2v201l-11.06.29-31-139.4V259.14Z"/><path class="cls-1" d="M324,260.91,295.62,133.25V260.59H280.43V56.73l13.67-.36L322.46,184.3V56.69h15.19V260.55Zm-31.26-154.1L326.3,258l8.45-.22V59.59h-9.39V210.78L291.78,59.33l-8.45.22V257.69h9.39Z"/><path class="cls-2" d="M69.09,30.37q0-10.95,2.35-16.38t7.61-5.42q5.28,0,7.57,5.42t2.3,16.38q0,9-2.54,13.83T79.05,49q-4.87,0-7.42-4.89T69.09,30.37Zm4.88,0a31.44,31.44,0,0,0,1.27,10Q76.52,44,79.05,44t3.71-3.51A31,31,0,0,0,84,30.37q0-8.61-1.17-12.76c-.78-2.76-2-4.15-3.81-4.15Q74,13.46,74,30.37Z"/><path class="cls-2" d="M257.37,28.67v1.7a38.92,38.92,0,0,0,.33,5.21,24.92,24.92,0,0,0,1,4.31,9.54,9.54,0,0,0,1.54,3A2.65,2.65,0,0,0,262.26,44a3.41,3.41,0,0,0,2.84-1.91,14.79,14.79,0,0,0,1.77-4l4.8.21A27.48,27.48,0,0,1,270.38,42a16.83,16.83,0,0,1-2,3.46A10.65,10.65,0,0,1,265.72,48a6.18,6.18,0,0,1-3.46,1A6.48,6.48,0,0,1,258,47.49a11.27,11.27,0,0,1-3-4,24.51,24.51,0,0,1-1.82-5.9,38.87,38.87,0,0,1-.62-7.18q0-10,2.68-15.9t7.3-5.9a5.74,5.74,0,0,1,4.8,2.23,15.22,15.22,0,0,1,2.59,5.38,28.79,28.79,0,0,1,1,6.59c.1,2.3.11,4.27.05,5.9Zm5.18-15.21c-1.09,0-2.08,1-3,2.87a23.51,23.51,0,0,0-1.83,7.45h8.55c0-1.06,0-2.2-.1-3.4a15,15,0,0,0-.53-3.35,8.31,8.31,0,0,0-1.15-2.56A2.3,2.3,0,0,0,262.55,13.46Z"/><path class="cls-2" d="M144.32,3a2.64,2.64,0,0,1,1-2.18,3.27,3.27,0,0,1,2.11-.8,3.31,3.31,0,0,1,2.11.8,2.66,2.66,0,0,1,1,2.18,2.54,2.54,0,0,1-1,2.07,3.31,3.31,0,0,1-2.11.8,3.27,3.27,0,0,1-2.11-.8A2.52,2.52,0,0,1,144.32,3ZM150,9.57V48.92h-5.15V9.57Z"/><path class="cls-2" d="M164,48.92h-5.14V9.57h4.84v4A7.72,7.72,0,0,1,166.61,10,6.63,6.63,0,0,1,170,9a6.12,6.12,0,0,1,2.88.64,6.6,6.6,0,0,1,2.06,1.59,9.89,9.89,0,0,1,1.39,2.13,23.27,23.27,0,0,1,1,2.34l-4.43,1.49A14,14,0,0,0,171.65,15,2,2,0,0,0,170,13.93q-2.06,0-3.7,3A22,22,0,0,0,164,24.35Z"/><path class="cls-2" d="M181.94,30.25q0-11,2.3-16.37t7.48-5.43q5.17,0,7.42,5.43t2.26,16.37q0,9-2.5,13.83t-7.18,4.78q-4.8,0-7.29-4.89T181.94,30.25Zm4.79,0a31.82,31.82,0,0,0,1.25,10q1.25,3.61,3.74,3.62c1.59,0,2.81-1.17,3.64-3.51a31.73,31.73,0,0,0,1.24-10.11q0-8.61-1.15-12.76c-.76-2.76-2-4.14-3.73-4.14Q186.72,13.35,186.73,30.25Z"/><path class="cls-2" d="M123.6,28.71v3.35h7.48a23.55,23.55,0,0,1-1.31,8.35q-1.32,3.51-3.85,3.51t-4-3.62a30.12,30.12,0,0,1-1.32-10q0-16.9,5.28-16.91,2.73,0,4,4.15c.15.48.27,1,.39,1.62h5a24.49,24.49,0,0,0-1.52-5.24q-2.39-5.43-7.86-5.42c-3.66,0-6.29,1.8-7.92,5.42s-2.43,9.08-2.43,16.38q0,8.82,2.64,13.72t7.71,4.89q5,0,7.6-4.79c1.66-3,2.52-7.27,2.62-12.77h0V28.71Z"/><path class="cls-2" d="M241.18,14a9.32,9.32,0,0,0-9-5.42H227V49h5.24a9.67,9.67,0,0,0,8.69-4.78q3-4.79,3-13.83Q243.9,19.42,241.18,14ZM236.6,40.47Q235.1,44,232.2,44h-.1V13.47h.1c2.09,0,3.59,1.39,4.52,4.15s1.39,7,1.39,12.76C238.11,34.77,237.6,38.13,236.6,40.47Z"/><path class="cls-2" d="M101.63,24.46c-5.25,0-5.26,8.42,0,8.42S106.88,24.46,101.63,24.46Z"/><path class="cls-2" d="M214.18,25.75c-5.25,0-5.26,8.42,0,8.42S219.43,25.75,214.18,25.75Z"/></svg>