<?xml version="1.0" encoding="utf-8"?>
<!-- Generator: Adobe Illustrator 26.1.0, SVG Export Plug-In . SVG Version: 6.00 Build 0)  -->
<svg version="1.1" id="Camada_1" xmlns="http://www.w3.org/2000/svg" xmlns:xlink="http://www.w3.org/1999/xlink" x="0px" y="0px"
	 viewBox="0 0 510.6 70.4" style="enable-background:new 0 0 510.6 70.4;" xml:space="preserve">
<style type="text/css">
	.st0{fill:#254CA5;}
	.st1{fill-rule:evenodd;clip-rule:evenodd;fill:#254CA5;}
</style>
<path class="st0" d="M173.2,43.6c-1.6,0.6-3.4,0.9-5.1,0.9c-6.3,0-10.1-3.9-10.1-10c0-6.5,4.5-10.4,10.6-10.4
	c1.6-0.1,3.3,0.2,4.8,0.9l-0.8,2.9c-1.2-0.5-2.5-0.8-3.9-0.8c-4,0-6.9,2.5-6.9,7.3c0,4.4,2.5,7.1,6.9,7.1c1.3,0,2.7-0.2,3.9-0.7
	L173.2,43.6z"/>
<path class="st0" d="M182.9,24.4v19.8h-3.6V24.4H182.9z"/>
<path class="st0" d="M193.9,38.6l-1.7,5.6h-3.7l6.3-19.8h4.7l6.4,19.8h-3.9l-1.8-5.6H193.9z M199.5,35.8L198,31
	c-0.4-1.2-0.7-2.6-1-3.7h-0.1c-0.3,1.1-0.6,2.5-0.9,3.7l-1.5,4.9L199.5,35.8z"/>
<path class="st0" d="M211.5,24.7c1.8-0.3,3.6-0.5,5.4-0.4c2.9,0,4.8,0.5,6.1,1.6c1.1,1,1.8,2.5,1.7,4c0,2.2-1.5,4.2-3.6,4.9v0.1
	c1.4,0.5,2.3,1.9,2.8,3.8c0.4,1.9,0.9,3.7,1.6,5.5h-3.7c-0.6-1.5-1-3.1-1.3-4.7c-0.6-2.6-1.5-3.4-3.6-3.5h-1.8v8.1h-3.6L211.5,24.7z
	 M215,33.4h2.1c2.4,0,3.9-1.3,3.9-3.2c0-2.1-1.5-3.2-3.8-3.2c-0.8,0-1.5,0-2.2,0.2L215,33.4z"/>
<path class="st0" d="M254.3,24.1c2.1-0.3,4.3-0.5,6.4-0.4c2.9,0,5,0.6,6.4,1.7c1.5,1.2,2.3,3,2.3,4.9c0.1,1.9-0.6,3.7-1.9,5
	c-1.9,1.6-4.3,2.4-6.8,2.2c-0.5,0-1.1,0-1.6-0.1v7.5h-4.7L254.3,24.1z M259,33.6c0.5,0.1,1.1,0.1,1.6,0.1c2.5,0,4.1-1.3,4.1-3.4
	c0-1.9-1.3-3.1-3.7-3.1c-0.6,0-1.3,0-1.9,0.1L259,33.6z"/>
<path class="st0" d="M273,24.1c2.1-0.3,4.2-0.5,6.3-0.4c3.1,0,5.3,0.5,6.8,1.6c1.3,1.1,2.1,2.7,2,4.4c0,2.3-1.5,4.4-3.7,5.1v0.1
	c1.5,0.6,2.3,2,2.8,3.9c0.5,2,1,4,1.7,5.9H284c-0.6-1.6-1.1-3.2-1.4-4.9c-0.6-2.6-1.5-3.3-3.5-3.4h-1.4v8.3H273V24.1z M277.7,33.1
	h1.9c2.4,0,3.8-1.2,3.8-3s-1.3-2.9-3.5-2.9c-0.7,0-1.4,0-2.1,0.1L277.7,33.1z"/>
<path class="st0" d="M311.1,34.1c0,6.9-4.1,11-10.3,11s-9.9-4.7-9.9-10.7c0-6.3,4-11,10.2-11C307.6,23.5,311.1,28.3,311.1,34.1z
	 M296,34.3c0,4.1,1.9,7,5.1,7s5-3,5-7.1c0-3.8-1.8-7-5-7S296,30.3,296,34.3L296,34.3z"/>
<path class="st0" d="M327.3,35.9h-7.7v5h8.6v3.9h-13.3v-21h12.9v3.9h-8.2v4.4h7.7V35.9z"/>
<path class="st0" d="M347.4,44.2c-1.7,0.6-3.5,1-5.3,0.9c-7.2,0-11-4.5-11-10.5c0-7.1,5.1-11.1,11.4-11.1c1.8-0.1,3.5,0.2,5.2,0.9
	l-1,3.7c-1.3-0.5-2.6-0.8-4-0.8c-3.7,0-6.6,2.3-6.6,6.9c0,4.2,2.5,6.8,6.7,6.8c1.4,0,2.7-0.2,4-0.7L347.4,44.2z"/>
<path class="st0" d="M20.4,57.9h-0.2l-0.6-0.2c-0.3,0-0.5-0.2-0.8-0.3c-0.1-0.2-0.3-0.4-0.5-0.5c-0.4-0.3-0.7-0.7-1-1.1
	c-0.1-0.2-0.2-0.3-0.3-0.4c-0.1,0-0.2-0.1-0.3-0.2c0-0.1-0.1-0.2-0.2-0.2c-0.2,0-0.3,0-0.5,0c-0.2,0-0.3,0-0.5,0c-0.1,0-0.2,0-0.3,0
	c-0.1,0-0.1,0-0.2,0c-0.2,0-0.5,0-1,0c-0.5,0-0.9-0.2-1.2-0.7c-0.5-0.6-0.8-1.4-0.8-2.2c-0.1-0.5-0.2-1-0.2-1.5l0.1-0.2l0,0
	c0.1,0,0.2,0,0.2,0.1c0.1,0.1,0.2,0.1,0.2,0.1c0.2,0,0.4-0.1,0.5-0.2c0.2-0.1,0.4-0.2,0.6-0.3c-0.1,0-0.1,0.1-0.1,0.2h0.1
	c0.2,0,0.4-0.1,0.6-0.2c0.1-0.1,0.3-0.2,0.5-0.2c0,0,0.1,0,0.1,0h0.1c0.2,0,0.4-0.1,0.5-0.3c0-0.1,0.1-0.2,0.1-0.2c0,0,0.1,0,0.1,0
	c0,0,0.1,0,0.1,0c0.1,0,0.3,0,0.4-0.1c0.1,0.1,0.3,0,0.4-0.1c0-0.1,0.1-0.2,0.2-0.2c0.1,0,0.2-0.1,0.3-0.1c0.1,0,0.2,0,0.2,0.1
	c0,0.1,0.1,0.1,0.2,0.1c0,0,0.1-0.1,0.1-0.1c0-0.3,0.1-0.4,0.3-0.4c0.4,0,0.7-0.2,1-0.4c0.4-0.1,0.7-0.3,1-0.5c0,0,0-0.1,0-0.1
	s0.1-0.2,0.3-0.2c0.1,0,0.1,0,0.2,0c0,0,0-0.1,0-0.1v-0.2c0.1-0.3,0.2-0.5,0.3-0.5c0.1,0,0.1,0,0.2,0c0.2,0,0.3-0.1,0.3-0.2
	c0-0.1,0.1-0.2,0.2-0.3c0.1-0.1,0.2-0.3,0.3-0.4c0.2-0.3,0.3-0.6,0.4-1c0-0.1,0-0.2,0.1-0.2c0.2-0.2,0.4-0.5,0.5-0.8
	c0.3-0.7,0.5-1.1,0.6-1.2c0.1-0.1,0.2-0.3,0.2-0.4c0.1-0.3,0.2-0.5,0.3-0.7c0.1-0.2,0.2-0.4,0.3-0.6c0-0.1,0.1-0.2,0.1-0.3
	C24,40.1,24,40,24,39.8c0.1-0.3,0.2-0.6,0.5-0.8c0.1-0.2,0.2-0.4,0.3-0.6c0-0.1,0.1-0.3,0.1-0.4c0.1-0.1,0.1-0.2,0.1-0.3
	c0-0.1,0-0.2,0.1-0.2c0.1,0,0.1-0.1,0.1-0.2c0-0.1,0.1-0.2,0.2-0.2c0.1,0,0.2-0.1,0.2-0.2v-0.2c0-0.1,0-0.2,0.1-0.3
	c0.3-0.4,0.5-0.8,0.7-1.2c0.2-0.4,0.4-0.8,0.6-1.2c0.2-0.2,0.3-0.5,0.3-0.8l0-0.1c0,0,0-0.1,0-0.1c0.2-0.1,0.2-0.2,0.2-0.3l0-0.1
	c0,0,0-0.1,0.1-0.1s0.2-0.1,0.2-0.2s0-0.1,0-0.1c0,0,0-0.1,0-0.1c0-0.1,0-0.1,0.1-0.1c0,0,0.1,0,0.1,0c0.3-0.1,0.5-0.4,0.5-0.8v-0.2
	c0-0.2,0.1-0.3,0.2-0.5c0.1-0.2,0.2-0.5,0.3-0.7l0-0.2c0,0,0-0.1-0.1-0.1c-1.3,0.3-2.6,0.7-3.9,1.3c-0.1,0.1-0.2,0.1-0.4,0.2
	c-0.4,0.1-0.7,0.2-1.1,0.4c-0.1,0-0.3,0.1-0.3,0.2c0,0-0.1,0-0.1,0.1c-0.1,0-0.1,0.1-0.2,0.1c-0.3,0.2-0.7,0.3-1,0.4
	c-0.1,0-0.2,0.1-0.3,0.1l-0.2,0.1c-0.3,0.1-0.6,0.2-0.8,0.4c-0.5,0.4-1.1,0.7-1.6,1c-0.1,0-0.2,0.1-0.3,0.1
	c-0.1,0.1-0.3,0.1-0.5,0.1c-0.1,0-0.2,0.1-0.2,0.2c-0.2,0.2-0.4,0.4-0.7,0.4c-0.2,0-0.4,0.1-0.6,0.3c-0.3,0.2-0.6,0.4-0.8,0.6
	c-0.6,0.4-1.1,0.8-1.6,1.2c-0.1,0.2-0.3,0.4-0.5,0.5c-0.2,0.1-0.3,0.2-0.4,0.4c-0.1,0.1-0.1,0.3-0.3,0.4c-0.1,0.1-0.1,0.2-0.1,0.3
	c0,0.2,0.1,0.4,0.2,0.5c0.2,0.1,0.2,0.3,0.3,0.5c0,0.1,0,0.1,0,0.2v0.1c0,0-0.1,0-0.2,0l-0.4-0.1c-0.2,0-0.3,0-0.5-0.1L12,39.4
	c-0.5-0.4-0.9-0.9-1.2-1.5l-0.4-0.7c0-0.3,0-0.6,0-0.8c0-0.1,0-0.2,0.1-0.3c0-0.1,0-0.3,0.1-0.4c0.2-0.4,0.4-0.6,0.5-0.6
	c0.2-0.1,0.3-0.3,0.3-0.5c0.1-0.1,0.2-0.1,0.3-0.1c0.1,0,0.2-0.1,0.3-0.2c0.1-0.1,0.1-0.1,0.2-0.2c0.1-0.1,0.2-0.2,0.3-0.3
	c0.2-0.2,0.4-0.4,0.7-0.5c0.2-0.1,0.4-0.2,0.5-0.3c0.1-0.1,0.1-0.1,0.2-0.2l0-0.1c0.1-0.2,0.3-0.4,0.5-0.4c0.1,0,0.2,0,0.3-0.1
	c0.2-0.2,0.5-0.3,0.8-0.3c0.2,0,0.3,0,0.3-0.1v-0.1H16l0,0h-0.2c0.1-0.2,0.3-0.3,0.5-0.4c0,0,0.1,0,0.1,0c0,0,0.1,0,0.1,0
	c0,0,0.1,0,0.1,0c0.1,0,0.2,0,0.2,0c0.2-0.1,0.5-0.3,0.7-0.5l0.1,0c0.1,0,0.1,0,0.2,0H18c0,0,0.1,0,0.1-0.1s0-0.1,0.1-0.1
	c0,0,0.1,0,0.1,0c0.1,0,0.1,0.1,0.1,0.1c0.1,0,0.2-0.1,0.3-0.2c0.1-0.1,0.2-0.2,0.3-0.3c0.1-0.1,0.2-0.2,0.3-0.3c0.1,0,0.1,0,0.2,0
	c0,0,0.1,0,0.1,0c0,0,0.1,0,0.1,0c0.1,0,0.2-0.1,0.3-0.1c0.1-0.1,0.3-0.1,0.4-0.1h0.1c0.1,0,0.2,0,0.2,0c0.5-0.2,0.9-0.4,1.5-0.6
	c0.1,0,0.1-0.1,0.1-0.2s0-0.1,0-0.1h0.1h0.1c0.1,0,0.1,0,0.2,0h0.1c0.4,0,0.8-0.2,1.1-0.3c0.4-0.1,0.8-0.3,1.2-0.4
	c0.2,0,0.3-0.1,0.4-0.3c0.1-0.1,0.2-0.2,0.4-0.2H26c0.2,0,0.4,0,0.5-0.1c0,0,0.1-0.1,0.2-0.1h0l0.1,0.1c0,0,0.1,0.1,0.1,0.1
	c0.1,0,0.2,0,0.3-0.1c0.1-0.1,0.1-0.1,0.1-0.1c0-0.1,0-0.1-0.1-0.2c0,0-0.1,0-0.1-0.1l0.3-0.2c0,0,0.1,0,0.1,0l0,0
	c0,0,0,0.1,0.1,0.1c0,0.1,0.1,0.1,0.2,0.1c0.1,0,0.2-0.1,0.3-0.1c0.1,0,0.2,0,0.3,0.1c0.2,0,0.3-0.1,0.3-0.3v-0.1l0,0h0.1
	c0,0,0,0,0,0c0,0,0,0.1,0,0.1l0.1,0.1l0.1-0.1c0-0.1,0.1-0.1,0.2-0.2c0.1,0,0.1-0.1,0.2-0.1c0.1,0,0.1,0,0.2,0.1
	c0.1,0,0.1,0.1,0.2,0.1H30h0.2c0.1,0,0.2,0,0.3-0.1c0.1,0,0.3-0.1,0.4-0.1c0.1,0,0.2-0.1,0.4-0.2c0.1-0.1,0.3-0.2,0.5-0.2
	c0,0,0.1,0,0.1,0h0.1c0.1,0,0.2,0.1,0.2,0.1c0.1,0,0.2,0,0.2-0.1c0.2,0,0.3,0,0.3-0.1c0,0,0-0.1-0.1-0.1c0,0-0.1-0.1-0.1-0.1
	l0.1-0.1h0.1l0.4,0.1c0,0.1,0.1,0.1,0.2,0.1c0.1,0,0.1,0,0.2-0.1c0.1-0.1,0.3-0.1,0.4-0.1c0.1,0,0.1,0,0.2,0c0,0,0.1,0,0.1,0h0.3
	c0,0,0.1,0,0.1,0c0.1,0,0.2-0.1,0.4-0.1c0.1,0,0.2,0,0.3-0.1c0.1,0,0.1-0.1,0.2-0.1c0,0,0.1,0,0.1,0c0.1,0,0.3,0.1,0.4,0
	c0.1,0,0.1,0,0.2,0s0.2-0.2,0.5-0.3l0,0c0.1,0,0.2,0,0.2,0.1c0,0.1,0.1,0.1,0.1,0.1c0.1,0,0.3-0.1,0.4,0c0.1,0,0.2,0,0.2,0.1
	c0.3,0.1,0.6,0.2,0.9,0.2c0.2,0,0.4,0,0.5-0.1c0.1-0.1,0.2-0.2,0.4-0.1h0.2c0.1,0,0.3,0,0.4,0c0.5,0,0.9,0.1,1.4,0.3
	c0,0,0.1,0.1,0.2,0.1c0.1,0.1,0.1,0.1,0.2,0.1l0.1,0l0.1-0.1c0,0,0.1,0,0.1-0.1h0.1c0,0,0.1,0,0.1,0h0.1h0.1h0.1c0,0,0.1,0,0.1,0
	c0.1,0,0.1,0,0.2,0c0,0,0.1-0.1,0.1-0.1l0,0c0.2,0.2,0.4,0.3,0.7,0.3c0.1,0.1,0.3,0.1,0.5,0.1l0.3,0c0.1,0,0.2,0,0.3,0.1
	c0.4,0.2,0.8,0.6,1,1c0,0.1,0.1,0.2,0.2,0.2c0.8,0.7,1.4,1.6,1.8,2.6c0,0.1,0.1,0.2,0.1,0.3C48,30,48,30.3,48,30.7v0.7
	c0,0.5-0.1,1-0.4,1.5c-0.3,0.6-0.6,1.1-1,1.6c-0.2,0.2-0.3,0.4-0.5,0.5c-0.2,0.3-0.5,0.5-0.7,0.7c-0.2,0.2-0.4,0.3-0.6,0.5
	c-0.8,0.7-1.7,1.4-2.7,2c-0.2,0.1-0.5,0.3-0.7,0.5l-0.7,0.5c-0.2,0.1-0.5,0.3-0.7,0.5l-0.7,0.5l-0.7,0.4c-0.3,0.2-0.7,0.5-1.1,0.7
	c-0.3,0.3-0.7,0.5-1.1,0.7l0,0c-0.2,0.2-0.9,0.6-2,1.2c-0.4,0.2-0.8,0.5-1.2,0.7c-0.7,0.5-1.5,0.9-2.3,1.3c-0.2,0-0.4,0.1-0.5,0.3
	l0,0c-0.3,0.3-0.7,0.5-1.1,0.7c-0.2,0.1-0.3,0.1-0.4,0.2c-0.1,0.1-0.3,0.2-0.4,0.2c-0.2,0.1-0.3,0.1-0.4,0.2
	c-0.2,0.1-0.4,0.2-0.6,0.3c-0.1,0-0.2,0.1-0.2,0.1c-0.1,0.1-0.2,0.2-0.3,0.2c-0.4,0.2-0.8,0.4-1.2,0.7c-0.5,0.3-0.9,0.6-1.3,0.8
	c-0.5,0.3-0.7,0.8-0.8,1.4c0,0.1,0.1,0.2,0.2,0.2c0,0,0,0,0,0c0.2-0.1,0.5-0.1,0.7-0.2h0.5c0.2,0,0.4,0,0.6-0.1c0.1,0,0.1,0,0.2,0
	h0.4h0.2c0,0,0.1,0,0.1,0c0.1,0,0.2,0,0.3,0c0.1,0,0.3,0,0.4,0.1c0.1,0.1,0.2,0.1,0.2,0.1h0.1c0.2-0.1,0.3-0.1,0.5-0.2
	c0.1,0,0.1,0,0.1,0.1v0.1c0,0.1,0,0.2,0.1,0.2c0.1-0.1,0.2-0.2,0.3-0.4c0.1,0,0.1-0.1,0.2-0.1c0.1,0,0.2,0,0.2,0h0.1
	c0.2,0,0.4,0.1,0.4,0.3c0,0,0,0,0.1,0c0.1,0,0.1-0.1,0.1-0.2c0-0.1,0-0.2,0.1-0.2l0.2,0.1c0,0,0,0,0.1,0s0,0,0,0.1
	c0.1,0.1,0.2,0.1,0.3,0.1c0.1,0,0.2,0,0.3-0.1c0.1-0.1,0.2-0.1,0.4-0.1c0.1,0,0.2,0,0.3,0c0.1,0,0.2,0,0.3,0c0.1,0,0.2,0,0.4,0
	c0.3,0.1,0.5,0.1,0.8,0.2c0,0,0,0,0-0.1s0-0.1,0-0.1h0c0,0,0-0.1,0-0.1h0.5c0,0,0,0,0.1,0c0.1-0.1,0.2-0.1,0.4-0.1
	c0.1,0,0.2,0,0.4,0c0.1,0,0.1,0,0.2,0c0,0,0.1,0,0.1,0h0.1c0.1-0.1,0.3-0.1,0.5-0.1c0.2,0,0.4,0.1,0.5,0.2c0,0,0.1,0,0.1,0
	s0.1,0,0.1-0.1l0,0l0.1-0.1c0.3-0.1,0.6-0.1,0.9-0.1c0.2,0,0.4,0,0.6,0.1c0.2,0,0.3,0,0.5,0c0.2,0,0.4,0,0.5-0.1
	c0.1-0.1,0.2-0.2,0.3-0.2l0.3-0.1c0.1,0,0.1,0,0.2,0c0.2,0,0.3,0.1,0.5,0.1c0.1,0.1,0.1,0.2,0.1,0.3c0.1,0.2,0.2,0.4,0.4,0.5
	c0.1,0.3,0.3,0.5,0.5,0.7c0.6,0.5,0.9,1.3,0.9,2c0,0.2-0.1,0.4-0.2,0.5c-0.1,0.1-0.3,0.2-0.4,0.2l-0.3-0.1c-0.5-0.2-1-0.3-1.5-0.3
	c-0.3-0.1-0.6-0.1-0.9-0.1c-0.3-0.1-0.7-0.1-1-0.1c-1.4,0-2.3,0-2.6,0h-0.4c-0.2,0-0.3,0-0.5,0c-0.4,0-0.9,0-1.3,0
	c-0.5,0-1,0-1.5,0.1c-0.7,0.1-1.5,0.1-2.2,0c-0.3,0-0.5,0-0.8,0.1c-0.3,0-0.6,0-0.9,0c-0.4,0-0.9,0-1.3,0.1c-0.1,0-0.4,0-0.8,0
	c-0.3,0-0.5,0-0.8,0c-0.1,0-0.7,0.1-1.7,0.1c-0.4,0-0.7,0.7-1.1,1.9c-0.2,0.5-0.5,1-0.6,1.5c-0.1,0.3-0.4,0.5-0.6,0.5 M27.5,43
	c0.2,0,0.3-0.1,0.4-0.2c0.1-0.1,0.3-0.2,0.4-0.2c0.2-0.1,0.5-0.3,0.7-0.4c0.2-0.1,0.4-0.2,0.6-0.2c0.2,0,0.3-0.1,0.4-0.2
	c0.1-0.1,0.2-0.1,0.3-0.1c0.2-0.1,0.4-0.2,0.5-0.4c0-0.1,0-0.1,0-0.2c0-0.1,0.1-0.2,0.2-0.2c0,0,0,0,0.1,0c0.1,0,0.1,0.1,0.1,0.1
	c0,0.1,0.1,0.1,0.1,0.1c0.2-0.1,0.4-0.3,0.6-0.5v-0.1l0.1-0.1v0l0,0l0.1-0.1c0,0,0,0,0,0c0.1,0,0.1,0,0.2,0.1c0.1,0,0.1,0.1,0.2,0.1
	h0.1l0.1-0.1c0.1,0,0.2,0,0.2,0c0.1,0,0.2,0,0.2-0.1c0-0.1,0.1-0.2,0.2-0.2c0,0,0.1-0.1,0.1-0.2v-0.1h-0.1L33,39.9h-0.1v-0.1
	c0.2-0.1,0.3-0.2,0.5-0.3c0.2-0.1,0.3-0.2,0.5-0.3c0.5-0.4,1-0.7,1.5-1c0.3-0.2,0.7-0.4,1-0.6c0,0,0,0,0.1,0h0.1
	c0,0.1,0,0.1-0.1,0.2c0,0,0.1,0,0.1,0c0,0,0.1,0,0.1-0.1l0.2-0.1c0,0,0.1,0,0.1-0.1c0,0,0-0.1,0-0.1c0,0,0-0.1,0-0.1
	c0.2-0.2,0.5-0.4,0.8-0.5c0.4-0.3,0.8-0.6,1.2-0.9c0.3-0.2,0.6-0.3,0.8-0.6c0.6-0.4,1-0.7,1-0.8c0.1-0.1,0.2-0.2,0.3-0.3
	c0.5-0.3,1-0.7,1.4-1.2c0.1-0.1,0.3-0.2,0.4-0.3c0.7-0.5,1-0.8,1-0.9v-0.2c0.1-0.2,0.2-0.3,0.4-0.4c0.2-0.1,0.3-0.2,0.4-0.3
	c0.2-0.2,0.3-0.4,0.4-0.6c0.1-0.2,0.2-0.4,0.3-0.5l0,0c0.1-0.1,0.1-0.2,0.1-0.3v-0.1c0-0.4-0.6-0.7-1.7-0.9
	c-0.2-0.1-0.5-0.1-0.7-0.2c-0.3-0.1-0.7-0.1-1-0.1c-0.1,0-0.3,0-0.4,0c-0.4-0.1-0.9-0.2-1.4-0.2c-1.5,0-2.4,0-2.7,0.1
	c-0.3,0-0.6,0.1-0.9,0.1c-0.1,0-0.1,0-0.2,0c-0.1,0-0.3,0-0.4,0c-0.1,0-0.2,0-0.3,0c0,0-0.1,0-0.1,0c-0.1,0-0.8,0.1-2,0.4
	c-0.2,0.1-0.5,0.1-0.7,0.1c-0.2,0-0.4,0-0.6,0.1c-0.3,0.1-0.5,0.1-0.7,0.2c0,0.1,0,0.1,0.1,0.2c0.3,0.2,0.6,0.5,0.9,0.8
	c0.2,0.1,0.3,0.4,0.3,0.6c0,0.4-0.1,0.8-0.3,1.2c-0.1,0.1-0.1,0.3-0.1,0.4c-0.4,1-0.8,1.9-1.3,2.8c-0.3,0.5-0.4,0.8-0.5,1L30,37.5
	c-0.7,1.2-1.2,2.3-1.6,3.3c-0.2,0.5-0.4,0.9-0.7,1.4c-0.1,0.2-0.2,0.4-0.3,0.7l0,0c0,0.2,0.1,0.2,0.3,0.2 M34.7,39
	c0.1,0,0.2-0.1,0.2-0.1v-0.1c-0.1,0-0.2,0-0.3,0.1C34.7,39,34.7,39,34.7,39 M35.2,38.7c0.1,0,0.2,0,0.2-0.1h-0.1c0,0,0,0,0,0
	C35.2,38.6,35.2,38.6,35.2,38.7L35.2,38.7 M40.4,25.3L40.4,25.3C40.4,25.2,40.4,25.2,40.4,25.3c-0.2-0.1-0.4-0.1-0.5-0.1l-0.4,0h0
	c0,0,0,0.1,0,0.1L40.4,25.3"/>
<path class="st0" d="M46.8,52.9h-0.7c-0.6-0.1-1.2-0.3-1.7-0.6L43.9,52c-0.3-0.2-0.6-0.4-0.8-0.7c0-0.1-0.1-0.2-0.2-0.2
	c-0.2-0.2-0.4-0.5-0.6-0.8c0,0,0-0.1-0.1-0.1c0-0.1-0.1-0.1-0.1-0.2c0-0.1-0.1-0.1-0.1-0.2l-0.7-1.6c-0.1-0.5-0.2-0.9-0.1-1.4
	c0-0.5,0.1-1,0.4-1.5c0.1-0.2,0.2-0.5,0.3-0.8c0.1-0.2,0.2-0.4,0.4-0.4c0.2,0,0.3-0.2,0.3-0.3c0-0.1,0-0.3,0-0.4
	c0-0.1,0.1-0.1,0.4-0.1c0.2-0.2,0.3-0.3,0.5-0.5c0-0.1,0.1-0.2,0.1-0.2c0.2-0.1,0.3-0.3,0.4-0.5c0.2-0.4,0.5-0.7,0.9-1
	c0.1-0.1,0.2-0.3,0.3-0.4c0-0.2,0.2-0.5,0.4-0.6c0.4-0.3,0.8-0.6,1.2-1c0.3-0.2,0.6-0.5,0.9-0.7c0.5-0.4,1-0.7,1.6-0.9
	c0.1-0.1,0.3-0.2,0.4-0.3l-0.1-0.1l0,0h0.1h0.1c0.1,0,0.3,0,0.4,0.1c0.3,0.1,0.5,0.2,0.7,0.4c0.2,0.1,0.4,0.3,0.6,0.4
	c0.3,0.1,0.5,0.3,0.7,0.5c0.1,0.1,0.2,0.2,0.3,0.2c0.4,0.2,0.7,0.5,0.9,0.9c0.3,0.4,0.4,0.9,0.4,1.5c0,0.1-0.1,0.6-0.2,1.4
	c-0.1,0.4-0.2,0.7-0.5,1c-0.4,0.6-0.9,1.1-1.3,1.6c-0.2,0.2-0.4,0.4-0.6,0.6c-0.7,0.8-1.5,1.3-2.5,1.7c-0.1,0.1-0.3,0.1-0.5,0.1
	l-0.5-0.1c-0.2,0-0.4,0-0.6-0.1c-0.1-0.1-0.2-0.2-0.3-0.2c-0.1,0-0.2-0.1-0.3-0.2c-0.2-0.1-0.4-0.3-0.5-0.5
	c-0.1-0.1-0.2-0.2-0.3-0.3c-0.1,0-0.1-0.1-0.2-0.1c-0.1,0-0.3,0.3-0.5,0.7c-0.1,0.2-0.2,0.4-0.2,0.6c0,0,0,0.1,0,0.1
	c-0.2,0.1-0.3,0.6-0.4,1.4v0.3c0,0.2,0.1,0.4,0.3,0.4c0.1,0,0.2,0,0.3,0.1c0.1,0.1,0.2,0.1,0.2,0.1c0.1,0,0.3-0.1,0.4-0.1
	c0.1,0,0.2,0.1,0.3,0.1c0.1,0,0.3,0,0.4-0.1c0.7-0.2,1.4-0.5,2.1-0.8l0.7-0.3c0.1,0,0.2-0.1,0.3-0.1c0.2-0.1,0.5-0.2,0.7-0.3
	c0.2-0.1,0.5-0.2,0.7-0.4l0.3-0.1c0.2-0.2,0.4-0.3,0.7-0.3c0.1,0,0.2,0,0.3-0.1c0.2-0.2,0.5-0.4,0.8-0.5c0.2-0.1,0.3-0.1,0.4-0.3
	c0.2-0.2,0.5-0.3,0.8-0.4l0.4-0.2c0.1,0,0.1-0.1,0.2-0.1c0.3-0.3,0.7-0.5,1.1-0.6c0.2-0.1,0.4-0.2,0.5-0.3l1-0.5
	c0.3-0.2,0.6-0.3,0.9-0.5c0.2-0.1,0.4-0.3,0.6-0.4c0.2-0.1,0.3-0.2,0.4-0.4c0.1-0.1,0.2-0.1,0.3-0.1c0.1,0,0.2,0,0.3-0.1
	c0.1,0,0.2,0,0.2,0.1c0,0.2,0.1,0.4,0.2,0.6c0,0.1,0.1,0.2,0.1,0.3c0,0.1,0,0.2-0.1,0.3c-0.1,0.1-0.1,0.2-0.2,0.4v0.2
	c0,0.1,0,0.2-0.1,0.3c-0.1,0.1-0.1,0.2-0.1,0.3c-0.1,0.3-0.4,0.5-0.7,0.7c-0.3,0.2-0.5,0.4-0.5,0.7l-0.1,0.1l0,0l-0.2-0.1l0,0
	c-0.1,0.2-0.2,0.3-0.4,0.4c-0.1,0.1-0.3,0.2-0.4,0.3c-0.3,0.1-0.5,0.3-0.8,0.5c-0.1,0.2-0.4,0.4-0.6,0.4c-0.2,0-0.3,0.1-0.4,0.4
	c0,0.1-0.1,0.2-0.2,0.2c-0.1,0-0.2,0.1-0.2,0.1c-0.1,0.1-0.2,0.2-0.3,0.2c-0.5,0.2-1,0.5-1.4,0.8c-0.6,0.4-1.4,0.8-2.4,1.4
	c-0.3,0.1-0.5,0.3-0.7,0.5c0,0,0,0.1-0.1,0.1h-0.1c-0.2,0-0.4,0-0.5,0.1c-0.9,0.4-1.8,0.6-2.7,0.6 M46.8,44.4c0.1,0,0.2,0,0.2-0.1
	c0.2-0.2,0.5-0.3,0.8-0.3c0.2,0,0.4-0.1,0.5-0.3c0.1-0.1,0.2-0.2,0.2-0.2c0.1-0.1,0.2-0.2,0.2-0.3v-0.1c0,0,0-0.1,0.1-0.1h0.1
	c0.2-0.2,0.4-0.4,0.5-0.6c0-0.1,0.1-0.2,0.2-0.2c0.1-0.1,0.2-0.2,0.3-0.3c0.2-0.3,0.5-0.6,0.8-0.9v0c0-0.1,0-0.1-0.1-0.1
	c-0.7,0.3-1.4,0.7-2,1.2c-0.3,0.2-0.6,0.5-0.9,0.8c-0.4,0.4-0.7,0.8-1.1,1.2v0.1L46.8,44.4z"/>
<path class="st0" d="M60,53.2c-0.2,0-0.3-0.1-0.5-0.1c-0.2-0.1-0.4-0.1-0.6-0.2c-0.1,0-0.1,0-0.1-0.1c-0.1-0.2-0.3-0.3-0.4-0.4
	c-0.6-0.5-1-1.2-1.3-1.9c-0.3-0.4-0.5-0.8-0.5-1.3c0-0.5,0.2-0.9,0.4-1.4l0,0c0,0,0,0,0.1,0c0.1-0.1,0.2-0.3,0.2-0.5
	c0,0,0-0.1-0.1-0.1s-0.1,0-0.1-0.1c0-0.1,0-0.2,0.1-0.2c0-0.1,0.1-0.2,0.3-0.2s0.3-0.2,0.4-0.4l0-0.1v-0.4c0,0,0.1-0.1,0.1-0.1
	c0,0,0,0,0,0h0.3c0,0,0-0.1,0-0.1c0,0,0.1-0.1,0.1-0.1c0.1,0,0.1-0.1,0.1-0.2c0-0.2,0.1-0.4,0.3-0.6c0-0.1,0.1-0.2,0.1-0.2
	c0-0.1,0-0.2,0-0.2c0.2,0,0.4-0.1,0.6-0.2l0.2-0.4v-0.2c0,0,0-0.1,0.1-0.1c0.1,0,0.1,0,0.2-0.1c0-0.1,0-0.2,0-0.3v-0.1l0,0
	c0-0.1,0.1-0.2,0.3-0.2c0.1,0,0.2-0.1,0.2-0.1c0-0.2,0-0.3,0.1-0.5c0.2-0.3,0.4-0.4,0.6-0.4c0,0,0.1,0,0.2,0h0.1
	c0.1,0,0.2-0.1,0.2-0.2v-0.3c0-0.2,0.1-0.3,0.2-0.4c0.1-0.1,0.3-0.2,0.4-0.3c0.2-0.4,0.6-0.6,1-0.8c0.1,0,0.1-0.1,0.1-0.1v-0.1
	c0-0.1,0.2-0.3,0.6-0.6l0.2-0.2c0-0.1,0.1-0.2,0.2-0.2c0.5-0.3,1.1-0.7,1.5-1.1c0.2-0.1,0.4-0.3,0.6-0.4c0.1-0.2,0.3-0.3,0.5-0.3
	h0.2c0.2,0,0.3,0,0.5-0.1c0.1,0,0.2-0.1,0.3-0.1c0.2,0,0.4,0.1,0.6,0.2c0.1,0.1,0.2,0.1,0.3,0.1c0.5,0.2,1.1,0.4,1.5,0.8
	c0.1,0.1,0.2,0.2,0.3,0.2c0.6,0.2,1,0.8,1,1.4c0,0.2-0.1,0.4-0.2,0.6c-0.1,0.1-0.2,0.2-0.3,0.2c-0.1,0-0.2,0-0.3,0.1
	c-0.1,0.1-0.2,0.1-0.3,0.1h-0.1l-0.5,0c-0.2,0-0.3,0-0.5-0.1h-0.1c0,0-0.1,0-0.1,0c-0.6,0.1-1.2,0.4-1.6,0.8
	c-0.1,0.2-0.3,0.3-0.5,0.4c-0.1,0.1-0.2,0.2-0.3,0.2c-0.1,0.2-0.3,0.4-0.5,0.5c-0.3,0.1-0.5,0.4-0.7,0.6c-0.1,0.1-0.2,0.2-0.3,0.2
	c-0.3,0.1-0.5,0.4-0.7,0.7c-0.1,0.1-0.1,0.2-0.2,0.2c-0.1,0-0.1,0.1-0.2,0.1c-0.1,0-0.1,0.1-0.1,0.3c-0.2,0-0.3,0.1-0.4,0.3
	l-0.1,0.1c-0.1,0.1-0.1,0.2-0.2,0.3c-0.1,0.1-0.2,0.2-0.3,0.3c-0.4,0.4-0.8,0.9-1.1,1.3c-0.2,0.1-0.2,0.2-0.2,0.3v0.1
	c0,0.1-0.1,0.2-0.2,0.3l-0.1,0.1l0,0l0,0l0,0h0.1c0.1-0.1,0.2-0.1,0.3-0.2c0.2-0.2,0.5-0.6,0.9-1c0,0,0.1-0.1,0.1-0.1
	c0-0.1,0.1-0.3,0.4-0.5c0.1-0.1,0.2-0.1,0.3-0.1c0.3,0,0.5-0.3,0.9-0.8c0.1-0.2,0.2-0.4,0.4-0.6c0.5-0.3,0.9-0.7,1.2-1.1
	c0.1-0.1,0.3-0.2,0.5-0.2h0.1c0.4-0.3,0.7-0.6,1-1c0-0.1,0.1-0.1,0.2-0.2c0.1,0,0.1,0,0.2,0c0.3,0.1,0.6,0.2,0.9,0.3
	c0.8,0.3,1.6,0.8,2.1,1.5c0.2,0.2,0.3,0.5,0.3,0.8c-0.1,0.4-0.2,0.7-0.3,1.1c-0.4,0.9-0.6,1.8-0.8,2.8c0,0,0,0,0.1,0.1h0.1
	c0.1,0,0.2-0.1,0.2-0.1h0.1c0,0,0.1,0,0.2,0h0.1c0.1,0.3,0.2,0.5,0.3,0.8c0,0.1,0,0.2,0.1,0.3c0.1,0.1,0.1,0.2,0.1,0.3v0.2
	c0,0.3,0,0.6-0.1,0.9c0,0.2,0,0.3,0,0.5c0,0.2-0.2,0.3-0.7,0.3c-0.5,0-1-0.2-1.4-0.5c-0.2-0.1-0.4-0.2-0.6-0.4
	c-0.1-0.2-0.2-0.3-0.3-0.4c-0.2-0.2-0.3-0.5-0.4-0.7c0-0.1-0.1-0.1-0.1-0.2c-0.4-0.2-0.6-0.6-0.7-1c0,0,0-0.1,0-0.1c0,0,0,0,0-0.1
	C66.9,48,66.8,48,66.7,48c-0.1,0-0.1,0.1-0.2,0.1c-0.3,0.4-0.7,0.7-1.1,1c-0.1,0.2-0.3,0.4-0.5,0.5c-0.1,0.1-0.4,0.3-0.7,0.7
	c-0.8,0.8-1.7,1.5-2.6,2.2l-0.2,0.2c-0.2,0-0.4,0.1-0.5,0.2c-0.2,0.1-0.5,0.2-0.8,0.2"/>
<path class="st0" d="M85.7,36.3c0.1,0.1,0.2,0.2,0.3,0.2h0.1h0.2v0.1c0.2,0.2,0.4,0.3,0.7,0.4c0.1,0,0.3,0,0.4,0.1
	c0.1,0,0.2,0.1,0.4,0h0.1l0.3,0l0.4-0.1h0.2h0.2c0.2,0,0.4-0.1,0.5-0.3c0.1-0.2,0.3-0.3,0.4-0.3c0.2-0.1,0.4-0.2,0.5-0.4
	c0.4-0.5,0.8-0.9,1.2-1.3c0.3-0.3,0.4-0.7,0.4-1.1c0-0.1-0.1-0.3-0.2-0.3l-0.2-0.2c-0.3-0.6-0.8-1-1.4-1.1c-0.1,0-0.2,0-0.3-0.1
	c-0.3-0.3-0.6-0.5-1-0.5l-0.3,0.1c-0.1,0-0.1,0-0.1,0v-0.1h-0.1l0,0c0,0.4,0,0.6,0,0.7c0,0,0,0.1-0.1,0.1c0,0,0,0,0,0.1l0,0
	c-0.1,0.1-0.1,0.2-0.2,0.3l0,0h-0.1c-0.1,0-0.3,0.1-0.4,0.1l-0.1,0.1c0,0.2,0,0.3,0.1,0.4c-0.2,0.5-0.4,0.8-0.8,0.8
	c-0.1,0-0.3,0.3-0.5,0.8c-0.3,0.5-0.5,1-0.6,1.5v0"/>
<path class="st0" d="M81.6,50.3c0-0.1,0-0.1,0-0.2c0.1-0.1,0.1-0.3,0.1-0.4c0.1-0.3,0.2-0.7,0.4-1l0.7-1.5c0.2-0.5,0.5-1.1,0.8-1.5
	c0.4-0.7,0.8-1.5,1.3-2.2c0.2-0.4,0.5-0.7,0.8-1c0.1-0.3,0.3-0.5,0.4-0.7c0.3-0.3,0.5-0.7,0.5-1.1c0-0.1-0.1-0.3-0.2-0.4
	c-0.2-0.3-0.5-0.6-0.8-0.9c-0.1-0.1-0.1-0.1-0.2-0.1l-0.2-0.1c-0.4-0.4-0.9-0.7-1.4-0.8c-0.1-0.1-0.2-0.1-0.3-0.1
	c-0.3,0-0.4,0-0.4,0.2c0,0.1-0.1,0.3-0.2,0.4c-0.1,0.1-0.1,0.2-0.2,0.3l-0.1,0.2c0,0.2-0.2,0.4-0.3,0.6h-0.1
	c-0.1,0.1-0.2,0.2-0.4,0.3c-0.1,0.3-0.3,0.5-0.4,0.8c-0.1,0.1-0.1,0.1-0.2,0.2l-0.2,0.2c-0.1,0.3-0.3,0.5-0.5,0.6
	c-0.5,0.9-1,1.8-1.3,2.8c0,0.1,0,0.2,0.1,0.2c0,0.2,0,0.4-0.1,0.5c-0.1,0.1-0.2,0.2-0.3,0.3c-0.1,0-0.2,0.1-0.2,0.2
	c0,0.3-0.2,0.6-0.4,0.8l-0.1,0.2v0.4c-0.1,0.1-0.1,0.2-0.2,0.3c-0.1,0.1-0.2,0.3-0.3,0.4v0.2c0,0.3,0,0.6-0.2,0.9c0,0.1,0,0.2,0,0.2
	c0,0.1,0,0.2,0.1,0.2v0.5v0c0,0.2,0.2,0.5,0.7,0.9c0.2,0.2,0.4,0.4,0.6,0.6c0.1,0.1,0.1,0.1,0.2,0.2c0.2,0.3,0.4,0.1,0.7,0.1
	c0.8-0.2,1.5-0.8,1.8-1.7c0,0,0-0.1,0-0.2"/>
<path class="st0" d="M90.9,52.9c-0.6-0.1-1.2-0.3-1.7-0.7c-0.3-0.2-0.7-0.5-0.9-0.8c-0.4-0.5-0.7-0.8-0.8-1
	c-0.3-0.3-0.4-0.7-0.4-1.1L86.9,49l0.2-0.6c0-0.5,0.2-0.9,0.4-1.3c0,0,0-0.1,0-0.1v0.2c0.1,0,0.2-0.1,0.2-0.3v-0.1
	c0.3-0.4,0.5-0.9,0.7-1.5c0-0.1,0.1-0.1,0.1-0.2c0.1-0.2,0.2-0.4,0.3-0.5c0-0.1,0-0.1,0.1-0.2c0.1-0.3,0.2-0.6,0.4-0.8
	c0.1-0.1,0.2-0.2,0.2-0.3c0.2-0.2,0.3-0.4,0.3-0.7c0.2-0.2,0.3-0.4,0.4-0.6c0.1-0.2,0.2-0.5,0.3-0.7c0.2-0.2,0.3-0.5,0.3-0.7
	c0.1,0,0.1-0.1,0.1-0.2c0.2-0.3,0.5-0.6,0.6-1l0,0h-0.2v-0.1V39l0.1-0.1c0-0.1,0.1-0.1,0.1-0.2c0.1,0,0.1,0,0.2,0
	c0.1,0,0.1,0,0.1-0.1c0-0.1-0.1-0.1-0.1-0.2c0-0.1,0-0.2,0.1-0.2c0.1-0.2,0.2-0.4,0.3-0.4s0.2-0.1,0.2-0.2c0-0.2,0-0.3,0.2-0.5
	c0.1-0.1,0.2-0.2,0.2-0.3c0.1-0.1,0.1-0.2,0.2-0.3l0.1-0.2v-0.1c0.1-0.1,0.1-0.2,0.2-0.3c0.2-0.2,0.3-0.5,0.3-0.7
	c0-0.2,0-0.4-0.1-0.5c0,0,0-0.1,0-0.1c0-0.3,0.1-0.4,0.4-0.4c0.9,0.1,1.7,0.4,2.5,0.8c0.1,0.1,0.3,0.1,0.4,0.1
	c0.1,0,0.2,0.1,0.2,0.1c0,0.1,0.1,0.2,0.2,0.3c0.3,0.3,0.4,0.6,0.4,1c0,0.2-0.1,0.4-0.2,0.6c-0.1,0.1-0.2,0.3-0.3,0.5
	c-0.5,0.7-1,1.4-1.3,2.2c-0.3,0.4-0.5,0.8-0.7,1.3L94.8,41c0,0,0,0,0,0c-0.3,0.2-0.5,0.4-0.5,0.7c-0.2,0.5-0.5,1-0.8,1.6l-0.8,1.6
	c-0.2,0.3-0.4,0.7-0.5,1.1l-0.8,1.6c-0.1,0.3-0.3,0.7-0.4,1c0.1,0.2,0.2,0.2,0.2,0.2l0.4-0.3c0.1-0.2,0.3-0.4,0.5-0.6
	c0.1,0,0.1-0.1,0.2-0.1h0.1c0.1,0,0.2-0.1,0.3-0.2c0-0.1,0-0.1-0.1-0.2c0,0-0.1-0.1-0.1-0.1c0.3-0.3,0.6-0.5,0.7-0.5
	c0.1,0,0.2,0,0.3,0.1c0.1,0,0.1,0,0.2-0.1c0-0.1,0.1-0.1,0.1-0.2c0,0,0-0.1,0-0.1l0.1-0.1c0.1-0.1,0.2-0.2,0.3-0.3h0.1
	c0,0,0.1,0,0.1-0.1c0.1-0.2,0.2-0.4,0.3-0.5c0.2-0.2,0.4-0.4,0.6-0.6c0.1-0.2,0.3-0.3,0.4-0.4c0.1-0.1,0.1-0.1,0.1-0.2
	c0-0.1,0.1-0.1,0.1-0.2c0.2-0.1,0.4-0.2,0.5-0.3c0.1-0.2,0.3-0.4,0.5-0.5c0.1-0.2,0.2-0.3,0.2-0.5c0-0.1,0-0.1,0.1-0.1l0,0
	c0.2-0.1,0.4-0.3,0.6-0.4c0.3-0.4,0.5-0.7,0.9-1c0.1-0.1,0.1-0.2,0.2-0.4c0-0.1,0.1-0.2,0.2-0.3l0.3-0.4v-0.1V40
	c0-0.2,0.1-0.4,0.3-0.5c0.2-0.2,0.4-0.3,0.7-0.4h0.1c0,0,0.1,0,0.1,0c0.2,0,0.4,0.1,0.6,0.3c0.3,0.3,0.7,0.5,1.2,0.7
	c0.3,0.1,0.6,0.3,0.8,0.5c0,0.1,0.1,0.1,0.2,0.1h0.1c0.1,0,0.1,0,0.1,0.1c0,0,0,0,0,0c0,0.1,0,0.1,0.1,0.2c0,0,0.1,0.1,0.1,0.1
	c0,0.1,0,0.1,0,0.2c0,0.1,0,0.2,0,0.4c-0.1,0.2-0.3,0.3-0.4,0.5c-0.1,0.1-0.2,0.2-0.3,0.3c-0.1,0.1-0.2,0.2-0.3,0.3
	c-0.1,0.1-0.2,0.2-0.2,0.3c-0.2,0.3-0.5,0.5-0.8,0.7c-0.1,0-0.1,0.1-0.2,0.2c-0.1,0.2-0.3,0.4-0.5,0.5c-0.1,0.1-0.2,0.1-0.2,0.2
	c-0.1,0.2-0.2,0.3-0.4,0.4c-0.1,0.1-0.3,0.3-0.3,0.5c0,0-0.1,0.1-0.1,0.1c-0.3,0.2-0.6,0.5-0.8,0.8c-0.2,0.2-0.3,0.4-0.5,0.5h-0.1
	c-0.2,0.1-0.4,0.3-0.4,0.5c0,0.1-0.1,0.1-0.1,0.2c-0.3,0.2-0.5,0.4-0.7,0.7c-0.1,0.1-0.2,0.2-0.3,0.2c-0.3,0.2-0.5,0.4-0.7,0.6
	c0,0.1-0.1,0.1-0.2,0.1c-0.2,0.1-0.3,0.2-0.4,0.4c-0.6,0.7-1.3,1.3-2,1.9c-0.5,0.4-1,0.7-1.6,0.9C91.9,52.6,91.4,52.8,90.9,52.9"/>
<path class="st0" d="M104.2,53.2c-0.2,0-0.3-0.1-0.5-0.1c-0.2-0.1-0.4-0.1-0.6-0.2c-0.1,0-0.1,0-0.1-0.1c-0.1-0.2-0.3-0.3-0.4-0.4
	c-0.6-0.5-1-1.2-1.3-1.9c-0.3-0.4-0.5-0.8-0.5-1.3c0-0.5,0.2-0.9,0.4-1.4l0,0c0,0,0.1,0,0.1,0c0.1-0.1,0.2-0.3,0.2-0.5
	c0,0,0-0.1-0.1-0.1s-0.1,0-0.1-0.1c0-0.1,0.1-0.1,0.1-0.2c0-0.1,0.1-0.2,0.3-0.2s0.3-0.2,0.4-0.4v-0.1V46c0,0,0.1-0.1,0.1-0.1
	c0,0,0,0,0.1,0h0.3c0,0,0-0.1,0-0.1c0-0.1,0.1-0.1,0.1-0.1c0.1,0,0.1-0.1,0.1-0.2c0-0.2,0.1-0.4,0.3-0.6c0-0.1,0.1-0.2,0.1-0.2
	c0-0.1,0-0.2,0-0.2c0.2,0,0.4-0.1,0.6-0.2l0.2-0.4v-0.2c0,0,0-0.1,0.1-0.1c0.1,0,0.1,0,0.2-0.1c0-0.1,0-0.2,0-0.3v-0.1l0,0
	c0-0.1,0.1-0.2,0.3-0.2c0.1,0,0.2-0.1,0.2-0.1c0-0.2,0-0.3,0.1-0.5c0.2-0.3,0.4-0.4,0.6-0.4c0,0,0.1,0,0.2,0h0.1
	c0.1,0,0.2-0.1,0.2-0.2v-0.3c0-0.2,0.1-0.3,0.2-0.4c0.1-0.1,0.3-0.2,0.4-0.3c0.2-0.4,0.6-0.6,1-0.8c0.1,0,0.1-0.1,0.1-0.1v-0.1
	c0-0.1,0.2-0.3,0.6-0.6l0.2-0.2c0-0.1,0.1-0.2,0.2-0.2c0.5-0.3,1.1-0.7,1.6-1.1c0.2-0.1,0.4-0.3,0.6-0.4c0.1-0.2,0.3-0.3,0.5-0.3
	h0.2c0.2,0,0.3,0,0.4-0.1c0.1,0,0.2-0.1,0.3-0.1c0.2,0,0.4,0.1,0.6,0.2c0.1,0.1,0.2,0.1,0.3,0.1c0.6,0.2,1.1,0.4,1.5,0.8
	c0.1,0.1,0.2,0.2,0.3,0.2c0.6,0.3,1,0.8,1,1.4c0,0.2-0.1,0.4-0.2,0.6c-0.1,0.1-0.2,0.2-0.3,0.2c-0.1,0-0.2,0-0.3,0.1
	c-0.1,0.1-0.2,0.1-0.3,0.1h-0.1l-0.5,0c-0.2,0-0.3,0-0.5-0.1h-0.1c0,0-0.1,0-0.2,0c-0.6,0.1-1.1,0.4-1.6,0.8
	c-0.1,0.2-0.3,0.3-0.5,0.4c-0.1,0.1-0.2,0.2-0.3,0.2c-0.1,0.2-0.3,0.4-0.5,0.5c-0.3,0.1-0.5,0.4-0.7,0.6c-0.1,0.1-0.2,0.2-0.3,0.2
	c-0.3,0.1-0.5,0.4-0.7,0.7c-0.1,0.1-0.1,0.2-0.2,0.2c-0.1,0-0.1,0.1-0.2,0.1c-0.1,0.1-0.1,0.2-0.1,0.3c-0.2,0-0.3,0.1-0.4,0.3
	l-0.1,0.1c-0.1,0.1-0.1,0.2-0.2,0.3c-0.1,0.1-0.2,0.2-0.3,0.3c-0.4,0.4-0.8,0.9-1.1,1.3c-0.2,0.1-0.2,0.2-0.2,0.3v0.1
	c0,0.1-0.1,0.2-0.2,0.3l-0.1,0.1l-0.1,0l0,0l0,0h0.1c0.1-0.1,0.2-0.1,0.3-0.2c0.2-0.2,0.5-0.6,0.9-1c0,0,0.1-0.1,0.1-0.1
	c0-0.1,0.1-0.3,0.4-0.5c0.1-0.1,0.2-0.1,0.3-0.1c0.3,0,0.6-0.3,0.9-0.8c0.1-0.2,0.2-0.4,0.4-0.6c0.5-0.3,0.9-0.7,1.2-1.1
	c0.1-0.1,0.3-0.2,0.5-0.2h0.1c0.4-0.3,0.7-0.6,1-1c0-0.1,0.1-0.1,0.2-0.2c0.1,0,0.1,0,0.2,0c0.3,0.1,0.6,0.2,0.9,0.3
	c0.8,0.3,1.6,0.8,2.1,1.5c0.2,0.2,0.3,0.5,0.3,0.8c-0.1,0.4-0.2,0.7-0.3,1.1c-0.4,0.9-0.6,1.8-0.8,2.8c0,0,0,0,0,0.1
	c0,0,0.1,0,0.1,0c0.1,0,0.2-0.1,0.2-0.1h0.1c0,0,0.1,0,0.1,0h0.1c0.1,0.3,0.2,0.5,0.3,0.8c0,0.1,0,0.2,0.1,0.3
	c0.1,0.1,0.1,0.2,0.1,0.3v0.2c0,0.3,0,0.6-0.1,0.9c0,0.2,0,0.3-0.1,0.5c0,0.2-0.2,0.3-0.7,0.3c-0.5,0-1-0.2-1.4-0.5
	c-0.2-0.1-0.4-0.2-0.6-0.4c-0.1-0.2-0.2-0.3-0.3-0.4c-0.2-0.2-0.3-0.5-0.4-0.7c0-0.1-0.1-0.1-0.1-0.2c-0.4-0.2-0.6-0.6-0.7-1
	c0,0,0-0.1,0-0.1c0,0,0,0,0-0.1c-0.1-0.1-0.1-0.2-0.2-0.2c-0.1,0-0.1,0.1-0.2,0.1c-0.3,0.4-0.7,0.7-1.1,1c-0.1,0.2-0.3,0.4-0.5,0.5
	c-0.1,0.1-0.4,0.3-0.7,0.7c-0.8,0.8-1.7,1.5-2.6,2.2l-0.2,0.2c-0.2,0-0.4,0.1-0.5,0.2C104.8,53,104.6,53.1,104.2,53.2"/>
<path class="st0" d="M119.1,53h-0.2c-0.1-0.1-0.2-0.1-0.4-0.2c-0.2-0.1-0.5-0.2-0.7-0.3c-0.1-0.1-0.2-0.2-0.4-0.2
	c-0.1-0.1-0.2-0.2-0.3-0.3c-0.2-0.3-0.4-0.5-0.6-0.8c-0.1-0.1-0.2-0.2-0.2-0.4c0-0.1,0-0.2-0.1-0.2c-0.2-0.1-0.4-0.4-0.4-0.7
	c0-0.1,0.1-0.2,0.3-0.4c0.2-0.3,0.4-0.6,0.5-1c0-0.2,0.1-0.4,0.3-0.5c0.1-0.1,0.1-0.1,0.1-0.2c0-0.2,0.1-0.3,0.2-0.5
	c0.1-0.1,0.2-0.2,0.2-0.3c0-0.2,0.1-0.3,0.3-0.4c0.1-0.1,0.2-0.2,0.2-0.3c0.1-0.2,0.2-0.3,0.3-0.4c0.1-0.3,0.2-0.6,0.5-0.8
	c0.1-0.1,0.2-0.2,0.2-0.3c0,0,0-0.1,0-0.1c0.1-0.1,0.1-0.3,0.1-0.5c0-0.2,0.1-0.4,0.3-0.5c0.1,0,0.1,0,0.1-0.1
	c0-0.1,0.1-0.2,0.1-0.3c0.1-0.1,0.2-0.3,0.2-0.5c0-0.1,0-0.1,0-0.2c0,0,0-0.1,0-0.1c0-0.2,0.1-0.3,0.2-0.5c0.1-0.1,0.2-0.3,0.3-0.5
	c0-0.1,0.1-0.2,0.1-0.3c0-0.2,0.1-0.5,0.2-0.7c0.1-0.1,0.2-0.3,0.2-0.5c0.1-0.4,0.2-0.7,0.4-1.1v-0.1c0-0.1,0-0.1-0.2-0.2
	s-0.1-0.1-0.1-0.1v-0.1c0.1-0.1,0.2-0.2,0.2-0.2l0.2-0.2c0.1,0,0.1-0.1,0.1-0.1c0-0.1,0-0.1-0.1-0.2c0,0,0,0-0.1,0c0,0,0-0.1,0-0.1
	c0.1-0.2,0.2-0.4,0.2-0.6c0-0.2-0.1-0.4-0.2-0.5c-0.1-0.2-0.2-0.3-0.2-0.5c0-0.2,0.1-0.3,0.3-0.3c0.1,0,0.2,0,0.3,0c0,0,0.1,0,0.1,0
	c0,0,0,0,0.1,0c0,0,0,0,0.1,0l0.2,0.1c0.1,0,0.1,0.1,0.2,0.1c0.1,0,0.2,0.1,0.2,0.1c0.1,0.1,0.2,0.1,0.2,0.1c0.2,0,0.4,0,0.6,0.1
	c0.4,0.1,0.8,0.4,1.1,0.7c0.4,0.3,0.6,0.8,0.5,1.3l0,0c0,0.1,0,0.1,0,0.2c0,0.1,0,0.2,0,0.2c0,0.1,0.1,0.2,0.2,0.2l0.9-0.4l0.4-0.6
	c0.1,0,0.1-0.1,0.2-0.1c0.1,0,0.2,0,0.3-0.1h0.1l0.1,0.1c0.2-0.1,0.2-0.2,0.2-0.3c0-0.1,0.1-0.2,0.2-0.2c0.9-0.4,1.8-0.8,2.7-1.1
	c0.2-0.1,0.4-0.2,0.5-0.3c0-0.1,0.1-0.1,0.2-0.1c0.1,0,0.2,0.1,0.3,0.1c0.1,0,0.2,0.1,0.3,0.2c0.1,0,0.1,0.1,0.2,0
	c0.3,0.1,0.5,0.2,0.8,0.4c0.4,0.2,0.8,0.4,1.1,0.7l0,0c0,0.1,0.1,0.1,0.2,0.1c0.2,0.1,0.3,0.2,0.4,0.4c0.1,0.2,0.2,0.5,0.2,0.7
	c-0.1,0.2-0.3,0.4-0.6,0.4c-0.2,0-0.4-0.1-0.6-0.1c-1,0.2-2,0.6-2.9,1c-1.3,0.7-2.5,1.6-3.6,2.6c-0.7,0.5-1.4,1.1-2,1.8
	c-0.2,0.2-0.5,0.5-0.8,0.7l-0.6,0.6c-0.2,0.2-0.3,0.4-0.4,0.6c-0.2,0.3-0.4,0.5-0.6,0.8c-0.3,0.4-0.5,0.8-0.7,1.3
	c0,0.1-0.1,0.3-0.3,0.8c-0.2,0.5-0.4,1-0.7,1.5c-0.1,0.2-0.2,0.5-0.2,0.8c0,0,0,0.1,0,0.1c0,0,0,0.1,0,0.1c-0.1,0.1-0.1,0.2-0.1,0.3
	c0,0.1-0.1,0.3-0.1,0.4c-0.1,0.1-0.1,0.3-0.1,0.4c0,0.1-0.1,0.2-0.2,0.3C119.7,52.8,119.5,52.9,119.1,53"/>
<path class="st0" d="M35.9,56.3l-0.2,0.7h-0.7l0.9-2.8h0.8l0.8,2.8h-0.7l-0.2-0.7L35.9,56.3z M36.6,55.9l-0.2-0.6
	c0-0.2-0.1-0.4-0.1-0.5l0,0c0,0.2-0.1,0.4-0.1,0.5L36,55.9L36.6,55.9z"/>
<path class="st0" d="M40.2,57c-0.3,0.1-0.6,0.1-0.9,0.2c-0.4,0-0.8-0.1-1.1-0.4c-0.3-0.3-0.4-0.6-0.4-1c0-0.8,0.6-1.4,1.4-1.4
	c0.1,0,0.1,0,0.2,0c0.3,0,0.5,0,0.8,0.1L40,54.9c-0.2-0.1-0.4-0.1-0.6-0.1c-0.5-0.1-0.9,0.3-1,0.8c-0.1,0.5,0.3,0.9,0.8,1
	c0.1,0,0.1,0,0.2,0c0.1,0,0.2,0,0.3,0V56h-0.4v-0.5h1L40.2,57z"/>
<path class="st0" d="M40.7,54.4c0.3,0,0.6-0.1,0.8-0.1c0.3,0,0.6,0.1,0.9,0.2c0.2,0.1,0.3,0.4,0.3,0.6c0,0.3-0.2,0.6-0.5,0.7l0,0
	c0.2,0.1,0.3,0.3,0.4,0.5c0.1,0.3,0.2,0.7,0.2,0.8h-0.6c-0.1-0.2-0.1-0.4-0.2-0.6c-0.1-0.3-0.2-0.4-0.5-0.5h-0.2v1.1h-0.6L40.7,54.4
	z M41.3,55.6h0.2c0.3,0,0.5-0.2,0.5-0.4s-0.2-0.4-0.5-0.4c-0.1,0-0.2,0-0.3,0L41.3,55.6z"/>
<path class="st0" d="M45.6,55.7c0.1,0.7-0.5,1.4-1.2,1.4c-0.1,0-0.1,0-0.2,0c-0.7,0-1.3-0.6-1.3-1.3c0,0,0-0.1,0-0.1
	c0-0.7,0.5-1.4,1.2-1.4c0,0,0.1,0,0.1,0c0.7,0,1.3,0.5,1.3,1.3C45.6,55.6,45.6,55.7,45.6,55.7 M43.6,55.7c0,0.5,0.2,0.9,0.7,0.9
	s0.7-0.4,0.7-0.9s-0.2-0.9-0.7-0.9S43.6,55.2,43.6,55.7"/>
<polygon class="st0" points="47.7,56 46.7,56 46.7,56.6 47.8,56.6 47.8,57.1 46,57.1 46,54.4 47.7,54.4 47.7,54.9 46.7,54.9 
	46.7,55.5 47.7,55.5 "/>
<path class="st0" d="M50.2,57.1c-0.2,0.1-0.5,0.1-0.7,0.1c-0.7,0.1-1.4-0.5-1.4-1.2c0-0.1,0-0.1,0-0.2c0-0.8,0.6-1.4,1.3-1.5
	c0.1,0,0.1,0,0.2,0c0.2,0,0.5,0,0.7,0.1L50.2,55c-0.2-0.1-0.3-0.1-0.5-0.1c-0.5,0-0.9,0.3-0.9,0.8c0,0,0,0.1,0,0.1
	c0,0.5,0.3,0.9,0.7,0.9c0,0,0.1,0,0.1,0c0.2,0,0.4,0,0.5-0.1L50.2,57.1z"/>
<path class="st0" d="M53.1,55.8c0.1,0.7-0.5,1.4-1.2,1.4c-0.7,0.1-1.4-0.5-1.4-1.2c0-0.1,0-0.2,0-0.2c-0.1-0.7,0.5-1.4,1.2-1.4
	c0,0,0.1,0,0.1,0c0.7,0,1.3,0.6,1.3,1.3C53.1,55.7,53.1,55.7,53.1,55.8 M51.1,55.8c0,0.5,0.2,0.9,0.7,0.9s0.7-0.4,0.7-0.9
	s-0.2-0.9-0.7-0.9S51.1,55.2,51.1,55.8"/>
<polygon class="st0" points="53.5,54.4 54.1,54.4 54.1,56.7 55.2,56.7 55.2,57.2 53.5,57.2 "/>
<path class="st0" d="M57.9,55.8c0.1,0.7-0.5,1.4-1.2,1.4c-0.1,0-0.1,0-0.2,0c-0.7,0-1.3-0.6-1.3-1.3c0,0,0-0.1,0-0.1
	c0-0.7,0.5-1.4,1.3-1.4c0,0,0.1,0,0.1,0c0.7,0,1.3,0.6,1.3,1.3C57.9,55.7,57.9,55.8,57.9,55.8 M55.9,55.8c0,0.5,0.2,0.9,0.7,0.9
	s0.7-0.4,0.7-0.9s-0.2-0.9-0.7-0.9S55.9,55.3,55.9,55.8"/>
<path class="st0" d="M60.6,57.1c-0.3,0.1-0.6,0.1-0.9,0.2c-0.4,0-0.8-0.1-1.1-0.4c-0.3-0.3-0.4-0.6-0.4-1c0-0.8,0.6-1.4,1.4-1.4
	c0.1,0,0.1,0,0.2,0c0.3,0,0.5,0,0.8,0.1l-0.1,0.5c-0.2-0.1-0.4-0.1-0.6-0.1c-0.5,0-0.9,0.3-0.9,0.8c0,0,0,0.1,0,0.1
	c0,0.5,0.3,0.9,0.8,0.9c0,0,0.1,0,0.1,0c0.1,0,0.2,0,0.3,0v-0.6h-0.4v-0.5h1L60.6,57.1z"/>
<rect x="60.1" y="55.6" transform="matrix(7.853848e-03 -1 1 7.853848e-03 5.0935 116.8925)" class="st0" width="2.8" height="0.6"/>
<path class="st0" d="M62.9,56.6l-0.2,0.7h-0.6l0.9-2.8h0.8l0.8,2.8h-0.7l-0.2-0.7L62.9,56.6z M63.6,56.1l-0.2-0.6
	c0-0.2-0.1-0.4-0.1-0.5l0,0c0,0.2-0.1,0.4-0.1,0.5L63,56.1H63.6z"/>
<path class="st0" d="M65,56.6c0.2,0.1,0.4,0.2,0.7,0.2c0.3,0,0.4-0.1,0.4-0.3s-0.1-0.3-0.5-0.4c-0.3-0.1-0.8-0.4-0.8-0.8
	s0.4-0.8,1-0.8c0.2,0,0.5,0.1,0.7,0.2l-0.2,0.5C66.3,55,66.1,55,65.9,55c-0.3,0-0.4,0.1-0.4,0.3s0.2,0.3,0.5,0.4
	c0.4,0.1,0.7,0.4,0.7,0.8c0,0.4-0.3,0.8-1.1,0.8c-0.3,0-0.5-0.1-0.8-0.2L65,56.6z"/>
<polygon class="st0" points="69.7,56.2 68.7,56.1 68.6,56.8 69.8,56.8 69.8,57.3 68,57.3 68,54.5 69.7,54.6 69.7,55.1 68.7,55.1 
	68.7,55.6 69.7,55.6 "/>
<rect x="26" y="59.2" transform="matrix(7.853848e-03 -1 1 7.853848e-03 -32.2738 86.4452)" class="st0" width="2.8" height="0.6"/>
<path class="st0" d="M28.3,60.9v-2.8H29l0.6,1c0.2,0.3,0.3,0.6,0.4,1l0,0c0-0.4,0-0.7,0-1.2v-0.8h0.6v2.8h-0.7l-0.6-1.1
	c-0.2-0.3-0.3-0.7-0.5-1l0,0c0,0.4,0,0.8,0,1.2v0.8L28.3,60.9z"/>
<polygon class="st0" points="31.6,58.7 30.9,58.7 30.9,58.1 33,58.1 33,58.7 32.3,58.7 32.3,60.9 31.6,60.9 "/>
<polygon class="st0" points="35,59.8 34,59.7 34,60.4 35.1,60.4 35.1,60.9 33.3,60.9 33.4,58.2 35.1,58.2 35.1,58.7 34,58.7 
	34,59.2 35,59.2 "/>
<path class="st0" d="M35.5,58.2c0.3,0,0.6-0.1,0.8,0c0.3,0,0.6,0.1,0.9,0.2c0.2,0.1,0.3,0.4,0.3,0.6c0,0.3-0.2,0.6-0.5,0.7l0,0
	c0.2,0.1,0.3,0.3,0.4,0.5c0.1,0.3,0.2,0.7,0.2,0.8H37c-0.1-0.2-0.2-0.4-0.2-0.6c-0.1-0.3-0.2-0.4-0.5-0.5h-0.2v1.1h-0.6L35.5,58.2z
	 M36.2,59.4h0.3c0.3,0,0.5-0.2,0.5-0.4s-0.2-0.4-0.5-0.4c-0.1,0-0.2,0-0.3,0L36.2,59.4z"/>
<path class="st0" d="M40,60.9C39.7,61,39.5,61,39.3,61c-0.7,0.1-1.4-0.5-1.4-1.2c0-0.1,0-0.1,0-0.2c0-0.8,0.6-1.4,1.4-1.5
	c0.1,0,0.1,0,0.2,0c0.2,0,0.5,0,0.7,0.1l-0.1,0.5c-0.2-0.1-0.3-0.1-0.5-0.1c-0.5,0-0.9,0.4-0.9,0.9c0,0.5,0.4,0.9,0.9,0.9
	c0.2,0,0.4,0,0.5-0.1L40,60.9z"/>
<path class="st0" d="M41,58.2v1.6c0,0.5,0.2,0.7,0.5,0.7c0.3,0,0.5-0.2,0.5-0.7v-1.6h0.6v1.6c0,0.8-0.4,1.2-1.2,1.2
	c-0.7,0-1.1-0.4-1.1-1.3v-1.5H41z"/>
<polygon class="st0" points="43.2,58.2 43.8,58.2 43.8,60.5 44.9,60.5 44.9,61 43.2,61 "/>
<polygon class="st0" points="45.4,58.8 44.6,58.8 44.6,58.2 46.8,58.3 46.8,58.8 46,58.8 46,61 45.4,61 "/>
<path class="st0" d="M47.7,58.3v1.6c0,0.5,0.2,0.7,0.5,0.7s0.5-0.2,0.5-0.7v-1.6h0.6v1.5c0,0.8-0.4,1.2-1.2,1.2s-1.1-0.4-1.1-1.3
	v-1.5L47.7,58.3z"/>
<path class="st0" d="M49.9,58.3c0.3,0,0.6-0.1,0.8,0c0.3,0,0.6,0.1,0.9,0.2c0.2,0.1,0.3,0.4,0.2,0.6c0,0.3-0.2,0.6-0.5,0.7l0,0
	c0.2,0.1,0.3,0.3,0.4,0.5c0.1,0.3,0.2,0.7,0.2,0.8h-0.6c-0.1-0.2-0.1-0.4-0.2-0.7c-0.1-0.3-0.2-0.4-0.5-0.5h-0.2v1.1h-0.6L49.9,58.3
	z M50.5,59.5h0.2c0.3,0,0.5-0.2,0.5-0.4s-0.2-0.4-0.5-0.4h-0.3L50.5,59.5z"/>
<path class="st0" d="M53,60.4l-0.2,0.7h-0.7l0.9-2.8h0.8l0.8,2.8H54l-0.2-0.7L53,60.4z M53.7,59.9l-0.2-0.6l-0.1-0.5l0,0
	c0,0.2-0.1,0.4-0.1,0.5l-0.2,0.6L53.7,59.9z"/>
<polygon class="st0" points="55,58.3 55.7,58.3 55.7,60.6 56.7,60.6 56.7,61.1 55,61.1 "/>
<rect x="56.1" y="59.4" transform="matrix(7.853848e-03 -1 1 7.853848e-03 -2.7266 116.6909)" class="st0" width="2.8" height="0.6"/>
<path class="st0" d="M58.3,58.4c0.3,0,0.6-0.1,0.8-0.1c0.4,0,0.8,0.1,1.1,0.3c0.3,0.2,0.5,0.6,0.5,1c0,0.4-0.2,0.8-0.5,1.1
	c-0.4,0.3-0.8,0.4-1.3,0.3c-0.2,0-0.5,0-0.7,0L58.3,58.4z M58.9,60.6c0.1,0,0.1,0,0.2,0c0.5,0.1,0.9-0.3,1-0.8c0-0.1,0-0.2,0-0.2
	c0-0.4-0.3-0.8-0.7-0.9c0,0-0.1,0-0.1,0c-0.1,0-0.2,0-0.3,0L58.9,60.6z"/>
<path class="st0" d="M61.7,60.4l-0.2,0.7h-0.7l0.9-2.8h0.8l0.9,2.8h-0.7l-0.2-0.7L61.7,60.4z M62.4,60l-0.2-0.6
	c0-0.2-0.1-0.4-0.1-0.5l0,0c0,0.2-0.1,0.4-0.1,0.5L61.8,60L62.4,60z"/>
<path class="st0" d="M63.8,58.4c0.3,0,0.6-0.1,0.8,0c0.4,0,0.8,0.1,1.1,0.3c0.3,0.2,0.5,0.6,0.5,1c0,0.4-0.2,0.8-0.5,1.1
	c-0.4,0.3-0.8,0.4-1.3,0.3c-0.3,0-0.5,0-0.7,0L63.8,58.4z M64.4,60.7c0.1,0,0.1,0,0.2,0c0.5,0.1,0.9-0.3,1-0.8c0-0.1,0-0.2,0-0.2
	c0-0.4-0.3-0.8-0.7-0.9c-0.1,0-0.1,0-0.2,0h-0.3L64.4,60.7z"/>
<polygon class="st0" points="68.3,60 67.2,60 67.2,60.7 68.4,60.7 68.4,61.2 66.6,61.2 66.6,58.4 68.3,58.4 68.3,58.9 67.2,58.9 
	67.2,59.5 68.3,59.5 "/>
<path class="st0" d="M68.8,60.5c0.2,0.1,0.5,0.2,0.7,0.2c0.3,0,0.4-0.1,0.4-0.3s-0.1-0.3-0.5-0.4c-0.3-0.1-0.8-0.4-0.8-0.8
	s0.4-0.8,1.1-0.8c0.2,0,0.5,0,0.7,0.1L70.3,59c-0.2-0.1-0.4-0.1-0.6-0.1c-0.3,0-0.4,0.1-0.4,0.3s0.2,0.2,0.5,0.4
	c0.4,0.1,0.7,0.4,0.7,0.8c0,0.4-0.3,0.8-1.1,0.8c-0.3,0-0.5-0.1-0.8-0.2L68.8,60.5z"/>
<path class="st0" d="M78.5,54.9v3.1c0,0.9,0.4,1.4,1,1.4s1-0.4,1-1.4v-3.1h1.2v3c0,1.6-0.8,2.4-2.2,2.4s-2.1-0.8-2.1-2.5v-3
	L78.5,54.9z"/>
<polygon class="st0" points="82.7,54.9 85.9,54.9 85.9,55.9 83.9,55.9 83.9,57.1 85.8,57.1 85.8,58.1 83.9,58.1 83.9,60.2 
	82.7,60.2 "/>
<path class="st0" d="M91.3,60c-0.6,0.2-1.2,0.3-1.8,0.3c-0.8,0.1-1.6-0.2-2.2-0.7c-0.5-0.5-0.8-1.2-0.8-1.9c0-1.5,1.2-2.8,2.7-2.8
	c0.1,0,0.2,0,0.3,0c0.5,0,1,0.1,1.5,0.2l-0.2,1c-0.4-0.2-0.8-0.3-1.2-0.2c-1,0-1.7,0.9-1.7,1.8c0,0.9,0.7,1.6,1.6,1.6
	c0.2,0,0.4,0,0.6-0.1v-1.2h-0.8v-1h2L91.3,60z"/>
<path class="st0" d="M75.8,60.5h-0.4c-0.1,0-0.3,0.1-0.4,0.1c0,0-0.1,0-0.1,0c-0.1,0-0.1,0-0.2,0c-0.3,0-0.7-0.1-1-0.3
	c-0.2-0.1-0.5-0.2-0.7-0.3c-0.5-0.2-0.8-0.4-0.8-0.5l0.1-0.2c0-0.2-0.1-0.4-0.1-0.6c0-0.1,0-0.2,0-0.3c-0.1-0.2-0.1-0.4,0-0.5
	c0.1-0.3,0.1-0.6,0.1-0.9c0-0.1,0-0.1,0-0.2c0-0.1,0-0.2-0.1-0.2l-0.1-0.4c0-0.3,0.1-0.5,0.2-0.8l-0.1-0.2l0.1-0.3l-0.1-0.3l0.1-0.6
	c0-0.1,0-0.3,0-0.4v-0.1l0,0l0,0c0,0,0-0.1,0-0.1l0-0.2c0-0.1,0-0.2,0-0.3c0-0.1,0-0.2,0.1-0.2c0.1-0.4,0.2-0.7,0.2-1.1
	c0.1-0.4,0.1-0.8,0.1-1.2c0-0.1,0-0.2,0.1-0.4c0-0.2,0-0.4,0-0.5c0-0.2,0.2-0.3,0.4-0.4c0.1,0,0.1,0,0.1,0l0,0c0,0.1,0,0.1,0,0.2
	c0,0,0,0.1,0,0.1l0,0c0,0,0,0,0,0.1c0,0.1,0,0.2,0,0.3c0,0,0.1,0,0.2,0l0.2-0.7c0-0.1-0.1-0.2-0.1-0.3c0,0,0-0.1,0-0.1
	c0,0,0-0.1,0-0.1l0.3-0.1l0.1-0.1c0-0.1,0-0.1-0.1-0.1c0,0,0,0,0-0.1S73.7,48,73.7,48c0-0.2,0-0.4,0.1-0.5c0-0.1,0-0.3,0-0.4
	c0-0.1,0-0.2,0.1-0.2c0.2-0.2,0.3-0.5,0.3-0.8c0-0.1,0-0.3,0-0.4c0.1-0.1,0.1-0.1,0.1-0.2c0-0.1-0.1-0.2-0.1-0.3c0,0,0-0.1,0-0.1
	l0,0c0.2-0.1,0.2-0.2,0.2-0.2l-0.1-0.3c0-0.1,0-0.2,0-0.3c0.1-0.1,0.2-0.3,0.3-0.4c-0.1-0.2,0-0.5,0.1-0.7c-0.2,0-0.3,0.1-0.3,0l0,0
	c0-0.1,0-0.1,0-0.2c0-0.1,0-0.2,0.1-0.2c0.5-0.1,0.8-0.3,0.8-0.7l0,0l0.1-0.1c0-0.1,0-0.1,0-0.2c0,0,0,0-0.1-0.1
	c0-0.1,0-0.1-0.1-0.2l0.1-0.2c0-0.2,0.1-0.3,0.2-0.4c0.1,0,0.1,0,0.1-0.1v0c0-0.1,0-0.2,0-0.3s0.1-0.3,0.2-0.6
	c0-0.1,0.1-0.1,0.1-0.1c0.1-0.1,0.2-0.3,0.1-0.4l-0.1-0.2l0.3-0.5c0-0.1-0.1-0.1-0.1-0.1h-0.1h-0.1l-0.1,0.1h-0.1
	c0-0.1,0.1-0.3,0.2-0.3c0,0,0,0,0,0C76,38.2,76,38,76,37.9l0.1-0.1c0.2,0,0.3-0.1,0.2-0.3c0-0.1,0-0.3,0.1-0.4
	c0.1-0.1,0.1-0.2,0.1-0.4c-0.2-0.1-0.2-0.2-0.3-0.2l0.2-0.7c0,0,0-0.1,0.1-0.2c0.1,0,0.2-0.1,0.2-0.2c0-0.1,0.1-0.2,0.1-0.2h0.4
	c0,0,0-0.1,0-0.1c0-0.1,0-0.3,0.1-0.4c0,0,0,0,0-0.1c0,0,0,0,0-0.1c0,0,0-0.1,0-0.1h-0.2c-0.1,0-0.1,0.1-0.1,0.1l-0.1,0.2H77l0,0
	c0-0.1,0-0.2,0.1-0.2c0.1-0.2,0.1-0.4,0.1-0.6l0,0H77l-1.5,0.6c-0.3,0.1-0.7-0.1-0.9-0.3c-0.1-0.1-0.2-0.2-0.3-0.3l-0.3-1.1v-0.1
	c0,0,0,0,0-0.1c0-0.1,0-0.1,0-0.2l0,0v-0.1l0,0c-0.2-0.2-0.3-0.5-0.3-0.8c-0.1-0.4-0.1-0.8-0.1-1.2c0-0.2,0.2-0.3,0.6-0.4h0.2
	l0.1-0.1c0.1,0,0.2,0,0.3,0c0.1,0.1,0.2,0.1,0.2,0.1H75c0.4-0.1,0.8-0.2,1.1-0.4c0.2-0.1,0.4-0.2,0.6-0.2l0,0l0,0h0.1h0.1
	c0.2-0.2,0.5-0.3,0.8-0.3c0.1,0,0.1,0,0.2,0c0.1,0,0.2,0,0.2,0l0,0v0l0.1-0.1c0,0,0-0.1,0-0.1c0,0,0,0,0,0c0.1-0.1,0.2-0.2,0.4-0.2
	c0.3-0.1,0.5-0.2,0.7-0.4c0.1,0,0.3-0.1,0.4-0.1c0.1,0,0.1-0.1,0.2-0.1L80,28c0.1,0,0.2,0,0.3-0.1l0.6-1.1l0.1-0.7c0,0,0-0.1,0-0.1
	c0,0,0-0.1,0.1-0.1c0.1-0.1,0.2-0.3,0.3-0.5c0.1-0.2,0.1-0.3,0.2-0.5c0.1-0.1,0.2-0.3,0.3-0.5c0.1-0.3,0.3-0.6,0.5-0.8
	c0.1-0.2,0.2-0.3,0.2-0.5c0-0.1,0.1-0.1,0.1-0.2c0.2-0.2,0.4-0.4,0.4-0.7c0.1-0.1,0.1-0.2,0.2-0.2c0.1-0.1,0.1-0.2,0.1-0.2v-0.1
	c0,0-0.1,0-0.1,0h-0.1h-0.1l0,0l0,0c0.1-0.1,0.2-0.3,0.3-0.4c0.1-0.1,0.1-0.2,0.2-0.3V21c0-0.2,0.1-0.3,0.2-0.4
	c0.1-0.1,0.2-0.3,0.1-0.4c0-0.1,0-0.1,0-0.2c0,0,0,0,0-0.1l0,0c0-0.1-0.1-0.3-0.1-0.4c0,0-0.1-0.1-0.1-0.1c0.1-0.2,0.1-0.3,0.2-0.5
	c0,0,0.1,0,0.1,0s0.1,0,0.1,0c0.4,0.1,0.7,0.1,1.1,0.2c0.1,0,0.2,0,0.2,0.1s0.1,0,0.3,0c0.3,0.2,0.6,0.4,1,0.5
	c0.3,0.2,0.5,0.3,0.7,0.6c0.2,0.1,0.4,0.4,0.4,0.6l0.1,0.6c-0.2,0.7-0.4,1.3-0.8,1.9l-0.4,0.7c-0.1,0.1-0.3,0.5-0.6,1.1
	c-0.1,0.1-0.1,0.2-0.2,0.3c0,0.1-0.1,0.2-0.2,0.3c-0.2,0.2-0.3,0.5-0.3,0.8c0,0.1,0.1,0.1,0.4,0.1c0.2,0,0.4,0,0.5,0
	c0.2,0,0.5-0.1,0.6-0.3c0.2-0.1,0.3-0.2,0.6-0.3h0.1c0,0,0.1,0,0.2,0h0.1c0,0,0.1,0,0.1,0c0.1,0.1,0.3,0.1,0.4,0l0.2-0.1l0.5-0.1
	c0.2-0.1,0.5-0.1,0.7-0.1c0.2,0,0.4,0,0.5,0c0.1,0,0.3-0.1,0.4-0.2h0.1c0.2-0.1,0.5,0,0.6,0.2c0,0.1,0,0.1,0.1,0.2l0.1,0.1
	c0.2,0.2,0.4,0.4,0.6,0.6c0,0.1,0.2,0.2,0.3,0.2c0.1,0.1,0.2,0.2,0.2,0.4c0,0.2,0.1,0.4,0.3,0.6c0.2,0.4,0.4,0.8,0.4,1.2
	c0,0.2,0,0.4-0.2,0.6C93.1,29.9,93.1,30,93,30h-0.1c-0.1,0-0.2,0-0.3-0.1c-0.1-0.1-0.3-0.2-0.5-0.2l-0.3,0.1l-0.3-0.1
	c-0.2,0-0.4,0-0.6,0c-0.9,0-1.7,0.1-2.5,0.4c-0.4,0.1-0.9,0.2-1.3,0.4l-1.1,0.2c-0.2,0-0.4,0.1-0.6,0.2l-2.3,0.7
	c-0.3,0.2-0.5,0.4-0.6,0.8c-0.1,0.2-0.2,0.4-0.3,0.6c-0.1,0.2-0.2,0.4-0.3,0.6c-0.1,0.4-0.3,0.8-0.5,1.2c-0.3,0.6-0.8,1.8-1.5,3.6
	c-0.1,0.3-0.3,0.7-0.4,1c-0.1,0.4-0.2,0.8-0.4,1.1c-0.2,0.4-0.4,0.9-0.5,1.4c-0.5,1.3-0.8,2.6-1.1,3.9c0,0.1,0,0.1,0,0.2
	c-0.2,0.4-0.3,0.9-0.4,1.4c0,0.2-0.1,0.4-0.2,0.6l-0.2,1l0,0c-0.2,0.5-0.3,1-0.3,1.6c-0.1,0.5-0.2,1.1-0.2,1.6c0,0.3,0,0.6-0.1,0.8
	c0,0.2-0.1,0.3-0.1,0.5c0,0.1-0.1,0.3-0.1,0.4c0,0.6,0,1.3-0.1,1.9c-0.1,0.8-0.1,1.6,0,2.4l0.1,0.2c0,0.2,0,0.3,0,0.5
	c0,0,0,0.1,0,0.1c0,0.1,0,0.2,0,0.4c0,0.1,0,0.3,0.1,0.4c0,0,0,0.2,0,0.5c0,0.1-0.1,0.2-0.2,0.3 M73.2,50.7c0-0.2,0.1-0.4,0.1-0.6
	c0,0-0.1-0.1-0.1-0.1c-0.2,0-0.2,0.2-0.2,0.4S73,50.7,73.2,50.7 M74.6,43.2C74.6,43.1,74.6,43.1,74.6,43.2c0.1-0.1,0.1-0.1,0.1-0.2
	c0,0,0-0.1,0-0.1h-0.1c-0.1,0-0.1,0-0.1,0.1s0,0,0,0l0,0c0,0,0,0,0,0.1C74.5,43.1,74.5,43.1,74.6,43.2"/>
<path class="st0" d="M131.4,28.1c-2.4-2.2-6.4-3.2-9.3-1.4c-2.7,1.6-4.8,5.3-5.5,8.3l-3.3-0.6c1.5-4.3,1.7-9,0.8-13.5
	c-1.2-5.5-4.5-9.6-7.3-14.2c-0.3-0.5-0.9-0.6-1.4-0.3c-0.2,0.1-0.3,0.3-0.4,0.5c-1.1,2.8-4.4,4.6-6.5,6.7c-1.9,2.1-3.5,4.4-4.8,6.9
	c-4.8-3.4-10.1-5.9-15.7-7.4C71.8,11.3,65.4,10,59,9c0,0.1,0,0.2,0,0.3c-0.1,0.7-0.8,1.3-1.5,1.2c-0.1,0-0.2,0-0.4,0
	c-0.4-0.1-0.7-0.2-1-0.4l-0.4-0.3L56.1,9H56l0.2-0.4c-6.5-0.9-13.1-1.5-19.6-2c-0.7-0.5-1.9,0.5-1.3,1.5c3.1,5.1,7.4,9.4,12.5,12.5
	c2.3,1.5,4.8,2.9,7.3,4.1c-9-1.1-18.1-1.4-27.2-0.9c-1.3,0.1-1.1,2.1,0.2,2c17.1-1,33.6,1.5,50.5,4.5l5.7,1l0,0l27,4.8
	c0.2,0.1,0.4,0.1,0.6,0.1l17.1,3c1.3,0.2,1.6-1.8,0.3-2l-11-1.9c0.6-2.6,2.6-6,5-7.2c1.7-0.6,3.5-0.5,5.1,0.5
	c0.5,0.2,0.9,0.5,1.3,0.8c0,0.8-0.1,1.6-0.1,2.4c-0.2,0.2-1.8-0.3-1.8-0.2c0.5-1.2-1.4-2-1.9-0.8c-1,2.7,2.5,3.5,4.5,2.9
	C133.3,33,133.1,29.8,131.4,28.1 M84,29.2c-0.1-0.1-0.1-0.2-0.2-0.3c-3.3-3.2-7.9-4.9-11.9-6.9c-4.3-2.2-8.7-5-13.6-5.7
	c-0.6-0.1-1.1,0.3-1.1,0.9c-0.1,0.6,0.3,1.1,0.8,1.1c4.7,0.6,8.9,3.4,13.1,5.5c3.1,1.4,6.1,2.9,9,4.7h-0.1l0,0l-1.9-0.3
	c-4.1-0.7-8.2-1.4-12.3-2c-0.2-0.2-0.4-0.3-0.6-0.3c-5.8-0.8-11.7-4.1-16.6-7.2c-4.1-2.6-7.6-5.9-10.4-9.9
	c12.2,0.8,24.4,2.6,36.3,5.5c10.7,2.7,21.8,7.8,26.8,18.1L84,29.2z M111.3,34.1l-7-1.2c1.8-4.8,4.2-11.3,1.3-15.9
	c-0.7-1.1-2.3,0.1-1.6,1.2c2.1,3.4,0.3,8.8-1.2,12.7c-1.9-3.5-4.4-6.6-7.5-9.1c1.6-3.2,3.8-6.1,6.4-8.5c1.6-1.2,3-2.5,4.3-4
	c2.4,3.8,5,7.3,6,11.9C113,25.5,112.7,29.9,111.3,34.1"/>
<path class="st0" d="M45.9,6.1c-0.3,0.1-0.7,0.1-1,0.1c-1.5-0.1-2.3-1.5-2.1-3.6c0.2-2.5,1.6-3.4,2.9-3.3c0.3,0,0.6,0.1,0.9,0.2
	l-0.3,0.9c-0.2-0.1-0.4-0.2-0.6-0.2c-0.7-0.1-1.5,0.5-1.7,2.4s0.5,2.5,1.3,2.6c0.2,0,0.5,0,0.7-0.1L45.9,6.1z"/>
<path class="st0" d="M50,4.2c-0.2,2-1.3,2.4-2,2.3c-1-0.1-1.6-1.1-1.5-2.7s1.2-2.4,2.1-2.3S50.2,2.6,50,4.2 M47.6,3.9
	c-0.1,0.8-0.1,1.7,0.5,1.8s0.8-0.9,0.8-1.6s0.1-1.7-0.5-1.8S47.7,3.2,47.6,3.9"/>
<rect x="48" y="2.8" transform="matrix(0.1326 -0.9912 0.9912 0.1326 41.2862 53.9045)" class="st0" width="6.9" height="1.1"/>
<path class="st0" d="M53.7,5c-0.2,1.1,0.3,1.5,0.9,1.5c0.3,0.1,0.6,0.1,0.9,0v0.8c-0.4,0.1-0.8,0.1-1.2,0c-1.2-0.2-1.8-1.2-1.5-2.7
	s1.2-2.5,2.2-2.3s1.4,1.1,1.2,2.5c0,0.3-0.1,0.4-0.1,0.6L53.7,5z M55.1,4.5c0.1-0.8-0.1-1.3-0.4-1.3s-0.8,0.6-0.9,1.1L55.1,4.5z"/>
<path class="st0" d="M58.9,8C58.7,8,58.4,8,58.1,8c-1.2-0.2-1.8-1.2-1.5-2.8s1.2-2.4,2.5-2.1c0.2,0,0.5,0.1,0.7,0.2l-0.3,0.8
	C59.3,4,59.1,4,59,3.9c-0.7-0.1-1.2,0.6-1.3,1.5s0.1,1.7,0.8,1.8c0.2,0,0.4,0,0.5,0L58.9,8z M58.2,7.9l-0.3,0.5
	c0.4,0.1,0.6,0.5,0.5,0.8c-0.1,0.6-0.7,0.7-1.2,0.6c-0.2,0-0.5-0.1-0.7-0.3l0.2-0.5c0.1,0.1,0.3,0.2,0.5,0.2c0.2,0,0.3,0,0.4-0.2
	s-0.2-0.4-0.6-0.5l0.5-0.8L58.2,7.9z"/>
<path class="st0" d="M61.6,8.5V8l0,0c-0.3,0.3-0.7,0.5-1.1,0.4c-0.7-0.1-1.2-0.8-1-1.5c0,0,0-0.1,0-0.1c0.2-1.2,1.4-1.6,2.5-1.4V5.3
	c0.1-0.5,0-0.9-0.6-1c-0.3-0.1-0.6,0-0.9,0.1l0-0.7c0.4-0.2,0.9-0.2,1.4-0.1c1.2,0.2,1.4,1.1,1.2,2.1l-0.3,1.9
	c-0.1,0.4-0.1,0.7-0.1,1.1L61.6,8.5z M61.9,6.1C61.5,6,60.7,6,60.6,6.8c-0.1,0.5,0.2,0.8,0.4,0.8c0.3,0,0.6-0.1,0.7-0.4
	c0-0.1,0.1-0.2,0.1-0.2L61.9,6.1z M60.9,2.7c0.1-0.6,0.4-1,0.8-0.9c0.2,0,0.4,0.1,0.5,0.3c0.1,0.1,0.2,0.2,0.3,0.2
	c0.1,0,0.2,0,0.3-0.3L63.4,2c-0.1,0.7-0.4,1-0.8,0.9c-0.2,0-0.3-0.1-0.5-0.2c-0.1-0.1-0.2-0.2-0.3-0.2s-0.2,0.1-0.3,0.3L60.9,2.7z"
	/>
<path class="st0" d="M67.2,7.1C66.8,9,65.7,9.4,65,9.2c-1-0.2-1.5-1.2-1.2-2.8s1.3-2.3,2.2-2.2C66.8,4.5,67.4,5.5,67.2,7.1
	 M64.8,6.6c-0.2,0.8-0.2,1.7,0.4,1.8c0.6,0.1,0.8-0.8,1-1.5s0.2-1.7-0.3-1.8C65.3,5,64.9,5.9,64.8,6.6"/>
<g>
	<path class="st1" d="M373.2,25.9l5.2,3l5.2,3v6v6l-5.2,3l-5.2,3l-5.2-3l-5.2-3v-6v-6l5.2-3L373.2,25.9L373.2,25.9z M383.6,10.3
		l-4.2,2.4l-4.2,2.4v4.8v4.8l4.2,2.4l4.2,2.4l4.2-2.4l4.2-2.4v-4.8v-4.8l-4.2-2.4L383.6,10.3L383.6,10.3z M389.9,47.6l3.1,1.8
		l3.1,1.8v3.6v3.6l-3.1,1.8l-3.1,1.8l-3.1-1.8l-3.1-1.8v-3.6v-3.6l3.1-1.8L389.9,47.6L389.9,47.6z M417.1,27.2l4.2,2.4l4.2,2.4v4.8
		v4.8l-4.2,2.4l-4.2,2.4l-4.2-2.4l-4.2-2.4v-4.8V32l4.2-2.4L417.1,27.2L417.1,27.2z M408.5,0.5l-6.3,3.6l-6.3,3.6v7.2v7.2l6.3,3.6
		l6.3,3.6l6.3-3.6l6.3-3.6v-7.2V7.7l-6.3-3.6L408.5,0.5L408.5,0.5z M408.7,44l-5.2,3l-5.2,3v6v6l5.2,3l5.2,3l5.2-3l5.2-3v-6v-6
		l-5.2-3L408.7,44z"/>
	<path class="st0" d="M432.7,14.2v12c0,2.3,0.3,4.1,1,5.6c0.7,1.5,1.6,2.5,2.9,3.2c1.3,0.7,2.8,1,4.6,1c1.9,0,3.5-0.3,4.8-1.1
		s2.3-1.8,3.1-3.2c0.7-1.4,1.1-3.3,1.1-5.5v-12h-4.8v12.3c0,1.9-0.3,3.3-1,4.2c-0.7,0.9-1.7,1.4-2.9,1.4c-1.2,0-2.2-0.5-2.9-1.4
		c-0.7-0.9-1-2.3-1-4.2V14.2L432.7,14.2L432.7,14.2z M457.3,35.6h4.8V27h7.7V23h-7.7v-4.9h8.2v-4h-13.1L457.3,35.6L457.3,35.6z
		 M494.2,23.4h-8v3.8h3.3v4.5c-0.2,0.1-0.5,0.1-0.9,0.2c-0.4,0-0.9,0.1-1.4,0.1c-1,0-1.9-0.2-2.7-0.5c-0.8-0.3-1.5-0.8-2.1-1.4
		c-0.6-0.6-1.1-1.3-1.4-2.2c-0.3-0.9-0.5-1.8-0.5-3c0-1.2,0.2-2.2,0.5-3s0.9-1.6,1.5-2.2c0.7-0.6,1.4-1,2.3-1.3
		c0.9-0.3,1.8-0.4,2.8-0.4c0.8,0,1.5,0,2.1,0.1c0.6,0.1,1.1,0.2,1.6,0.3c0.5,0.1,0.9,0.3,1.3,0.5l1-4c-0.3-0.2-0.8-0.3-1.4-0.5
		c-0.6-0.2-1.2-0.3-2-0.4c-0.8-0.1-1.6-0.1-2.5-0.2c-1.8,0-3.4,0.3-4.9,0.7c-1.5,0.5-2.8,1.2-3.9,2.2c-1.1,1-2,2.1-2.6,3.5
		s-0.9,3-0.9,4.8c0,1,0.1,2,0.3,3c0.2,1,0.6,1.8,1,2.6c0.4,0.8,1,1.5,1.6,2.1c1,0.9,2.2,1.7,3.6,2.1c1.4,0.5,3.1,0.7,5.1,0.7
		c1,0,1.9-0.1,2.8-0.2c0.9-0.1,1.7-0.3,2.5-0.5c0.8-0.2,1.4-0.4,1.9-0.5L494.2,23.4L494.2,23.4z"/>
	<g>
		<path class="st1" d="M432.6,42.9v2.7c0,1.5,0.7,2.2,1.9,2.2c1.3,0,2-0.7,2-2.2v-2.7h-1.1v2.8c0,0.9-0.3,1.3-0.9,1.3
			c-0.6,0-0.9-0.4-0.9-1.3v-2.8H432.6L432.6,42.9z M439.8,47.7v-1.5c0-0.8,0-1.5,0-2.1h0c0.2,0.6,0.6,1.2,0.8,1.7l1,1.9h1.2v-4.9h-1
			v1.4c0,0.7,0,1.4,0.1,2h0c-0.2-0.5-0.5-1.2-0.8-1.7l-1-1.8h-1.3v4.9H439.8L439.8,47.7z M444.9,42.9v4.9h1.1v-4.9H444.9L444.9,42.9
			z M450.6,47.7l1.6-4.9h-1.2l-0.6,2.1c-0.2,0.6-0.3,1.1-0.4,1.7h0c-0.1-0.6-0.3-1.1-0.4-1.7l-0.6-2h-1.2l1.6,4.9L450.6,47.7
			L450.6,47.7z M456.9,44.8h-1.8v-1h1.9v-0.9h-3v4.9h3.1v-0.9h-2v-1.2h1.8V44.8L456.9,44.8z M459,47.7h1.1v-1.9h0.3
			c0.5,0,0.7,0.2,0.8,0.8c0.1,0.6,0.3,1,0.3,1.1h1.1c-0.1-0.2-0.2-0.8-0.4-1.4c-0.1-0.4-0.3-0.8-0.7-0.9v0c0.4-0.2,0.9-0.6,0.9-1.2
			c0-0.4-0.2-0.8-0.5-1c-0.3-0.3-0.8-0.4-1.6-0.4c-0.6,0-1.1,0-1.5,0.1L459,47.7L459,47.7z M460.1,43.7c0.1,0,0.2,0,0.5,0
			c0.5,0,0.8,0.2,0.8,0.7c0,0.4-0.3,0.7-0.9,0.7h-0.4V43.7L460.1,43.7z M464.3,47.5c0.3,0.2,0.8,0.3,1.4,0.3c1.3,0,2-0.7,2-1.5
			c0-0.7-0.4-1.1-1.3-1.5c-0.6-0.3-0.9-0.4-0.9-0.7c0-0.2,0.2-0.5,0.7-0.5c0.5,0,0.8,0.1,1,0.2l0.2-0.9c-0.3-0.1-0.7-0.2-1.2-0.2
			c-1.1,0-1.8,0.6-1.8,1.5c0,0.7,0.5,1.2,1.3,1.4c0.6,0.2,0.8,0.4,0.8,0.7c0,0.3-0.3,0.5-0.8,0.5c-0.5,0-0.9-0.2-1.2-0.3L464.3,47.5
			L464.3,47.5z M469.6,42.9v4.9h1.1v-4.9H469.6L469.6,42.9z M472.9,47.7c0.3,0,0.7,0.1,1.3,0.1c1,0,1.7-0.2,2.3-0.6
			c0.5-0.4,0.8-1,0.8-2c0-0.9-0.3-1.5-0.8-1.8c-0.5-0.3-1.1-0.5-2-0.5c-0.5,0-1.1,0-1.5,0.1V47.7L472.9,47.7z M474,43.7
			c0.1,0,0.3,0,0.5,0c1,0,1.5,0.5,1.5,1.5c0,1.2-0.7,1.7-1.7,1.7c-0.1,0-0.3,0-0.4,0V43.7L474,43.7z M481.6,46.5l0.4,1.3h1.2
			l-1.5-4.9h-1.4l-1.5,4.9h1.1l0.3-1.3H481.6L481.6,46.5z M480.4,45.6l0.3-1c0.1-0.3,0.2-0.7,0.2-0.9h0c0.1,0.3,0.2,0.7,0.2,0.9
			l0.3,1H480.4L480.4,45.6z M485.1,47.7c0.3,0,0.7,0.1,1.2,0.1c1,0,1.7-0.2,2.3-0.6c0.5-0.4,0.8-1,0.8-2c0-0.9-0.3-1.5-0.8-1.8
			c-0.5-0.3-1.1-0.5-2-0.5c-0.5,0-1.1,0-1.5,0.1L485.1,47.7L485.1,47.7z M486.2,43.7c0.1,0,0.3,0,0.5,0c1,0,1.5,0.5,1.5,1.5
			c0,1.2-0.7,1.7-1.7,1.7c-0.1,0-0.3,0-0.4,0V43.7L486.2,43.7z M494.2,44.8h-1.8v-1h1.9v-0.9h-3v4.9h3.1v-0.9h-2v-1.2h1.8V44.8z"/>
		<path class="st1" d="M432.6,56h1.1v-2h1.7v-0.9h-1.7V52h1.9v-0.9h-3L432.6,56L432.6,56z M439.1,53h-1.8v-1h1.9v-0.9h-3V56h3.1
			v-0.9h-2v-1.2h1.8V53L439.1,53z M440,56c0.3,0,0.7,0.1,1.2,0.1c1,0,1.7-0.2,2.3-0.6c0.5-0.4,0.8-1,0.8-2c0-0.9-0.3-1.5-0.8-1.8
			c-0.5-0.3-1.1-0.5-2-0.5c-0.6,0-1.1,0-1.5,0.1V56L440,56z M441.1,52c0.1,0,0.3,0,0.5,0c1,0,1.5,0.5,1.5,1.5c0,1.2-0.7,1.7-1.7,1.7
			c-0.1,0-0.3,0-0.4,0V52L441.1,52z M447.9,53h-1.8v-1h1.9v-0.9h-3V56h3.1v-0.9h-2v-1.2h1.8V53L447.9,53z M448.9,56h1.1v-1.9h0.3
			c0.5,0,0.7,0.2,0.8,0.8c0.1,0.6,0.3,1,0.3,1.1h1.1c-0.1-0.2-0.2-0.8-0.4-1.4c-0.1-0.4-0.3-0.8-0.7-0.9v0c0.4-0.2,0.9-0.6,0.9-1.2
			c0-0.4-0.2-0.8-0.5-1c-0.3-0.3-0.8-0.4-1.6-0.4c-0.6,0-1.1,0-1.5,0.1L448.9,56L448.9,56z M450,52c0.1,0,0.2,0,0.5,0
			c0.5,0,0.8,0.2,0.8,0.7c0,0.4-0.3,0.7-0.9,0.7H450V52L450,52z M455.7,54.7l0.4,1.2h1.2l-1.5-4.9h-1.4l-1.5,4.9h1.1l0.3-1.2H455.7
			L455.7,54.7z M454.5,53.9l0.3-1c0.1-0.3,0.2-0.7,0.2-0.9h0c0.1,0.3,0.2,0.7,0.2,0.9l0.3,1H454.5L454.5,53.9z M457.9,56h3v-0.9H459
			v-3.9h-1.1V56L457.9,56z M463.2,56c0.3,0,0.7,0.1,1.3,0.1c1,0,1.7-0.2,2.3-0.6c0.5-0.4,0.8-1,0.8-2c0-0.9-0.3-1.5-0.8-1.8
			c-0.5-0.3-1.1-0.5-2-0.5c-0.5,0-1.1,0-1.5,0.1V56L463.2,56z M464.3,52c0.1,0,0.3,0,0.5,0c1,0,1.5,0.5,1.5,1.5
			c0,1.2-0.7,1.7-1.7,1.7c-0.1,0-0.3,0-0.4,0V52L464.3,52z M471.1,53h-1.8v-1h1.9v-0.9h-3V56h3.1v-0.9h-2v-1.2h1.8V53L471.1,53z
			 M478.5,53.2h-1.8v0.9h0.7v1c-0.1,0-0.3,0.1-0.5,0.1c-0.9,0-1.5-0.6-1.5-1.6c0-1.1,0.7-1.6,1.6-1.6c0.5,0,0.9,0.1,1.1,0.2l0.2-0.9
			c-0.2-0.1-0.7-0.2-1.3-0.2c-1.6,0-2.8,0.9-2.8,2.5c0,0.7,0.2,1.3,0.7,1.8s1.1,0.7,2,0.7c0.6,0,1.3-0.2,1.6-0.3L478.5,53.2
			L478.5,53.2z M481.4,56.1c1.4,0,2.4-1,2.4-2.6c0-1.3-0.8-2.5-2.3-2.5c-1.4,0-2.4,1.1-2.4,2.5C479.2,55,480,56.1,481.4,56.1
			L481.4,56.1L481.4,56.1z M481.5,55.2c-0.7,0-1.2-0.7-1.2-1.6c0-0.9,0.4-1.6,1.2-1.6c0.8,0,1.2,0.7,1.2,1.6
			C482.7,54.5,482.2,55.2,481.5,55.2L481.5,55.2L481.5,55.2z M484.6,51.1V56h1.1v-4.9H484.6L484.6,51.1z M489.1,54.7l0.4,1.2h1.2
			l-1.5-4.9h-1.4l-1.5,4.9h1.1l0.3-1.2H489.1L489.1,54.7z M487.9,53.9l0.3-1c0.1-0.3,0.2-0.7,0.2-0.9h0c0.1,0.3,0.2,0.7,0.2,0.9
			l0.3,1H487.9L487.9,53.9z M488.6,50l-0.6,0.9h0.9l0.9-0.9H488.6L488.6,50z M491.1,55.8c0.3,0.2,0.8,0.3,1.4,0.3c1.3,0,2-0.7,2-1.5
			c0-0.7-0.4-1.1-1.3-1.5c-0.6-0.2-0.9-0.4-0.9-0.7c0-0.2,0.2-0.5,0.7-0.5c0.5,0,0.8,0.1,1,0.2l0.2-0.9c-0.3-0.1-0.7-0.2-1.2-0.2
			c-1.1,0-1.8,0.6-1.8,1.5c0,0.7,0.5,1.2,1.3,1.4c0.6,0.2,0.8,0.4,0.8,0.7c0,0.3-0.3,0.5-0.8,0.5c-0.5,0-0.9-0.2-1.2-0.3L491.1,55.8
			z"/>
	</g>
</g>
</svg>
