<?xml version="1.0" encoding="utf-8"?>
<!-- Generator: Adobe Illustrator 26.1.0, SVG Export Plug-In . SVG Version: 6.00 Build 0)  -->
<svg version="1.1" id="Camada_1" xmlns="http://www.w3.org/2000/svg" xmlns:xlink="http://www.w3.org/1999/xlink" x="0px" y="0px"
	 viewBox="0 0 510.6 70.4" style="enable-background:new 0 0 510.6 70.4;" xml:space="preserve">
<style type="text/css">
	.st0{fill:#821F81;}
</style>
<path class="st0" d="M162.8,44.5c-1.6,0.6-3.4,0.9-5.1,0.9c-6.3,0-10.1-3.9-10.1-10c0-6.5,4.5-10.4,10.6-10.4
	c1.6-0.1,3.3,0.2,4.8,0.9l-0.8,2.9c-1.2-0.5-2.5-0.8-3.9-0.8c-4,0-6.9,2.5-6.9,7.3c0,4.4,2.5,7.1,6.9,7.1c1.3,0,2.7-0.2,3.9-0.7
	L162.8,44.5z"/>
<path class="st0" d="M172.4,25.3v19.8h-3.6V25.3H172.4z"/>
<path class="st0" d="M183.4,39.5l-1.7,5.6H178l6.3-19.8h4.7l6.4,19.8h-3.9l-1.8-5.6H183.4z M189.1,36.8l-1.6-4.9
	c-0.4-1.2-0.7-2.6-1-3.7h-0.1c-0.3,1.1-0.6,2.5-0.9,3.7l-1.5,4.9H189.1z"/>
<path class="st0" d="M201.1,25.6c1.8-0.3,3.6-0.5,5.4-0.4c2.9,0,4.8,0.5,6.1,1.6c1.1,1,1.8,2.5,1.7,4c0,2.2-1.5,4.2-3.6,4.9v0.1
	c1.4,0.5,2.3,1.9,2.8,3.8c0.4,1.9,0.9,3.7,1.6,5.5h-3.7c-0.6-1.5-1-3.1-1.3-4.7c-0.6-2.6-1.5-3.4-3.6-3.5h-1.8V45h-3.6L201.1,25.6z
	 M204.6,34.3h2.1c2.4,0,3.9-1.3,3.9-3.2c0-2.1-1.5-3.2-3.8-3.2c-0.8,0-1.5,0-2.2,0.2V34.3z"/>
<path class="st0" d="M243.9,25c2.1-0.3,4.3-0.5,6.4-0.4c2.9,0,5,0.6,6.4,1.7c1.5,1.2,2.3,3,2.3,4.9c0.1,1.9-0.6,3.7-1.9,5
	c-1.9,1.6-4.3,2.4-6.8,2.2c-0.5,0-1.1,0-1.6-0.1v7.5H244L243.9,25z M248.6,34.5c0.5,0.1,1.1,0.1,1.6,0.1c2.5,0,4.1-1.3,4.1-3.4
	c0-1.9-1.3-3.1-3.7-3.1c-0.6,0-1.3,0-1.9,0.1L248.6,34.5z"/>
<path class="st0" d="M262.6,25c2.1-0.3,4.2-0.5,6.3-0.4c3.1,0,5.3,0.5,6.8,1.6c1.3,1.1,2.1,2.7,2,4.4c0,2.3-1.5,4.4-3.7,5.1v0.1
	c1.5,0.6,2.3,2,2.8,3.9c0.5,2,1,4,1.7,5.9h-4.9c-0.6-1.6-1.1-3.2-1.4-4.9c-0.6-2.6-1.5-3.3-3.5-3.4h-1.4v8.3h-4.7L262.6,25L262.6,25
	z M267.3,34h1.9c2.4,0,3.8-1.2,3.8-3s-1.3-2.9-3.5-2.9c-0.7,0-1.4,0-2.1,0.1L267.3,34z"/>
<path class="st0" d="M300.7,35c0,6.9-4.1,11-10.3,11s-9.9-4.7-9.9-10.7c0-6.3,4-11,10.2-11C297.2,24.4,300.7,29.2,300.7,35z
	 M285.6,35.2c0,4.1,1.9,7,5.1,7s5-3,5-7.1c0-3.8-1.8-7-5-7S285.6,31.2,285.6,35.2L285.6,35.2z"/>
<path class="st0" d="M316.9,36.8h-7.7v5h8.6v3.9h-13.3v-21h12.9v3.9h-8.2V33h7.7V36.8z"/>
<path class="st0" d="M337,45.1c-1.7,0.6-3.5,1-5.3,0.9c-7.2,0-11-4.5-11-10.5c0-7.1,5.1-11.1,11.4-11.1c1.8-0.1,3.5,0.2,5.2,0.9
	l-1,3.7c-1.3-0.5-2.6-0.8-4-0.8c-3.7,0-6.6,2.3-6.6,6.9c0,4.2,2.5,6.8,6.7,6.8c1.4,0,2.7-0.2,4-0.7L337,45.1z"/>
<path class="st0" d="M10,58.8H9.8l-0.6-0.2c-0.3,0-0.5-0.2-0.8-0.3c-0.1-0.2-0.3-0.4-0.5-0.5c-0.4-0.3-0.7-0.7-1-1.1
	c-0.1-0.2-0.2-0.3-0.3-0.4c-0.1,0-0.2-0.1-0.3-0.2c0-0.1-0.1-0.2-0.2-0.2c-0.2,0-0.3,0-0.5,0s-0.3,0-0.5,0c-0.1,0-0.2,0-0.3,0
	c-0.1,0-0.1,0-0.2,0c-0.2,0-0.5,0-1,0s-0.9-0.2-1.2-0.7C2,54.6,1.7,53.8,1.7,53c-0.1-0.5-0.2-1-0.2-1.5v-0.2l0,0
	c0.1,0,0.2,0,0.2,0.1c0.2,0,0.3,0.1,0.3,0c0.2,0,0.4-0.1,0.5-0.2C2.7,51.1,2.9,51,3.1,51C3,51,3,51.1,3,51.2h0.1
	c0.2,0,0.4-0.1,0.6-0.2c0.1-0.1,0.3-0.2,0.5-0.2h0.1h0.1c0.2,0,0.4-0.1,0.5-0.3c0-0.1,0.1-0.2,0.1-0.2h0.1h0.1c0.1,0,0.3,0,0.4-0.1
	c0.1,0.1,0.3,0,0.4-0.1c0-0.1,0.1-0.2,0.2-0.2s0.2-0.1,0.3-0.1c0.1,0,0.2,0,0.2,0.1S6.8,50,6.9,50L7,49.9c0-0.3,0.1-0.4,0.3-0.4
	c0.4,0,0.7-0.2,1-0.4c0.4-0.1,0.7-0.3,1-0.5v-0.1c0,0,0.1-0.2,0.3-0.2c0.1,0,0.1,0,0.2,0v-0.1V48c0.1-0.3,0.2-0.5,0.3-0.5
	s0.1,0,0.2,0c0.2,0,0.3-0.1,0.3-0.2c0-0.1,0.1-0.2,0.2-0.3c0.1-0.1,0.2-0.3,0.3-0.4c0.2-0.3,0.3-0.6,0.4-1c0-0.1,0-0.2,0.1-0.2
	c0.2-0.2,0.4-0.5,0.5-0.8c0.3-0.7,0.5-1.1,0.6-1.2c0.1-0.1,0.2-0.3,0.2-0.4c0.1-0.3,0.2-0.5,0.3-0.7s0.2-0.4,0.3-0.6
	c0-0.1,0.1-0.2,0.1-0.3c0.1-0.1,0.1-0.2,0.1-0.4c0.1-0.3,0.2-0.6,0.5-0.8c0.1-0.2,0.2-0.4,0.3-0.6c0-0.1,0.1-0.3,0.1-0.4
	c0.1-0.1,0.1-0.2,0.1-0.3s0-0.2,0.1-0.2s0.1-0.1,0.1-0.2c0-0.1,0.1-0.2,0.2-0.2c0.1,0,0.2-0.1,0.2-0.2v-0.2c0-0.1,0-0.2,0.1-0.3
	c0.3-0.4,0.5-0.8,0.7-1.2s0.4-0.8,0.6-1.2c0.2-0.2,0.3-0.5,0.3-0.8v-0.1v-0.1c0.2-0.1,0.2-0.2,0.2-0.3v-0.1c0,0,0-0.1,0.1-0.1
	s0.2-0.1,0.2-0.2s0-0.1,0-0.1v-0.1c0-0.1,0-0.1,0.1-0.1h0.1c0.3-0.1,0.5-0.4,0.5-0.8V32c0-0.2,0.1-0.3,0.2-0.5s0.2-0.5,0.3-0.7v-0.2
	c0,0,0-0.1-0.1-0.1c-1.3,0.3-2.6,0.7-3.9,1.3c-0.1,0.1-0.2,0.1-0.4,0.2c-0.4,0.1-0.7,0.2-1.1,0.4c-0.1,0-0.3,0.1-0.3,0.2
	c0,0-0.1,0-0.1,0.1c-0.1,0-0.1,0.1-0.2,0.1c-0.3,0.2-0.7,0.3-1,0.4c-0.1,0-0.2,0.1-0.3,0.1l-0.2,0.1c-0.3,0.1-0.6,0.2-0.8,0.4
	c-0.5,0.4-1.1,0.7-1.6,1c-0.1,0-0.2,0.1-0.3,0.1C7.9,35,7.8,35,7.6,35c-0.1,0-0.2,0.1-0.2,0.2c-0.2,0.2-0.4,0.4-0.7,0.4
	c-0.2,0-0.4,0.1-0.6,0.3c-0.3,0.2-0.6,0.4-0.8,0.6c-0.6,0.4-1.1,0.8-1.6,1.2c-0.1,0.2-0.3,0.4-0.5,0.5s-0.3,0.2-0.4,0.4
	c-0.1,0.1-0.1,0.3-0.3,0.4c-0.1,0.1-0.1,0.2-0.2,0.3c0,0.2,0.1,0.4,0.2,0.5c0.2,0.1,0.2,0.3,0.3,0.5c0,0.1,0,0.1,0,0.2v0.1
	c0,0-0.1,0-0.2,0l-0.4-0.1c-0.2,0-0.3,0-0.5-0.1l-0.2-0.1c-0.5-0.4-0.9-0.9-1.2-1.5L0,38.2c0-0.3,0-0.6,0-0.8c0-0.1,0-0.2,0-0.3
	s0-0.3,0.1-0.4c0.2-0.4,0.4-0.6,0.5-0.6C0.9,36,1,35.8,1,35.6c0.1-0.1,0.2-0.1,0.3-0.1c0.1,0,0.2-0.1,0.3-0.2
	c0.1-0.1,0.1-0.1,0.2-0.2C2,35,2.1,34.9,2.2,34.8c0.2-0.2,0.4-0.4,0.7-0.5c0.2-0.1,0.4-0.2,0.5-0.3s0.1-0.1,0.2-0.2v-0.1
	c0.1-0.2,0.3-0.4,0.5-0.4c0.1,0,0.2,0,0.3-0.1C4.7,33,5,32.9,5.3,32.9c0.2,0,0.3,0,0.3-0.1v-0.1H5.5l0,0H5.4
	c0.1-0.2,0.3-0.3,0.5-0.4H6h0.1h0.1c0.1,0,0.2,0,0.2,0c0.2-0.1,0.5-0.3,0.7-0.5h0.1c0.1,0,0.1,0,0.2,0h0.2c0,0,0.1,0,0.1-0.1
	s0-0.1,0.2-0.1H8c0.1,0,0.1,0.1,0.1,0.1c0.1,0,0.2-0.1,0.3-0.2s0.2-0.2,0.3-0.3C8.8,31.1,8.9,31,9,30.9c0.1,0,0.1,0,0.2,0h0.1h0.1
	c0.1,0,0.2-0.1,0.3-0.1c0.1-0.1,0.3-0.1,0.4-0.1H10c0.1,0,0.2,0,0.2,0c0.4-0.2,0.9-0.4,1.4-0.6c0.1,0,0.1-0.1,0.1-0.2s0-0.1,0-0.1
	h0.1H12c0.1,0,0.1,0,0.2,0h0.1c0.4,0,0.8-0.2,1.1-0.3c0.4-0.1,0.8-0.3,1.2-0.4c0.2,0,0.3-0.1,0.4-0.3c0.1-0.1,0.2-0.2,0.4-0.2h0.2
	c0.2,0,0.4,0,0.5-0.1c0,0,0.1-0.1,0.2-0.1l0,0l0.1,0.1l0.1,0.1c0.1,0,0.2,0,0.3-0.1c0.1-0.1,0.1-0.1,0.1-0.1c0-0.1,0-0.1-0.1-0.2
	c0,0-0.1,0-0.1-0.1l0.3-0.2h0.1l0,0c0,0,0,0.1,0.1,0.1c0,0.1,0.1,0.1,0.2,0.1s0.2-0.1,0.3-0.1c0.1,0,0.2,0,0.3,0.1
	c0.2,0,0.3-0.1,0.3-0.3v-0.1l0,0h0.1l0,0v0.1l0.1,0.1l0.1-0.1c0-0.1,0.1-0.1,0.2-0.2c0.1,0,0.1-0.1,0.2-0.1s0.1,0,0.2,0.1
	c0.1,0,0.1,0.1,0.2,0.1h0.2h0.2c0.1,0,0.2,0,0.3-0.1c0.1,0,0.3-0.1,0.4-0.1s0.2-0.1,0.4-0.2c0.1-0.1,0.3-0.2,0.5-0.2h0.1h0.1
	c0.1,0,0.2,0.1,0.2,0.1c0.1,0,0.2,0,0.2-0.1c0.2,0,0.3,0,0.3-0.1c0,0,0-0.1-0.1-0.1l-0.1-0.1l0.1-0.1h0.1l0.4,0.1
	c0,0.1,0.1,0.1,0.2,0.1s0.1,0,0.2-0.1s0.3-0.1,0.4-0.1s0.1,0,0.2,0h0.1H24h0.1c0.1,0,0.2-0.1,0.4-0.1c0.1,0,0.2,0,0.3-0.1
	c0.1,0,0.1-0.1,0.2-0.1h0.1c0.1,0,0.3,0.1,0.4,0c0.1,0,0.1,0,0.2,0s0.2-0.2,0.5-0.3l0,0c0.1,0,0.2,0,0.2,0.1s0.1,0.1,0.1,0.1
	c0.1,0,0.3-0.1,0.4,0c0.1,0,0.2,0,0.2,0.1c0.3,0.1,0.6,0.2,0.9,0.2c0.2,0,0.4,0,0.5-0.1s0.2-0.2,0.4-0.1h0.2c0.1,0,0.3,0,0.4,0
	c0.5,0,0.9,0.1,1.4,0.3c0,0,0.1,0.1,0.2,0.1c0.1,0.1,0.1,0.1,0.2,0.1h0.1l0.1-0.1c0,0,0.1,0,0.1-0.1h0.1h0.1H32h0.1h0.1h0.1
	c0.1,0,0.1,0,0.2,0l0.1-0.1l0,0c0.2,0.2,0.4,0.3,0.7,0.3c0.1,0.1,0.3,0.1,0.5,0.1h0.3c0.1,0,0.2,0,0.3,0.1c0.4,0.2,0.8,0.6,1,1
	c0,0.1,0.1,0.2,0.2,0.2c0.8,0.7,1.4,1.6,1.8,2.6c0,0.1,0.1,0.2,0.1,0.3c0.2,0.3,0.2,0.6,0.2,0.9v0.7c0,0.5-0.1,1-0.4,1.5
	c-0.3,0.6-0.6,1.1-1,1.6c-0.2,0.2-0.3,0.4-0.5,0.5c-0.2,0.3-0.5,0.5-0.7,0.7s-0.4,0.3-0.6,0.5c-0.8,0.7-1.7,1.4-2.7,2
	c-0.2,0.1-0.5,0.3-0.7,0.5l-0.7,0.5c-0.2,0.1-0.5,0.3-0.7,0.5L29.1,41l-0.7,0.4c-0.3,0.2-0.7,0.5-1.1,0.7c-0.3,0.3-0.7,0.5-1.1,0.7
	l0,0c-0.2,0.2-0.9,0.6-2,1.2c-0.4,0.2-0.8,0.5-1.2,0.7c-0.7,0.5-1.5,0.9-2.2,1.3c-0.2,0-0.4,0.1-0.5,0.3l0,0
	c-0.3,0.3-0.7,0.5-1.1,0.7c-0.2,0.1-0.3,0.1-0.4,0.2c-0.1,0.1-0.3,0.2-0.4,0.2c-0.2,0.1-0.3,0.1-0.4,0.2c-0.2,0.1-0.4,0.2-0.6,0.3
	c-0.1,0-0.2,0.1-0.2,0.1c-0.1,0.1-0.2,0.2-0.3,0.2c-0.4,0.2-0.8,0.4-1.2,0.7c-0.5,0.3-0.9,0.6-1.3,0.8c-0.5,0.3-0.7,0.8-0.8,1.4
	c0,0.1,0.1,0.2,0.2,0.2l0,0c0.2-0.1,0.5-0.1,0.7-0.2H15c0.2,0,0.4,0,0.6-0.1c0.1,0,0.1,0,0.2,0h0.4h0.2h0.1c0.1,0,0.2,0,0.3,0
	c0.1,0,0.3,0,0.4,0.1s0.2,0.1,0.2,0.1h0.1c0.2-0.1,0.3-0.1,0.5-0.2c0.1,0,0.1,0,0.1,0.1v0.1c0,0.1,0,0.2,0.1,0.2
	c0.1-0.1,0.2-0.2,0.3-0.4c0.1,0,0.1-0.1,0.2-0.1s0.2,0,0.2,0H19c0.2,0,0.4,0.1,0.4,0.3c0,0,0,0,0.1,0s0.1-0.1,0.1-0.2
	c0-0.1,0-0.2,0.1-0.2L20,51c0,0,0,0,0.1,0s0,0,0,0.1c0.1,0.1,0.2,0.1,0.3,0.1c0.1,0,0.2,0,0.3-0.1C20.8,51,20.9,51,21,51
	s0.2,0,0.3,0c0.1,0,0.2,0,0.3,0c0.1,0,0.2,0,0.4,0c0.3,0.1,0.5,0.1,0.8,0.2c0,0,0,0,0-0.1s0-0.1,0-0.1l0,0v-0.1h0.5c0,0,0,0,0.1,0
	c0.1-0.1,0.2-0.1,0.4-0.1c0.1,0,0.2,0,0.4,0c0.1,0,0.1,0,0.2,0h0.1h0.1c0.1-0.1,0.3-0.1,0.5-0.1s0.4,0.1,0.5,0.2h0.1
	c0,0,0.1,0,0.1-0.1l0,0l0.1-0.1c0.3-0.1,0.6-0.1,0.9-0.1c0.2,0,0.4,0,0.6,0.1c0.2,0,0.3,0,0.5,0s0.4,0,0.5-0.1s0.2-0.2,0.3-0.2
	l0.3-0.1c0.1,0,0.1,0,0.2,0c0.2,0,0.3,0.1,0.5,0.1c0.1,0.1,0.1,0.2,0.1,0.3c0.1,0.2,0.2,0.4,0.4,0.5c0.1,0.3,0.3,0.5,0.5,0.7
	c0.6,0.5,0.9,1.3,0.9,2c0,0.2-0.1,0.4-0.2,0.5s-0.3,0.2-0.4,0.2l-0.3-0.1c-0.5-0.2-1-0.3-1.5-0.3c-0.3-0.1-0.6-0.1-0.9-0.1
	C28,54,27.6,54,27.3,54c-1.4,0-2.3,0-2.6,0h-0.4c-0.2,0-0.3,0-0.5,0c-0.4,0-0.9,0-1.3,0c-0.5,0-1,0-1.5,0.1c-0.7,0.1-1.5,0.1-2.2,0
	c-0.3,0-0.5,0-0.8,0.1c-0.3,0-0.6,0-0.9,0c-0.4,0-0.9,0-1.3,0.1c-0.1,0-0.4,0-0.8,0c-0.3,0-0.5,0-0.8,0c-0.1,0-0.7,0.1-1.7,0.1
	c-0.4,0-0.7,0.7-1.1,1.9c-0.2,0.5-0.5,1-0.6,1.5c-0.1,0.3-0.4,0.5-0.6,0.5 M17.1,44c0.2,0,0.3-0.1,0.4-0.2c0.1-0.1,0.3-0.2,0.4-0.2
	c0.2-0.1,0.5-0.3,0.7-0.4c0.2-0.1,0.4-0.2,0.6-0.2s0.3-0.1,0.4-0.2c0.1-0.1,0.2-0.1,0.3-0.1c0.2-0.1,0.4-0.2,0.5-0.4
	c0-0.1,0-0.1,0-0.2c0-0.1,0.1-0.2,0.2-0.2c0,0,0,0,0.1,0s0.1,0.1,0.1,0.1c0,0.1,0.1,0.1,0.1,0.1c0.2-0.1,0.4-0.3,0.6-0.5v-0.1
	l0.1-0.1l0,0l0,0l0.1-0.1l0,0c0.1,0,0.1,0,0.2,0.1c0.1,0,0.1,0.1,0.2,0.1h0.1l0.1-0.1c0.1,0,0.2,0,0.2,0c0.1,0,0.2,0,0.2-0.1
	s0.1-0.2,0.2-0.2c0,0,0.1-0.1,0.1-0.2v-0.1h-0.1l-0.5,0.3h-0.1V41c0.2-0.1,0.3-0.2,0.5-0.3s0.3-0.2,0.5-0.3c0.5-0.4,1-0.7,1.5-1
	c0.3-0.2,0.7-0.4,1-0.6c0,0,0,0,0.1,0H26c0,0.1,0,0.1-0.1,0.2H26c0,0,0.1,0,0.1-0.1l0.1-0.1c0,0,0.1,0,0.1-0.1v-0.1v-0.1
	c0.2-0.2,0.5-0.4,0.8-0.5c0.4-0.3,0.8-0.6,1.2-0.9c0.3-0.2,0.6-0.3,0.8-0.6c0.6-0.4,1-0.7,1-0.8c0.1-0.1,0.2-0.2,0.3-0.3
	c0.5-0.3,1-0.7,1.4-1.2c0.1-0.1,0.3-0.2,0.4-0.3c0.7-0.5,1-0.8,1-0.9v-0.2c0.1-0.2,0.2-0.3,0.4-0.4c0.2-0.1,0.3-0.2,0.4-0.3
	c0.2-0.2,0.3-0.4,0.4-0.6c0.1-0.2,0.2-0.4,0.3-0.5l0,0c0.1-0.1,0.1-0.2,0.1-0.3v-0.1c0-0.4-0.6-0.7-1.7-0.9
	c-0.2-0.1-0.5-0.1-0.7-0.2c-0.3-0.1-0.7-0.1-1-0.1c-0.1,0-0.3,0-0.4,0c-0.4-0.1-0.9-0.2-1.4-0.2c-1.5,0-2.4,0-2.7,0.1
	c-0.3,0-0.6,0.1-0.9,0.1c-0.1,0-0.1,0-0.2,0s-0.3,0-0.4,0s-0.2,0-0.3,0H25c-0.1,0-0.8,0.1-2,0.4c-0.2,0.1-0.5,0.1-0.7,0.1
	s-0.4,0-0.6,0.1c-0.3,0.1-0.5,0.1-0.7,0.2c0,0.1,0,0.1,0.1,0.2c0.3,0.2,0.6,0.5,0.9,0.8c0.2,0.1,0.3,0.4,0.3,0.6
	c0,0.4-0.1,0.8-0.3,1.2c-0.1,0.1-0.1,0.3-0.1,0.4c-0.4,1-0.8,1.9-1.3,2.8c-0.3,0.5-0.4,0.8-0.5,1L19.3,39c-0.7,1.2-1.2,2.3-1.6,3.3
	c-0.2,0.5-0.4,0.9-0.7,1.4c-0.1,0.2-0.2,0.4-0.3,0.7l0,0c0,0.2,0.1,0.2,0.3,0.2 M24.3,39.9c0.1,0,0.2-0.1,0.2-0.1v-0.1
	C24.4,39.7,24.3,39.7,24.3,39.9C24.2,39.9,24.2,39.9,24.3,39.9 M24.8,39.6c0.1,0,0.2,0,0.2-0.1h-0.1l0,0
	C24.8,39.5,24.8,39.6,24.8,39.6L24.8,39.6 M29.9,26.2L29.9,26.2C30,26.1,29.9,26.1,29.9,26.2c-0.2-0.1-0.4-0.1-0.5-0.1H29l0,0v0.1
	H29.9"/>
<path class="st0" d="M36.4,53.8h-0.7c-0.6-0.1-1.2-0.3-1.7-0.6l-0.5-0.3c-0.3-0.2-0.6-0.4-0.8-0.7c0-0.1-0.1-0.2-0.2-0.2
	c-0.2-0.2-0.4-0.5-0.6-0.8c0,0,0-0.1-0.1-0.1c0-0.1-0.1-0.1-0.1-0.2c0-0.1-0.1-0.1-0.1-0.2L31,49.1c-0.1-0.5-0.2-0.9-0.1-1.4
	c0-0.5,0.1-1,0.4-1.5c0.1-0.2,0.2-0.5,0.3-0.8c0.1-0.2,0.2-0.4,0.4-0.4s0.3-0.2,0.3-0.3s0-0.3,0-0.4c0-0.1,0.1-0.1,0.4-0.1
	c0.2-0.2,0.3-0.3,0.5-0.5c0-0.1,0.1-0.2,0.1-0.2c0.2-0.1,0.3-0.3,0.4-0.5c0.2-0.4,0.5-0.7,0.9-1c0.1-0.1,0.2-0.3,0.3-0.4
	c0-0.2,0.2-0.5,0.4-0.6c0.4-0.3,0.8-0.6,1.2-1c0.3-0.2,0.6-0.5,0.9-0.7c0.5-0.4,1-0.7,1.6-0.9c0.1-0.1,0.3-0.2,0.4-0.3L39,38l0,0
	h0.1h0.1c0.1,0,0.3,0,0.4,0.1c0.3,0.1,0.5,0.2,0.7,0.4c0.2,0.1,0.4,0.3,0.6,0.4c0.3,0.1,0.5,0.3,0.7,0.5c0.1,0.1,0.2,0.2,0.3,0.2
	c0.4,0.2,0.7,0.5,0.9,0.9c0.3,0.4,0.4,0.9,0.4,1.5c0,0.1-0.1,0.6-0.2,1.4c-0.1,0.4-0.2,0.7-0.5,1c-0.4,0.6-0.9,1.1-1.3,1.6
	c-0.2,0.2-0.4,0.4-0.6,0.6c-0.7,0.8-1.5,1.3-2.5,1.7c-0.1,0.1-0.3,0.1-0.5,0.1l-0.5-0.1c-0.2,0-0.4,0-0.6-0.1
	c-0.1-0.1-0.2-0.2-0.3-0.2s-0.2-0.1-0.3-0.2c-0.2-0.1-0.4-0.3-0.5-0.5c-0.1-0.1-0.2-0.2-0.3-0.3c0,0,0,0-0.1,0s-0.3,0.3-0.5,0.7
	c-0.1,0.2-0.2,0.4-0.2,0.6v0.1c-0.2,0.1-0.3,0.6-0.4,1.4v0.3c0,0.2,0.1,0.4,0.3,0.4c0.1,0,0.2,0,0.3,0.1s0.2,0.1,0.2,0.1
	c0.1,0,0.3-0.1,0.4-0.1c0.1,0,0.2,0.1,0.3,0.1s0.3,0,0.4-0.1c0.7-0.2,1.4-0.5,2.1-0.8l0.7-0.3c0.1,0,0.2-0.1,0.3-0.1
	c0.2-0.1,0.5-0.2,0.7-0.3s0.5-0.2,0.7-0.4l0.3-0.1c0.2-0.2,0.4-0.3,0.7-0.3c0.1,0,0.2,0,0.3-0.1c0.2-0.2,0.5-0.4,0.8-0.5
	c0.2-0.1,0.3-0.1,0.4-0.3c0.2-0.2,0.5-0.3,0.8-0.4l0.4-0.2c0.1,0,0.1-0.1,0.2-0.1c0.3-0.3,0.7-0.5,1.1-0.6c0.2-0.1,0.4-0.2,0.5-0.3
	l1-0.5c0.3-0.2,0.6-0.3,0.9-0.5c0.2-0.1,0.4-0.3,0.6-0.4c0.2-0.1,0.3-0.2,0.4-0.4c0.1-0.1,0.2-0.1,0.3-0.1s0.2,0,0.3-0.1
	c0.1,0,0.2,0,0.2,0.1c0,0.2,0.1,0.4,0.2,0.6c0,0.1,0.1,0.2,0.1,0.3s0,0.2-0.1,0.3s-0.1,0.2-0.2,0.4v0.2c0,0.1,0,0.2-0.1,0.3
	s-0.1,0.2-0.1,0.3c-0.1,0.3-0.4,0.5-0.7,0.7s-0.5,0.4-0.5,0.7L48,47.8l0,0l-0.2-0.1l0,0c-0.1,0.2-0.2,0.3-0.4,0.4
	c-0.1,0.1-0.3,0.2-0.4,0.3c-0.3,0.1-0.5,0.3-0.8,0.5c-0.1,0.2-0.4,0.4-0.6,0.4c-0.2,0-0.3,0.1-0.4,0.4c0,0.1-0.1,0.2-0.2,0.2
	c-0.1,0-0.2,0.1-0.2,0.1c-0.1,0.1-0.2,0.2-0.3,0.2c-0.5,0.2-1,0.5-1.4,0.8c-0.6,0.4-1.4,0.8-2.4,1.4c-0.3,0.1-0.5,0.3-0.7,0.5
	c0,0,0,0.1-0.1,0.1h-0.1c-0.2,0-0.4,0-0.5,0.1c-0.9,0.4-1.8,0.6-2.7,0.6 M36.4,45.3c0.1,0,0.2,0,0.2-0.1c0.2-0.2,0.5-0.3,0.8-0.3
	c0.2,0,0.4-0.1,0.5-0.3c0.1-0.1,0.2-0.2,0.2-0.2c0.1-0.1,0.2-0.2,0.2-0.3V44c0,0,0-0.1,0.1-0.1h0.1c0.2-0.2,0.4-0.4,0.5-0.6
	c0-0.1,0.1-0.2,0.2-0.2c0.1-0.1,0.2-0.2,0.3-0.3c0.2-0.3,0.5-0.6,0.8-0.9l0,0c0-0.1,0-0.1-0.1-0.1c-0.7,0.3-1.4,0.7-2,1.2
	c-0.3,0.2-0.6,0.5-0.9,0.8c-0.4,0.4-0.7,0.8-1.1,1.2v0.1L36.4,45.3z"/>
<path class="st0" d="M49.6,54.1c-0.2,0-0.3-0.1-0.5-0.1c-0.2-0.1-0.4-0.1-0.6-0.2c-0.1,0-0.1,0-0.1-0.1c-0.1-0.2-0.3-0.3-0.4-0.4
	c-0.6-0.5-1-1.2-1.3-1.9c-0.3-0.4-0.5-0.8-0.5-1.3s0.2-0.9,0.4-1.4l0,0c0,0,0,0,0.1,0c0.1-0.1,0.2-0.3,0.2-0.5c0,0,0-0.1-0.1-0.1
	s-0.1,0-0.1-0.1s0-0.2,0.1-0.2c0-0.1,0.1-0.2,0.3-0.2s0.3-0.2,0.4-0.4v-0.1v-0.4l0.1-0.1l0,0h0.3v-0.1l0.1-0.1
	c0.1,0,0.1-0.1,0.1-0.2c0-0.2,0.1-0.4,0.3-0.6c0-0.1,0.1-0.2,0.1-0.2c0-0.1,0-0.2,0-0.2c0.2,0,0.4-0.1,0.6-0.2l0.2-0.4v-0.2
	c0,0,0-0.1,0.1-0.1s0.1,0,0.2-0.1c0-0.1,0-0.2,0-0.3V44l0,0c0-0.1,0.1-0.2,0.3-0.2c0.1,0,0.2-0.1,0.2-0.1c0-0.2,0-0.3,0.1-0.5
	c0.2-0.3,0.4-0.4,0.6-0.4c0,0,0.1,0,0.2,0l0,0c0.1,0,0.2-0.1,0.2-0.2v-0.3c0-0.2,0.1-0.3,0.2-0.4c0.1-0.1,0.3-0.2,0.4-0.3
	c0.2-0.4,0.6-0.6,1-0.8c0.1,0,0.1-0.1,0.1-0.1v-0.1c0-0.1,0.2-0.3,0.6-0.6l0.2-0.2c0-0.1,0.1-0.2,0.2-0.2c0.5-0.3,1.1-0.7,1.5-1.1
	c0.2-0.1,0.4-0.3,0.6-0.4c0.1-0.2,0.3-0.3,0.5-0.3h0.2c0.2,0,0.3,0,0.5-0.1c0.1,0,0.2-0.1,0.3-0.1c0.2,0,0.4,0.1,0.6,0.2
	c0.1,0.1,0.2,0.1,0.3,0.1c0.5,0.2,1.1,0.4,1.5,0.8c0.1,0.1,0.2,0.2,0.3,0.2c0.6,0.2,1,0.8,1,1.4c0,0.2-0.1,0.4-0.2,0.6
	c-0.1,0.1-0.2,0.2-0.3,0.2s-0.2,0-0.3,0.1s-0.2,0.1-0.3,0.1H60h-0.5c-0.2,0-0.3,0-0.5-0.1h-0.1h-0.1c-0.6,0.1-1.2,0.4-1.6,0.8
	c-0.1,0.2-0.3,0.3-0.5,0.4c-0.1,0.1-0.2,0.2-0.3,0.2c-0.1,0.2-0.3,0.4-0.5,0.5c-0.3,0.1-0.5,0.4-0.7,0.6c-0.1,0.1-0.2,0.2-0.3,0.2
	c-0.3,0.1-0.5,0.4-0.7,0.7C54.1,44.9,54,45,53.9,45s-0.1,0.1-0.2,0.1c-0.1,0-0.1,0.1-0.1,0.3c-0.2,0-0.3,0.1-0.4,0.3l-0.1,0.1
	c0,0.1-0.1,0.2-0.1,0.3c-0.1,0.1-0.2,0.2-0.3,0.3c-0.4,0.4-0.8,0.9-1.1,1.3c-0.2,0.1-0.2,0.2-0.2,0.3v0.1c0,0.1-0.1,0.2-0.2,0.3
	l-0.1,0.1l0,0l0,0l0,0h0.1c0.1-0.1,0.2-0.1,0.3-0.2c0.2-0.2,0.5-0.6,0.9-1l0.1-0.1c0-0.1,0.1-0.3,0.4-0.5c0.1-0.1,0.2-0.1,0.3-0.1
	c0.3,0,0.5-0.3,0.9-0.8c0.1-0.2,0.2-0.4,0.4-0.6c0.5-0.3,0.9-0.7,1.2-1.1c0.1-0.1,0.3-0.2,0.5-0.2h0.1c0.4-0.3,0.7-0.6,1-1
	c0-0.1,0.1-0.1,0.2-0.2c0.1,0,0.1,0,0.2,0c0.3,0.1,0.6,0.2,0.9,0.3c0.8,0.3,1.6,0.8,2.1,1.5c0.2,0.2,0.3,0.5,0.3,0.8
	c-0.1,0.4-0.2,0.7-0.3,1.1c-0.4,0.9-0.6,1.8-0.8,2.8c0,0,0,0,0.1,0.1h0.1c0.1,0,0.2-0.1,0.2-0.1h0.1c0,0,0.1,0,0.2,0h0.1
	c0.1,0.3,0.2,0.5,0.3,0.8c0,0.1,0,0.2,0.1,0.3s0.1,0.2,0.1,0.3v0.2c0,0.3,0,0.6-0.1,0.9c0,0.2,0,0.3,0,0.5s-0.2,0.3-0.7,0.3
	s-1-0.2-1.4-0.5c-0.2-0.1-0.4-0.2-0.6-0.4c-0.1-0.2-0.2-0.3-0.3-0.4c-0.2-0.2-0.3-0.5-0.4-0.7c0-0.1-0.1-0.1-0.1-0.2
	c-0.4-0.2-0.6-0.6-0.7-1v-0.1c0,0,0,0,0-0.1c-0.1-0.1-0.1-0.2-0.2-0.2c-0.1,0-0.1,0.1-0.2,0.1c-0.3,0.4-0.7,0.7-1.1,1
	c-0.1,0.2-0.3,0.4-0.5,0.5c-0.1,0.1-0.4,0.3-0.7,0.7c-0.8,0.8-1.7,1.5-2.6,2.2L51,53.6c-0.2,0-0.4,0.1-0.5,0.2
	C50.3,53.9,50,54,49.7,54"/>
<path class="st0" d="M75.3,37.2c0.1,0.1,0.2,0.2,0.3,0.2h0.1h0.2v0.1c0.2,0.2,0.4,0.3,0.7,0.4c0.1,0,0.3,0,0.4,0.1
	c0.1,0,0.2,0.1,0.4,0h0.1h0.3l0.4-0.1h0.2h0.2c0.2,0,0.4-0.1,0.5-0.3s0.3-0.3,0.4-0.3c0.2-0.1,0.4-0.2,0.5-0.4
	c0.4-0.5,0.8-0.9,1.2-1.3c0.3-0.3,0.4-0.7,0.4-1.1c0-0.1-0.1-0.3-0.2-0.3L81.3,34c-0.3-0.6-0.8-1-1.4-1.1c-0.1,0-0.2,0-0.3-0.1
	c-0.3-0.3-0.6-0.5-1-0.5l-0.3,0.1c-0.1,0-0.1,0-0.1,0v-0.1h-0.1l0,0c0,0.4,0,0.6,0,0.7c0,0,0,0.1-0.1,0.1c0,0,0,0,0,0.1l0,0
	c-0.1,0.1-0.1,0.2-0.2,0.3l0,0h-0.1c-0.1,0-0.3,0.1-0.4,0.1l-0.1,0.1c0,0.2,0,0.3,0.1,0.4c-0.2,0.5-0.4,0.8-0.8,0.8
	c-0.1,0-0.3,0.3-0.5,0.8C75.7,36.2,75.5,36.7,75.3,37.2L75.3,37.2"/>
<path class="st0" d="M71.2,51.2c0-0.1,0-0.1,0-0.2c0.1-0.1,0.1-0.3,0.1-0.4c0.1-0.3,0.2-0.7,0.4-1l0.7-1.5c0.2-0.5,0.5-1.1,0.8-1.5
	c0.4-0.7,0.8-1.5,1.3-2.2c0.2-0.4,0.5-0.7,0.8-1c0.1-0.3,0.3-0.5,0.4-0.7c0.3-0.3,0.5-0.7,0.5-1.1c0-0.1-0.1-0.3-0.2-0.4
	c-0.2-0.3-0.5-0.6-0.8-0.9c-0.1-0.1-0.1-0.1-0.2-0.1l-0.2-0.1c-0.4-0.4-0.9-0.7-1.4-0.8c-0.1-0.1-0.2-0.1-0.3-0.1
	c-0.3,0-0.4,0-0.4,0.2c0,0.1-0.1,0.3-0.2,0.4c-0.1,0.1-0.1,0.2-0.2,0.3l-0.1,0.2c0,0.2-0.2,0.4-0.3,0.6H72c-0.1,0.1-0.2,0.2-0.4,0.3
	c-0.1,0.3-0.3,0.5-0.4,0.8c-0.1,0-0.1,0-0.2,0.1l-0.2,0.2c-0.1,0.3-0.3,0.5-0.5,0.6c-0.5,0.9-1,1.8-1.3,2.8c0,0.1,0,0.2,0.1,0.2
	c0,0.2,0,0.4-0.1,0.5s-0.2,0.2-0.3,0.3c-0.1,0-0.2,0.1-0.2,0.2c0,0.3-0.2,0.6-0.4,0.8L68,47.9v0.4c-0.1,0.1-0.1,0.2-0.2,0.3
	s-0.2,0.3-0.3,0.4v0.2c0,0.3,0,0.6-0.2,0.9c0,0.1,0,0.2,0,0.2c0,0.1,0,0.2,0.1,0.2V51l0,0c0,0.2,0.2,0.5,0.7,0.9
	c0.2,0.2,0.4,0.4,0.6,0.6c0.1,0.1,0.1,0.1,0.2,0.2c0.2,0.3,0.4,0.1,0.7,0.1c0.8-0.2,1.5-0.8,1.8-1.7c0,0,0-0.1,0-0.2"/>
<path class="st0" d="M80.4,53.8c-0.6-0.1-1.2-0.3-1.7-0.7c-0.3-0.2-0.7-0.5-0.9-0.8c-0.4-0.5-0.7-0.8-0.8-1
	c-0.3-0.3-0.4-0.7-0.4-1.1l-0.1-0.3l0.2-0.6c0-0.5,0.2-0.9,0.4-1.3v-0.1V48c0.1,0,0.2-0.1,0.2-0.3v-0.1c0.3-0.4,0.5-0.9,0.7-1.5
	c0-0.1,0.1-0.1,0.1-0.2c0.1-0.2,0.2-0.4,0.3-0.5c0-0.1,0-0.1,0.1-0.2c0.1-0.3,0.2-0.6,0.4-0.8c0.1-0.1,0.2-0.2,0.2-0.3
	c0.2-0.2,0.3-0.4,0.3-0.7c0.2-0.2,0.3-0.4,0.4-0.6c0.1-0.2,0.2-0.5,0.3-0.7c0.2-0.2,0.3-0.5,0.3-0.7c0.1,0,0.1-0.1,0.1-0.2
	c0.2-0.3,0.5-0.6,0.6-1l0,0h-0.2V40v-0.1l0.1-0.1c0-0.1,0.1-0.1,0.1-0.2c0.1,0,0.1,0,0.2,0s0.1,0,0.1-0.1s-0.1-0.1-0.1-0.2
	c0-0.1,0-0.2,0.1-0.2c0.1-0.2,0.2-0.4,0.3-0.4s0.2-0.1,0.2-0.2c0-0.2,0-0.3,0.2-0.5c0.1-0.1,0.2-0.2,0.2-0.3
	c0.1-0.1,0.1-0.2,0.2-0.3l0.1-0.2v-0.1c0.1-0.1,0.1-0.2,0.2-0.3C83,36.5,83,36.3,83,36c0-0.2,0-0.4-0.1-0.5v-0.1
	c0-0.3,0.1-0.4,0.4-0.4c0.9,0.1,1.7,0.4,2.5,0.8c0.1,0.1,0.3,0.1,0.4,0.1s0.2,0.1,0.2,0.1c0,0.1,0.1,0.2,0.2,0.3
	c0.3,0.3,0.4,0.6,0.4,1c0,0.2-0.1,0.4-0.2,0.6c-0.1,0.1-0.2,0.3-0.3,0.5c-0.5,0.7-1,1.4-1.3,2.2c-0.3,0.4-0.5,0.8-0.7,1.3L84.4,42
	l0,0c-0.3,0.2-0.5,0.4-0.5,0.7c-0.2,0.5-0.5,1-0.8,1.6l-0.8,1.6c-0.2,0.3-0.4,0.7-0.5,1.1L81,48.6c-0.1,0.3-0.3,0.7-0.4,1
	c0.1,0.2,0.2,0.2,0.2,0.2l0.4-0.3c0.1-0.2,0.3-0.4,0.5-0.6c0.1,0,0.1-0.1,0.2-0.1H82c0.1,0,0.2-0.1,0.3-0.2c0-0.1,0-0.1-0.1-0.2
	l-0.1-0.1c0.3-0.3,0.6-0.5,0.7-0.5s0.2,0,0.3,0.1c0.1,0,0.1,0,0.2-0.1c0-0.1,0.1-0.1,0.1-0.2v-0.1l0.1-0.1c0.1-0.1,0.2-0.2,0.3-0.3
	H84c0,0,0.1,0,0.1-0.1c0.1-0.2,0.2-0.4,0.3-0.5c0.2-0.2,0.4-0.4,0.6-0.6c0.1-0.2,0.3-0.3,0.4-0.4c0.1-0.1,0.1-0.1,0.1-0.2
	c0-0.1,0.1-0.1,0.1-0.2c0.2-0.1,0.4-0.2,0.5-0.3c0.1-0.2,0.3-0.4,0.5-0.5c0.1-0.2,0.2-0.3,0.2-0.5c0-0.1,0-0.1,0.1-0.1l0,0
	c0.2-0.1,0.4-0.3,0.6-0.4c0.3-0.4,0.5-0.7,0.9-1c0.1-0.1,0.1-0.2,0.2-0.4c0-0.1,0.1-0.2,0.2-0.3l0.3-0.4v-0.1v-0.2
	c0-0.2,0.1-0.4,0.3-0.5c0.2-0.2,0.4-0.3,0.7-0.4h0.1h0.1c0.2,0,0.4,0.1,0.6,0.3c0.3,0.3,0.7,0.5,1.2,0.7c0.3,0.1,0.6,0.3,0.8,0.5
	c0,0.1,0.1,0.1,0.2,0.1h0.1c0.1,0,0.1,0,0.1,0.1l0,0c0,0.1,0,0.1,0.1,0.2l0.1,0.1c0,0.1,0,0.1,0,0.2c0,0.1,0,0.2,0,0.4
	c-0.1,0.2-0.3,0.3-0.4,0.5c-0.1,0.1-0.2,0.2-0.3,0.3c-0.1,0.1-0.2,0.2-0.3,0.3c-0.1,0.1-0.2,0.2-0.2,0.3c-0.2,0.3-0.5,0.5-0.8,0.7
	c-0.1,0-0.1,0.1-0.2,0.2c-0.1,0.2-0.3,0.4-0.5,0.5c-0.1,0.1-0.2,0.1-0.2,0.2c-0.1,0.2-0.2,0.3-0.4,0.4c-0.1,0.1-0.3,0.3-0.3,0.5
	l-0.1,0.1c-0.3,0.2-0.6,0.5-0.8,0.8c-0.2,0.2-0.3,0.4-0.5,0.5h-0.1C88.2,48,88,48.2,88,48.4c0,0.1-0.1,0.1-0.1,0.2
	c-0.3,0.2-0.5,0.4-0.7,0.7c-0.1,0.1-0.2,0.2-0.3,0.2c-0.3,0.2-0.5,0.4-0.7,0.6c0,0.1-0.1,0.1-0.2,0.1c-0.2,0.1-0.3,0.2-0.4,0.4
	c-0.6,0.7-1.3,1.3-2,1.9c-0.5,0.4-1,0.7-1.6,0.9C81.4,53.6,81,53.7,80.4,53.8"/>
<path class="st0" d="M93.8,54.1c-0.2,0-0.3-0.1-0.5-0.1c-0.2-0.1-0.4-0.1-0.6-0.2c-0.1,0-0.1,0-0.1-0.1c-0.1-0.2-0.3-0.3-0.4-0.4
	c-0.6-0.5-1-1.2-1.3-1.9c-0.3-0.4-0.5-0.8-0.5-1.3s0.2-0.9,0.4-1.4l0,0h0.1c0.1-0.1,0.2-0.3,0.2-0.5c0,0,0-0.1-0.1-0.1
	s-0.1,0-0.1-0.1s0.1-0.1,0.1-0.2c0-0.1,0.1-0.2,0.3-0.2s0.3-0.2,0.4-0.4v-0.1v-0.4l0.1-0.1c0,0,0,0,0.1,0h0.3v-0.1
	c0-0.1,0.1-0.1,0.1-0.1c0.1,0,0.1-0.1,0.1-0.2c0-0.2,0.1-0.4,0.3-0.6c0-0.1,0.1-0.2,0.1-0.2c0-0.1,0-0.2,0-0.2
	c0.2,0,0.4-0.1,0.6-0.2l0.2-0.4v-0.2c0,0,0-0.1,0.1-0.1s0.1,0,0.2-0.1c0-0.1,0-0.2,0-0.3V44l0,0c0-0.1,0.1-0.2,0.3-0.2
	c0.1,0,0.2-0.1,0.2-0.1c0-0.2,0-0.3,0.1-0.5c0.2-0.3,0.4-0.4,0.6-0.4c0,0,0.1,0,0.2,0h0.1c0.1,0,0.2-0.1,0.2-0.2v-0.3
	c0-0.2,0.1-0.3,0.2-0.4c0.1-0.1,0.3-0.2,0.4-0.3c0.2-0.4,0.6-0.6,1-0.8c0.1,0,0.1-0.1,0.1-0.1v-0.1c0-0.1,0.2-0.3,0.6-0.6l0.2-0.2
	c0-0.1,0.1-0.2,0.2-0.2c0.5-0.3,1.1-0.7,1.6-1.1c0.2-0.1,0.4-0.3,0.6-0.4c0.1-0.2,0.3-0.3,0.5-0.3h0.2c0.2,0,0.3,0,0.4-0.1
	c0.1,0,0.2-0.1,0.3-0.1c0.2,0,0.4,0.1,0.6,0.2c0.1,0.1,0.2,0.1,0.3,0.1c0.6,0.2,1.1,0.4,1.5,0.8c0.1,0.1,0.2,0.2,0.3,0.2
	c0.6,0.3,1,0.8,1,1.4c0,0.2-0.1,0.4-0.2,0.6c-0.1,0.1-0.2,0.2-0.3,0.2c-0.1,0-0.2,0-0.3,0.1c-0.1,0.1-0.2,0.1-0.3,0.1h-0.1h-0.5
	c-0.2,0-0.3,0-0.5-0.1H103c0,0-0.1,0-0.2,0c-0.6,0.1-1.1,0.4-1.6,0.8c-0.1,0.2-0.3,0.3-0.5,0.4c-0.1,0.1-0.2,0.2-0.3,0.2
	c-0.1,0.2-0.3,0.4-0.5,0.5c-0.3,0.1-0.5,0.4-0.7,0.6c-0.1,0.1-0.2,0.2-0.3,0.2c-0.3,0.1-0.5,0.4-0.7,0.7c-0.1,0.1-0.1,0.2-0.2,0.2
	s-0.1,0.1-0.2,0.1c-0.1,0.1-0.1,0.2-0.1,0.3c-0.2,0-0.3,0.1-0.4,0.3l-0.1,0.1c-0.1,0.1-0.1,0.2-0.2,0.3s-0.2,0.2-0.3,0.3
	c-0.4,0.4-0.8,0.9-1.1,1.3c-0.2,0.1-0.2,0.2-0.2,0.3v0.1c0,0.1-0.1,0.2-0.2,0.3l-0.1,0.1H95l0,0l0,0h0.1c0.1-0.1,0.2-0.1,0.3-0.2
	c0.2-0.2,0.5-0.6,0.9-1l0.1-0.1c0-0.1,0.1-0.3,0.4-0.5c0.1-0.1,0.2-0.1,0.3-0.1c0.3,0,0.6-0.3,0.9-0.8c0.1-0.2,0.2-0.4,0.4-0.6
	c0.5-0.3,0.9-0.7,1.2-1.1c0.1-0.1,0.3-0.2,0.5-0.2h0.1c0.4-0.3,0.7-0.6,1-1c0-0.1,0.1-0.1,0.2-0.2c0.1,0,0.1,0,0.2,0
	c0.3,0.1,0.6,0.2,0.9,0.3c0.8,0.3,1.6,0.8,2.1,1.5c0.2,0.2,0.3,0.5,0.3,0.8c-0.1,0.4-0.2,0.7-0.3,1.1c-0.4,0.9-0.6,1.8-0.8,2.8
	c0,0,0,0,0,0.1h0.1c0.1,0,0.2-0.1,0.2-0.1h0.1h0.1h0.1c0.1,0.3,0.2,0.5,0.3,0.8c0,0.1,0,0.2,0.1,0.3s0.1,0.2,0.1,0.3v0.2
	c0,0.3,0,0.6-0.1,0.9c0,0.2,0,0.3-0.1,0.5c0,0.2-0.2,0.3-0.7,0.3s-1-0.2-1.4-0.5c-0.2-0.1-0.4-0.2-0.6-0.4c-0.1-0.2-0.2-0.3-0.3-0.4
	c-0.2-0.2-0.3-0.5-0.4-0.7c0-0.1-0.1-0.1-0.1-0.2c-0.4-0.2-0.6-0.6-0.7-1V49c0,0,0,0,0-0.1c-0.1-0.1-0.1-0.2-0.2-0.2
	s-0.1,0.1-0.2,0.1c-0.3,0.4-0.7,0.7-1.1,1c-0.1,0.2-0.3,0.4-0.5,0.5c-0.1,0.1-0.4,0.3-0.7,0.7c-0.8,0.8-1.7,1.5-2.6,2.2L95,53.4
	c-0.2,0-0.4,0.1-0.5,0.2C94.4,53.9,94.1,54,93.8,54.1"/>
<path class="st0" d="M108.6,53.9h-0.2c-0.1-0.1-0.2-0.1-0.4-0.2c-0.2-0.1-0.5-0.2-0.7-0.3c-0.1-0.1-0.2-0.2-0.4-0.2
	c-0.1-0.1-0.2-0.2-0.3-0.3c-0.2-0.3-0.4-0.5-0.6-0.8c-0.1-0.1-0.2-0.2-0.2-0.4c0-0.1,0-0.2-0.1-0.2c-0.2-0.1-0.4-0.4-0.4-0.7
	c0-0.1,0.1-0.2,0.3-0.4c0.2-0.3,0.4-0.6,0.5-1c0-0.2,0.1-0.4,0.3-0.5c0.1-0.1,0.1-0.1,0.1-0.2c0-0.2,0.1-0.3,0.2-0.5
	c0.1-0.1,0.2-0.2,0.2-0.3c0-0.2,0.1-0.3,0.3-0.4c0.1-0.1,0.2-0.2,0.2-0.3c0.1-0.2,0.2-0.3,0.3-0.4c0.1-0.3,0.2-0.6,0.5-0.8
	c0.1-0.1,0.2-0.2,0.2-0.3v-0.1c0.1-0.1,0.1-0.3,0.1-0.5s0.1-0.4,0.3-0.5c0.1,0,0.1,0,0.1-0.1s0.1-0.2,0.1-0.3
	c0.1-0.1,0.2-0.3,0.2-0.5c0-0.1,0-0.1,0-0.2v-0.1c0-0.2,0.1-0.3,0.2-0.5c0.1-0.1,0.2-0.3,0.3-0.5c0-0.1,0.1-0.2,0.1-0.3
	c0-0.2,0.1-0.5,0.2-0.7c0.1-0.1,0.2-0.3,0.2-0.5c0.1-0.4,0.2-0.7,0.4-1.1V40c0-0.1,0-0.1-0.2-0.2s-0.1-0.1-0.1-0.1v-0.1
	c0.1-0.1,0.2-0.2,0.2-0.2l0.2-0.2c0.1,0,0.1-0.1,0.1-0.1c0-0.1,0-0.1-0.1-0.2c0,0,0,0-0.1,0v-0.1c0.1-0.2,0.2-0.4,0.2-0.6
	c0-0.2-0.1-0.4-0.2-0.5c-0.1-0.2-0.2-0.3-0.2-0.5s0.1-0.3,0.3-0.3c0.1,0,0.2,0,0.3,0h0.1c0,0,0,0,0.1,0c0,0,0,0,0.1,0l0.2,0.1
	c0.1,0,0.1,0.1,0.2,0.1s0.2,0.1,0.2,0.1c0.1,0.1,0.2,0.1,0.2,0.1c0.2,0,0.4,0,0.6,0.1c0.4,0.1,0.8,0.4,1.1,0.7
	c0.4,0.3,0.6,0.8,0.5,1.3l0,0c0,0.1,0,0.1,0,0.2c0,0.1,0,0.2,0,0.2c0,0.1,0.1,0.2,0.2,0.2l0.9-0.4l0.4-0.6c0.1,0,0.1-0.1,0.2-0.1
	s0.2,0,0.3-0.1h0.1l0.1,0.1c0.2-0.1,0.2-0.2,0.2-0.3s0.1-0.2,0.2-0.2c0.9-0.4,1.8-0.8,2.7-1.1c0.2-0.1,0.4-0.2,0.5-0.3
	c0-0.1,0.1-0.1,0.2-0.1s0.2,0.1,0.3,0.1c0.1,0,0.2,0.1,0.3,0.2c0.1,0,0.1,0.1,0.2,0c0.3,0.1,0.5,0.2,0.8,0.4
	c0.4,0.2,0.8,0.4,1.1,0.7l0,0c0,0.1,0.1,0.1,0.2,0.1c0.2,0.1,0.3,0.2,0.4,0.4s0.2,0.5,0.2,0.7c-0.1,0.2-0.3,0.4-0.6,0.4
	c-0.2,0-0.4-0.1-0.6-0.1c-1,0.2-2,0.6-2.9,1c-1.3,0.7-2.5,1.6-3.6,2.6c-0.7,0.5-1.4,1.1-2,1.8c-0.2,0.2-0.5,0.5-0.8,0.7l-0.6,0.6
	c-0.2,0.2-0.3,0.4-0.4,0.6c-0.2,0.3-0.4,0.5-0.6,0.8c-0.3,0.4-0.5,0.8-0.7,1.3c0,0.1-0.1,0.3-0.3,0.8c-0.2,0.5-0.4,1-0.7,1.5
	c-0.1,0.2-0.2,0.5-0.2,0.8v0.1v0.1c-0.1,0.1-0.1,0.2-0.1,0.3s-0.1,0.3-0.1,0.4c-0.1,0.1-0.1,0.3-0.1,0.4c0,0.1-0.1,0.2-0.2,0.3
	C109.2,53.7,109,53.8,108.6,53.9"/>
<path class="st0" d="M25.5,57.3L25.3,58h-0.6l0.9-2.8h0.8l0.8,2.8h-0.7l-0.2-0.7H25.5z M26.2,56.8L26,56.2c0-0.2-0.1-0.4-0.1-0.5
	l0,0c0,0.2-0.1,0.4-0.1,0.5l-0.2,0.6H26.2z"/>
<path class="st0" d="M29.8,57.9c-0.3,0.1-0.6,0.1-1,0.1s-0.8-0.1-1.1-0.4c-0.3-0.3-0.4-0.6-0.4-1c0-0.8,0.6-1.4,1.4-1.4
	c0.1,0,0.1,0,0.2,0c0.3,0,0.5,0,0.8,0.1l-0.1,0.5c-0.2-0.1-0.4-0.1-0.6-0.1c-0.5-0.1-0.9,0.3-1,0.8s0.3,0.9,0.8,1c0.1,0,0.1,0,0.2,0
	s0.2,0,0.3,0V57h-0.4v-0.5h1L29.8,57.9z"/>
<path class="st0" d="M30.3,55.3c0.3,0,0.6-0.1,0.8-0.1c0.3,0,0.6,0.1,0.9,0.2c0.2,0.1,0.3,0.4,0.3,0.6c0,0.3-0.2,0.6-0.5,0.7l0,0
	c0.2,0.1,0.3,0.3,0.4,0.5c0.1,0.3,0.2,0.7,0.2,0.8h-0.6c-0.1-0.2-0.1-0.4-0.2-0.6c-0.1-0.3-0.2-0.4-0.5-0.5h-0.2V58h-0.6V55.3z
	 M30.9,56.5h0.2c0.3,0,0.5-0.2,0.5-0.4s-0.2-0.4-0.5-0.4c-0.1,0-0.2,0-0.3,0L30.9,56.5z"/>
<path class="st0" d="M35.2,56.7c0.1,0.7-0.5,1.4-1.2,1.4c-0.1,0-0.1,0-0.2,0c-0.7,0-1.3-0.6-1.3-1.3v-0.1c0-0.7,0.5-1.4,1.2-1.4h0.1
	c0.7,0,1.3,0.5,1.3,1.3C35.2,56.5,35.2,56.6,35.2,56.7 M33.2,56.7c0,0.5,0.2,0.9,0.7,0.9s0.7-0.4,0.7-0.9s-0.2-0.9-0.7-0.9
	S33.2,56.1,33.2,56.7"/>
<polygon class="st0" points="37.2,56.9 36.2,56.9 36.2,57.5 37.4,57.6 37.4,58.1 35.6,58.1 35.6,55.3 37.3,55.3 37.3,55.8 
	36.2,55.8 36.2,56.4 37.2,56.4 "/>
<path class="st0" d="M39.8,58c-0.2,0.1-0.5,0.1-0.7,0.1c-0.7,0.1-1.4-0.5-1.4-1.2c0-0.1,0-0.1,0-0.2c0-0.8,0.6-1.4,1.3-1.5
	c0.1,0,0.1,0,0.2,0c0.2,0,0.5,0,0.7,0.1l-0.1,0.5c-0.2-0.1-0.3-0.1-0.5-0.1c-0.5,0-0.9,0.3-0.9,0.8v0.1c0,0.5,0.3,0.9,0.7,0.9h0.1
	c0.2,0,0.4,0,0.5-0.1L39.8,58z"/>
<path class="st0" d="M42.6,56.7c0.1,0.7-0.5,1.4-1.2,1.4c-0.7,0.1-1.4-0.5-1.4-1.2c0-0.1,0-0.2,0-0.2c-0.1-0.7,0.5-1.4,1.2-1.4h0.1
	c0.7,0,1.3,0.6,1.3,1.3C42.6,56.6,42.6,56.6,42.6,56.7 M40.6,56.7c0,0.5,0.2,0.9,0.7,0.9s0.7-0.4,0.7-0.9s-0.2-0.9-0.7-0.9
	S40.6,56.2,40.6,56.7"/>
<polygon class="st0" points="43.1,55.4 43.7,55.4 43.7,57.6 44.8,57.6 44.8,58.1 43,58.1 "/>
<path class="st0" d="M47.5,56.7c0.1,0.7-0.5,1.4-1.2,1.4c-0.1,0-0.1,0-0.2,0c-0.7,0-1.3-0.6-1.3-1.3v-0.1c0-0.7,0.5-1.4,1.3-1.4h0.1
	C46.9,55.3,47.5,55.9,47.5,56.7C47.5,56.6,47.5,56.7,47.5,56.7 M45.5,56.7c0,0.5,0.2,0.9,0.7,0.9s0.7-0.4,0.7-0.9s-0.2-0.9-0.7-0.9
	S45.5,56.2,45.5,56.7"/>
<path class="st0" d="M50.2,58c-0.3,0.1-0.6,0.1-0.9,0.2c-0.4,0-0.8-0.1-1.1-0.4c-0.3-0.3-0.4-0.6-0.4-1c0-0.8,0.6-1.4,1.4-1.4
	c0.1,0,0.1,0,0.2,0c0.3,0,0.5,0,0.8,0.1L50,56c-0.2-0.1-0.4-0.1-0.6-0.1c-0.5,0-0.9,0.3-0.9,0.8v0.1c0,0.5,0.3,0.9,0.8,0.9h0.1
	c0.1,0,0.2,0,0.3,0v-0.6h-0.4v-0.5h1L50.2,58z"/>
<rect x="49.6" y="56.6" transform="matrix(7.852636e-03 -1 1 7.852636e-03 -6.2507 107.4375)" class="st0" width="2.8" height="0.6"/>
<path class="st0" d="M52.5,57.5l-0.2,0.7h-0.6l0.9-2.8h0.8l0.8,2.8h-0.7l-0.2-0.7H52.5z M53.2,57L53,56.4c0-0.2-0.1-0.4-0.1-0.5l0,0
	c0,0.2-0.1,0.4-0.1,0.5L52.6,57H53.2z"/>
<path class="st0" d="M54.6,57.6c0.2,0.1,0.4,0.2,0.7,0.2s0.4-0.1,0.4-0.3s-0.1-0.3-0.5-0.4s-0.8-0.4-0.8-0.8s0.4-0.8,1-0.8
	c0.2,0,0.5,0.1,0.7,0.2L56,56.1C55.8,56,55.6,56,55.4,56c-0.3,0-0.4,0.1-0.4,0.3s0.2,0.3,0.5,0.4s0.7,0.4,0.7,0.8s-0.3,0.8-1.1,0.8
	c-0.3,0-0.5-0.1-0.8-0.2L54.6,57.6z"/>
<polygon class="st0" points="59.2,57.1 58.2,57.1 58.2,57.7 59.3,57.7 59.3,58.2 57.6,58.2 57.6,55.5 59.3,55.5 59.3,56 58.2,56 
	58.2,56.6 59.2,56.6 "/>
<rect x="15.6" y="60" transform="matrix(7.852636e-03 -1 1 7.852636e-03 -43.4304 76.9212)" class="st0" width="2.8" height="0.6"/>
<path class="st0" d="M17.8,61.8V59h0.7l0.6,1c0.2,0.3,0.3,0.6,0.4,1l0,0c0-0.4,0-0.7,0-1.2V59h0.6v2.8h-0.7l-0.6-1.1
	c-0.2-0.3-0.3-0.7-0.5-1l0,0c0,0.4,0,0.8,0,1.2v0.8L17.8,61.8z"/>
<polygon class="st0" points="21.2,59.6 20.5,59.6 20.5,59.1 22.6,59.1 22.6,59.6 21.8,59.6 21.8,61.8 21.2,61.8 "/>
<polygon class="st0" points="24.6,60.7 23.5,60.7 23.5,61.3 24.7,61.3 24.7,61.8 22.9,61.8 22.9,59.1 24.6,59.1 24.6,59.6 
	23.6,59.6 23.5,60.2 24.6,60.2 "/>
<path class="st0" d="M25.1,59.1c0.3,0,0.6-0.1,0.8,0c0.3,0,0.6,0.1,0.9,0.2c0.2,0.1,0.3,0.4,0.3,0.6c0,0.3-0.2,0.6-0.5,0.7l0,0
	c0.2,0.1,0.3,0.3,0.4,0.5c0.1,0.3,0.2,0.7,0.2,0.8h-0.6c-0.1-0.2-0.2-0.4-0.2-0.6c-0.1-0.3-0.2-0.4-0.5-0.5h-0.2v1.1h-0.6L25.1,59.1
	z M25.7,60.3H26c0.3,0,0.5-0.2,0.5-0.4s-0.2-0.4-0.5-0.4c-0.1,0-0.2,0-0.3,0V60.3z"/>
<path class="st0" d="M29.5,61.8c-0.2,0.1-0.5,0.1-0.7,0.1c-0.7,0.1-1.4-0.5-1.4-1.2c0-0.1,0-0.1,0-0.2c0-0.8,0.6-1.4,1.4-1.5
	c0.1,0,0.1,0,0.2,0c0.2,0,0.5,0,0.7,0.1l-0.1,0.5c-0.2-0.1-0.3-0.1-0.5-0.1c-0.5,0-0.9,0.4-0.9,0.9s0.4,0.9,0.9,0.9
	c0.2,0,0.4,0,0.5-0.1L29.5,61.8z"/>
<path class="st0" d="M30.6,59.1v1.6c0,0.5,0.2,0.7,0.5,0.7s0.5-0.2,0.5-0.7v-1.6h0.6v1.6c0,0.8-0.4,1.2-1.2,1.2s-1-0.4-1-1.2v-1.5
	L30.6,59.1L30.6,59.1z"/>
<polygon class="st0" points="32.8,59.2 33.4,59.2 33.4,61.4 34.5,61.4 34.5,61.9 32.7,61.9 "/>
<polygon class="st0" points="35,59.7 34.2,59.7 34.2,59.2 36.3,59.2 36.3,59.7 35.6,59.7 35.6,61.9 34.9,61.9 "/>
<path class="st0" d="M37.3,59.2v1.6c0,0.5,0.2,0.7,0.5,0.7s0.5-0.2,0.5-0.7v-1.6h0.6v1.5c0,0.8-0.4,1.2-1.2,1.2s-1.1-0.4-1.1-1.3
	v-1.5L37.3,59.2z"/>
<path class="st0" d="M39.5,59.2c0.3,0,0.6-0.1,0.8,0c0.3,0,0.6,0.1,0.9,0.2c0.2,0.1,0.3,0.4,0.2,0.6c0,0.3-0.2,0.6-0.5,0.7l0,0
	c0.2,0.1,0.3,0.3,0.4,0.5c0.1,0.3,0.2,0.7,0.2,0.8h-0.6c-0.1-0.2-0.1-0.4-0.2-0.7c-0.1-0.3-0.2-0.4-0.5-0.5H40V62h-0.6L39.5,59.2z
	 M40.1,60.4h0.2c0.3,0,0.5-0.2,0.5-0.4s-0.2-0.4-0.5-0.4H40L40.1,60.4z"/>
<path class="st0" d="M42.6,61.3L42.4,62h-0.7l0.9-2.8h0.8l0.8,2.8h-0.7l-0.2-0.7H42.6z M43.3,60.8l-0.2-0.6L43,59.7l0,0
	c0,0.2-0.1,0.4-0.1,0.5l-0.2,0.6H43.3z"/>
<polygon class="st0" points="44.6,59.2 45.2,59.2 45.2,61.5 46.3,61.5 46.3,62 44.6,62 "/>
<rect x="45.5" y="60.4" transform="matrix(7.852636e-03 -1 1 7.852636e-03 -14.1008 107.0996)" class="st0" width="2.8" height="0.6"/>
<path class="st0" d="M47.9,59.3c0.3,0,0.6-0.1,0.8-0.1c0.4,0,0.8,0.1,1.1,0.3s0.5,0.6,0.5,1s-0.2,0.8-0.5,1.1
	c-0.4,0.3-0.8,0.4-1.3,0.3c-0.2,0-0.5,0-0.7,0L47.9,59.3z M48.5,61.6c0.1,0,0.1,0,0.2,0c0.5,0.1,0.9-0.3,1-0.8c0-0.1,0-0.2,0-0.2
	c0-0.4-0.3-0.8-0.7-0.9h-0.1c-0.1,0-0.2,0-0.3,0L48.5,61.6z"/>
<path class="st0" d="M51.3,61.3L51.1,62h-0.7l0.9-2.8h0.8L53,62h-0.7l-0.2-0.7H51.3z M52,60.9l-0.2-0.6c0-0.2-0.1-0.4-0.1-0.5l0,0
	c0,0.2-0.1,0.4-0.1,0.5l-0.2,0.6H52z"/>
<path class="st0" d="M53.3,59.3c0.3,0,0.6-0.1,0.8,0c0.4,0,0.8,0.1,1.1,0.3s0.5,0.6,0.5,1s-0.2,0.8-0.5,1.1
	c-0.4,0.3-0.8,0.4-1.3,0.3c-0.3,0-0.5,0-0.7,0L53.3,59.3z M54,61.6c0.1,0,0.1,0,0.2,0c0.5,0.1,0.9-0.3,1-0.8c0-0.1,0-0.2,0-0.2
	c0-0.4-0.3-0.8-0.7-0.9c-0.1,0-0.1,0-0.2,0H54V61.6z"/>
<polygon class="st0" points="57.8,60.9 56.8,60.9 56.8,61.6 57.9,61.6 57.9,62.1 56.2,62.1 56.2,59.3 57.9,59.3 57.9,59.9 
	56.8,59.8 56.8,60.4 57.8,60.4 "/>
<path class="st0" d="M58.4,61.5c0.2,0.1,0.5,0.2,0.7,0.2c0.3,0,0.4-0.1,0.4-0.3S59.4,61.1,59,61s-0.8-0.4-0.8-0.8s0.4-0.8,1-0.8
	c0.2,0,0.5,0,0.7,0.1V60c-0.2-0.1-0.4-0.1-0.6-0.1c-0.3,0-0.4,0.1-0.4,0.3s0.2,0.2,0.5,0.4s0.7,0.4,0.7,0.8s-0.3,0.8-1.1,0.8
	c-0.3,0-0.5-0.1-0.8-0.2L58.4,61.5z"/>
<path class="st0" d="M68.1,55.8v3.1c0,0.9,0.4,1.4,1,1.4s1-0.4,1-1.4v-3.1h1.2v3c0,1.6-0.8,2.4-2.2,2.4S67,60.4,67,58.7v-3
	L68.1,55.8z"/>
<polygon class="st0" points="72.3,55.8 75.5,55.8 75.5,56.8 73.5,56.8 73.5,58 75.4,58 75.4,59 73.5,59 73.5,61.1 72.3,61.1 "/>
<path class="st0" d="M80.9,60.9c-0.6,0.2-1.2,0.3-1.8,0.3c-0.8,0.1-1.6-0.2-2.2-0.7c-0.5-0.5-0.8-1.2-0.8-1.9c0-1.5,1.2-2.8,2.7-2.8
	c0.1,0,0.2,0,0.3,0c0.5,0,1,0.1,1.5,0.2l-0.2,1c-0.4-0.2-0.8-0.3-1.2-0.2c-1,0-1.7,0.9-1.7,1.8c0,0.9,0.7,1.6,1.6,1.6
	c0.2,0,0.4,0,0.6-0.1V59h-0.8v-1h2V60.9z"/>
<path class="st0" d="M65.3,61.4h-0.4c-0.1,0-0.3,0.1-0.4,0.1h-0.1c-0.1,0-0.1,0-0.2,0c-0.3,0-0.7-0.1-1-0.3
	c-0.2-0.1-0.5-0.2-0.7-0.3c-0.5-0.2-0.8-0.4-0.8-0.5l0.1-0.2c0-0.2-0.1-0.4-0.1-0.6c0-0.1,0-0.2,0-0.3c-0.1-0.2-0.1-0.4,0-0.5
	c0.1-0.3,0.1-0.6,0.1-0.9c0-0.1,0-0.1,0-0.2c0-0.1,0-0.2-0.1-0.2l-0.1-0.4c0-0.3,0.1-0.5,0.2-0.8l-0.1-0.2l0.1-0.3l-0.1-0.3l0.1-0.6
	c0-0.1,0-0.3,0-0.4v-0.1l0,0l0,0v-0.1v-0.2c0-0.1,0-0.2,0-0.3s0-0.2,0.1-0.2c0.1-0.4,0.2-0.7,0.2-1.1c0.1-0.4,0.1-0.8,0.1-1.2
	c0-0.1,0-0.2,0.1-0.4c0-0.2,0-0.4,0-0.5c0-0.2,0.2-0.3,0.4-0.4c0.1,0,0.1,0,0.1,0l0,0c0,0.1,0,0.1,0,0.2v0.1l0,0c0,0,0,0,0,0.1
	s0,0.2,0,0.3c0,0,0.1,0,0.2,0l0.2-0.7c0-0.1-0.1-0.2-0.1-0.3v-0.1v-0.1l0.3-0.1l0.1-0.1c0-0.1,0-0.1-0.1-0.1c0,0,0,0,0-0.1
	S63.3,49,63.3,49c0-0.2,0-0.4,0.1-0.5c0-0.1,0-0.3,0-0.4c0-0.1,0-0.2,0.1-0.2c0.2-0.2,0.3-0.5,0.3-0.8c0-0.1,0-0.3,0-0.4
	c0.1-0.1,0.1-0.1,0.1-0.2c0-0.1-0.1-0.2-0.1-0.3v-0.1l0,0C64,46,64,45.9,64,45.9l-0.1-0.3c0-0.1,0-0.2,0-0.3
	c0.1-0.1,0.2-0.3,0.3-0.4c-0.1-0.2,0-0.5,0.1-0.7c-0.2,0-0.3,0.1-0.3,0l0,0c0-0.1,0-0.1,0-0.2c0-0.1,0-0.2,0.1-0.2
	c0.5-0.1,0.7-0.3,0.8-0.7l0,0L65,43c0-0.1,0-0.1,0-0.2c0,0,0,0-0.1-0.1c0-0.1,0-0.1-0.1-0.2l0.1-0.2c0-0.2,0.1-0.3,0.2-0.4
	c0.1,0,0.1,0,0.1-0.1l0,0c0-0.1,0-0.2,0-0.3s0.1-0.3,0.2-0.6c0-0.1,0.1-0.1,0.1-0.1c0.1-0.1,0.2-0.3,0.1-0.4l-0.1-0.2l0.3-0.5
	c0-0.1-0.1-0.1-0.1-0.1h-0.1h-0.1l-0.1,0.1h-0.1c0-0.1,0.1-0.3,0.2-0.3l0,0c0.2-0.1,0.3-0.3,0.2-0.4l0.1-0.1c0.2,0,0.3-0.1,0.2-0.3
	c0-0.1,0-0.3,0.1-0.4c0.1-0.1,0.1-0.2,0.1-0.4c-0.2-0.1-0.2-0.2-0.3-0.2l0.2-0.7c0,0,0-0.1,0.1-0.2c0.1,0,0.2-0.1,0.2-0.2
	c0-0.1,0.1-0.2,0.1-0.2h0.4v-0.1c0-0.1,0-0.3,0.1-0.4c0,0,0,0,0-0.1c0,0,0,0,0-0.1v-0.1h-0.2c-0.1,0-0.1,0.1-0.1,0.1l-0.1,0.2h-0.1
	l0,0c0-0.1,0-0.2,0.1-0.2c0.1-0.2,0.1-0.4,0.1-0.6l0,0h-0.2L65,35.5c-0.3,0.1-0.7-0.1-0.9-0.3c-0.1-0.1-0.2-0.2-0.3-0.3l-0.3-1.1
	v-0.1c0,0,0,0,0-0.1s0-0.1,0-0.2l0,0v-0.1l0,0c-0.2-0.2-0.3-0.5-0.3-0.8C63,32.2,63,31.8,63,31.4c0-0.2,0.2-0.3,0.6-0.4h0.2l0.1-0.1
	c0.1,0,0.2,0,0.3,0c0.1,0.1,0.2,0.1,0.2,0.1h0.1c0.4-0.1,0.8-0.2,1.1-0.4c0.2-0.1,0.4-0.2,0.6-0.2l0,0l0,0h0.1h0.1
	c0.2-0.2,0.5-0.3,0.8-0.3c0.1,0,0.1,0,0.2,0s0.2,0,0.2,0l0,0l0,0l0.1-0.1v-0.1l0,0c0.1-0.1,0.2-0.2,0.4-0.2c0.3-0.1,0.5-0.2,0.7-0.4
	c0.1,0,0.3-0.1,0.4-0.1s0.1-0.1,0.2-0.1l0.2-0.1c0.1,0,0.2,0,0.3-0.1l0.6-1.1l0.1-0.7V27c0,0,0-0.1,0.1-0.1c0.1-0.1,0.2-0.3,0.3-0.5
	c0.1-0.2,0.1-0.3,0.2-0.5c0.1-0.1,0.2-0.3,0.3-0.5c0.1-0.3,0.3-0.6,0.5-0.8c0.1-0.2,0.2-0.3,0.2-0.5c0-0.1,0.1-0.1,0.1-0.2
	c0.2-0.2,0.4-0.4,0.4-0.7c0.1-0.1,0.1-0.2,0.2-0.2c0.1-0.1,0.1-0.2,0.1-0.2v-0.1h-0.1h-0.1h-0.1l0,0l0,0c0.1-0.1,0.2-0.3,0.3-0.4
	c0.1-0.1,0.1-0.2,0.2-0.3l0,0c0-0.2,0.1-0.3,0.2-0.4s0.2-0.3,0.1-0.4c0-0.1,0-0.1,0-0.2c0,0,0,0,0-0.1l0,0c0-0.1-0.1-0.3-0.1-0.4
	l-0.1-0.1c0.1-0.2,0.1-0.3,0.2-0.5h0.1h0.1c0.4,0.1,0.7,0.1,1.1,0.2c0.1,0,0.2,0,0.2,0.1s0.1,0,0.3,0c0.3,0.2,0.6,0.4,1,0.5
	c0.3,0.2,0.5,0.3,0.7,0.6c0.2,0.1,0.4,0.4,0.4,0.6l0.1,0.6c-0.2,0.7-0.4,1.3-0.8,1.9l-0.4,0.7c-0.1,0.1-0.3,0.5-0.6,1.1
	c-0.1,0.1-0.1,0.2-0.2,0.3c0,0.1-0.1,0.2-0.2,0.3C75.1,27,75,27.3,75,27.6c0,0.1,0.1,0.1,0.4,0.1c0.2,0,0.4,0,0.5,0
	c0.2,0,0.5-0.1,0.6-0.3c0.2-0.1,0.3-0.2,0.6-0.3h0.1c0,0,0.1,0,0.2,0h0.1h0.1c0.1,0.1,0.3,0.1,0.4,0l0.2-0.1l0.5-0.1
	c0.2-0.1,0.5-0.1,0.7-0.1s0.4,0,0.5,0s0.3-0.1,0.4-0.2h0.1c0.2-0.1,0.5,0,0.6,0.2c0,0.1,0,0.1,0.1,0.2l0.1,0.1
	c0.2,0.2,0.4,0.4,0.6,0.6c0,0.1,0.2,0.2,0.3,0.2c0.1,0.1,0.2,0.2,0.2,0.4c0,0.2,0.1,0.4,0.3,0.6c0.2,0.4,0.4,0.8,0.4,1.2
	c0,0.2,0,0.4-0.2,0.6c-0.1,0.1-0.1,0.2-0.2,0.2h-0.1c-0.1,0-0.2,0-0.3-0.1c-0.1-0.1-0.3-0.2-0.5-0.2l-0.3,0.1H81c-0.2,0-0.4,0-0.6,0
	c-0.9,0-1.7,0.1-2.5,0.4c-0.4,0.1-0.9,0.2-1.3,0.4l-1.1,0.2c-0.2,0-0.4,0.1-0.6,0.2l-2.3,0.7c-0.3,0.2-0.5,0.4-0.6,0.8
	c-0.1,0.2-0.2,0.4-0.3,0.6c-0.1,0.2-0.2,0.4-0.3,0.6c-0.1,0.4-0.3,0.8-0.5,1.2c-0.3,0.6-0.8,1.8-1.5,3.6c-0.1,0.3-0.3,0.7-0.4,1
	c-0.1,0.4-0.2,0.8-0.4,1.1c-0.2,0.4-0.4,0.9-0.5,1.4c-0.5,1.3-0.8,2.6-1.1,3.9c0,0.1,0,0.1,0,0.2c-0.2,0.4-0.3,0.9-0.4,1.4
	c0,0.2-0.1,0.4-0.2,0.6l-0.2,1l0,0c-0.2,0.5-0.3,1-0.3,1.6c-0.1,0.5-0.2,1.1-0.2,1.6c0,0.3,0,0.6-0.1,0.8c0,0.2-0.1,0.3-0.1,0.5
	c0,0.1-0.1,0.3-0.1,0.4c0,0.6,0,1.3-0.1,1.9c-0.1,0.8-0.1,1.6,0,2.4l0.1,0.2c0,0.2,0,0.3,0,0.5V60c0,0.1,0,0.2,0,0.4
	c0,0.1,0,0.3,0.1,0.4c0,0,0,0.2,0,0.5c0,0.1-0.1,0.2-0.2,0.3 M62.7,51.6c0-0.2,0.1-0.4,0.1-0.6l-0.1-0.1c-0.2,0-0.2,0.2-0.2,0.4
	S62.6,51.6,62.7,51.6 M64.2,44.1L64.2,44.1c0.1-0.1,0.1-0.1,0.1-0.2v-0.1h-0.1c-0.1,0-0.1,0-0.1,0.1s0,0,0,0l0,0c0,0,0,0,0,0.1
	C64.1,44,64.1,44,64.2,44.1"/>
<path class="st0" d="M120.9,29.1c-2.4-2.2-6.4-3.2-9.3-1.4c-2.7,1.6-4.8,5.3-5.5,8.3l-3.3-0.6c1.5-4.3,1.7-9,0.8-13.5
	c-1.2-5.5-4.5-9.6-7.3-14.2C96,7.2,95.4,7.1,95,7.4c-0.2,0.1-0.3,0.3-0.4,0.5c-1.1,2.8-4.4,4.6-6.5,6.8c-1.9,2.1-3.5,4.4-4.8,6.9
	c-4.8-3.4-10.1-5.9-15.7-7.4c-6.2-1.8-12.6-3.2-19-4.1c0,0.1,0,0.2,0,0.3c-0.1,0.7-0.8,1.3-1.5,1.2c-0.1,0-0.2,0-0.4,0
	c-0.4-0.1-0.7-0.2-1-0.4l-0.4-0.3l0.4-0.7h-0.1l0.2-0.4c-6.5-0.9-13.1-1.5-19.6-2C25.6,7,24.4,8.1,25,9.1c3.1,5.1,7.4,9.4,12.5,12.5
	c2.3,1.5,4.8,2.9,7.3,4.1c-9-1.1-18.1-1.4-27.2-0.9c-1.3,0.1-1.1,2.1,0.2,2c17.1-1,33.6,1.5,50.5,4.5l5.7,1l0,0l27,4.8
	c0.2,0.1,0.4,0.1,0.6,0.1l17.1,3c1.3,0.2,1.6-1.8,0.3-2l-11-1.9c0.6-2.6,2.6-6,5-7.2c1.7-0.6,3.5-0.5,5.1,0.5
	c0.5,0.2,0.9,0.5,1.3,0.8c0,0.8-0.1,1.6-0.1,2.4c-0.2,0.2-1.8-0.3-1.8-0.2c0.5-1.2-1.4-2-1.9-0.8c-1,2.7,2.5,3.5,4.5,2.9
	C122.8,33.9,122.7,30.7,120.9,29.1 M73.6,30.2c-0.1-0.1-0.1-0.2-0.2-0.3c-3.3-3.2-7.9-4.9-11.9-6.9c-4.3-2.2-8.7-5-13.6-5.7
	c-0.6-0.1-1.1,0.3-1.1,0.9c-0.1,0.6,0.3,1.1,0.8,1.1c4.7,0.6,9,3.4,13.1,5.5c3.1,1.4,6.1,2.9,9,4.7h-0.1l0,0l-1.9-0.3
	c-4.1-0.7-8.2-1.4-12.3-2c-0.2-0.2-0.4-0.3-0.6-0.3C48.9,26,43,22.7,38.1,19.6c-4.1-2.6-7.6-6-10.4-9.9C40,10.4,52.1,12.3,64,15.2
	c10.7,2.7,21.8,7.8,26.8,18.1L73.6,30.2z M100.8,35l-7-1.2c1.8-4.8,4.2-11.3,1.3-15.9c-0.7-1.1-2.3,0.1-1.6,1.2
	c2.1,3.4,0.3,8.8-1.2,12.7c-1.9-3.5-4.4-6.6-7.5-9.1c1.6-3.2,3.8-6.1,6.4-8.4c1.6-1.2,3-2.5,4.3-4c2.4,3.8,5,7.3,6,11.9
	C102.5,26.4,102.3,30.9,100.8,35"/>
<path class="st0" d="M35.5,7c-0.3,0.1-0.7,0.1-1,0.1C33,7,32.2,5.6,32.4,3.6C32.6,1,34,0.2,35.2,0.3c0.3,0,0.6,0.1,0.9,0.2l-0.3,0.9
	c-0.2-0.1-0.4-0.2-0.6-0.2c-0.7-0.1-1.5,0.5-1.7,2.4s0.5,2.5,1.3,2.6c0.2,0,0.5,0,0.7-0.1L35.5,7z"/>
<path class="st0" d="M39.5,5.1c-0.2,2-1.3,2.4-2,2.3c-1-0.1-1.6-1.1-1.5-2.7s1.2-2.4,2.1-2.3S39.8,3.5,39.5,5.1 M37.2,4.9
	c-0.1,0.8-0.1,1.7,0.5,1.8s0.8-0.9,0.8-1.6s0.1-1.7-0.5-1.8S37.2,4.1,37.2,4.9"/>
<rect x="37.6" y="3.7" transform="matrix(0.1326 -0.9912 0.9912 0.1326 31.3214 44.3874)" class="st0" width="6.9" height="1.1"/>
<path class="st0" d="M43.2,5.9C43,7,43.5,7.4,44.1,7.4c0.3,0.1,0.6,0.1,0.9,0v0.8c-0.4,0.1-0.8,0.1-1.2,0C42.6,8,42,7,42.3,5.5
	s1.2-2.5,2.2-2.3s1.4,1.1,1.2,2.5c0,0.3-0.1,0.4-0.1,0.6L43.2,5.9z M44.7,5.4c0.1-0.8-0.1-1.3-0.4-1.3s-0.8,0.6-0.9,1.1L44.7,5.4z"
	/>
<path class="st0" d="M48.5,8.9c-0.3,0.1-0.6,0.1-0.8,0c-1.2-0.2-1.8-1.2-1.5-2.8s1.2-2.4,2.5-2.1c0.2,0,0.5,0.1,0.7,0.2L49,5.1
	c-0.1-0.1-0.3-0.2-0.5-0.2c-0.7-0.1-1.2,0.6-1.3,1.4S47.4,8,48,8.1c0.2,0,0.4,0,0.5,0V8.9z M47.8,8.8l-0.3,0.5
	c0.4,0.1,0.6,0.5,0.5,0.8c-0.1,0.6-0.7,0.7-1.2,0.6c-0.2,0-0.5-0.1-0.7-0.3l0.2-0.5c0.1,0.1,0.3,0.2,0.5,0.2s0.3,0,0.4-0.2
	S47,9.5,46.6,9.4l0.5-0.8L47.8,8.8z"/>
<path class="st0" d="M51.2,9.4V8.9l0,0c-0.3,0.3-0.7,0.5-1.1,0.4c-0.7-0.1-1.2-0.8-1-1.5V7.7c0.2-1.2,1.4-1.6,2.5-1.4V6.2
	c0.1-0.5,0-0.9-0.6-1c-0.3-0.1-0.6,0-0.9,0.1V4.6c0.4-0.2,0.9-0.2,1.4-0.1c1.2,0.2,1.4,1.1,1.2,2.1l-0.3,1.9
	c-0.1,0.4-0.1,0.7-0.1,1.1L51.2,9.4z M51.5,7c-0.4-0.1-1.2-0.1-1.3,0.8c-0.1,0.5,0.2,0.8,0.4,0.8c0.3,0,0.6-0.1,0.7-0.4
	c0-0.1,0.1-0.2,0.1-0.2L51.5,7z M50.5,3.6c0.1-0.6,0.4-1,0.8-0.9c0.2,0,0.4,0.1,0.5,0.3c0.1,0,0.2,0.1,0.3,0.2c0.1,0,0.2,0,0.3-0.3
	L52.9,3c-0.1,0.7-0.4,1-0.8,0.9c-0.2,0-0.3-0.1-0.5-0.2c-0.1-0.1-0.2-0.2-0.3-0.2S51,3.4,51,3.7L50.5,3.6z"/>
<path class="st0" d="M56.7,8c-0.4,1.9-1.5,2.3-2.2,2.2C53.5,10,53,9,53.3,7.3s1.3-2.3,2.2-2.2S57,6.4,56.7,8 M54.4,7.6
	c-0.2,0.8-0.2,1.7,0.4,1.8s0.8-0.8,1-1.6S56,6.1,55.5,6S54.5,6.9,54.4,7.6"/>
<image style="overflow:visible;enable-background:new    ;" width="5309" height="2478" xlink:href="60_anos_UFG_roxo.png"  transform="matrix(3.000000e-02 0 0 3.000000e-02 362.165 -2.2802)">
</image>
</svg>
