<?xml version="1.0" encoding="utf-8"?>
<!-- Generator: Adobe Illustrator 23.0.1, SVG Export Plug-In . SVG Version: 6.00 Build 0)  -->
<svg version="1.1" id="Camada_1" xmlns="http://www.w3.org/2000/svg" xmlns:xlink="http://www.w3.org/1999/xlink" x="0px" y="0px"
	 viewBox="0 0 725 227.5" style="enable-background:new 0 0 725 227.5;" xml:space="preserve">
<style type="text/css">
	.st0{fill:#EEBA00;}
	.st1{fill:#FFFFFF;}
</style>
<title>marte2</title>
<g>
	<path class="st0" d="M329.9,102.3V1.3l6.5-0.1l12.9,43.4l12.5-43.4l6.5,0.1v100.9h-7.3V28.5l-12.1,39.6l-11.9-39.3v73.6
		L329.9,102.3z"/>
	<path class="st0" d="M369.5,103.4H360V35.8l-11,36.1l-10.8-35.8v67.2h-9.4V0.3l8.5-0.2l12.1,40.7L361,0l8.5,0.2L369.5,103.4z
		 M362.2,101.2h5.1V2.4l-4.6-0.1l-13.3,46.2L335.6,2.3L331,2.4v98.8h5.1V21.4l13,43l13.1-43.2V101.2z"/>
	<path class="st0" d="M391,1.3v100.9h-7.3V1.3H391z"/>
	<path class="st0" d="M392.1,103.4h-9.4V0.2h9.4V103.4z M384.8,101.2h5.1V2.4h-5.1V101.2z"/>
	<path class="st0" d="M406.4,102.3V1.3l6.5-0.1l18.3,70.1v-70h7.3v100.9l-6.5,0.2l-18.4-70v69.9H406.4z"/>
	<path class="st0" d="M431.2,103.5l-16.4-62.6v62.5h-9.4V0.3l8.5-0.2l16.4,62.8V0.2h9.4v103.1L431.2,103.5z M412.6,23.9l20.2,77.4
		l4.6-0.1V2.4h-5.1v77.4L412.1,2.3l-4.7,0.1v98.8h5.1L412.6,23.9z"/>
	<path class="st0" d="M484.4,1.3v100.9h-7.3V41.6h-15.9v60.7H454V1.3h7.3v33.4h16V1.3H484.4z"/>
	<path class="st0" d="M485.5,103.4h-9.4V42.6h-13.8v60.7h-9.5V0.2h9.5v33.4h13.8V0.2h9.4V103.4z M478.2,101.2h5.1V2.4h-5.1v33.4
		h-18.1V2.4H455v98.8h5.1V40.5h18.1V101.2z"/>
	<path class="st0" d="M495.3,102.1L511,1.3h6.4l15.8,100.8l-7.3,0.3l-3.5-21.9h-16.4c-1.2,7-2.5,16-3.5,22.5L495.3,102.1z
		 M507.2,73.6h14c-3.1-19.5-3.6-24.3-7-45.6L507.2,73.6z"/>
	<path class="st0" d="M503.5,104.2l-9.4-1.1l16-102.8h8.3l0.1,0.9l16,102l-9.5,0.4l-3.5-22H507c-0.7,4.4-1.4,9.4-2.2,14.2
		c-0.4,2.6-0.8,5.1-1.1,7.3L503.5,104.2z M496.6,101.2l5.1,0.6c0.3-2,0.6-4.1,1-6.3c0.8-5.2,1.6-10.6,2.4-15.2l0.2-0.9h18.3
		l3.5,21.9l5.1-0.2L516.5,2.4H512L496.6,101.2z M522.5,74.6H506l8.2-53.8l1.1,7c1.7,10.8,2.7,17.4,3.6,23.8
		c0.9,6.4,1.8,12.2,3.3,21.8L522.5,74.6z M508.5,72.4h11.4c-1.4-8.9-2.2-14.6-3.1-20.6c-0.7-4.9-1.5-9.9-2.5-16.8L508.5,72.4z"/>
	<path class="st0" d="M564.8,102.3V1.3c12.7-1.3,29.5,2.5,29.5,31.5C594.3,46.6,590,58,578,62c10.3,9,16.3,28.3,18.6,40.1l-7.4,0.3
		c-2.6-14.7-8.9-30.7-17.1-36.8v36.6H564.8z M572.1,56.5c11-1.7,15-11.5,15-23.7c0-19.2-7.6-24.4-15-25.1V56.5z"/>
	<path class="st0" d="M588.3,103.5l-0.2-0.9c-2.1-11.8-7.2-27.3-15-34.6v35.4h-9.4V0.3l1-0.1c9.1-0.9,16.4,1,21.6,5.7
		c6,5.4,9.1,14.5,9.1,26.9c0,15.2-5.3,25.3-15.4,29.6c6.2,6.2,13.7,19.4,17.6,39.5l0.3,1.2L588.3,103.5z M571,63.5l1.7,1.3
		c9,6.7,15,23.6,17.4,36.5l5.2-0.2c-2.8-13.6-9-30.4-18-38.2l-1.4-1.2l1.8-0.6c10.3-3.5,15.6-13,15.6-28.2c0-11.8-2.8-20.3-8.3-25.3
		c-4.6-4.1-10.9-5.9-19-5.2v98.8h5.1L571,63.5z M571,57.9V6.5l1.2,0.1c10.6,1,15.9,9.9,15.9,26.2c0,14.5-5.5,23.1-15.9,24.7
		L571,57.9z M573.2,9v46.2c8.5-1.9,12.7-9.5,12.7-22.4C586,18.4,581.7,10.4,573.2,9L573.2,9z"/>
	<path class="st0" d="M636.6,54.2c0,33.4-5.5,48.8-16.7,48.8s-16.7-15.7-16.7-48.8c0-36.5,6.8-52.9,16.7-52.9
		C629.8,1.3,636.6,17.7,636.6,54.2z M610.4,54.2c0,28.5,3.1,41.8,9.5,41.8s9.4-13.1,9.4-41.8c0-31.7-3.8-46.1-9.4-46.1
		S610.4,22.5,610.4,54.2L610.4,54.2z"/>
	<path class="st0" d="M619.9,104.1c-12,0-17.8-16.3-17.8-49.9c0-34.8,6.3-54,17.8-54c8.1,0,17.8,9.4,17.8,54
		C637.7,88.2,632,104.1,619.9,104.1z M619.9,2.4c-9.9,0-15.6,18.9-15.6,51.8c0,31.7,5.2,47.7,15.6,47.7c10.3,0,15.6-15.6,15.6-47.7
		C635.5,21.2,629.8,2.4,619.9,2.4z M619.9,97.1c-7.3,0-10.5-13.2-10.5-42.9c0-21.5,1.9-47.1,10.5-47.1c7,0,10.5,15.9,10.5,47.1
		C630.4,92.2,624.8,97.1,619.9,97.1z M619.9,9.2c-4,0-8.4,11.8-8.4,45c0,27,2.8,40.7,8.4,40.7s8.3-13.7,8.3-40.7
		C628.2,12.5,621.8,9.2,619.9,9.2z"/>
	<path class="st0" d="M670.9,26.3c-0.3-7.9-2.8-18.2-7.1-18.2c-3.8,0-9.9,6.3-9.9,46.2c0,33.6,3.8,41.7,9.7,41.7
		c7.1,0,9.3-20.8,8.7-33.8h7.3c0.4,18.3-2.6,37.6-13.2,40.4l-0.6,3.3c3.6-0.1,6,1.9,6,6.1c0,4.5-5.2,12.1-10.8,15.7l-4.1-4.2
		c4.9-2.6,8.1-8,8.1-10.3c0-3.8-4.2-3.9-7.1-1.4l1.9-9.3c-8.1-2.5-13.1-14.2-13.1-48.1c-0.1-45.8,10.4-53.1,17-53.1
		c9.7,0,13.7,15,14.4,25H670.9z"/>
	<path class="st0" d="M660.8,129.1l-5.7-5.9l1.3-0.7c4.6-2.4,7.4-7.4,7.4-9.4c0.1-0.7-0.3-1.5-0.9-1.8c-1.6-0.4-3.2,0-4.4,1.2
		l-2.4,2.1l2.3-11.4c-9-3.6-12.9-18.4-12.9-48.8c0-44.7,9.9-54.1,18.2-54.1c4.8,0,8.7,3.2,11.6,9.4c2.2,5.3,3.5,10.9,3.9,16.6
		l0.1,1.2h-9.5v-1c-0.3-8.1-2.8-17.1-6-17.1c-2.1,0-8.8,3.3-8.8,45.1c0,28.5,2.6,40.6,8.6,40.6c0.9,0,1.7-0.4,2.2-1.1
		c4.1-4.2,5.9-19.4,5.4-31.6v-1.1h9.5v1.1c0.3,11.1-0.5,37-13.4,41.3l-0.2,1.4c1.4,0.1,2.7,0.7,3.8,1.6c1.4,1.5,2.1,3.5,2,5.5
		c0,4.8-5.4,12.7-11.2,16.6L660.8,129.1z M658.6,123.7l2.5,2.5c5-3.6,9.5-10.3,9.5-14.3c0.1-1.4-0.4-2.9-1.3-3.9
		c-1-0.8-2.2-1.2-3.5-1.1h-1.4l0.9-5.4l0.7-0.2c8.2-2.1,12.7-16.4,12.4-38.2h-5c0.3,10.4-1,26.8-6,32.1c-1,1.1-2.4,1.8-3.9,1.8
		c-6.5,0-10.8-7.3-10.8-42.8c0-31.4,3.7-47.3,11-47.3c5.2,0,7.7,10.5,8.1,18.2h5.1c-0.9-9-4.5-22.8-13.2-22.8
		c-6,0-16.1,6.7-16.1,51.9c0,30,3.8,44.5,12.3,47l0.9,0.3l-1.6,7.8c1.4-0.7,3-0.7,4.5-0.1c1.5,0.7,2.3,2.2,2.2,3.8
		C666,115.7,663.2,120.8,658.6,123.7z"/>
	<path class="st0" d="M685.8,102.1L701.5,1.3h6.4l15.8,100.8l-7.3,0.3L713,80.5h-16.4c-1.2,7-2.5,16-3.5,22.5L685.8,102.1z
		 M697.7,73.6h13.9c-3.1-19.5-3.6-24.3-7-45.6L697.7,73.6z"/>
	<path class="st0" d="M694,104.2l-9.4-1.1l16-102.8h8.3l0.1,0.9l16,102l-9.5,0.4l-3.5-22h-14.5c-0.7,4.4-1.4,9.4-2.2,14.2
		c-0.4,2.6-0.8,5.1-1.1,7.3L694,104.2z M687.1,101.2l5.1,0.6c0.3-2,0.6-4.1,1-6.3c0.8-5.2,1.6-10.6,2.4-15.2l0.2-0.9h18.3l3.5,21.9
		l5.1-0.2L706.9,2.4h-4.5L687.1,101.2z M712.9,74.6h-16.5l8.2-53.8l1.1,7c1.7,10.8,2.7,17.4,3.6,23.8s1.8,12.2,3.3,21.8L712.9,74.6z
		 M699,72.4h11.4c-1.4-8.9-2.2-14.6-3.1-20.6c-0.7-4.9-1.5-9.9-2.5-16.8L699,72.4z"/>
	<path class="st1" d="M233.7,67.2c-10.1,0-10.1,16.2,0,16.2S243.8,67.2,233.7,67.2z"/>
	<path class="st1" d="M45.3,67.2c-10.1,0-10.1,16.2,0,16.2S55.4,67.2,45.3,67.2z"/>
	<path class="st1" d="M12.7,51.9c9,0,12.6,8.6,12.6,25.6c0.1,14-4.5,21.9-12.6,21.9S0,91.3,0,77.5C0,60.5,3.7,51.9,12.7,51.9z
		 M12.7,93.5c4.1,0,6.4-5.8,6.4-16c0-13.4-1.9-19.8-6.4-19.8s-6.5,6.5-6.5,19.8C6.3,87.5,8.5,93.5,12.7,93.5z"/>
	<path class="st1" d="M68.7,52.3l8.5,31.9l3-10.5l6-21.4l6.1,0.6L79.6,99.2h-4.8L62.6,52.9L68.7,52.3z"/>
	<path class="st1" d="M103.4,75.5v2c0,8.6,2.4,16,6.4,16c2.7,0,5-3.6,6-7.1l6.3,0.3c-1.6,5.7-5.7,12.6-12.3,12.6
		c-8.4,0-12.6-10-12.6-21.9c0-15.6,5.1-25.6,13-25.6c10.6,0,11.5,15.9,11,23.6L103.4,75.5z M103.8,69.8H115
		c0.1-4.9-0.6-12.1-4.9-12.1C107.2,57.6,104.7,62.6,103.8,69.8z"/>
	<path class="st1" d="M137.9,98.8h-6.3V52.5h5.9v4.8c2-4.1,4.8-5.4,7.6-5.4c5.5,0,7.5,4.2,8.9,7.9l-5.4,1.8c-0.9-1.9-2-3.9-3.5-3.9
		c-3.3,0-6.3,5.5-7.3,12.3L137.9,98.8z"/>
	<path class="st1" d="M193.7,75.5v2c0,8.6,2.4,16,6.4,16c2.8,0,5-3.6,6-7.1l6.3,0.3c-1.6,5.7-5.7,12.6-12.3,12.6
		c-8.4,0-12.6-10-12.6-21.9c0-15.6,5.1-25.6,13-25.6c10.6,0,11.5,15.9,11,23.6L193.7,75.5z M194.2,69.8h11.1
		c0.1-4.9-0.6-12.1-4.9-12.1C197.6,57.6,195.1,62.6,194.2,69.8L194.2,69.8z"/>
	<path class="st1" d="M287.4,75.5v2c0,8.6,2.4,16,6.4,16c2.8,0,5-3.6,6-7.1l6.3,0.3c-1.6,5.7-5.7,12.6-12.3,12.6
		c-8.4,0-12.6-10-12.6-21.9c0-15.6,5.1-25.6,13-25.6c10.6,0,11.5,15.9,11,23.6L287.4,75.5z M287.9,69.8H299
		c0.1-4.9-0.6-12.1-4.9-12.1C291.3,57.6,288.8,62.6,287.9,69.8z"/>
	<path class="st1" d="M269.9,58c-1.9-4.2-6.2-6.7-10.7-6.5h-6.3v48.3h6.3c4.2,0.2,8.2-2,10.4-5.7c2.4-3.8,3.6-9.3,3.6-16.5
		C273.2,68.9,272.1,62.4,269.9,58z M264.5,89.6c-1.2,2.8-3,4.2-5.3,4.2h-0.1V57.4h0.1c2.5,0,4.2,1.6,5.4,5c1.1,3.3,1.7,8.4,1.7,15.2
		C266.4,81.7,265.8,85.8,264.5,89.6L264.5,89.6z"/>
	<path class="st1" d="M176.5,58c-1.9-4.2-6.2-6.7-10.7-6.5h-6.3v48.3h6.3c4.2,0.2,8.2-2,10.4-5.7c2.4-3.9,3.6-9.4,3.6-16.6
		C179.7,68.9,178.6,62.4,176.5,58z M171,89.6c-1.2,2.8-3,4.2-5.3,4.2h-0.1V57.4h0.1c2.5,0,4.2,1.6,5.4,5c1.1,3.3,1.7,8.4,1.7,15.2
		C173,81.7,172.4,85.8,171,89.6L171,89.6z"/>
	<path class="st1" d="M227.9,195c-10.1,0-10.1,16.2,0,16.2S238,195,227.9,195z"/>
	<path class="st1" d="M105.7,180l8.5,31.9l3-10.5l6-21.4l6.1,0.6L116.6,227h-4.8l-12.3-46.3L105.7,180z"/>
	<path class="st1" d="M140.3,203.3v2c0,8.6,2.4,16,6.4,16c2.8,0,5-3.6,6-7.1l6.3,0.3c-1.6,5.7-5.7,12.6-12.3,12.6
		c-8.4,0-12.6-10-12.6-21.9c0-15.6,5.1-25.6,13-25.6c10.6,0,11.5,15.9,11,23.6L140.3,203.3z M140.8,197.6H152
		c0.1-4.9-0.6-12.1-4.9-12.1C144.2,185.4,141.7,190.4,140.8,197.6L140.8,197.6z"/>
	<path class="st1" d="M174.4,180.3l0.1,3c1.7-2.1,4.2-3.5,6.9-3.6c3-0.1,5.8,1.5,7.4,4c2.1-2.3,5-3.8,8.1-4c5.4,0,9,3.5,9,12.1v34.8
		h-6.3v-34.8c0-4.5-1.1-6.4-2.7-6.4c-3.1,0-6.4,5.4-6.5,9.3v31.9h-6.3v-34.8c0-4.5-1.1-6.4-2.8-6.4c-3.1,0-6.4,5.4-6.5,9.3v31.9
		h-6.3v-46.3H174.4z"/>
	<path class="st1" d="M281.6,203.3v2c0,8.6,2.4,16,6.4,16c2.8,0,5-3.6,6-7.1l6.3,0.3c-1.6,5.7-5.7,12.6-12.3,12.6
		c-8.4,0-12.6-10-12.6-21.9c0-15.6,5.1-25.6,13-25.6c10.6,0,11.5,15.9,11,23.6L281.6,203.3z M282,197.6h11.1
		c0.1-4.9-0.6-12.1-4.9-12.1C285.4,185.4,283,190.4,282,197.6L282,197.6z"/>
	<path class="st1" d="M265.7,185.5c-1.9-4.2-6.1-6.7-10.7-6.5h-6.3v48.3h6.3c4.2,0.2,8.2-2,10.4-5.7c2.4-3.8,3.6-9.3,3.6-16.5
		C269,196.3,267.9,189.8,265.7,185.5z M260.3,217.1c-1.2,2.8-2.9,4.2-5.2,4.2H255v-36.5h0.1c2.5,0,4.3,1.7,5.4,5
		c1.1,3.3,1.7,8.4,1.7,15.2C262.3,209.1,261.7,213.2,260.3,217.1z"/>
	<path class="st0" d="M329.9,225.5v-99.8l6.5-0.2l12.7,42.9l12.4-42.9l6.5,0.2v99.8h-7.1v-72.9l-11.9,39.2l-11.8-38.9v72.7H329.9z"
		/>
	<path class="st0" d="M369,226.6h-9.3v-66.7l-10.9,35.7l-10.7-35.4v66.5h-9.3V124.8l8.3-0.2l12,40.2l11.6-40.3l8.3,0.2V226.6z
		 M361.8,224.5h5v-97.6l-4.6-0.1l-13.1,45.7l-13.6-45.7l-4.6,0.1v97.6h5v-78.9l12.9,42.4l13-42.7L361.8,224.5z"/>
	<path class="st0" d="M378.4,225.4l15.6-99.6h6.3l15.7,99.6l-7.2,0.3l-3.5-21.7h-16.3c-1.1,6.9-2.4,15.8-3.4,22.3L378.4,225.4z
		 M390.2,197.1H404c-3-19.2-3.6-24.1-6.9-45.1L390.2,197.1z"/>
	<path class="st0" d="M386.5,227.5l-9.3-1.1L393,124.7h8.2l0.1,0.9l15.8,100.8l-9.4,0.4l-3.5-21.7H390c-0.7,4.3-1.4,9.3-2.2,14.1
		c-0.4,2.6-0.8,5.1-1.1,7.3L386.5,227.5z M379.7,224.5l5,0.6c0.3-1.9,0.6-4,0.9-6.2c0.8-5.1,1.6-10.4,2.3-15l0.2-0.9h18.1l3.4,21.6
		l5-0.2l-15.3-97.6h-4.5L379.7,224.5z M405.2,198.2h-16.3l8.1-53.2l1.1,6.9c1.7,10.7,2.6,17.2,3.6,23.5c0.9,6.3,1.8,12.1,3.3,21.6
		L405.2,198.2z M391.4,196h11.3c-1.4-8.8-2.2-14.4-3.1-20.3c-0.7-4.8-1.4-9.8-2.5-16.6L391.4,196z"/>
	<path class="st0" d="M426.4,225.5v-99.8c12.6-1.3,29.2,2.4,29.2,31.1c0,13.6-4.3,24.8-16.1,28.9c10.2,8.9,16.1,28,18.4,39.6
		l-7.3,0.3c-2.6-14.5-8.8-30.3-17-36.3v36.2L426.4,225.5z M433.6,180.3c10.9-1.7,14.8-11.3,14.8-23.4c0-19-7.5-24.1-14.8-24.8V180.3
		z"/>
	<path class="st0" d="M449.6,226.8l-0.2-0.9c-2.1-11.6-7.1-27-14.8-34.2v35h-9.3V124.7l1-0.1c9-0.9,16.2,1,21.4,5.7
		c5.9,5.4,9,14.3,9,26.6c0,15-5.2,25.1-15.2,29.3c6.1,6.1,13.5,19.2,17.4,39l0.2,1.2L449.6,226.8z M432.5,187.2l1.7,1.3
		c8.9,6.6,14.8,23.3,17.2,36.1l5.1-0.2c-2.8-13.4-8.9-30-17.8-37.8l-1.4-1.2l1.8-0.6c10.2-3.5,15.4-12.8,15.4-27.8
		c0-11.7-2.8-20.1-8.2-25c-4.5-4.1-10.8-5.8-18.8-5.2v97.8h5L432.5,187.2z M432.5,181.5v-50.7l1.2,0.1c10.5,1,15.8,9.7,15.8,25.9
		c0,14.4-5.4,22.8-15.7,24.5L432.5,181.5z M434.6,133.3V179c8.4-1.9,12.6-9.3,12.6-22.1C447.3,142.7,443,134.7,434.6,133.3z"/>
	<path class="st0" d="M459.6,125.7h33.7v6.7h-13.2v93.1h-7.2v-93.1h-13.4V125.7z"/>
	<path class="st0" d="M481.2,226.6h-9.3v-93.1h-13.4v-8.9h35.9v8.9h-13.2V226.6z M474,224.5h5v-93.1h13.2v-4.6h-31.6v4.6H474V224.5z
		"/>
	<path class="st0" d="M524,165.5h-15.6v53.3h22.4v6.7h-29.6v-99.8h29.4v6.7h-22.2v26.3H524V165.5z"/>
	<path class="st0" d="M531.8,226.6h-31.7v-102h31.5v8.9h-22.1v24.1h15.6v8.9h-15.6v51.1h22.4L531.8,226.6z M502.3,224.5h27.4v-4.6
		h-22.4v-55.4h15.6v-4.6h-15.6v-28.5h22.1v-4.6h-27.2V224.5z"/>
</g>
</svg>
