<svg id="Camada_1" data-name="Camada 1" xmlns="http://www.w3.org/2000/svg" viewBox="0 0 512.43 160.76"><defs><style>.cls-1{fill:#eeba00;}.cls-2{fill:#fff;}</style></defs><title>marte2</title><path class="cls-1" d="M233.17,72.28V.93l4.62-.1,9.13,30.69L255.75.83l4.62.1V72.28h-5.13V20.13l-8.52,28L238.3,20.33v52Z"/><path class="cls-1" d="M261.14,73.05h-6.67V25.3l-7.75,25.51-7.65-25.28V73.05H232.4V.18l6-.14,8.55,28.74L255.18,0l6,.14ZM256,71.51h3.59V1.68l-3.27-.07-9.39,32.65L237.22,1.61l-3.28.07V71.51h3.59V15.13l9.19,30.37L256,15Z"/><path class="cls-1" d="M276.39.93V72.28h-5.13V.93Z"/><path class="cls-1" d="M277.16,73.05h-6.67V.16h6.67ZM272,71.51h3.59V1.7H272Z"/><path class="cls-1" d="M287.27,72.28V.93l4.62-.1,12.94,49.58V.93H310V72.28l-4.62.11L292.4,22.9V72.28Z"/><path class="cls-1" d="M304.75,73.17,293.17,28.89V73.05H286.5V.18l6-.14,11.58,44.38V.16h6.67V73ZM291.63,16.91l14.3,54.69,3.26-.07V1.7H305.6V56.41L291.3,1.61,288,1.68V71.51h3.59Z"/><path class="cls-1" d="M342.4.93V72.28h-5.13V29.37H326V72.28h-5.14V.93H326V24.54h11.29V.93Z"/><path class="cls-1" d="M343.17,73.05H336.5V30.14h-9.75V73.05h-6.68V.16h6.68V23.77h9.75V.16h6.67ZM338,71.51h3.59V1.7H338V25.31H325.21V1.7h-3.6V71.51h3.6V28.6H338Z"/><path class="cls-1" d="M350.1,72.18,361.19.93h4.52L376.9,72.18l-5.13.21L369.3,56.88H357.7c-.82,4.93-1.74,11.3-2.46,15.92ZM358.52,52h9.86c-2.16-13.75-2.57-17.14-4.93-32.23Z"/><path class="cls-1" d="M355.88,73.65l-6.66-.8L360.53.16h5.84l.1.65,11.32,72.1-6.68.27-2.46-15.53h-10.3c-.51,3.1-1,6.64-1.56,10.07-.28,1.85-.55,3.62-.79,5.19ZM351,71.51l3.6.43c.21-1.38.44-2.89.68-4.45.55-3.68,1.13-7.48,1.67-10.73l.11-.65H370l2.46,15.48,3.59-.14-11-69.75h-3.2Zm18.29-18.79H357.63l5.81-38,.77,4.92c1.2,7.65,1.9,12.31,2.57,16.81s1.3,8.65,2.36,15.43Zm-9.86-1.54h8.06c-1-6.27-1.58-10.29-2.22-14.54-.52-3.45-1.05-7-1.8-11.87Z"/><path class="cls-1" d="M399.22,72.28V.93c9-.93,20.84,1.74,20.84,22.28,0,9.75-3.08,17.76-11.5,20.63,7.29,6.37,11.5,20,13.14,28.34l-5.24.21c-1.84-10.37-6.26-21.67-12.11-26V72.28Zm5.13-32.34c7.8-1.23,10.57-8.11,10.57-16.73,0-13.55-5.34-17.25-10.57-17.76Z"/><path class="cls-1" d="M415.82,73.18l-.11-.66c-1.49-8.31-5.1-19.32-10.59-24.47v25h-6.67V.23l.69-.07c6.45-.66,11.6.7,15.29,4,4.24,3.83,6.4,10.23,6.4,19,0,10.71-3.75,17.91-10.85,20.91,4.36,4.38,9.67,13.71,12.47,27.91l.18.88ZM403.58,44.89l1.22.9c6.39,4.71,10.58,16.68,12.3,25.8l3.67-.14c-2-9.59-6.34-21.46-12.72-27l-1-.87,1.26-.43c7.28-2.49,11-9.19,11-19.91,0-8.33-2-14.35-5.9-17.88-3.22-2.91-7.72-4.15-13.41-3.7V71.51h3.6Zm0-4V4.6l.84.08c7.48.73,11.27,7,11.27,18.53,0,10.28-3.88,16.33-11.22,17.49Zm1.54-34.51V39c6-1.37,9-6.68,9-15.8C414.15,13,411.12,7.37,405.12,6.33Z"/><path class="cls-1" d="M449.93,38.3c0,23.61-3.9,34.5-11.8,34.5s-11.81-11.09-11.81-34.5c0-25.77,4.82-37.37,11.81-37.37S449.93,12.53,449.93,38.3Zm-18.48,0c0,20.12,2.16,29.57,6.68,29.57s6.67-9.24,6.67-29.57c0-22.38-2.67-32.55-6.67-32.55S431.45,15.92,431.45,38.3Z"/><path class="cls-1" d="M438.13,73.57c-8.47,0-12.58-11.54-12.58-35.27C425.55,13.7,430,.16,438.13.16c5.73,0,12.57,6.62,12.57,38.14C450.7,62.36,446.71,73.57,438.13,73.57Zm0-71.87c-7,0-11,13.34-11,36.6,0,22.38,3.71,33.73,11,33.73s11-11,11-33.73C449.16,15,445.14,1.7,438.13,1.7Zm0,66.94c-5.15,0-7.45-9.36-7.45-30.34C430.68,23.1,432,5,438.13,5c4.93,0,7.44,11.21,7.44,33.32C445.57,65.19,441.59,68.64,438.13,68.64Zm0-62.12c-2.86,0-5.91,8.35-5.91,31.78,0,19.11,2,28.8,5.91,28.8s5.9-9.69,5.9-28.8C444,8.82,439.51,6.52,438.13,6.52Z"/><path class="cls-1" d="M474.16,18.59c-.21-5.55-2-12.84-5-12.84-2.67,0-7,4.42-7,32.65,0,23.72,2.67,29.47,6.88,29.47,5,0,6.57-14.68,6.16-23.92h5.13c.31,12.93-1.85,26.59-9.34,28.54l-.41,2.36c2.56-.1,4.21,1.33,4.21,4.31,0,3.18-3.7,8.52-7.6,11.09l-2.88-3C467.79,85.42,470,81.63,470,80c0-2.67-3-2.77-5-1l1.33-6.57c-5.74-1.75-9.24-10.07-9.24-34C457,6.06,464.41.93,469.13.93c6.88,0,9.65,10.57,10.16,17.66Z"/><path class="cls-1" d="M467.07,91.24l-4-4.17.9-.48c3.25-1.72,5.24-5.25,5.24-6.61a1.26,1.26,0,0,0-.66-1.28,3.18,3.18,0,0,0-3.1.84L463.72,81l1.65-8.09c-6.39-2.55-9.12-13-9.12-34.49,0-31.61,7-38.24,12.88-38.24,3.36,0,6.18,2.29,8.17,6.62a36.65,36.65,0,0,1,2.76,11.75l.06.83h-6.7l0-.74c-.21-5.72-2-12.1-4.26-12.1-1.46,0-6.21,2.3-6.21,31.88,0,20.12,1.82,28.7,6.11,28.7a2.16,2.16,0,0,0,1.57-.79c2.88-3,4.2-13.71,3.82-22.33l0-.8h6.69l0,.75c.19,7.85-.38,26.18-9.44,29.16l-.17,1a4.43,4.43,0,0,1,2.66,1.16,5.18,5.18,0,0,1,1.41,3.89c0,3.41-3.79,9-7.95,11.73Zm-1.54-3.8,1.75,1.8c3.53-2.56,6.73-7.3,6.73-10.08a3.74,3.74,0,0,0-.93-2.78,3.24,3.24,0,0,0-2.48-.76l-1,0,.65-3.79.48-.13c5.78-1.5,9-11.58,8.79-27H476c.23,7.37-.7,18.92-4.27,22.66A3.7,3.7,0,0,1,469,68.64c-4.59,0-7.65-5.14-7.65-30.24C461.38,16.23,464,5,469.13,5c3.71,0,5.44,7.42,5.76,12.84h3.57c-.61-6.36-3.16-16.12-9.33-16.12-4.24,0-11.35,4.77-11.35,36.7,0,21.17,2.69,31.42,8.7,33.25l.67.2L466,77.39a3.94,3.94,0,0,1,3.15-.09A2.76,2.76,0,0,1,470.72,80C470.72,81.77,468.73,85.35,465.53,87.44Z"/><path class="cls-1" d="M484.73,72.18,495.82.93h4.52l11.19,71.25-5.13.21-2.47-15.51h-11.6c-.82,4.93-1.74,11.3-2.46,15.92ZM493.15,52H503c-2.16-13.75-2.57-17.14-4.93-32.23Z"/><path class="cls-1" d="M490.51,73.65l-6.66-.8L495.16.16H501l.1.65,11.33,72.1-6.69.27-2.46-15.53H493c-.5,3.1-1,6.64-1.56,10.07-.28,1.85-.55,3.62-.79,5.19Zm-4.89-2.14,3.6.43c.21-1.38.44-2.89.68-4.45.56-3.68,1.13-7.48,1.67-10.73l.11-.65h12.91l2.46,15.48,3.59-.14-11-69.75h-3.2Zm18.29-18.79H492.26l5.81-38,.77,4.92c1.2,7.65,1.9,12.31,2.57,16.81s1.3,8.65,2.36,15.43Zm-9.86-1.54h8.06c-1-6.27-1.58-10.29-2.22-14.54-.52-3.45-1.05-7-1.8-11.87Z"/><path class="cls-2" d="M165.18,47.52c-7.13,0-7.14,11.45,0,11.45S172.32,47.52,165.18,47.52Z"/><path class="cls-2" d="M32,47.52C24.88,47.52,24.87,59,32,59S39.15,47.52,32,47.52Z"/><path class="cls-2" d="M9,36.67c6.36,0,8.93,6.1,8.93,18.12C18,64.7,14.77,70.27,9,70.27S0,64.52,0,54.79C0,42.77,2.65,36.67,9,36.67ZM9,66.11c2.92,0,4.51-4.07,4.51-11.32,0-9.46-1.33-14-4.51-14s-4.6,4.59-4.6,14C4.42,61.87,6,66.11,9,66.11Z"/><path class="cls-2" d="M48.56,36.93l6,22.55,2.12-7.43,4.25-15.12,4.33.44-9,32.72H52.89L44.23,37.37Z"/><path class="cls-2" d="M73.05,53.38v1.41c0,6.1,1.68,11.32,4.51,11.32,1.94,0,3.54-2.56,4.24-5l4.42.18c-1.15,4-4,8.93-8.66,8.93-5.93,0-8.93-7.08-8.93-15.48,0-11,3.62-18.12,9.19-18.12,7.52,0,8.14,11.23,7.78,16.71Zm.35-4.07h7.87c.09-3.45-.44-8.57-3.45-8.57C75.79,40.74,74,44.27,73.4,49.31Z"/><path class="cls-2" d="M97.45,69.82H93V37.11h4.16v3.36c1.41-2.92,3.36-3.8,5.39-3.8,3.89,0,5.31,3,6.28,5.57l-3.8,1.24c-.62-1.33-1.42-2.74-2.48-2.74-2.3,0-4.42,3.89-5.13,8.66Z"/><path class="cls-2" d="M136.91,53.38v1.41c0,6.1,1.68,11.32,4.51,11.32,2,0,3.54-2.56,4.24-5l4.42.18c-1.14,4-4,8.93-8.66,8.93-5.92,0-8.93-7.08-8.93-15.48,0-11,3.63-18.12,9.2-18.12,7.51,0,8.13,11.23,7.78,16.71Zm.35-4.07h7.87c.09-3.45-.44-8.57-3.44-8.57C139.65,40.74,137.88,44.27,137.26,49.31Z"/><path class="cls-2" d="M203.12,53.38v1.41c0,6.1,1.68,11.32,4.51,11.32,2,0,3.54-2.56,4.25-5l4.42.18c-1.15,4-4,8.93-8.67,8.93-5.92,0-8.93-7.08-8.93-15.48,0-11,3.63-18.12,9.2-18.12,7.52,0,8.13,11.23,7.78,16.71Zm.36-4.07h7.87c.09-3.45-.44-8.57-3.45-8.57C205.87,40.74,204.1,44.27,203.48,49.31Z"/><path class="cls-2" d="M190.78,41a7.86,7.86,0,0,0-7.58-4.57h-4.43V70.57h4.43a8.16,8.16,0,0,0,7.33-4q2.55-4.05,2.54-11.67Q193.07,45.62,190.78,41Zm-3.86,22.35q-1.28,3-3.72,3h-.08V40.59h.08c1.76,0,3,1.16,3.81,3.5s1.18,5.92,1.18,10.77A22.52,22.52,0,0,1,186.92,63.38Z"/><path class="cls-2" d="M124.72,41a7.86,7.86,0,0,0-7.58-4.57h-4.43V70.57h4.43a8.16,8.16,0,0,0,7.33-4Q127,62.48,127,54.86,127,45.62,124.72,41Zm-3.86,22.35q-1.27,3-3.72,3h-.08V40.59h.08c1.76,0,3,1.16,3.81,3.5s1.18,5.92,1.18,10.77A22.52,22.52,0,0,1,120.86,63.38Z"/><path class="cls-2" d="M161.06,137.8c-7.12,0-7.14,11.45,0,11.45S168.2,137.8,161.06,137.8Z"/><path class="cls-2" d="M74.7,127.25l6,22.55,2.12-7.43,4.25-15.12,4.33.44-9,32.72H79l-8.66-32.72Z"/><path class="cls-2" d="M99.19,143.7v1.41c0,6.1,1.68,11.32,4.51,11.32,2,0,3.54-2.56,4.24-5l4.42.18c-1.14,4-4,8.93-8.66,8.93-5.92,0-8.93-7.08-8.93-15.48,0-11.05,3.63-18.12,9.2-18.12,7.51,0,8.13,11.23,7.78,16.71Zm.35-4.07h7.87c.09-3.45-.44-8.58-3.44-8.58C101.93,131.05,100.16,134.59,99.54,139.63Z"/><path class="cls-2" d="M123.24,127.43l.09,2.12a6.67,6.67,0,0,1,4.86-2.56,6,6,0,0,1,5.22,2.83,8.72,8.72,0,0,1,5.75-2.83c3.8,0,6.36,2.47,6.36,8.57v24.58H141.1V135.56c0-3.18-.8-4.51-1.94-4.51-2.22,0-4.51,3.81-4.6,6.55v22.54h-4.42V135.56c0-3.18-.8-4.51-1.95-4.51-2.21,0-4.51,3.81-4.6,6.55v22.54h-4.42V127.43Z"/><path class="cls-2" d="M199,143.7v1.41c0,6.1,1.68,11.32,4.51,11.32,1.95,0,3.54-2.56,4.25-5l4.42.18c-1.15,4-4,8.93-8.67,8.93-5.92,0-8.93-7.08-8.93-15.48,0-11.05,3.63-18.12,9.2-18.12,7.51,0,8.13,11.23,7.78,16.71Zm.35-4.07h7.87c.09-3.45-.44-8.58-3.44-8.58C201.75,131.05,200,134.59,199.36,139.63Z"/><path class="cls-2" d="M187.82,131.09a7.85,7.85,0,0,0-7.57-4.58h-4.43v34.11h4.43a8.17,8.17,0,0,0,7.33-4q2.53-4,2.54-11.67Q190.12,135.67,187.82,131.09ZM184,153.44q-1.26,3-3.71,3h-.09V130.65h.09q2.64,0,3.81,3.5c.78,2.33,1.17,5.93,1.17,10.77A22.41,22.41,0,0,1,184,153.44Z"/><path class="cls-1" d="M233.16,159.41V88.87l4.57-.11,9,30.35,8.73-30.35,4.57.11v70.54H255V107.85l-8.42,27.7-8.33-27.5v51.36Z"/><path class="cls-1" d="M260.82,160.17h-6.6V113l-7.67,25.22-7.56-25v47H232.4v-72l5.89-.13,8.46,28.41L254.92,88l5.9.13Zm-5.08-1.52h3.55v-69l-3.23-.07-9.29,32.28-9.61-32.28-3.24.07v69h3.55V102.91l9.09,30,9.18-30.2Z"/><path class="cls-1" d="M267.46,159.3l11-70.43h4.46L294,159.3l-5.07.21-2.44-15.33H275c-.81,4.87-1.72,11.17-2.43,15.73Zm8.33-20h9.74c-2.13-13.6-2.54-17-4.87-31.87Z"/><path class="cls-1" d="M273.18,160.76l-6.59-.79,11.18-71.86h5.77l.1.64L294.84,160l-6.61.27-2.44-15.36H275.62c-.5,3.07-1,6.56-1.55,9.95-.27,1.83-.54,3.59-.78,5.14Zm-4.84-2.12,3.56.43c.21-1.36.44-2.86.67-4.41.55-3.63,1.12-7.38,1.65-10.6l.11-.64h12.76l2.43,15.3,3.55-.14-10.83-69h-3.16Zm18.08-18.57H274.9l5.75-37.61.76,4.86c1.18,7.57,1.87,12.17,2.54,16.62s1.28,8.55,2.33,15.25Zm-9.75-1.52h8c-1-6.2-1.56-10.18-2.19-14.38-.51-3.41-1-6.9-1.79-11.74Z"/><path class="cls-1" d="M301.36,159.41V88.87c8.94-.92,20.61,1.72,20.61,22,0,9.64-3.05,17.56-11.37,20.4,7.21,6.29,11.37,19.79,13,28l-5.18.21c-1.82-10.25-6.19-21.42-12-25.68v25.58Zm5.08-32c7.71-1.21,10.45-8,10.45-16.54,0-13.4-5.28-17-10.45-17.56Z"/><path class="cls-1" d="M317.78,160.29l-.11-.65c-1.47-8.21-5-19.1-10.47-24.19v24.72h-6.6v-72l.69-.07c6.38-.65,11.46.68,15.11,4,4.2,3.79,6.33,10.11,6.33,18.8,0,10.6-3.7,17.71-10.72,20.68,4.3,4.33,9.56,13.55,12.33,27.59l.17.87Zm-12.1-28,1.21.9c6.31,4.65,10.45,16.49,12.15,25.5l3.63-.14c-2-9.47-6.26-21.21-12.57-26.72l-1-.86,1.24-.43c7.2-2.46,10.86-9.08,10.86-19.68,0-8.24-2-14.18-5.83-17.67-3.18-2.88-7.64-4.11-13.26-3.66v69.09h3.56Zm0-4V92.49l.83.08c7.4.73,11.14,6.89,11.14,18.32,0,10.17-3.83,16.15-11.09,17.3ZM307.2,94.2v32.31c5.93-1.35,8.93-6.6,8.93-15.62C316.13,100.84,313.13,95.23,307.2,94.2Z"/><path class="cls-1" d="M324.81,88.87h23.85v4.77h-9.34v65.77h-5.07V93.64h-9.44Z"/><path class="cls-1" d="M340.08,160.17h-6.59V94.4h-9.44V88.11h25.37V94.4h-9.34ZM335,158.65h3.55V92.88h9.34V89.63H325.57v3.25H335Z"/><path class="cls-1" d="M370.38,117H359.32v37.66h15.83v4.77H354.24V88.87H375v4.77H359.32v18.57h11.06Z"/><path class="cls-1" d="M375.91,160.17H353.48V88.11h22.23V94.4H360.08v17h11.06v6.29H360.08v36.14h15.83ZM355,158.65h19.39V155.4H358.56V116.22h11.06V113H358.56V92.88h15.63V89.63H355Z"/></svg>