<svg id="Camada_1" data-name="Camada 1" xmlns="http://www.w3.org/2000/svg" viewBox="0 0 30.21 24.11"><defs><style>.cls-1{fill:#fff;}</style></defs><title>menu</title><path class="cls-1" d="M30.21,2.52c0,1.4-.82,2.53-1.82,2.53H1.82C.82,5.05,0,3.92,0,2.52H0C0,1.13.82,0,1.82,0H28.39c1,0,1.82,1.13,1.82,2.52Z"/><path class="cls-1" d="M30.21,12.06c0,1.39-.82,2.52-1.82,2.52H1.82c-1,0-1.82-1.13-1.82-2.52H0c0-1.4.82-2.53,1.82-2.53H28.39c1,0,1.82,1.13,1.82,2.53Z"/><path class="cls-1" d="M30.21,21.59c0,1.39-.82,2.52-1.82,2.52H1.82C.82,24.11,0,23,0,21.59H0c0-1.39.82-2.52,1.82-2.52H28.39c1,0,1.82,1.13,1.82,2.52Z"/></svg>