<?xml version="1.0" encoding="utf-8"?>
<!-- Generator: Adobe Illustrator 26.1.0, SVG Export Plug-In . SVG Version: 6.00 Build 0)  -->
<svg version="1.1" id="Camada_1" xmlns="http://www.w3.org/2000/svg" xmlns:xlink="http://www.w3.org/1999/xlink" x="0px" y="0px"
	 viewBox="0 0 507.4 228" style="enable-background:new 0 0 507.4 228;" xml:space="preserve">
<style type="text/css">
	.st0{fill:#EE7A25;}
	.st1{fill:#FFFFFF;}
</style>
<g>
	<g>
		<g>
			<path class="st0" d="M0.5,226.3v-159c16.2-0.6,28.5,4.7,37,15.8c8.5,11.1,12.7,26.9,12.7,47.4c0,6.9-0.7,13.7-1.9,20.6
				c-1.3,6.9-3.5,13.1-6.5,18.8c-3.1,5.6-7,10.4-11.9,14.3c-4.9,3.9-10.8,6.3-17.8,7.2v35H0.5z M11.9,180.5
				c5.3-0.8,9.7-2.7,13.2-5.8c3.4-3.1,6.2-7,8.2-11.7c2.1-4.7,3.5-9.8,4.2-15.4c0.8-5.6,1.1-11.4,1.1-17.2c0-15.7-2.3-28.2-6.9-37.4
				c-4.6-9.2-11.2-14.2-19.9-15V180.5z"/>
			<path class="st0" d="M12.4,226.8H0v-160l0.5,0c16.3-0.6,28.8,4.8,37.4,16c8.5,11.2,12.8,27.2,12.8,47.7c0,6.8-0.7,13.8-2,20.7
				c-1.3,6.9-3.5,13.2-6.6,18.9c-3.1,5.7-7.1,10.5-12,14.5c-4.8,3.8-10.8,6.3-17.7,7.3V226.8z M1,225.8h10.4v-34.9l0.4-0.1
				c6.9-0.9,12.8-3.3,17.6-7.1c4.8-3.8,8.8-8.6,11.8-14.1c3-5.6,5.2-11.8,6.5-18.6c1.3-6.8,1.9-13.7,1.9-20.5
				c0-20.2-4.2-36.1-12.6-47.1C28.8,72.5,16.7,67.3,1,67.7V225.8z M11.4,181.1V77.5l0.5,0c8.8,0.8,15.7,5.9,20.3,15.3
				c4.6,9.3,6.9,21.9,6.9,37.6c0,5.8-0.4,11.6-1.1,17.2c-0.8,5.7-2.2,10.9-4.3,15.6c-2.1,4.7-4.9,8.7-8.4,11.8
				c-3.5,3.2-8,5.2-13.4,6L11.4,181.1z M12.4,78.6v101.4c5-0.8,9.1-2.7,12.3-5.6c3.4-3.1,6.1-6.9,8.1-11.5c2-4.6,3.4-9.7,4.2-15.3
				c0.8-5.6,1.1-11.4,1.1-17.1c0-15.6-2.3-28.1-6.8-37.2C27,84.4,20.6,79.5,12.4,78.6z"/>
		</g>
		<g>
			<path class="st0" d="M102.5,130.6H77.6v84.9h35.7v10.8H66.2v-159h46.7V78H77.6v41.9h24.9V130.6z"/>
			<path class="st0" d="M113.8,226.8H65.7v-160h47.7v11.8H78.1v40.9H103v11.8H78.1V215h35.7V226.8z M66.7,225.8h46.1V216H77.1v-85.9
				H102v-9.8H77.1V77.5h35.2v-9.8H66.7V225.8z"/>
		</g>
		<g>
			<path class="st0" d="M128.8,226.3v-159c5-0.5,10.3-0.3,15.8,0.5c5.5,0.8,10.5,2.9,15,6.4c4.5,3.5,8.2,8.7,11.2,15.4
				c3,6.8,4.5,15.9,4.5,27.3c0,5.5-0.5,10.6-1.4,15.4c-0.9,4.8-2.4,9.2-4.5,13.3c-2.1,4-4.7,7.5-7.9,10.5c-3.2,3-7.2,5.2-11.9,6.7
				c4.1,3.5,7.8,7.9,11,13.3c3.2,5.3,6,10.9,8.4,16.7c2.4,5.8,4.4,11.6,6.1,17.5c1.7,5.9,3,11.1,3.9,15.7l-11.7,0.5
				c-1.1-5.8-2.4-11.6-4.1-17.5c-1.7-5.9-3.7-11.4-5.9-16.6c-2.3-5.2-4.9-9.8-7.8-14c-2.9-4.1-5.9-7.4-9.2-9.8v57.7H128.8z
				 M140.3,154.2c8.7-1.4,14.8-5.5,18.3-12.5c3.5-6.9,5.3-15.2,5.3-24.8c0-7.5-0.7-13.7-2.1-18.8c-1.4-5-3.2-9-5.4-12
				c-2.2-3-4.7-5.1-7.6-6.4c-2.8-1.3-5.7-2.1-8.6-2.4V154.2z"/>
			<path class="st0" d="M166.9,227l-0.1-0.4c-1.1-5.7-2.4-11.6-4.1-17.5c-1.7-5.8-3.7-11.4-5.9-16.5c-2.3-5.1-4.9-9.8-7.7-13.9
				c-2.6-3.7-5.4-6.8-8.2-9.1v57.1h-12.4v-160l0.5,0c5-0.5,10.4-0.3,15.9,0.5c5.6,0.8,10.7,3,15.2,6.5c4.5,3.5,8.4,8.8,11.4,15.6
				c3,6.8,4.5,16.1,4.5,27.5c0,5.5-0.5,10.7-1.4,15.5c-0.9,4.8-2.4,9.3-4.5,13.4c-2.1,4.1-4.8,7.7-8,10.7c-3.1,2.8-6.8,5-11.2,6.6
				c3.9,3.4,7.4,7.7,10.4,12.8c3.2,5.3,6,11,8.4,16.8c2.4,5.8,4.4,11.7,6.1,17.6c1.7,5.9,3,11.2,3.9,15.7l0.1,0.6L166.9,227z
				 M139.8,167.6l0.8,0.6c3.2,2.5,6.3,5.8,9.3,9.9c2.9,4.1,5.5,8.9,7.8,14c2.3,5.2,4.3,10.8,6,16.7c1.6,5.7,3,11.5,4.1,17.1
				l10.6-0.4c-0.9-4.4-2.2-9.5-3.8-15.1c-1.7-5.8-3.7-11.7-6-17.5c-2.3-5.8-5.1-11.3-8.3-16.6c-3.2-5.3-6.8-9.7-10.9-13.1l-0.7-0.6
				l0.9-0.3c4.6-1.5,8.6-3.7,11.7-6.6c3.1-2.9,5.8-6.4,7.8-10.4c2-4,3.5-8.4,4.4-13.1c0.9-4.8,1.4-9.9,1.4-15.3
				c0-11.3-1.5-20.4-4.4-27.1c-2.9-6.7-6.6-11.8-11.1-15.3c-4.4-3.4-9.4-5.6-14.7-6.3c-5.3-0.7-10.4-0.9-15.2-0.5v158.1h10.4V167.6z
				 M139.8,154.8v-78l0.6,0.1c2.9,0.3,5.9,1.1,8.7,2.4c2.9,1.3,5.5,3.5,7.7,6.6c2.2,3,4.1,7.1,5.5,12.2c1.4,5.1,2.1,11.4,2.1,18.9
				c0,9.6-1.8,18.1-5.3,25c-3.6,7.1-9.9,11.3-18.7,12.7L139.8,154.8z M140.8,77.9v75.7c8.2-1.4,14-5.5,17.4-12.1
				c3.5-6.8,5.2-15.1,5.2-24.6c0-7.4-0.7-13.7-2-18.6c-1.3-4.9-3.1-8.9-5.3-11.8c-2.2-2.9-4.6-5-7.4-6.2
				C146.1,79,143.4,78.2,140.8,77.9z"/>
		</g>
		<g>
			<path class="st0" d="M207.1,67.2v159h-11.4v-159H207.1z"/>
			<path class="st0" d="M207.6,226.8h-12.4v-160h12.4V226.8z M196.2,225.8h10.4v-158h-10.4V225.8z"/>
		</g>
		<g>
			<path class="st0" d="M262.9,130.6h-20.1v95.6h-11.4v-159h47.1V78h-35.7v41.9h20.1V130.6z"/>
			<path class="st0" d="M243.3,226.8h-12.4v-160H279v11.8h-35.7v40.9h20.1v11.8h-20.1V226.8z M231.8,225.8h10.4v-95.6h20.1v-9.8
				h-20.1V77.5H278v-9.8h-46.1V225.8z"/>
		</g>
		<g>
			<path class="st0" d="M325.8,130.6h-24.9v84.9h35.7v10.8h-47.1v-159h46.7V78h-35.2v41.9h24.9V130.6z"/>
			<path class="st0" d="M337.1,226.8H289v-160h47.7v11.8h-35.2v40.9h24.9v11.8h-24.9V215h35.7V226.8z M290,225.8h46.1V216h-35.7
				v-85.9h24.9v-9.8h-24.9V77.5h35.2v-9.8H290V225.8z"/>
		</g>
		<g>
			<path class="st0" d="M352.1,226.3v-159c5-0.5,10.3-0.3,15.8,0.5c5.5,0.8,10.5,2.9,15,6.4c4.5,3.5,8.2,8.7,11.2,15.4
				c3,6.8,4.5,15.9,4.5,27.3c0,5.5-0.5,10.6-1.4,15.4s-2.4,9.2-4.5,13.3c-2.1,4-4.7,7.5-7.9,10.5c-3.2,3-7.2,5.2-11.9,6.7
				c4.1,3.5,7.8,7.9,11,13.3c3.2,5.3,6,10.9,8.4,16.7c2.4,5.8,4.4,11.6,6.1,17.5c1.7,5.9,3,11.1,3.9,15.7l-11.7,0.5
				c-1.1-5.8-2.4-11.6-4.1-17.5c-1.7-5.9-3.7-11.4-5.9-16.6c-2.3-5.2-4.9-9.8-7.8-14c-2.9-4.1-5.9-7.4-9.2-9.8v57.7H352.1z
				 M363.6,154.2c8.7-1.4,14.8-5.5,18.3-12.5c3.5-6.9,5.3-15.2,5.3-24.8c0-7.5-0.7-13.7-2.1-18.8c-1.4-5-3.2-9-5.4-12
				c-2.2-3-4.7-5.1-7.5-6.4c-2.8-1.3-5.7-2.1-8.6-2.4V154.2z"/>
			<path class="st0" d="M390.2,227l-0.1-0.4c-1.1-5.8-2.4-11.6-4.1-17.5c-1.7-5.8-3.7-11.4-5.9-16.5c-2.3-5.1-4.9-9.8-7.7-13.9
				c-2.6-3.7-5.4-6.8-8.2-9.1v57.1h-12.4v-160l0.5,0c5-0.5,10.4-0.3,15.9,0.5c5.6,0.8,10.7,3,15.2,6.5c4.5,3.5,8.4,8.8,11.4,15.6
				c3,6.8,4.5,16.1,4.5,27.5c0,5.5-0.5,10.7-1.4,15.5c-0.9,4.8-2.4,9.3-4.5,13.4c-2.1,4.1-4.8,7.7-8,10.7c-3.1,2.8-6.8,5-11.2,6.6
				c3.9,3.4,7.4,7.7,10.4,12.8c3.2,5.3,6,11,8.4,16.8c2.4,5.8,4.4,11.7,6.1,17.6c1.7,5.9,3,11.2,3.9,15.7l0.1,0.6L390.2,227z
				 M363.1,167.6l0.8,0.6c3.2,2.5,6.3,5.8,9.3,9.9c2.9,4.1,5.5,8.9,7.8,14c2.3,5.2,4.3,10.8,6,16.7c1.6,5.7,3,11.5,4,17.1l10.6-0.4
				c-0.9-4.4-2.2-9.4-3.8-15.1c-1.7-5.8-3.7-11.7-6-17.5c-2.3-5.8-5.1-11.3-8.3-16.6c-3.2-5.3-6.8-9.7-10.9-13.1l-0.7-0.6l0.9-0.3
				c4.6-1.5,8.6-3.7,11.7-6.6c3.1-2.9,5.8-6.4,7.8-10.4c2-4,3.5-8.4,4.4-13.1c0.9-4.8,1.4-9.9,1.4-15.3c0-11.3-1.5-20.4-4.4-27.1
				c-2.9-6.7-6.6-11.8-11.1-15.3c-4.4-3.4-9.4-5.6-14.7-6.3c-5.3-0.7-10.4-0.9-15.2-0.5v158.1h10.4V167.6z M363.1,154.8v-78l0.6,0.1
				c2.9,0.3,5.9,1.1,8.7,2.4c2.9,1.3,5.5,3.5,7.7,6.6c2.2,3,4.1,7.1,5.5,12.2c1.4,5.1,2.1,11.4,2.1,18.9c0,9.6-1.8,18.1-5.3,25
				c-3.6,7.1-9.9,11.3-18.7,12.7L363.1,154.8z M364.1,77.9v75.7c8.2-1.4,14-5.5,17.4-12.1c3.5-6.8,5.2-15.1,5.2-24.6
				c0-7.4-0.7-13.7-2-18.6c-1.3-4.9-3.1-8.9-5.3-11.8c-2.2-2.9-4.6-5-7.4-6.3C369.4,79,366.7,78.2,364.1,77.9z"/>
		</g>
		<g>
			<path class="st0" d="M430.4,67.2v159h-11.4v-159H430.4z"/>
			<path class="st0" d="M430.9,226.8h-12.4v-160h12.4V226.8z M419.4,225.8h10.4v-158h-10.4V225.8z"/>
		</g>
		<g>
			<path class="st0" d="M447.1,226l24.7-158.8h10.1L506.8,226l-11.4,0.5l-5.5-34.5H464c-0.9,5.5-1.9,11.5-2.9,18
				c-1,6.5-1.9,12.3-2.6,17.5L447.1,226z M465.8,181h22c-1.2-7.6-2.2-14.1-3-19.4c-0.8-5.3-1.5-10.5-2.3-15.4
				c-0.8-5-1.6-10.3-2.4-15.9c-0.8-5.6-1.9-12.7-3.3-21L465.8,181z"/>
			<path class="st0" d="M459,228l-12.4-1.5l0.1-0.5l24.8-159.2h10.9l25.1,159.8l-12.4,0.5l-5.5-34.6h-25c-0.9,5.5-1.8,11.3-2.8,17.5
				c-1,6.5-1.9,12.3-2.6,17.5L459,228z M447.7,225.6l10.4,1.3c0.7-5.1,1.6-10.7,2.6-17c1-6.4,1.9-12.4,2.9-18l0.1-0.4h26.7l5.5,34.5
				l10.4-0.4L481.4,67.7h-9.2L447.7,225.6z M488.4,181.5h-23.1l11.5-75.5l0.5,3.1c1.4,8.3,2.5,15.4,3.3,21.1
				c0.8,5.6,1.6,10.9,2.4,15.9c0.7,4.8,1.5,9.9,2.3,15.4c0.8,5.3,1.8,11.9,3,19.4L488.4,181.5z M466.4,180.5h20.8
				c-1.2-7.3-2.1-13.7-2.9-18.9c-0.8-5.6-1.5-10.6-2.3-15.4c-0.8-5-1.6-10.3-2.4-15.9c-0.7-4.9-1.7-10.9-2.8-17.9L466.4,180.5z"/>
		</g>
	</g>
	<g>
		<g>
			<g>
				<g>
					<g>
						<path class="st1" d="M306.3,16.1c-10.7,0-10.7,17.2,0,17.2C317,33.4,317,16.1,306.3,16.1z"/>
					</g>
				</g>
			</g>
		</g>
		<g>
			<g>
				<path class="st1" d="M134.2,14.8c0.3-4.9-2.5-8.3-5.6-8.3c-3.1,0-5.8,2.5-5.8,6c0,3.8,3.9,6.3,8,8.9c6.2,3.9,13.1,8.9,13.1,18.1
					c0,10.3-8.2,13.9-15.3,13.9c-7.2,0-14.2-4.9-14.2-13.1c0-3.5,1.7-7.5,5.5-11l5.1,4.8c-2.2,2-3.5,4.5-3.5,6.2
					c0,4.1,3.5,6.5,7.2,6.5c3.9,0,8.3-2,8.3-7.3c0-6.3-5.1-9.7-10-12.7c-5.8-3.7-11.1-7-11.1-14.3c0-7.5,5.8-12.5,12.8-12.5
					s13.1,6,12.7,14.8H134.2z"/>
			</g>
		</g>
		<g>
			<g>
				<path class="st1" d="M157.3,26.6v2.3c0,9.7,2.7,18,7.2,18c3.1,0,5.6-4.1,6.7-7.9l7,0.3c-1.8,6.3-6.3,14.2-13.8,14.2
					c-9.4,0-14.2-11.3-14.2-24.6C150.2,11.3,156,0,164.9,0c12,0,12.9,17.9,12.4,26.6H157.3z M157.8,20.1h12.5
					c0.1-5.5-0.7-13.6-5.5-13.6C161.6,6.5,158.8,12.1,157.8,20.1z"/>
			</g>
		</g>
		<g>
			<g>
				<path class="st1" d="M196.1,52.8h-7V0.7h6.6V6c2.2-4.6,5.3-6,8.6-6c6.2,0,8.4,4.8,10,8.9l-6,2c-1-2.1-2.3-4.4-3.9-4.4
					c-3.7,0-7,6.2-8.2,13.8V52.8z"/>
			</g>
		</g>
		<g>
			<g>
				<path class="st1" d="M223.9,26.6v2.3c0,9.7,2.7,18,7.2,18c3.1,0,5.6-4.1,6.7-7.9l7,0.3c-1.8,6.3-6.3,14.2-13.8,14.2
					c-9.4,0-14.2-11.3-14.2-24.6c0-17.6,5.8-28.8,14.6-28.8c12,0,12.9,17.9,12.4,26.6H223.9z M224.5,20.1H237
					c0.1-5.5-0.7-13.6-5.5-13.6C228.3,6.5,225.5,12.1,224.5,20.1z"/>
			</g>
		</g>
		<g>
			<g>
				<path class="st1" d="M271.9,14.8c0.3-4.9-2.5-8.3-5.6-8.3c-3.1,0-5.8,2.5-5.8,6c0,3.8,3.9,6.3,8,8.9c6.2,3.9,13.1,8.9,13.1,18.1
					c0,10.3-8.2,13.9-15.3,13.9c-7.2,0-14.2-4.9-14.2-13.1c0-3.5,1.7-7.5,5.5-11l5.1,4.8c-2.2,2-3.5,4.5-3.5,6.2
					c0,4.1,3.5,6.5,7.2,6.5c3.9,0,8.3-2,8.3-7.3c0-6.3-5.1-9.7-10-12.7c-5.8-3.7-11.1-7-11.1-14.3c0-7.5,5.8-12.5,12.8-12.5
					s13.1,6,12.7,14.8H271.9z"/>
			</g>
		</g>
		<g>
			<g>
				<path class="st1" d="M373,6.5c-3.9,0-6.2,5.1-6.2,7.7h-7C359.6,9.1,364.6,0,373,0c9.8,0,12.4,7.2,12.4,13.2v39.5h-6.8v-3.1
					c-2.5,2.4-5.6,3.8-8.9,3.8c-4.6,0-11.8-3.4-11.8-12.7c0-10.1,6.9-15.1,12.9-19c3.8-2.5,7.5-5.1,7.5-8.6
					C378.3,10,377.2,6.5,373,6.5z M378.3,36V24.8l-3.2,2.2c-4.8,3.1-10.1,6.6-10.1,13.8c0,4.4,3,6,4.8,6
					C375,46.8,378.3,41.6,378.3,36z"/>
			</g>
		</g>
		<g>
			<g>
				<path class="st1" d="M351.9,7.5c-2.4-4.7-6.3-7.1-11.7-7.1c0,0-0.1,0-0.1,0v0h-6.7V53h6.7v0c0,0,0.1,0,0.1,0
					c4.9,0,8.7-2.1,11.3-6.2c2.6-4.2,3.9-10.1,3.9-18C355.4,19.3,354.3,12.2,351.9,7.5z M345.9,42c-1.3,3-3.2,4.6-5.7,4.6
					c0,0-0.1,0-0.1,0V6.8c0,0,0.1,0,0.1,0c2.7,0,4.7,1.8,5.9,5.4c1.2,3.6,1.8,9.1,1.8,16.6C347.9,34.5,347.2,38.9,345.9,42z"/>
			</g>
		</g>
	</g>
</g>
</svg>
