<?xml version="1.0" encoding="utf-8"?>
<!-- Generator: Adobe Illustrator 26.1.0, SVG Export Plug-In . SVG Version: 6.00 Build 0)  -->
<svg version="1.1" id="Camada_1" xmlns="http://www.w3.org/2000/svg" xmlns:xlink="http://www.w3.org/1999/xlink" x="0px" y="0px"
	 viewBox="0 0 507.5 228.5" style="enable-background:new 0 0 507.5 228.5;" xml:space="preserve">
<style type="text/css">
	.st0{fill:#EE7A25;}
	.st1{fill:#FFFFFF;}
</style>
<g>
	<g>
		<g>
			<path class="st0" d="M0.5,226.8v-159c16.2-0.6,28.5,4.7,37,15.8s12.7,26.9,12.7,47.4c0,6.9-0.7,13.7-1.9,20.6
				c-1.3,6.9-3.5,13.1-6.5,18.8c-3.1,5.6-7,10.4-11.9,14.3c-4.9,3.9-10.8,6.3-17.8,7.2v35H0.5V226.8z M11.9,181
				c5.3-0.8,9.7-2.7,13.2-5.8c3.4-3.1,6.2-7,8.2-11.7c2.1-4.7,3.5-9.8,4.2-15.4c0.8-5.6,1.1-11.4,1.1-17.2c0-15.7-2.3-28.2-6.9-37.4
				s-11.2-14.2-19.9-15V181H11.9z"/>
			<path class="st0" d="M12.4,227.3H0v-160h0.5c16.3-0.6,28.8,4.8,37.4,16c8.5,11.2,12.8,27.2,12.8,47.7c0,6.8-0.7,13.8-2,20.7
				s-3.5,13.2-6.6,18.9s-7.1,10.5-12,14.5c-4.8,3.8-10.8,6.3-17.7,7.3C12.4,192.4,12.4,227.3,12.4,227.3z M1,226.3h10.4v-34.9
				l0.4-0.1c6.9-0.9,12.8-3.3,17.6-7.1s8.8-8.6,11.8-14.1c3-5.6,5.2-11.8,6.5-18.6s1.9-13.7,1.9-20.5c0-20.2-4.2-36.1-12.6-47.1
				C28.8,73,16.7,67.8,1,68.2V226.3z M11.4,181.6V78h0.5c8.8,0.8,15.7,5.9,20.3,15.3c4.6,9.3,6.9,21.9,6.9,37.6
				c0,5.8-0.4,11.6-1.1,17.2c-0.8,5.7-2.2,10.9-4.3,15.6c-2.1,4.7-4.9,8.7-8.4,11.8c-3.5,3.2-8,5.2-13.4,6L11.4,181.6z M12.4,79.1
				v101.4c5-0.8,9.1-2.7,12.3-5.6c3.4-3.1,6.1-6.9,8.1-11.5s3.4-9.7,4.2-15.3s1.1-11.4,1.1-17.1c0-15.6-2.3-28.1-6.8-37.2
				C27,84.9,20.6,80,12.4,79.1z"/>
		</g>
		<g>
			<path class="st0" d="M102.5,131.1H77.6V216h35.7v10.8H66.2v-159h46.7v10.7H77.6v41.9h24.9V131.1z"/>
			<path class="st0" d="M113.8,227.3H65.7v-160h47.7v11.8H78.1V120H103v11.8H78.1v83.7h35.7V227.3z M66.7,226.3h46.1v-9.8H77.1
				v-85.9H102v-9.8H77.1V78h35.2v-9.8H66.7V226.3z"/>
		</g>
		<g>
			<path class="st0" d="M128.8,226.8v-159c5-0.5,10.3-0.3,15.8,0.5s10.5,2.9,15,6.4s8.2,8.7,11.2,15.4c3,6.8,4.5,15.9,4.5,27.3
				c0,5.5-0.5,10.6-1.4,15.4s-2.4,9.2-4.5,13.3c-2.1,4-4.7,7.5-7.9,10.5s-7.2,5.2-11.9,6.7c4.1,3.5,7.8,7.9,11,13.3
				c3.2,5.3,6,10.9,8.4,16.7s4.4,11.6,6.1,17.5c1.7,5.9,3,11.1,3.9,15.7l-11.7,0.5c-1.1-5.8-2.4-11.6-4.1-17.5
				c-1.7-5.9-3.7-11.4-5.9-16.6c-2.3-5.2-4.9-9.8-7.8-14c-2.9-4.1-5.9-7.4-9.2-9.8v57.7L128.8,226.8L128.8,226.8z M140.3,154.7
				c8.7-1.4,14.8-5.5,18.3-12.5c3.5-6.9,5.3-15.2,5.3-24.8c0-7.5-0.7-13.7-2.1-18.8c-1.4-5-3.2-9-5.4-12s-4.7-5.1-7.6-6.4
				c-2.8-1.3-5.7-2.1-8.6-2.4v76.9H140.3z"/>
			<path class="st0" d="M166.9,227.5l-0.1-0.4c-1.1-5.7-2.4-11.6-4.1-17.5c-1.7-5.8-3.7-11.4-5.9-16.5c-2.3-5.1-4.9-9.8-7.7-13.9
				c-2.6-3.7-5.4-6.8-8.2-9.1v57.1h-12.4v-160h0.5c5-0.5,10.4-0.3,15.9,0.5c5.6,0.8,10.7,3,15.2,6.5s8.4,8.8,11.4,15.6
				c3,6.8,4.5,16.1,4.5,27.5c0,5.5-0.5,10.7-1.4,15.5c-0.9,4.8-2.4,9.3-4.5,13.4c-2.1,4.1-4.8,7.7-8,10.7c-3.1,2.8-6.8,5-11.2,6.6
				c3.9,3.4,7.4,7.7,10.4,12.8c3.2,5.3,6,11,8.4,16.8s4.4,11.7,6.1,17.6c1.7,5.9,3,11.2,3.9,15.7l0.1,0.6L166.9,227.5z M139.8,168.1
				l0.8,0.6c3.2,2.5,6.3,5.8,9.3,9.9c2.9,4.1,5.5,8.9,7.8,14c2.3,5.2,4.3,10.8,6,16.7c1.6,5.7,3,11.5,4.1,17.1l10.6-0.4
				c-0.9-4.4-2.2-9.5-3.8-15.1c-1.7-5.8-3.7-11.7-6-17.5s-5.1-11.3-8.3-16.6s-6.8-9.7-10.9-13.1l-0.7-0.6l0.9-0.3
				c4.6-1.5,8.6-3.7,11.7-6.6c3.1-2.9,5.8-6.4,7.8-10.4s3.5-8.4,4.4-13.1c0.9-4.8,1.4-9.9,1.4-15.3c0-11.3-1.5-20.4-4.4-27.1
				s-6.6-11.8-11.1-15.3c-4.4-3.4-9.4-5.6-14.7-6.3c-5.3-0.7-10.4-0.9-15.2-0.5v158.1h10.4v-58.2H139.8z M139.8,155.3v-78l0.6,0.1
				c2.9,0.3,5.9,1.1,8.7,2.4c2.9,1.3,5.5,3.5,7.7,6.6c2.2,3,4.1,7.1,5.5,12.2s2.1,11.4,2.1,18.9c0,9.6-1.8,18.1-5.3,25
				c-3.6,7.1-9.9,11.3-18.7,12.7L139.8,155.3z M140.8,78.4v75.7c8.2-1.4,14-5.5,17.4-12.1c3.5-6.8,5.2-15.1,5.2-24.6
				c0-7.4-0.7-13.7-2-18.6s-3.1-8.9-5.3-11.8s-4.6-5-7.4-6.2C146.1,79.5,143.4,78.7,140.8,78.4z"/>
		</g>
		<g>
			<path class="st0" d="M207.1,67.7v159h-11.4v-159H207.1z"/>
			<path class="st0" d="M207.6,227.3h-12.4v-160h12.4V227.3z M196.2,226.3h10.4v-158h-10.4V226.3z"/>
		</g>
		<g>
			<path class="st0" d="M262.9,131.1h-20.1v95.6h-11.4v-159h47.1v10.8h-35.7v41.9h20.1V131.1z"/>
			<path class="st0" d="M243.3,227.3h-12.4v-160H279v11.8h-35.7V120h20.1v11.8h-20.1L243.3,227.3L243.3,227.3z M231.8,226.3h10.4
				v-95.6h20.1v-9.8h-20.1V78H278v-9.8h-46.1L231.8,226.3L231.8,226.3z"/>
		</g>
		<g>
			<path class="st0" d="M325.8,131.1h-24.9V216h35.7v10.8h-47.1v-159h46.7v10.7H301v41.9h24.9v10.7H325.8z"/>
			<path class="st0" d="M337.1,227.3H289v-160h47.7v11.8h-35.2V120h24.9v11.8h-24.9v83.7h35.7v11.8H337.1z M290,226.3h46.1v-9.8
				h-35.7v-85.9h24.9v-9.8h-24.9V78h35.2v-9.8H290V226.3z"/>
		</g>
		<g>
			<path class="st0" d="M352.1,226.8v-159c5-0.5,10.3-0.3,15.8,0.5s10.5,2.9,15,6.4s8.2,8.7,11.2,15.4c3,6.8,4.5,15.9,4.5,27.3
				c0,5.5-0.5,10.6-1.4,15.4s-2.4,9.2-4.5,13.3c-2.1,4-4.7,7.5-7.9,10.5c-3.2,3-7.2,5.2-11.9,6.7c4.1,3.5,7.8,7.9,11,13.3
				c3.2,5.3,6,10.9,8.4,16.7s4.4,11.6,6.1,17.5s3,11.1,3.9,15.7l-11.7,0.5c-1.1-5.8-2.4-11.6-4.1-17.5s-3.7-11.4-5.9-16.6
				c-2.3-5.2-4.9-9.8-7.8-14c-2.9-4.1-5.9-7.4-9.2-9.8v57.7L352.1,226.8L352.1,226.8z M363.6,154.7c8.7-1.4,14.8-5.5,18.3-12.5
				c3.5-6.9,5.3-15.2,5.3-24.8c0-7.5-0.7-13.7-2.1-18.8c-1.4-5-3.2-9-5.4-12c-2.2-3-4.7-5.1-7.5-6.4s-5.7-2.1-8.6-2.4L363.6,154.7
				L363.6,154.7z"/>
			<path class="st0" d="M390.2,227.5l-0.1-0.4c-1.1-5.8-2.4-11.6-4.1-17.5c-1.7-5.8-3.7-11.4-5.9-16.5c-2.3-5.1-4.9-9.8-7.7-13.9
				c-2.6-3.7-5.4-6.8-8.2-9.1v57.1h-12.4v-160h0.5c5-0.5,10.4-0.3,15.9,0.5c5.6,0.8,10.7,3,15.2,6.5s8.4,8.8,11.4,15.6
				c3,6.8,4.5,16.1,4.5,27.5c0,5.5-0.5,10.7-1.4,15.5c-0.9,4.8-2.4,9.3-4.5,13.4c-2.1,4.1-4.8,7.7-8,10.7c-3.1,2.8-6.8,5-11.2,6.6
				c3.9,3.4,7.4,7.7,10.4,12.8c3.2,5.3,6,11,8.4,16.8s4.4,11.7,6.1,17.6c1.7,5.9,3,11.2,3.9,15.7l0.1,0.6L390.2,227.5z M363.1,168.1
				l0.8,0.6c3.2,2.5,6.3,5.8,9.3,9.9c2.9,4.1,5.5,8.9,7.8,14c2.3,5.2,4.3,10.8,6,16.7c1.6,5.7,3,11.5,4,17.1l10.6-0.4
				c-0.9-4.4-2.2-9.4-3.8-15.1c-1.7-5.8-3.7-11.7-6-17.5s-5.1-11.3-8.3-16.6c-3.2-5.3-6.8-9.7-10.9-13.1l-0.7-0.6l0.9-0.3
				c4.6-1.5,8.6-3.7,11.7-6.6c3.1-2.9,5.8-6.4,7.8-10.4s3.5-8.4,4.4-13.1c0.9-4.8,1.4-9.9,1.4-15.3c0-11.3-1.5-20.4-4.4-27.1
				s-6.6-11.8-11.1-15.3c-4.4-3.4-9.4-5.6-14.7-6.3c-5.3-0.7-10.4-0.9-15.2-0.5v158.1h10.4L363.1,168.1L363.1,168.1z M363.1,155.3
				v-78l0.6,0.1c2.9,0.3,5.9,1.1,8.7,2.4c2.9,1.3,5.5,3.5,7.7,6.6c2.2,3,4.1,7.1,5.5,12.2s2.1,11.4,2.1,18.9c0,9.6-1.8,18.1-5.3,25
				c-3.6,7.1-9.9,11.3-18.7,12.7L363.1,155.3z M364.1,78.4v75.7c8.2-1.4,14-5.5,17.4-12.1c3.5-6.8,5.2-15.1,5.2-24.6
				c0-7.4-0.7-13.7-2-18.6s-3.1-8.9-5.3-11.8c-2.2-2.9-4.6-5-7.4-6.3C369.4,79.5,366.7,78.7,364.1,78.4z"/>
		</g>
		<g>
			<path class="st0" d="M430.4,67.7v159H419v-159H430.4z"/>
			<path class="st0" d="M430.9,227.3h-12.4v-160h12.4V227.3z M419.4,226.3h10.4v-158h-10.4V226.3z"/>
		</g>
		<g>
			<path class="st0" d="M447.1,226.5l24.7-158.8h10.1l24.9,158.8l-11.4,0.5l-5.5-34.5H464c-0.9,5.5-1.9,11.5-2.9,18
				s-1.9,12.3-2.6,17.5L447.1,226.5z M465.8,181.5h22c-1.2-7.6-2.2-14.1-3-19.4c-0.8-5.3-1.5-10.5-2.3-15.4
				c-0.8-5-1.6-10.3-2.4-15.9c-0.8-5.6-1.9-12.7-3.3-21L465.8,181.5z"/>
			<path class="st0" d="M459,228.5l-12.4-1.5l0.1-0.5l24.8-159.2h10.9l25.1,159.8l-12.4,0.5l-5.5-34.6h-25
				c-0.9,5.5-1.8,11.3-2.8,17.5c-1,6.5-1.9,12.3-2.6,17.5L459,228.5z M447.7,226.1l10.4,1.3c0.7-5.1,1.6-10.7,2.6-17
				c1-6.4,1.9-12.4,2.9-18l0.1-0.4h26.7l5.5,34.5l10.4-0.4L481.4,68.2h-9.2L447.7,226.1z M488.4,182h-23.1l11.5-75.5l0.5,3.1
				c1.4,8.3,2.5,15.4,3.3,21.1c0.8,5.6,1.6,10.9,2.4,15.9c0.7,4.8,1.5,9.9,2.3,15.4c0.8,5.3,1.8,11.9,3,19.4L488.4,182z M466.4,181
				h20.8c-1.2-7.3-2.1-13.7-2.9-18.9c-0.8-5.6-1.5-10.6-2.3-15.4c-0.8-5-1.6-10.3-2.4-15.9c-0.7-4.9-1.7-10.9-2.8-17.9L466.4,181z"
				/>
		</g>
	</g>
	<g>
		<g>
			<g>
				<g>
					<g>
						<path class="st1" d="M306.3,16.6c-10.7,0-10.7,17.2,0,17.2C317,33.9,317,16.6,306.3,16.6z"/>
					</g>
				</g>
			</g>
		</g>
		<g>
			<g>
				<path class="st1" d="M134.2,15.3c0.3-4.9-2.5-8.3-5.6-8.3c-3.1,0-5.8,2.5-5.8,6c0,3.8,3.9,6.3,8,8.9c6.2,3.9,13.1,8.9,13.1,18.1
					c0,10.3-8.2,13.9-15.3,13.9c-7.2,0-14.2-4.9-14.2-13.1c0-3.5,1.7-7.5,5.5-11l5.1,4.8c-2.2,2-3.5,4.5-3.5,6.2
					c0,4.1,3.5,6.5,7.2,6.5c3.9,0,8.3-2,8.3-7.3c0-6.3-5.1-9.7-10-12.7c-5.8-3.7-11.1-7-11.1-14.3c0-7.5,5.8-12.5,12.8-12.5
					c7,0,13.1,6,12.7,14.8C141.4,15.3,134.2,15.3,134.2,15.3z"/>
			</g>
		</g>
		<g>
			<g>
				<path class="st1" d="M157.3,27.1v2.3c0,9.7,2.7,18,7.2,18c3.1,0,5.6-4.1,6.7-7.9l7,0.3c-1.8,6.3-6.3,14.2-13.8,14.2
					c-9.4,0-14.2-11.3-14.2-24.6c0-17.6,5.8-28.9,14.7-28.9c12,0,12.9,17.9,12.4,26.6H157.3z M157.8,20.6h12.5
					c0.1-5.5-0.7-13.6-5.5-13.6C161.6,7,158.8,12.6,157.8,20.6z"/>
			</g>
		</g>
		<g>
			<g>
				<path class="st1" d="M196.1,53.3h-7V1.2h6.6v5.3c2.2-4.6,5.3-6,8.6-6c6.2,0,8.4,4.8,10,8.9l-6,2c-1-2.1-2.3-4.4-3.9-4.4
					c-3.7,0-7,6.2-8.2,13.8v32.5H196.1z"/>
			</g>
		</g>
		<g>
			<g>
				<path class="st1" d="M223.9,27.1v2.3c0,9.7,2.7,18,7.2,18c3.1,0,5.6-4.1,6.7-7.9l7,0.3C243,46.1,238.5,54,231,54
					c-9.4,0-14.2-11.3-14.2-24.6c0-17.6,5.8-28.8,14.6-28.8c12,0,12.9,17.9,12.4,26.6h-19.9V27.1z M224.5,20.6H237
					c0.1-5.5-0.7-13.6-5.5-13.6C228.3,7,225.5,12.6,224.5,20.6z"/>
			</g>
		</g>
		<g>
			<g>
				<path class="st1" d="M271.9,15.3c0.3-4.9-2.5-8.3-5.6-8.3s-5.8,2.5-5.8,6c0,3.8,3.9,6.3,8,8.9c6.2,3.9,13.1,8.9,13.1,18.1
					c0,10.3-8.2,13.9-15.3,13.9c-7.2,0-14.2-4.9-14.2-13.1c0-3.5,1.7-7.5,5.5-11l5.1,4.8c-2.2,2-3.5,4.5-3.5,6.2
					c0,4.1,3.5,6.5,7.2,6.5c3.9,0,8.3-2,8.3-7.3c0-6.3-5.1-9.7-10-12.7c-5.8-3.7-11.1-7-11.1-14.3c0-7.5,5.8-12.5,12.8-12.5
					s13.1,6,12.7,14.8C279.1,15.3,271.9,15.3,271.9,15.3z"/>
			</g>
		</g>
		<g>
			<g>
				<path class="st1" d="M373,7c-3.9,0-6.2,5.1-6.2,7.7h-7c-0.2-5.1,4.8-14.2,13.2-14.2c9.8,0,12.4,7.2,12.4,13.2v39.5h-6.8v-3.1
					c-2.5,2.4-5.6,3.8-8.9,3.8c-4.6,0-11.8-3.4-11.8-12.7c0-10.1,6.9-15.1,12.9-19c3.8-2.5,7.5-5.1,7.5-8.6
					C378.3,10.5,377.2,7,373,7z M378.3,36.5V25.3l-3.2,2.2c-4.8,3.1-10.1,6.6-10.1,13.8c0,4.4,3,6,4.8,6
					C375,47.3,378.3,42.1,378.3,36.5z"/>
			</g>
		</g>
		<path class="st1" d="M354.8,17.2v36.5h-7.2V13.9c0-5.2-1.3-7.3-3.2-7.3c-3.6,0-7.3,6.2-7.5,10.6v36.5h-7.2v-53h6.7l0.1,3.4
			c1.9-2.5,4.8-4,7.9-4.2c3.4-0.1,6.8,1.6,8.4,4.6C355.3,8.9,354.8,10.6,354.8,17.2z"/>
	</g>
</g>
</svg>
