<svg xmlns="http://www.w3.org/2000/svg" viewBox="0 0 281.5 252.9" ><path d="M2 187.8v-87.1c8.9-.3 15.6 2.5 20.2 8.6s7 14.7 7 25.9c0 3.8-.4 7.5-1.1 11.3a34 34 0 0 1-3.6 10.3 24.7 24.7 0 0 1-6.5 7.8 19.5 19.5 0 0 1-9.8 3.9v19.2H2zm6.3-25c2.9-.4 5.3-1.5 7.2-3.2 1.9-1.7 3.4-3.8 4.5-6.4 1.1-2.5 1.9-5.4 2.3-8.5.4-3.1.6-6.2.6-9.4 0-8.6-1.3-15.4-3.8-20.5S13 107 8.2 106.6v56.2z"/><path d="M8.8 188.4H1.5v-88.1H2c9-.3 15.9 2.6 20.7 8.8 4.7 6.2 7.1 15 7.1 26.2 0 3.8-.4 7.6-1.1 11.4-.7 3.8-1.9 7.3-3.6 10.4a27 27 0 0 1-6.6 8 20.3 20.3 0 0 1-9.6 4v19.3zm-6.3-1.1h5.2v-19.1l.4-.1c3.7-.5 6.9-1.8 9.5-3.8 2.6-2.1 4.8-4.7 6.4-7.7 1.6-3 2.8-6.4 3.5-10.1.7-3.7 1.1-7.5 1.1-11.2 0-11-2.3-19.7-6.9-25.6-4.4-5.8-10.9-8.6-19.3-8.5v86.1zm5.3-23.9v-57.3h.6c4.9.4 8.7 3.3 11.3 8.5a47.8 47.8 0 0 1 3.8 20.7c0 3.2-.2 6.4-.6 9.5-.4 3.1-1.2 6-2.4 8.6a19.6 19.6 0 0 1-4.6 6.6 13.3 13.3 0 0 1-7.5 3.3l-.6.1zm1-56.2v55c2.6-.5 4.7-1.5 6.4-3a20 20 0 0 0 4.4-6.2c1.1-2.5 1.9-5.3 2.3-8.3.4-3.1.6-6.2.6-9.3a46 46 0 0 0-3.7-20.3c-2.4-4.7-5.7-7.3-10-7.9zM57.9 135.5H44.2V182h19.6v5.9H38v-87.1h25.6v5.9H44.2v22.9h13.7v5.9z"/><path d="M64.3 188.4H37.5v-88.1H64v6.9H44.7v21.9h13.7v6.9H44.7v45.5h19.6v6.9zm-25.8-1.1h24.8v-4.9H43.7V135h13.7v-4.9H43.7v-24H63v-4.9H38.5v86.1zM72.3 187.8v-87.1c2.8-.3 5.6-.2 8.6.3 3 .4 5.7 1.6 8.2 3.5a20 20 0 0 1 6.1 8.5 46.3 46.3 0 0 1 1.6 23.5 22.4 22.4 0 0 1-6.7 13.1 17.3 17.3 0 0 1-6.5 3.7c2.3 1.9 4.3 4.3 6 7.3a64.7 64.7 0 0 1 7.9 18.7 117 117 0 0 1 2.1 8.6l-6.4.3a83.6 83.6 0 0 0-5.6-18.7 45.7 45.7 0 0 0-4.3-7.6 24 24 0 0 0-5-5.4v31.6h-6zm6.3-39.4c4.8-.8 8.1-3 10-6.8a30 30 0 0 0 2.9-13.6c0-4.1-.4-7.5-1.1-10.3-.8-2.8-1.7-5-2.9-6.6a11.2 11.2 0 0 0-4.1-3.5c-1.5-.7-3.1-1.1-4.7-1.3v42.1z"/><path d="m92.9 188.5-.1-.4a108.5 108.5 0 0 0-5.4-18.5 49.9 49.9 0 0 0-4.2-7.6 26.7 26.7 0 0 0-4.1-4.6v31h-7.3v-88.1h.5c2.8-.3 5.7-.2 8.8.3 3.1.4 5.9 1.6 8.5 3.6 2.5 2 4.6 4.9 6.3 8.7a47.4 47.4 0 0 1 1.7 23.8 24.8 24.8 0 0 1-6.9 13.3 16.5 16.5 0 0 1-5.9 3.5c2 1.9 3.9 4.1 5.5 6.8a90.9 90.9 0 0 1 10 27.4l.1.6-7.5.2zm-14.8-33.3.8.6c1.8 1.4 3.5 3.2 5.1 5.5a51.3 51.3 0 0 1 7.6 16.9c.9 3.1 1.6 6.2 2.2 9.2l5.4-.2-2-8a82.2 82.2 0 0 0-7.8-18.6 26.3 26.3 0 0 0-5.9-7.1l-.7-.6.9-.3c2.5-.8 4.6-2 6.3-3.6a21 21 0 0 0 4.2-5.6c1.1-2.2 1.9-4.6 2.4-7.1.5-2.6.7-5.4.7-8.4 0-6.2-.8-11.1-2.4-14.8a21.5 21.5 0 0 0-6-8.3c-2.4-1.9-5.1-3-8-3.4a37 37 0 0 0-8.1-.3v86.1H78v-32zm0-6.2v-43.3l.6.1c1.6.2 3.3.6 4.9 1.4 1.6.7 3.1 2 4.3 3.7 1.2 1.7 2.3 3.9 3 6.7A39 39 0 0 1 92 128c0 5.3-1 10-2.9 13.8-2 3.9-5.5 6.3-10.4 7.1l-.6.1zm1-42.2v40.9c4.3-.8 7.3-2.9 9.1-6.5 1.9-3.7 2.8-8.2 2.8-13.4 0-4-.4-7.4-1.1-10.1-.7-2.7-1.7-4.8-2.9-6.4a9.9 9.9 0 0 0-3.9-3.3c-1.4-.6-2.7-1-4-1.2zM115.2 100.7v87.1h-6.3v-87.1h6.3z"/><path d="M115.7 188.4h-7.3v-88.1h7.3v88.1zm-6.3-1.1h5.2v-86.1h-5.2v86.1zM145.7 135.5h-11v52.4h-6.3v-87.1h25.8v5.9h-19.6v22.9h11v5.9z"/><path d="M135.2 188.4h-7.3v-88.1h26.8v6.9h-19.6v21.9h11v6.9h-11v52.4zm-6.3-1.1h5.2V135h11v-4.9h-11v-24h19.6v-4.9h-24.8v86.1z"/><path d="M180.2 135.5h-13.7V182h19.6v5.9h-25.8v-87.1h25.6v5.9h-19.3v22.9h13.7v5.9z"/><path d="M186.6 188.4h-26.8v-88.1h26.6v6.9H167v21.9h13.7v6.9H167v45.5h19.6v6.9zm-25.8-1.1h24.8v-4.9H166V135h13.7v-4.9H166v-24h19.3v-4.9h-24.5v86.1z"/><path d="M194.6 187.8v-87.1c2.8-.3 5.6-.2 8.6.3 3 .4 5.7 1.6 8.2 3.5a20 20 0 0 1 6.1 8.5 46.3 46.3 0 0 1 1.6 23.5 22.4 22.4 0 0 1-6.7 13.1 17.3 17.3 0 0 1-6.5 3.7c2.3 1.9 4.3 4.3 6 7.3a64.7 64.7 0 0 1 7.9 18.7 117 117 0 0 1 2.1 8.6l-6.4.3a83.6 83.6 0 0 0-5.6-18.7 45.7 45.7 0 0 0-4.3-7.6 24 24 0 0 0-5-5.4v31.6h-6zm6.3-39.4c4.8-.8 8.1-3 10-6.8a30 30 0 0 0 2.9-13.6c0-4.1-.4-7.5-1.1-10.3-.8-2.8-1.7-5-2.9-6.6a11.2 11.2 0 0 0-4.1-3.5c-1.5-.7-3.1-1.1-4.7-1.3v42.1z"/><path d="m215.2 188.5-.1-.4a73 73 0 0 0-5.4-18.5 42.6 42.6 0 0 0-4.2-7.6 26.7 26.7 0 0 0-4.1-4.6v31h-7.3v-88.1h.5c2.8-.3 5.7-.2 8.8.3 3.1.4 5.9 1.6 8.5 3.6 2.5 2 4.6 4.9 6.3 8.7a47.4 47.4 0 0 1 1.7 23.8A24.8 24.8 0 0 1 213 150a16.5 16.5 0 0 1-5.9 3.5c2 1.9 3.9 4.1 5.5 6.8a90.9 90.9 0 0 1 10 27.4l.1.6-7.5.2zm-14.8-33.3.8.6c1.8 1.4 3.5 3.2 5.1 5.5a58.5 58.5 0 0 1 7.6 16.9c.9 3.1 1.6 6.2 2.2 9.2l5.4-.2-2-8a82.2 82.2 0 0 0-7.8-18.6 26.3 26.3 0 0 0-5.9-7.1l-.7-.6.9-.3c2.5-.8 4.6-2 6.3-3.6a21 21 0 0 0 4.2-5.6c1.1-2.2 1.9-4.6 2.4-7.1.5-2.6.7-5.4.7-8.4 0-6.2-.8-11.1-2.4-14.8a21.5 21.5 0 0 0-6-8.3c-2.4-1.9-5.1-3-8-3.4a37 37 0 0 0-8.1-.3v86.1h5.2v-32zm0-6.2v-43.3l.6.1c1.6.2 3.3.6 4.9 1.4 1.6.7 3.1 2 4.3 3.7 1.2 1.7 2.3 3.9 3 6.7a39 39 0 0 1 1.1 10.4c0 5.3-1 10-2.9 13.8-2 3.9-5.5 6.3-10.4 7.1l-.6.1zm1-42.2v40.9c4.3-.8 7.3-3 9.1-6.5 1.9-3.7 2.8-8.2 2.8-13.4 0-4-.4-7.4-1.1-10.1-.7-2.7-1.7-4.8-2.9-6.4a9.9 9.9 0 0 0-3.9-3.3c-1.3-.6-2.7-1-4-1.2z"/><path d="M237.5 100.7v87.1h-6.3v-87.1h6.3z"/><path d="M238 188.4h-7.3v-88.1h7.3v88.1zm-6.3-1.1h5.2v-86.1h-5.2v86.1z"/><path d="m246.6 187.7 13.5-87h5.5l13.7 87-6.3.3-3-18.9h-14.2l-1.6 9.8-1.4 9.6-6.2-.8zm10.3-24.7h12l-1.6-10.7-1.3-8.5-1.3-8.7-1.8-11.5-6 39.4z"/><path d="m253.3 189-7.3-.9.1-.5 13.6-87.4h6.4l13.8 88-7.3.3-3-18.9h-13.3l-1.5 9.4-1.4 9.6-.1.4zm-6.1-1.7 5.3.6 1.4-9.1 1.6-9.8.1-.4h15l3 18.9 5.2-.2-13.5-86h-4.6l-13.5 86zm22.3-23.8h-13.2l6.6-43.1.5 3.2 1.8 11.5 1.3 8.7 1.3 8.5 1.6 10.6.1.6zm-12-1h10.8a952.6 952.6 0 0 1-2.8-18.6l-1.3-8.7-1.3-8.3-5.4 35.6z"/><path d="M169.5 72.8c-5.9 0-5.9 9.4 0 9.4s5.9-9.4 0-9.4zM75.2 72c.2-2.7-1.4-4.5-3.1-4.5a3.2 3.2 0 0 0-3.2 3.3c0 2.1 2.2 3.5 4.4 4.9 3.4 2.2 7.2 4.9 7.2 9.9 0 5.6-4.5 7.6-8.4 7.6-3.9 0-7.8-2.7-7.8-7.2 0-1.9.9-4.1 3-6l2.8 2.6c-1.2 1.1-1.9 2.5-1.9 3.4 0 2.2 1.9 3.5 3.9 3.5 2.2 0 4.5-1.1 4.5-4 0-3.5-2.8-5.3-5.5-6.9-3.2-2-6.1-3.9-6.1-7.9 0-4.1 3.2-6.9 7-6.9s7.2 3.3 6.9 8.1h-3.7zM87.9 78.5v1.2c0 5.3 1.5 9.9 3.9 9.9 1.7 0 3.1-2.2 3.7-4.3l3.9.2c-1 3.5-3.5 7.8-7.5 7.8-5.2 0-7.8-6.2-7.8-13.5 0-9.6 3.2-15.8 8-15.8 6.6 0 7.1 9.8 6.8 14.6h-11zm.3-3.6H95c.1-3-.4-7.5-3-7.5-1.7.1-3.3 3.1-3.8 7.5zM109.1 92.8h-3.9V64.3h3.6v2.9c1.2-2.5 2.9-3.3 4.7-3.3 3.4 0 4.6 2.6 5.5 4.9l-3.3 1.1c-.5-1.2-1.2-2.4-2.2-2.4-2 0-3.9 3.4-4.5 7.5v17.8zM124.4 78.5v1.2c0 5.3 1.5 9.9 3.9 9.9 1.7 0 3.1-2.2 3.7-4.3l3.9.2c-1 3.5-3.5 7.8-7.5 7.8-5.2 0-7.8-6.2-7.8-13.5 0-9.6 3.2-15.8 8-15.8 6.6 0 7.1 9.8 6.8 14.6h-11zm.3-3.6h6.9c.1-3-.4-7.5-3-7.5-1.8.1-3.4 3.1-3.9 7.5zM150.7 72c.2-2.7-1.4-4.5-3.1-4.5a3.2 3.2 0 0 0-3.2 3.3c0 2.1 2.2 3.5 4.4 4.9 3.4 2.2 7.2 4.9 7.2 9.9 0 5.6-4.5 7.6-8.4 7.6-3.9 0-7.8-2.7-7.8-7.2 0-1.9.9-4.1 3-6l2.8 2.6c-1.2 1.1-1.9 2.5-1.9 3.4 0 2.2 1.9 3.5 3.9 3.5 2.2 0 4.5-1.1 4.5-4 0-3.5-2.8-5.3-5.5-6.9-3.2-2-6.1-3.9-6.1-7.9 0-4.1 3.2-6.9 7-6.9 3.9 0 7.2 3.3 6.9 8.1h-3.7zM206 67.5c-2.2 0-3.4 2.8-3.4 4.2h-3.9c-.1-2.8 2.6-7.8 7.2-7.8 5.4 0 6.8 3.9 6.8 7.2v21.7H209v-1.7a7.3 7.3 0 0 1-4.9 2.1 6.5 6.5 0 0 1-6.5-6.9c0-5.5 3.8-8.2 7.1-10.4 2.1-1.4 4.1-2.8 4.1-4.7.2-1.8-.5-3.7-2.8-3.7zm3 16.1v-6.2l-1.8 1.2c-2.6 1.7-5.5 3.6-5.5 7.6 0 2.4 1.6 3.3 2.6 3.3 2.8.1 4.7-2.8 4.7-5.9zM194.5 68a6.6 6.6 0 0 0-6.4-3.9H184.3V93H188.1c2.7 0 4.8-1.1 6.2-3.4 1.4-2.3 2.1-5.6 2.1-9.9 0-5.2-.6-9.1-1.9-11.7zm-3.3 18.9c-.7 1.7-1.8 2.5-3.1 2.5h-.1V67.6h.1c1.5 0 2.6 1 3.2 3 .7 2 1 5 1 9.1 0 3.1-.4 5.5-1.1 7.2z"/></svg>