<svg id="Camada_1" data-name="Camada 1" xmlns="http://www.w3.org/2000/svg" xmlns:xlink="http://www.w3.org/1999/xlink" viewBox="0 0 2000 215"><defs><style>.cls-1,.cls-12{fill:none;}.cls-2{clip-path:url(#clip-path);}.cls-3{fill:#5f5181;}.cls-4{fill:#57437d;}.cls-5{fill:#4e3871;}.cls-6{fill:#462f66;}.cls-7{fill:#40295e;}.cls-8{fill:#3c2259;}.cls-9{fill:#331c46;}.cls-10{fill:#271638;}.cls-11{fill:#0388af;}.cls-12{stroke:#22b4b9;stroke-miterlimit:10;stroke-width:3px;}.cls-13{fill:#821f81;}.cls-14{fill:#fff;}</style><clipPath id="clip-path"><rect class="cls-1" width="2000" height="218.16"/></clipPath></defs><title>topobg1</title><g class="cls-2"><rect class="cls-1" width="2000" height="1125.46"/><rect class="cls-3" x="11.14" y="-2.81" width="2043.31" height="1347.21"/><rect class="cls-1" width="2000" height="1125.46"/><rect class="cls-1" x="-28.74" y="-176.37" width="2041.12" height="1345.76"/><circle class="cls-4" cx="754.19" cy="-243.31" r="1649.77"/><rect class="cls-1" x="-28.74" y="-176.37" width="2041.12" height="1345.76"/><circle class="cls-5" cx="511.61" cy="-417.69" r="1649.77"/><rect class="cls-1" x="-28.74" y="-176.37" width="2041.12" height="1345.76"/><circle class="cls-6" cx="269.13" cy="-591.98" r="1649.77"/><rect class="cls-1" x="-28.74" y="-176.37" width="2041.12" height="1345.76"/><circle class="cls-7" cx="26.55" cy="-766.37" r="1649.77"/><rect class="cls-1" x="-28.74" y="-176.37" width="2041.12" height="1345.76"/><circle class="cls-8" cx="-216.03" cy="-940.65" r="1649.77"/><circle class="cls-9" cx="-458.51" cy="-1115.04" r="1649.77"/><circle class="cls-10" cx="-701.09" cy="-1289.43" r="1649.77"/><rect class="cls-1" width="2000" height="1125.46"/><rect class="cls-1" width="2000" height="1125.46"/><rect class="cls-1" width="2000" height="1125.46"/><rect class="cls-1" width="2000" height="1125.46"/><rect class="cls-1" width="2000" height="1125.46"/><rect class="cls-1" width="2000" height="1125.46"/><rect class="cls-1" width="2000" height="1125.46"/><rect class="cls-1" width="2000" height="1125.46"/><rect class="cls-1" width="2000" height="1125.46"/><rect class="cls-1" width="2000" height="1125.46"/><rect class="cls-1" width="2000" height="1125.46"/><rect class="cls-1" width="2000" height="1125.46"/><rect class="cls-1" width="2000" height="1125.46"/><rect class="cls-1" width="2000" height="1125.46"/><circle class="cls-11" cx="169.82" cy="57.31" r="123.37"/><rect class="cls-1" width="2000" height="1125.46"/><rect class="cls-1" width="2000" height="1125.46"/><circle class="cls-12" cx="1893.91" cy="83.19" r="38.42"/><rect class="cls-1" width="2000" height="1125.46"/><rect class="cls-1" width="2000" height="1125.46"/><rect class="cls-1" width="2000" height="1125.46"/><circle class="cls-13" cx="1782.51" cy="189.17" r="134.72"/><rect class="cls-1" width="2000" height="1125.46"/><rect class="cls-1" width="2000" height="1125.46"/><rect class="cls-1" width="2000" height="1125.46"/><rect class="cls-1" width="2000" height="1125.46"/><rect class="cls-1" width="2000" height="1125.46"/><rect class="cls-1" width="2000" height="1125.46"/><rect class="cls-1" width="2000" height="1125.46"/><rect class="cls-1" width="2000" height="1125.46"/><rect class="cls-1" width="2000" height="1125.46"/><rect class="cls-1" width="2000" height="1125.46"/><rect class="cls-1" width="2000" height="1125.46"/><rect class="cls-1" width="2000" height="1125.46"/><rect class="cls-1" width="2000" height="1125.46"/><rect class="cls-1" width="2000" height="1125.46"/><rect class="cls-1" width="2000" height="1125.46"/><rect class="cls-1" width="2000" height="1125.46"/><path class="cls-14" d="M74.86,92.24c-13.12,0-13.12,20.41,0,20.41S88,92.24,74.86,92.24Z"/><rect class="cls-1" width="2000" height="1125.46"/><path class="cls-14" d="M59,128.37c-13.12,0-13.12,20.41,0,20.41S72.15,128.37,59,128.37Z"/><rect class="cls-1" width="2000" height="1125.46"/><rect class="cls-1" width="2000" height="1125.46"/><rect class="cls-1" width="2000" height="1125.46"/><rect class="cls-1" width="2000" height="1125.46"/><rect class="cls-1" width="2000" height="1125.46"/><rect class="cls-1" width="2000" height="1125.46"/><rect class="cls-1" width="2000" height="1125.46"/><path class="cls-14" d="M1697.43,180.37c-2.18,0-2.18,3.44,0,3.44A1.72,1.72,0,0,0,1697.43,180.37Z"/><rect class="cls-1" width="2000" height="1125.46"/><rect class="cls-1" width="2000" height="1125.46"/><rect class="cls-1" width="2000" height="1125.46"/><rect class="cls-1" width="2000" height="1125.46"/><rect class="cls-1" width="2000" height="1125.46"/><rect class="cls-1" width="2000" height="1125.46"/><rect class="cls-1" width="2000" height="1125.46"/><rect class="cls-1" width="2000" height="1125.46"/><rect class="cls-1" width="2000" height="1125.46"/><path class="cls-14" d="M247.89,74.65a1.72,1.72,0,0,0,0,3.43A1.72,1.72,0,0,0,247.89,74.65Z"/><rect class="cls-1" width="2000" height="1125.46"/><rect class="cls-1" width="2000" height="1125.46"/><rect class="cls-1" width="2000" height="1125.46"/><rect class="cls-1" width="2000" height="1125.46"/><rect class="cls-1" width="2000" height="1125.46"/><rect class="cls-1" width="2000" height="1125.46"/><rect class="cls-1" width="2000" height="1125.46"/><rect class="cls-1" width="2000" height="1125.46"/><rect class="cls-1" width="2000" height="1125.46"/><rect class="cls-1" width="2000" height="1125.46"/><rect class="cls-1" width="2000" height="1125.46"/><rect class="cls-1" width="2000" height="1125.46"/><rect class="cls-1" width="2000" height="1125.46"/><rect class="cls-1" width="2000" height="1125.46"/><rect class="cls-1" width="2000" height="1125.46"/><rect class="cls-1" width="2000" height="1125.46"/><rect class="cls-1" width="2000" height="1125.46"/><rect class="cls-1" width="2000" height="1125.46"/><rect class="cls-1" width="2000" height="1125.46"/><rect class="cls-1" width="2000" height="1125.46"/><rect class="cls-1" width="2000" height="1125.46"/><rect class="cls-1" width="2000" height="1125.46"/><rect class="cls-1" width="2000" height="1125.46"/><path class="cls-14" d="M1678.13,109.26c-4.38,0-4.38,6.77,0,6.77S1682.5,109.26,1678.13,109.26Z"/><rect class="cls-1" width="2000" height="1125.46"/><path class="cls-14" d="M209.37,176.74c-4.37,0-4.37,6.77,0,6.77S213.74,176.74,209.37,176.74Z"/><rect class="cls-1" width="2000" height="1125.46"/><rect class="cls-1" width="2000" height="1125.46"/><rect class="cls-1" width="2000" height="1125.46"/><rect class="cls-1" width="2000" height="1125.46"/><rect class="cls-1" width="2000" height="1125.46"/><rect class="cls-1" width="2000" height="1125.46"/><rect class="cls-1" width="2000" height="1125.46"/><path class="cls-14" d="M1639.14,35.08c-6.56,0-6.56,10.2,0,10.2S1645.7,35.08,1639.14,35.08Z"/><rect class="cls-1" width="2000" height="1125.46"/><rect class="cls-1" width="2000" height="1125.46"/><rect class="cls-1" width="2000" height="1125.46"/><rect class="cls-1" width="2000" height="1125.46"/><rect class="cls-1" width="2000" height="1125.46"/><rect class="cls-1" width="2000" height="1125.46"/><rect class="cls-1" width="2000" height="1125.46"/><rect class="cls-1" width="2000" height="1125.46"/><rect class="cls-1" width="2000" height="1125.46"/><rect class="cls-1" width="2000" height="1125.46"/><rect class="cls-1" width="2000" height="1125.46"/><rect class="cls-1" width="2000" height="1125.46"/><rect class="cls-1" width="2000" height="1125.46"/><rect class="cls-1" width="2000" height="1125.46"/><rect class="cls-1" width="2000" height="1125.46"/></g></svg>