<?xml version="1.0" encoding="utf-8"?>
<!-- Generator: Adobe Illustrator 26.1.0, SVG Export Plug-In . SVG Version: 6.00 Build 0)  -->
<svg version="1.1" id="Camada_1" xmlns="http://www.w3.org/2000/svg" xmlns:xlink="http://www.w3.org/1999/xlink" x="0px" y="0px"
	 viewBox="0 0 2000 215" style="enable-background:new 0 0 2000 215;" xml:space="preserve">
<style type="text/css">
	.st0{clip-path:url(#SVGID_00000111884150036310151770000001585823638872817078_);}
	.st1{clip-path:url(#SVGID_00000008126975592876082810000005723476087011093418_);}
	.st2{fill:#3F5EA8;}
	.st3{fill:#39559A;}
	.st4{fill:#354C8C;}
	.st5{fill:#31447F;}
	.st6{fill:#2C3C73;}
	.st7{fill:#283467;}
	.st8{fill:#232D5C;}
	.st9{fill:#1F2752;}
	.st10{fill:#F2BA29;}
	.st11{fill:none;stroke:#EE7A25;stroke-width:3;stroke-miterlimit:10;}
	.st12{fill:#2CB4AF;}
	.st13{fill:#FFFFFF;}
</style>
<g>
	<defs>
		<rect id="SVGID_1_" y="0" width="2000" height="218.9"/>
	</defs>
	<clipPath id="SVGID_00000018951682343184211100000005332914804091668370_">
		<use xlink:href="#SVGID_1_"  style="overflow:visible;"/>
	</clipPath>
	<g style="clip-path:url(#SVGID_00000018951682343184211100000005332914804091668370_);">
		<g>
			<defs>
				<rect id="SVGID_00000157301720092060189610000016256204474484957355_" y="0" width="2003.3" height="1127.3"/>
			</defs>
			<use xlink:href="#SVGID_00000157301720092060189610000016256204474484957355_"  style="overflow:visible;fill:#3F5EA8;"/>
			<clipPath id="SVGID_00000066478404797970803280000012725390595026639274_">
				<use xlink:href="#SVGID_00000157301720092060189610000016256204474484957355_"  style="overflow:visible;"/>
			</clipPath>
			<g style="clip-path:url(#SVGID_00000066478404797970803280000012725390595026639274_);">
				<rect x="-17.4" y="9.1" class="st2" width="2045.4" height="1348.5"/>
			</g>
		</g>
		<circle class="st3" cx="567.4" cy="-96.4" r="1653.2"/>
		<circle class="st4" cx="324.3" cy="-271" r="1653.2"/>
		<circle class="st5" cx="81.2" cy="-445.8" r="1653.2"/>
		<circle class="st6" cx="-161.7" cy="-620.4" r="1653.2"/>
		<circle class="st7" cx="-404.8" cy="-795" r="1653.2"/>
		<circle class="st8" cx="-647.9" cy="-969.8" r="1653.2"/>
		<circle class="st9" cx="-890.9" cy="-1144.5" r="1653.2"/>
		<circle class="st10" cx="151" cy="59.1" r="123.6"/>
		<circle class="st11" cx="1897" cy="83.3" r="38.5"/>
		<circle class="st12" cx="1779.6" cy="189.5" r="134.9"/>
		<path class="st13" d="M209.8,168.7c-4.4,0-4.4,6.8,0,6.8S214.2,168.7,209.8,168.7z"/>
		<path class="st13" d="M1711.5,124.1c-4.4,0-4.4,6.8,0,6.8S1715.9,124.1,1711.5,124.1z"/>
		<path class="st13" d="M1686.7,33c-6.6,0-6.6,10.2,0,10.2S1693.2,33,1686.7,33z"/>
		<path class="st13" d="M54.7,157.9c-13.1,0-13.1,20.4,0,20.4S67.9,157.9,54.7,157.9z"/>
		<path class="st13" d="M87,118.3c-13.1,0-13.1,20.4,0,20.4S100.1,118.3,87,118.3z"/>
		<path class="st13" d="M205.6,85c-0.9,0-1.7,0.8-1.7,1.7s0.8,1.7,1.7,1.7C207.8,88.4,207.8,85,205.6,85z"/>
	</g>
</g>
</svg>
