<svg id="Camada_1" data-name="Camada 1" xmlns="http://www.w3.org/2000/svg" xmlns:xlink="http://www.w3.org/1999/xlink" viewBox="0 0 2000 215"><defs><style>.cls-1,.cls-13{fill:none;}.cls-2{clip-path:url(#clip-path);}.cls-3{clip-path:url(#clip-path-2);}.cls-4{fill:#86ccd2;}.cls-5{fill:#66c0be;}.cls-6{fill:#37b4aa;}.cls-7{fill:#02969c;}.cls-8{fill:teal;}.cls-9{fill:#006765;}.cls-10{fill:#005e5c;}.cls-11{fill:#005554;}.cls-12{fill:#c88e1a;}.cls-13{stroke:#782784;stroke-miterlimit:10;stroke-width:3px;}.cls-14{fill:#b21062;}.cls-15{fill:#fff;}</style><clipPath id="clip-path"><rect class="cls-1" width="2000" height="218.94"/></clipPath><clipPath id="clip-path-2"><rect class="cls-1" width="2003.28" height="1127.3"/></clipPath></defs><title>topobg2</title><g class="cls-2"><g class="cls-3"><rect class="cls-4" x="-17.42" y="9.07" width="2045.41" height="1348.48"/></g><circle class="cls-5" cx="567.4" cy="-96.36" r="1653.2"/><circle class="cls-6" cx="324.32" cy="-271.03" r="1653.2"/><circle class="cls-7" cx="81.24" cy="-445.81" r="1653.2"/><circle class="cls-8" cx="-161.74" cy="-620.38" r="1653.2"/><circle class="cls-9" cx="-404.83" cy="-795.05" r="1653.2"/><circle class="cls-10" cx="-647.91" cy="-969.83" r="1653.2"/><circle class="cls-11" cx="-890.89" cy="-1144.51" r="1653.2"/><circle class="cls-12" cx="151.03" cy="59.1" r="123.58"/><circle class="cls-13" cx="1897.01" cy="83.32" r="38.48"/><circle class="cls-14" cx="1779.57" cy="189.48" r="134.94"/><path class="cls-15" d="M209.82,168.7c-4.38,0-4.38,6.78,0,6.78S214.2,168.7,209.82,168.7Z"/><path class="cls-15" d="M1711.5,124.07c-4.38,0-4.38,6.78,0,6.78S1715.88,124.07,1711.5,124.07Z"/><path class="cls-15" d="M1686.67,33c-6.57,0-6.57,10.22,0,10.22S1693.24,33,1686.67,33Z"/><path class="cls-15" d="M54.73,157.87c-13.13,0-13.13,20.44,0,20.44S67.87,157.87,54.73,157.87Z"/><path class="cls-15" d="M87,118.33c-13.14,0-13.14,20.44,0,20.44S100.1,118.33,87,118.33Z"/><path class="cls-15" d="M205.6,85a1.72,1.72,0,0,0,0,3.44C207.79,88.36,207.79,85,205.6,85Z"/></g></svg>